<?xml version="1.0" standalone="no"?>
<!DOCTYPE svg PUBLIC "-//W3C//DTD SVG 1.1//EN" "http://www.w3.org/Graphics/SVG/1.1/DTD/svg11.dtd" >
<svg xmlns="http://www.w3.org/2000/svg" xmlns:xlink="http://www.w3.org/1999/xlink" version="1.1">
<metadata>
Created by FontForge 20160407 at Wed Aug 24 13:29:50 2016
 By Jimmy Warting
Yefimov Serif is a contemporary serif face, with low contrast, squarish shapes of round glyphs and emphasized businesslike nature. It is one of the last original faces by Vladimir Yefimov. Yefimov Serif will suit perfectly for business texts, periodicals and corporate identity. The typeface was completed by Maria Selezeneva and released by ParaType in 2014.
</metadata>
<defs>
<font id="YefimovSerif-Light" horiz-adv-x="530" >
  <font-face 
    font-family="Yefimov Serif Light"
    font-weight="300"
    font-stretch="normal"
    units-per-em="1000"
    panose-1="2 10 5 3 4 5 5 2 2 4"
    ascent="767"
    descent="-233"
    x-height="520"
    cap-height="700"
    bbox="-391 -241 1273 955"
    underline-thickness="50"
    underline-position="-100"
    stemh="48"
    stemv="70"
    unicode-range="U+0020-FEFF"
  />
<missing-glyph horiz-adv-x="233" 
 />
    <glyph glyph-name="afii10017.var.accented" unicode="&#x410;`" horiz-adv-x="680" 
d="M672 0h-227v32l67 18l8 15l-46 130h-293l-55 -153l72 -10v-32h-190v32l66 18l245 651h53l242 -660l58 -9v-32zM198 241h260l-127 361zM412 912h102l-142 -134h-46z" />
    <glyph glyph-name="afii10022.var.accented" unicode="&#x415;`" horiz-adv-x="580" 
d="M48 700h469l10 -123h-34l-33 69l-13 6h-241v-256h180l12 8l17 62h33v-189h-33l-17 63l-14 8h-178v-300h249l14 15l37 89h34l-19 -152h-473v32l66 18l14 20v589l-80 9v32zM367 912h102l-142 -134h-46z" />
    <glyph glyph-name="afii10026.var.accented" unicode="&#x418;`" horiz-adv-x="764" 
d="M557 634v24l-80 10v32h238v-32l-66 -18l-14 -20v-588l74 -10v-32h-232v32l67 18h-1l14 20v481l-351 -481v-28l80 -10v-32h-238v32l67 18h-1l14 20v588l-80 10v32h238v-32l-66 -18l-14 -20v-476zM448 912h102l-142 -134h-46z" />
    <glyph glyph-name="afii10032.var.accented" unicode="&#x41e;`" horiz-adv-x="719" 
d="M72 350c0 99 9 220 85 297c58 59 126 69 202 69c77 0 145 -10 203 -69c76 -77 85 -198 85 -297c0 -124 -18 -230 -85 -298c-57 -58 -127 -68 -203 -68c-75 0 -145 10 -202 68c-67 68 -85 174 -85 298zM156 350c0 -58 3 -189 59 -260c35 -45 82 -60 144 -60
c63 0 110 15 145 60c56 71 59 202 59 260c0 89 -9 194 -59 259c-36 47 -81 61 -145 61c-63 0 -108 -14 -144 -61c-56 -72 -59 -196 -59 -259zM414 912h102l-142 -134h-46z" />
    <glyph glyph-name="afii10037.var.accented" unicode="&#x423;`" horiz-adv-x="680" 
d="M539 654l-65 13v33h193v-33l-69 -18l-205 -509c-23 -56 -45 -96 -63 -115c-35 -37 -65 -41 -103 -41c-32 0 -69 4 -111 21l23 119h38l18 -78c8 -6 29 -16 43 -16c54 0 87 76 100 113l13 37l-269 478l-70 10v32h235v-32l-60 -20l-4 -16l207 -362zM428 912h102l-142 -134
h-46z" />
    <glyph glyph-name="afii10045.var.accented" unicode="&#x42b;`" horiz-adv-x="900" 
d="M770 630v-588l80 -10v-32h-237v32l66 18l14 20v588l-80 10v32h237v-32l-66 -18zM345 347h-139v-299h139c100 0 160 39 160 146c0 105 -52 153 -160 153zM206 630v-235h138c145 0 245 -35 245 -196c0 -56 -14 -112 -62 -152c-53 -45 -122 -47 -183 -47h-295v32l65 18
l14 20v588l-79 10v32h237v-32l-67 -18h1zM517 912h102l-142 -134h-46z" />
    <glyph glyph-name="afii10047.var.accented" unicode="&#x42d;`" horiz-adv-x="614" 
d="M260 -16c-93 0 -169 20 -204 34l-10 147h37l32 -106c38 -20 100 -29 142 -29c138 0 196 106 199 307h-199l-14 -8l-17 -63h-33v189h33l17 -62l12 -8h201c-3 140 -21 285 -196 285c-43 0 -80 -7 -118 -24l-40 -108h-37l12 153c63 15 128 25 180 25
c241 0 284 -145 284 -358c0 -220 -57 -374 -281 -374zM335 912h102l-142 -134h-46z" />
    <glyph glyph-name="afii10048.var.accented" unicode="&#x42e;`" horiz-adv-x="992" 
d="M206 42l80 -10v-32h-237v32l65 18l14 20v588l-79 10v32h237v-32l-66 -18l-14 -20v-233h139c3 87 20 185 83 250c58 59 126 69 203 69s144 -10 202 -69c76 -77 85 -198 85 -297c0 -124 -18 -230 -85 -298c-57 -58 -126 -68 -202 -68s-146 10 -203 68
c-63 65 -83 179 -84 297h-138v-307zM427 350c0 -58 3 -189 59 -260c35 -45 82 -60 145 -60s110 15 144 60c56 71 59 202 59 260c0 89 -9 194 -59 259c-35 47 -80 61 -144 61s-109 -14 -145 -61c-56 -72 -59 -196 -59 -259zM525 912h102l-142 -134h-46z" />
    <glyph glyph-name="afii10049.var.accented" unicode="&#x42f;`" horiz-adv-x="674" 
d="M453 50l14 20v247h-129l-174 -288v-29h-150v32l69 19l175 274c-48 2 -95 16 -122 36c-50 39 -60 95 -60 138c0 147 84 201 245 201h304v-32l-66 -18l-14 -20v-588l80 -10v-32h-238v32zM160 504c0 -91 37 -139 155 -139h152v287h-152c-105 0 -155 -38 -155 -148zM425 912
h102l-142 -134h-46z" />
    <glyph glyph-name="afii10023.var.accented" unicode="&#x401;`" horiz-adv-x="580" 
d="M332 912h92l-119 -134h-40zM144 811c0 30 23 53 54 53c30 0 53 -23 53 -53c0 -31 -23 -54 -53 -54c-31 0 -54 23 -54 54zM381 811c0 30 23 53 54 53c30 0 53 -23 53 -53c0 -31 -23 -54 -53 -54c-31 0 -54 23 -54 54zM48 700h469l10 -123h-34l-33 69l-13 6h-241v-256h180
l12 8l17 62h33v-189h-33l-17 63l-14 8h-178v-300h249l14 15l37 89h34l-19 -152h-473v32l66 18l14 20v589l-80 9v32z" />
    <glyph glyph-name="afii10065.var.accented" unicode="&#x430;`" horiz-adv-x="541" 
d="M90 386l-10 124c57 13 125 22 185 22c129 0 177 -35 178 -191l1 -302l73 -11v-28l-51 -4c-30 -2 -62 -5 -93 -8v70c-57 -52 -129 -70 -184 -70c-27 0 -70 1 -101 30c-24 22 -40 64 -40 114c0 48 23 88 41 105c36 33 97 40 140 45l17 2l127 16v48c0 103 -24 142 -131 142
c-14 0 -56 -3 -87 -14l-31 -90h-34zM373 111v145c-160 -19 -202 -26 -223 -47c-25 -26 -25 -62 -25 -79c0 -72 34 -100 84 -100c65 0 134 54 164 81zM310 750h97l-141 -163h-39z" />
    <glyph glyph-name="afii10070.var.accented" unicode="&#x435;`" horiz-adv-x="542" 
d="M493 289l-353 -49c2 -107 33 -210 162 -210c70 0 133 23 174 47l14 -37c-84 -43 -153 -51 -203 -51c-176 0 -227 101 -227 271c0 58 6 159 69 219c51 50 126 53 164 53c39 0 100 -4 147 -51c45 -46 53 -130 53 -183v-9zM139 283l279 37c-2 31 -9 90 -28 121
c-26 44 -65 49 -103 49c-114 0 -148 -93 -148 -198v-9zM357 750h97l-141 -163h-39z" />
    <glyph glyph-name="afii10074.var.accented" unicode="&#x438;`" horiz-adv-x="616" 
d="M510 459v-417l74 -14v-28h-213v28l63 18l6 15v313l-265 -288v-44l74 -14v-28h-213v27l64 19l6 15v417l-74 14v28h213v-28l-64 -18l-6 -15v-308l265 287v40l-73 14v28h213v-28l-64 -18zM375 750h97l-141 -163h-39z" />
    <glyph glyph-name="afii10080.var.accented" unicode="&#x43e;`" horiz-adv-x="575" 
d="M60 260c0 71 7 165 63 221c49 49 120 51 164 51c42 0 117 -2 166 -51c60 -60 62 -171 62 -221s-2 -161 -62 -221c-49 -49 -124 -51 -166 -51c-44 0 -115 2 -164 51c-56 56 -63 150 -63 221zM136 260c0 -52 5 -144 40 -187c29 -36 75 -43 111 -43c37 0 83 7 112 43
c35 43 40 135 40 187s-5 144 -40 187c-29 36 -75 43 -112 43c-36 0 -82 -7 -111 -43c-35 -43 -40 -135 -40 -187zM349 750h97l-141 -163h-39z" />
    <glyph glyph-name="afii10085.var.accented" unicode="&#x443;`" horiz-adv-x="578" 
d="M500 474l-194 -557c-28 -80 -73 -148 -171 -148c-27 0 -61 6 -96 20l26 99h33l18 -72c5 -1 12 -2 17 -2c68 0 106 46 125 110l21 70l-195 484l-68 14v28h213v-27l-61 -16l152 -382l128 383l-70 14v28h184v-28zM369 750h97l-141 -163h-39z" />
    <glyph glyph-name="afii10093.var.accented" unicode="&#x44b;`" horiz-adv-x="749" 
d="M574 61v417l-74 14v28h213v-28l-64 -18l-6 -15v-417l74 -14v-28h-213v28l64 18zM36 0v28l63 18l6 15v417l-73 14v28h213v-28l-64 -18l-6 -15v-160h124c101 0 183 -27 183 -151c0 -26 -7 -77 -41 -110c-35 -33 -98 -38 -132 -38h-273zM175 255v-211h126
c59 0 107 23 107 104c0 80 -42 107 -120 107h-113zM440 750h97l-141 -163h-39z" />
    <glyph glyph-name="afii10095.var.accented" unicode="&#x44d;`" horiz-adv-x="501" 
d="M214 -12c-53 0 -102 9 -157 22l-11 115h34l35 -76c14 -7 51 -19 94 -19c135 0 153 99 156 221h-217v44h217c-2 93 -28 195 -143 195c-31 0 -73 -6 -91 -15l-36 -85h-33l10 122c55 14 112 20 158 20c179 0 211 -117 211 -272c0 -170 -48 -272 -227 -272zM291 750h97
l-141 -163h-39z" />
    <glyph glyph-name="afii10096.var.accented" unicode="&#x44e;`" horiz-adv-x="819" 
d="M32 520h213v-28l-64 -18l-6 -15v-160h130c3 63 17 136 62 182c49 49 120 51 165 51c42 0 116 -2 165 -51c60 -60 62 -171 62 -221s-2 -161 -62 -221c-49 -49 -123 -51 -165 -51c-45 0 -116 2 -165 51c-51 52 -61 147 -62 216h-130v-213l74 -14v-28h-213v28l63 18l6 15
v417l-73 14v28zM380 260c0 -52 5 -144 40 -187c29 -36 75 -43 112 -43s82 7 111 43c35 43 40 135 40 187s-5 144 -40 187c-29 36 -74 43 -111 43s-83 -7 -112 -43c-35 -43 -40 -135 -40 -187zM432 750h97l-141 -163h-39z" />
    <glyph glyph-name="afii10097.var.accented" unicode="&#x44f;`" horiz-adv-x="535" 
d="M264 272h95v204h-109c-63 0 -109 -20 -109 -104c0 -81 47 -100 123 -100zM76 42l131 190c-76 8 -140 35 -140 138c0 110 75 150 181 150h251v-28l-64 -18l-6 -15v-417l74 -14v-28h-214v28l64 18l6 15v167h-83l-130 -198v-30h-130v28zM350 750h97l-141 -163h-39z" />
    <glyph glyph-name="afii10071.var.accented" unicode="&#x451;`" horiz-adv-x="542" 
d="M493 289l-353 -49c2 -107 33 -210 162 -210c70 0 133 23 174 47l14 -37c-84 -43 -153 -51 -203 -51c-176 0 -227 101 -227 271c0 58 6 159 69 219c51 50 126 53 164 53c39 0 100 -4 147 -51c45 -46 53 -130 53 -183v-9zM139 283l279 37c-2 31 -9 90 -28 121
c-26 44 -65 49 -103 49c-114 0 -148 -93 -148 -198v-9zM345 910h97l-141 -163h-39zM337 692c0 30 20 51 50 51c29 0 50 -21 50 -51c0 -28 -21 -49 -50 -49s-50 20 -50 49zM142 692c0 30 20 51 50 51c29 0 50 -21 50 -51c0 -28 -21 -49 -50 -49s-50 20 -50 49z" />
    <glyph glyph-name="fi" unicode="fi" horiz-adv-x="605" 
d="M420 643l-9 62c-29 11 -66 14 -87 14c-96 0 -147 -49 -147 -164v-35h252l71 11v-489l73 -14v-28h-213v28l64 18l6 15v415h-253v-434l88 -14v-28h-227v28l64 18l5 15v415h-85v44h85v41c0 128 79 200 222 200c89 0 185 -6 185 -77c0 -29 -21 -49 -51 -49c-16 0 -26 3 -43 8
z" />
    <glyph glyph-name="fl" unicode="fl" horiz-adv-x="587" 
d="M413 639h-19l-20 67c-32 12 -73 13 -100 13c-79 0 -96 -46 -96 -139v-60h141l-9 -44h-132v-434l88 -14v-28h-228v28l64 18l5 15v415h-85v44h85v61c0 128 53 180 179 180c39 0 108 -12 143 -21l54 22v-720l73 -14v-28h-213v28l64 18l6 15v578z" />
    <glyph glyph-name=".notdef" horiz-adv-x="233" 
 />
    <glyph glyph-name="space" unicode=" " horiz-adv-x="233" 
 />
    <glyph glyph-name="exclam" unicode="!" horiz-adv-x="280" 
d="M103 700h80v-118l1 -115l-23 -268h-35l-25 269l1 115zM86 44c0 32 25 57 57 57s56 -25 56 -57c0 -31 -24 -56 -56 -56s-57 25 -57 56z" />
    <glyph glyph-name="quotedbl" unicode="&#x22;" horiz-adv-x="400" 
d="M166 709l-28 -201h-33l-28 201h89zM332 709l-28 -201h-32l-28 201h88z" />
    <glyph glyph-name="numbersign" unicode="#" horiz-adv-x="531" 
d="M436 573l-22 -103h77l-15 -62h-75l-33 -149h78l-15 -62h-76l-19 -91h-49l19 91h-126l-19 -91h-50l19 91h-90l16 62h87l32 149h-91l16 61h88l22 104h51l-22 -103h124l22 103h51zM194 259h124l32 149h-125z" />
    <glyph glyph-name="dollar" unicode="$" horiz-adv-x="553" 
d="M257 803h56v-80c66 0 112 -10 177 -35l-24 -126h-37l-21 83c-27 16 -52 28 -95 29v-277l49 -19c40 -16 84 -38 112 -71c35 -41 41 -85 41 -121c0 -34 -5 -98 -60 -147c-42 -37 -91 -53 -142 -54v-88h-56v88c-71 0 -148 17 -207 38l27 113h36l19 -86
c35 -11 90 -18 125 -18v297l-25 9c-154 55 -181 111 -181 192c0 124 90 182 206 193v80zM313 313v-279c81 5 122 31 122 137c0 33 -6 61 -31 86c-21 21 -55 43 -91 56zM257 412v262c-81 -1 -129 -49 -129 -120c0 -37 11 -69 39 -95c21 -20 58 -37 90 -47z" />
    <glyph glyph-name="percent" unicode="%" horiz-adv-x="900" 
d="M196 718c34 0 83 -4 114 -38c39 -44 41 -130 41 -181c0 -53 -2 -137 -41 -181c-29 -33 -79 -38 -114 -38c-34 0 -86 4 -114 37c-41 47 -43 130 -43 182s1 134 43 181c33 35 80 38 114 38zM196 321c78 0 91 56 91 178c0 115 -3 179 -91 179c-75 0 -92 -52 -92 -179
c0 -134 22 -178 92 -178zM160 -78l-41 26l627 844l41 -28zM706 427c34 0 80 -3 113 -40c40 -43 41 -126 41 -180c0 -52 -1 -138 -41 -181c-30 -33 -79 -37 -113 -37c-32 0 -89 4 -118 40c-35 43 -40 128 -40 178c0 53 1 135 43 180c34 37 81 40 115 40zM706 30
c76 0 89 56 89 177c0 116 -3 178 -89 178c-75 0 -91 -50 -91 -178c0 -134 21 -177 91 -177z" />
    <glyph glyph-name="ampersand" unicode="&#x26;" horiz-adv-x="734" 
d="M631 42l79 -10v-32h-158v26l-59 61c-44 -48 -121 -101 -216 -101c-152 0 -237 83 -237 194c0 88 45 155 164 202c-71 75 -98 116 -98 174c0 98 70 160 199 160c103 0 163 -44 163 -149c0 -72 -47 -131 -161 -181c65 -70 136 -143 202 -212c39 55 68 116 82 166l-9 16
l-76 10v32h208v-32l-64 -18c-27 -73 -61 -152 -108 -213zM182 565c0 -34 14 -73 95 -149c100 40 122 96 122 147c0 72 -34 107 -105 107c-64 0 -112 -34 -112 -105zM459 118l-225 234c-73 -38 -108 -83 -108 -150c0 -99 67 -161 165 -161c80 0 129 38 168 77z" />
    <glyph glyph-name="quotesingle" unicode="'" horiz-adv-x="230" 
d="M161 709l-28 -201h-33l-28 201h89z" />
    <glyph glyph-name="parenleft" unicode="(" horiz-adv-x="400" 
d="M309 721l34 -20c-43 -64 -71 -128 -89 -188c-23 -76 -37 -173 -37 -255c0 -81 14 -178 37 -254c18 -61 46 -125 89 -189l-34 -19c-131 174 -182 252 -182 462c0 171 68 328 182 463z" />
    <glyph glyph-name="parenright" unicode=")" horiz-adv-x="400" 
d="M84 701l34 20c115 -135 182 -292 182 -463c0 -210 -50 -290 -182 -462l-34 19c43 64 72 128 90 189c23 76 37 173 37 254c0 82 -14 179 -37 255c-18 60 -47 124 -90 188z" />
    <glyph glyph-name="asterisk" unicode="*" horiz-adv-x="540" 
d="M287 548h-26l-56 -103l-55 43l84 79l-14 28l-113 22l25 65l101 -56l24 21l-18 114h68l-18 -114l24 -21l101 56l25 -65l-113 -22l-14 -28l85 -79l-55 -43z" />
    <glyph glyph-name="plus" unicode="+" 
d="M291 281v-203h-52v203h-205v52h205v203h52v-203h204v-52h-204z" />
    <glyph glyph-name="comma" unicode="," horiz-adv-x="280" 
d="M82 -169l-33 17c31 80 49 164 50 269v7l95 -16c-19 -97 -52 -202 -112 -277z" />
    <glyph glyph-name="hyphen" unicode="-" horiz-adv-x="403" 
d="M60 331h283v-62h-283v62z" />
    <glyph glyph-name="period" unicode="." horiz-adv-x="280" 
d="M86 44c0 32 25 57 57 57s56 -25 56 -57c0 -31 -24 -56 -56 -56s-57 25 -57 56z" />
    <glyph glyph-name="slash" unicode="/" horiz-adv-x="680" 
d="M590 721l47 -21l-528 -904l-30 14l-17 7z" />
    <glyph glyph-name="zero" unicode="0" horiz-adv-x="543" 
d="M273 716c53 0 113 -4 162 -62c57 -68 63 -177 63 -300c0 -122 -6 -240 -63 -308c-48 -57 -108 -62 -162 -62s-116 5 -164 62c-57 69 -64 187 -64 308c0 122 7 231 64 300c49 58 111 62 164 62zM273 28c123 0 141 111 141 326c0 154 3 318 -139 318
c-134 0 -145 -103 -145 -318c0 -213 23 -326 143 -326z" />
    <glyph glyph-name="one" unicode="1" horiz-adv-x="427" 
d="M193 70v521l-189 -21v32c73 9 161 33 242 114h24v-674l138 -10v-32h-372v32l142 18z" />
    <glyph glyph-name="two" unicode="2" horiz-adv-x="509" 
d="M114 72h289l35 84h31l-26 -156h-435l1 28l239 258c65 70 119 151 119 242c0 96 -53 141 -146 141c-39 0 -77 -5 -112 -23l-18 -102h-37l-27 110c69 45 136 62 207 62c120 0 217 -43 217 -174c0 -102 -62 -171 -143 -259z" />
    <glyph glyph-name="three" unicode="3" horiz-adv-x="504" 
d="M65 700h386v-31l-189 -259c47 -2 106 -15 138 -37c62 -42 71 -114 71 -165c0 -77 -28 -136 -81 -177c-55 -42 -131 -47 -182 -47c-61 0 -124 14 -181 38l27 114h36l16 -84c25 -11 69 -22 98 -22c120 0 183 58 183 175c0 39 -4 87 -35 123c-23 26 -60 41 -114 41
c-10 0 -26 -1 -39 -3v38l157 224h-245l-31 -94h-35z" />
    <glyph glyph-name="four" unicode="4" horiz-adv-x="520" 
d="M276 716l92 -16c-89 -174 -180 -331 -288 -495h255v215l79 34v-249h85v-47h-85v-158h-79v158h-329v26c104 174 195 345 270 532z" />
    <glyph glyph-name="five" unicode="5" horiz-adv-x="511" 
d="M203 30c116 0 183 53 183 184c0 111 -49 167 -189 167c-45 0 -80 -5 -114 -12l29 331h348v-72h-304l-18 -203c28 2 64 4 92 4c57 0 120 -8 169 -46c58 -45 72 -107 72 -165c0 -50 -13 -130 -82 -185c-54 -43 -130 -49 -182 -49c-61 0 -124 14 -181 38l27 114h36l16 -84
c25 -11 69 -22 98 -22z" />
    <glyph glyph-name="six" unicode="6" horiz-adv-x="514" 
d="M412 699c-132 -108 -207 -209 -243 -298c44 17 83 18 112 18c127 0 204 -65 204 -202c0 -146 -77 -233 -228 -233c-129 0 -223 66 -223 208c0 230 151 398 338 525zM251 375c-39 0 -64 -6 -103 -24c-7 -17 -29 -78 -29 -150c0 -86 30 -173 137 -173c113 0 145 75 145 181
c0 101 -39 166 -150 166z" />
    <glyph glyph-name="seven" unicode="7" horiz-adv-x="500" 
d="M92 628l-40 -101h-35l21 173h462v-30c-130 -192 -226 -451 -305 -686l-92 14c94 217 192 434 314 630h-325z" />
    <glyph glyph-name="eight" unicode="8" horiz-adv-x="519" 
d="M40 161c0 92 64 156 162 201c-29 15 -60 37 -78 53c-31 29 -59 69 -59 129c0 126 87 172 203 172c97 0 190 -25 190 -156c0 -87 -69 -148 -142 -183l13 -7c88 -47 150 -91 150 -192c0 -133 -93 -194 -219 -194c-118 0 -220 43 -220 177zM188 459c19 -19 64 -46 88 -58
c72 44 117 84 117 161c0 74 -43 109 -123 109c-82 0 -125 -37 -125 -108c0 -41 19 -80 43 -104zM395 164c0 92 -72 129 -154 173c-80 -46 -138 -91 -138 -173c0 -103 76 -134 156 -134c58 0 136 25 136 134z" />
    <glyph glyph-name="nine" unicode="9" horiz-adv-x="514" 
d="M102 1c133 108 206 209 243 297c-45 -16 -82 -17 -111 -17c-128 0 -205 65 -205 202c0 146 77 233 229 233c128 0 222 -66 222 -208c0 -230 -151 -398 -338 -525zM264 325c38 0 63 5 101 23c7 17 30 78 30 151c0 86 -30 173 -136 173c-114 0 -146 -75 -146 -181
c0 -101 39 -166 151 -166z" />
    <glyph glyph-name="colon" unicode=":" horiz-adv-x="280" 
d="M86 44c0 32 25 57 57 57s56 -25 56 -57c0 -31 -24 -56 -56 -56s-57 25 -57 56zM86 465c0 32 25 57 57 57s56 -25 56 -57c0 -31 -24 -56 -56 -56s-57 25 -57 56z" />
    <glyph glyph-name="semicolon" unicode=";" horiz-adv-x="280" 
d="M86 465c0 32 25 57 57 57s56 -25 56 -57c0 -31 -24 -56 -56 -56s-57 25 -57 56zM82 -169l-33 17c31 80 49 164 50 269v7l95 -16c-19 -97 -52 -202 -112 -277z" />
    <glyph glyph-name="less" unicode="&#x3c;" horiz-adv-x="706" 
d="M632 605l16 -49l-506 -247l507 -246l-17 -50l-573 280v32z" />
    <glyph glyph-name="equal" unicode="=" 
d="M34 431h461v-52h-461v52zM34 229h461v-52h-461v52z" />
    <glyph glyph-name="greater" unicode="&#x3e;" horiz-adv-x="706" 
d="M60 556l16 49l573 -280v-32l-573 -280l-17 50l507 246z" />
    <glyph glyph-name="question" unicode="?" horiz-adv-x="480" 
d="M311 345c-48 -43 -68 -58 -68 -146h-39v101l93 108c33 39 59 79 59 135c0 92 -42 125 -135 125c-30 0 -64 -9 -83 -20l-21 -96h-39l-28 111c60 39 122 53 184 53c114 0 207 -32 207 -163c0 -85 -43 -127 -80 -161zM170 44c0 32 25 57 57 57s56 -25 56 -57
c0 -31 -24 -56 -56 -56s-57 25 -57 56z" />
    <glyph glyph-name="at" unicode="@" horiz-adv-x="760" 
d="M556 327l-49 -208c-6 -26 -9 -43 -9 -52c0 -27 21 -43 51 -43c41 0 70 17 88 40c37 46 42 117 42 139c0 194 -99 291 -294 291c-185 0 -300 -122 -300 -324c0 -164 91 -338 315 -338c94 0 149 25 189 53l17 -33c-36 -27 -100 -59 -209 -59c-95 0 -180 22 -256 95
c-82 81 -108 179 -108 285c0 202 139 360 351 360c196 0 341 -101 341 -327c0 -39 -11 -111 -57 -162c-25 -28 -73 -55 -130 -55c-45 0 -78 9 -102 51c-35 -37 -73 -51 -105 -51c-30 0 -65 10 -87 31c-30 29 -41 77 -41 118c0 55 23 118 66 160c39 37 89 47 130 47
c35 0 63 -7 88 -18h69zM435 84l46 196c-27 18 -51 27 -78 27c-95 0 -132 -81 -132 -175c0 -29 3 -102 69 -102c26 0 62 17 95 54z" />
    <glyph glyph-name="A" unicode="A" horiz-adv-x="680" 
d="M672 0h-227v32l67 18l8 15l-46 130h-293l-55 -153l72 -10v-32h-190v32l66 18l245 651h53l242 -660l58 -9v-32zM198 241h260l-127 361z" />
    <glyph glyph-name="B" unicode="B" horiz-adv-x="670" 
d="M206 48h180c99 0 154 42 154 150c0 96 -54 145 -154 145h-180v-295zM347 652h-141v-263h164c90 0 128 56 128 135c0 84 -39 128 -151 128zM382 0h-334v32l67 18h-1l14 20v588l-80 10v32h326c116 0 211 -32 211 -167c0 -67 -45 -132 -116 -157v-3c92 -17 157 -76 157 -182
c0 -152 -118 -191 -244 -191z" />
    <glyph glyph-name="C" unicode="C" horiz-adv-x="620" 
d="M562 691l10 -151h-37l-39 106c-31 14 -76 24 -122 24c-189 0 -218 -138 -218 -319c0 -165 31 -224 55 -255c42 -53 112 -66 159 -66c49 0 86 13 117 26l55 86h37l-35 -122c-41 -18 -97 -36 -183 -36c-51 0 -148 6 -211 69c-67 67 -78 196 -78 297c0 249 93 366 308 366
c43 0 117 -8 182 -25z" />
    <glyph glyph-name="D" unicode="D" horiz-adv-x="732" 
d="M206 652v-604h147c180 0 223 128 223 303c0 102 -14 188 -59 242c-43 53 -109 59 -168 59h-143zM128 658l-80 10v32h300c81 0 175 -8 236 -65c75 -71 76 -189 76 -284c0 -217 -81 -351 -307 -351h-305v32l67 18h-1l14 20v588z" />
    <glyph glyph-name="E" unicode="E" horiz-adv-x="580" 
d="M48 700h469l10 -123h-34l-33 69l-13 6h-241v-256h180l12 8l17 62h33v-189h-33l-17 63l-14 8h-178v-300h249l14 15l37 89h34l-19 -152h-473v32l66 18l14 20v589l-80 9v32z" />
    <glyph glyph-name="F" unicode="F" horiz-adv-x="536" 
d="M206 369h180l12 8l17 62h33v-189h-33l-17 63l-14 8h-178v-279l89 -10v-32h-247v32l66 18l14 20v589l-80 9v32h452l10 -123h-34l-33 69l-13 6h-224v-283z" />
    <glyph glyph-name="G" unicode="G" horiz-adv-x="700" 
d="M370 670c-189 0 -215 -140 -215 -321c0 -165 30 -225 55 -255c41 -50 104 -64 150 -64c20 0 105 7 144 29v229l-88 10v33h245v-33l-66 -18l-14 -20v-220c-81 -48 -158 -56 -225 -56c-250 0 -284 156 -284 363c0 252 89 369 304 369c43 0 135 -7 200 -24l9 -151h-37
l-39 107c-31 14 -93 22 -139 22z" />
    <glyph glyph-name="H" unicode="H" horiz-adv-x="752" 
d="M206 42l80 -10v-32h-238v32l66 18l14 20v588l-80 10v32h238v-32l-66 -18l-14 -20v-233h339v261l-80 10v32h238v-32l-66 -18l-14 -20v-588l80 -10v-32h-238v32l66 18l14 20v279h-339v-307z" />
    <glyph glyph-name="I" unicode="I" horiz-adv-x="334" 
d="M206 630v-588l79 -10v-32h-237v32l66 18l14 20v588l-80 10v32h237v-32l-65 -18z" />
    <glyph glyph-name="J" unicode="J" horiz-adv-x="444" 
d="M250 208v450l-80 10v32h237v-32l-66 -18l-14 -20v-422c0 -51 0 -135 -48 -181c-40 -38 -99 -43 -137 -43c-33 0 -65 4 -123 16l11 134h34l22 -92c19 -9 37 -12 54 -12c104 0 110 91 110 178z" />
    <glyph glyph-name="K" unicode="K" horiz-adv-x="668" 
d="M206 631v-257l260 269v15l-64 10v32h234v-32l-102 -26h1l-254 -255l295 -345l73 -10v-32h-168v30l-275 335v-323l80 -10v-32h-238v32l66 18l14 20v588l-80 10v32h238v-32l-67 -18z" />
    <glyph glyph-name="L" unicode="L" horiz-adv-x="550" 
d="M206 48h249l14 15l37 89h35l-19 -152h-474v32l66 18l14 20v588l-80 10v32h238v-32l-66 -18l-14 -20v-582z" />
    <glyph glyph-name="M" unicode="M" horiz-adv-x="864" 
d="M133 70v588l-80 10v32h187l198 -465l201 465h175v-32l-66 -18l-13 -19v-589l79 -10v-32h-237v32l67 18h-1l14 20v547h-2l-211 -482h-44l-212 490h-2v-583l76 -10v-32h-214v32l71 18z" />
    <glyph glyph-name="N" unicode="N" horiz-adv-x="760" 
d="M181 42l80 -10v-32h-213v31l66 18l14 16v591l-80 10v34h181l359 -566v524l-80 10v32h212v-32l-65 -18l-14 -19v-631h-59l-401 628v-586z" />
    <glyph glyph-name="O" unicode="O" horiz-adv-x="719" 
d="M72 350c0 99 9 220 85 297c58 59 126 69 202 69c77 0 145 -10 203 -69c76 -77 85 -198 85 -297c0 -124 -18 -230 -85 -298c-57 -58 -127 -68 -203 -68c-75 0 -145 10 -202 68c-67 68 -85 174 -85 298zM156 350c0 -58 3 -189 59 -260c35 -45 82 -60 144 -60
c63 0 110 15 145 60c56 71 59 202 59 260c0 89 -9 194 -59 259c-36 47 -81 61 -145 61c-63 0 -108 -14 -144 -61c-56 -72 -59 -196 -59 -259z" />
    <glyph glyph-name="P" unicode="P" horiz-adv-x="634" 
d="M206 652v-304h137c110 0 171 29 171 157c0 119 -59 147 -171 147h-137zM48 700h315c144 0 234 -37 234 -196c0 -151 -92 -204 -234 -204h-157v-258l89 -10v-32h-247v32l66 18l14 20v588l-80 10v32z" />
    <glyph glyph-name="Q" unicode="Q" horiz-adv-x="719" 
d="M72 350c0 99 9 220 85 297c58 59 126 69 203 69c76 0 144 -10 202 -69c76 -77 85 -198 85 -297c0 -124 -18 -230 -85 -298c-16 -16 -35 -29 -52 -39c30 -33 83 -77 133 -111c59 -39 111 -64 182 -65v-33h-112c-60 17 -120 43 -180 84c-47 33 -91 74 -115 99
c-18 -2 -39 -3 -58 -3c-76 0 -146 10 -203 68c-67 68 -85 174 -85 298zM156 350c0 -58 3 -189 59 -260c35 -45 82 -60 145 -60c62 0 109 15 144 60c56 71 59 202 59 260c0 89 -9 194 -59 259c-36 47 -81 61 -144 61c-64 0 -109 -14 -145 -61c-56 -72 -59 -196 -59 -259z" />
    <glyph glyph-name="R" unicode="R" horiz-adv-x="660" 
d="M519 513c0 119 -63 139 -174 139h-139v-280h161c93 0 152 40 152 141zM583 42l58 -10v-32h-139v30l-191 294h-105v-282l80 -10v-32h-238v32l67 18h-1l14 20v588l-80 10v32h316c144 0 234 -37 234 -188c0 -125 -87 -178 -203 -187z" />
    <glyph glyph-name="S" unicode="S" horiz-adv-x="540" 
d="M459 691l9 -150h-38l-38 106c-38 19 -73 23 -107 23c-95 0 -148 -44 -148 -137c0 -74 36 -98 114 -125l88 -30c99 -34 154 -92 154 -192c0 -138 -97 -202 -228 -202c-78 0 -156 12 -209 32l-11 155h38l43 -113c50 -22 101 -28 137 -28c90 0 146 48 146 144
c0 52 -16 106 -120 142l-80 27c-102 35 -158 88 -158 180c0 135 89 193 225 193c57 0 115 -7 183 -25z" />
    <glyph glyph-name="T" unicode="T" horiz-adv-x="580" 
d="M16 544l14 156h521l14 -156h-36l-35 98l-14 10h-152v-610l80 -10v-32h-237v32l66 18l14 20v582h-153l-12 -8l-35 -100h-35z" />
    <glyph glyph-name="U" unicode="U" horiz-adv-x="710" 
d="M545 229v429l-80 10v32h213v-32l-65 -17l-14 -18v-408c0 -167 -63 -241 -246 -241c-182 0 -241 53 -241 241v433l-80 10v32h241v-32l-67 -18l-16 -16v-405c0 -142 25 -199 175 -199c125 0 180 48 180 199z" />
    <glyph glyph-name="V" unicode="V" horiz-adv-x="680" 
d="M319 0l-236 658l-69 10v32h224v-32l-59 -20l-4 -17l184 -514l183 537l-65 13v33h189v-33l-65 -14l-230 -653h-52z" />
    <glyph glyph-name="W" unicode="W" horiz-adv-x="960" 
d="M827 654l-64 13v33h183v-33l-67 -14l-157 -653h-52l-193 582l-197 -582h-53l-144 658l-68 10v32h214v-32l-59 -20l-4 -16l111 -504l194 573h44l194 -573z" />
    <glyph glyph-name="X" unicode="X" horiz-adv-x="640" 
d="M474 65l-159 257l-171 -280l79 -10v-32h-212v32l72 21l201 317l-182 288l-69 10v32h239v-32l-59 -20l-5 -16l127 -207l140 229l-64 13v33h189v-33l-65 -15l-172 -269l216 -341l50 -10v-32h-234v31l66 19z" />
    <glyph glyph-name="Y" unicode="Y" horiz-adv-x="640" 
d="M178 631l158 -307l175 330l-65 13v33h182v-33l-61 -14l-206 -386v-225l80 -10v-32h-237v31l66 19l14 20v199l-204 389l-69 10v32h231v-32l-59 -20z" />
    <glyph glyph-name="Z" unicode="Z" horiz-adv-x="588" 
d="M140 48h329l14 14l37 89h34l-18 -151h-502v26l399 626h-281l-12 -8l-35 -99h-35l14 155h450v-29z" />
    <glyph glyph-name="bracketleft" unicode="[" horiz-adv-x="440" 
d="M131 725h219v-44h-145v-845h145v-43h-219v932z" />
    <glyph glyph-name="backslash" unicode="\" horiz-adv-x="680" 
d="M62 700l47 21l528 -904l-47 -21z" />
    <glyph glyph-name="bracketright" unicode="]" horiz-adv-x="440" 
d="M120 725h219v-932h-219v43h146v845h-146v44z" />
    <glyph glyph-name="asciicircum" unicode="^" horiz-adv-x="560" 
d="M280 628l-148 -163h-53l172 235h58l172 -235h-53z" />
    <glyph glyph-name="underscore" unicode="_" horiz-adv-x="600" 
d="M0 -210v52h600v-52h-600z" />
    <glyph glyph-name="grave" unicode="`" horiz-adv-x="500" 
d="M138 750h98l83 -163h-40z" />
    <glyph glyph-name="a" unicode="a" horiz-adv-x="541" 
d="M90 386l-10 124c57 13 125 22 185 22c129 0 177 -35 178 -191l1 -300l73 -13v-28l-144 -12v70c-57 -52 -129 -70 -184 -70c-27 0 -70 1 -101 30c-24 22 -40 64 -40 114c0 48 23 88 41 105c36 33 97 40 140 45l144 18v48c0 103 -24 142 -131 142c-14 0 -56 -3 -87 -14
l-31 -90h-34zM373 111v145c-160 -19 -202 -26 -223 -47c-25 -26 -25 -62 -25 -79c0 -72 34 -100 84 -100c65 0 134 54 164 81z" />
    <glyph glyph-name="b" unicode="b" horiz-adv-x="587" 
d="M165 366v-268c37 -41 112 -68 145 -68c124 0 141 110 141 239c0 99 -4 221 -126 221c-62 0 -128 -58 -160 -124zM165 761v-318c25 35 86 89 171 89c163 0 191 -108 191 -272c0 -132 -29 -272 -205 -272c-87 0 -139 33 -168 56l-27 -44h-32v697l-74 9v27z" />
    <glyph glyph-name="c" unicode="c" horiz-adv-x="502" 
d="M459 77l14 -38c-59 -39 -126 -51 -184 -51c-75 0 -131 22 -163 51c-63 57 -66 147 -66 221c0 165 48 272 233 272c44 0 112 -7 169 -22l-21 -129h-33l-22 95c-26 8 -65 14 -96 14c-131 0 -154 -96 -154 -233c0 -144 36 -227 170 -227c23 0 92 8 153 47z" />
    <glyph glyph-name="d" unicode="d" horiz-adv-x="596" 
d="M420 157v278c-51 37 -99 55 -146 55c-119 0 -139 -127 -139 -239c0 -93 16 -221 127 -221c73 0 130 75 158 127zM490 761v-719l74 -14v-28l-144 -12v92c-62 -84 -131 -92 -167 -92c-155 0 -193 114 -193 267s36 277 207 277c57 0 99 -9 153 -41v206l-74 9v27z" />
    <glyph glyph-name="e" unicode="e" horiz-adv-x="542" 
d="M493 289l-353 -49c2 -107 33 -210 162 -210c70 0 133 23 174 47l14 -37c-84 -43 -153 -51 -203 -51c-176 0 -227 101 -227 271c0 58 6 159 69 219c51 50 126 53 164 53c39 0 100 -4 147 -51c45 -46 53 -130 53 -183v-9zM139 283l279 37c-2 31 -9 90 -28 121
c-26 44 -65 49 -103 49c-114 0 -148 -93 -148 -198v-9z" />
    <glyph glyph-name="f" unicode="f" horiz-adv-x="350" 
d="M177 42l88 -14v-28h-227v28l64 18l5 15v415h-85v44h85v61c0 128 39 180 183 180c29 0 67 -5 106 -13l-14 -109h-33l-19 72c-17 6 -34 9 -60 9c-83 0 -93 -47 -93 -140v-60h142l-9 -44h-133v-434z" />
    <glyph glyph-name="g" unicode="g" horiz-adv-x="560" 
d="M34 -112c0 48 37 83 104 105c-32 8 -72 32 -72 91c0 60 56 90 109 100c-99 26 -110 123 -110 159c0 125 69 189 206 189c86 0 124 -24 144 -43c47 26 100 32 131 32h20l-7 -48c-15 4 -32 5 -48 5c-17 0 -43 0 -72 -20c20 -37 26 -67 26 -105c0 -52 -14 -112 -54 -146
c-44 -37 -105 -44 -140 -44h-37c-38 0 -103 -11 -103 -59c0 -41 44 -53 72 -55l125 -9c97 -7 197 -15 197 -129c0 -121 -138 -142 -252 -142c-102 0 -239 10 -239 119zM141 346c0 -84 29 -141 123 -141c83 0 125 45 125 142c0 94 -32 143 -126 143c-84 0 -122 -49 -122 -144
zM312 -23l-119 7c-50 -12 -85 -50 -85 -84c0 -77 71 -88 167 -88c63 0 187 4 187 86c0 67 -87 75 -150 79z" />
    <glyph glyph-name="h" unicode="h" horiz-adv-x="602" 
d="M176 359v-317l74 -14v-28h-214v28l64 18l6 15v636l-74 9v27l144 28v-324c56 73 128 95 172 95c119 0 157 -63 157 -184v-306l73 -14v-28h-213v28l64 18l6 15v277c0 88 -14 152 -95 152c-78 0 -142 -87 -164 -131z" />
    <glyph glyph-name="i" unicode="i" horiz-adv-x="281" 
d="M176 532v-490l73 -14v-28h-213v28l64 18l6 15v417l-74 14v28zM85 694c0 30 21 51 51 51c29 0 49 -21 49 -51c0 -28 -20 -49 -49 -49c-30 0 -51 20 -51 49z" />
    <glyph glyph-name="j" unicode="j" horiz-adv-x="270" 
d="M35 -231c-43 0 -79 6 -105 13l17 109h34l15 -77c7 -1 25 -3 39 -3c60 0 71 51 71 127v540l-74 14v28l143 12v-594c0 -53 -5 -169 -140 -169zM85 694c0 30 21 51 51 51c29 0 49 -21 49 -51c0 -28 -20 -49 -49 -49c-30 0 -51 20 -51 49z" />
    <glyph glyph-name="k" unicode="k" horiz-adv-x="536" 
d="M106 696l-74 9v28l144 28v-477l193 185v11l-60 10v30h204v-30l-85 -27l-179 -169l209 -252l69 -14v-28h-154v34l-197 241v-233l74 -14v-28h-214v28l64 18l6 15v635z" />
    <glyph glyph-name="l" unicode="l" horiz-adv-x="280" 
d="M106 696l-74 9v28l144 28v-719l73 -14v-28h-213v28l64 18l6 15v635z" />
    <glyph glyph-name="m" unicode="m" horiz-adv-x="859" 
d="M761 336v-294l74 -14v-28h-213v28l64 18l5 15v272c0 90 -13 157 -94 157c-50 0 -98 -43 -129 -108v-340l74 -14v-28h-213v28l63 18l6 15v272c0 84 3 157 -76 157c-60 0 -120 -75 -147 -131v-317l74 -14v-28h-213v28l63 18l6 15v417l-73 14v28l143 12v-97
c54 80 118 97 169 97c35 0 92 -9 111 -84c66 83 122 84 158 84c96 0 148 -56 148 -196z" />
    <glyph glyph-name="n" unicode="n" horiz-adv-x="602" 
d="M32 520l144 12v-95c56 73 128 95 172 95c119 0 157 -63 157 -184v-306l73 -14v-28h-213v28l64 18l6 15v277c0 88 -14 152 -95 152c-78 0 -142 -87 -164 -131v-317l74 -14v-28h-214v28l64 18l6 15v417l-74 14v28z" />
    <glyph glyph-name="o" unicode="o" horiz-adv-x="575" 
d="M60 260c0 71 7 165 63 221c49 49 120 51 164 51c42 0 117 -2 166 -51c60 -60 62 -171 62 -221s-2 -161 -62 -221c-49 -49 -124 -51 -166 -51c-44 0 -115 2 -164 51c-56 56 -63 150 -63 221zM136 260c0 -52 5 -144 40 -187c29 -36 75 -43 111 -43c37 0 83 7 112 43
c35 43 40 135 40 187s-5 144 -40 187c-29 36 -75 43 -112 43c-36 0 -82 -7 -111 -43c-35 -43 -40 -135 -40 -187z" />
    <glyph glyph-name="p" unicode="p" horiz-adv-x="597" 
d="M320 30c123 0 141 110 141 239c0 99 -2 221 -121 221c-64 0 -132 -55 -164 -125v-272c53 -41 110 -63 144 -63zM176 -177l89 -14v-28h-228v28l64 18l5 15v636l-74 14v28l144 12v-90c35 51 87 90 177 90c170 0 184 -118 184 -272c0 -132 -24 -272 -200 -272
c-42 0 -95 3 -161 48v-213z" />
    <glyph glyph-name="q" unicode="q" horiz-adv-x="572" 
d="M420 158v278c-51 37 -91 54 -140 54c-127 0 -145 -127 -145 -239c0 -93 18 -221 129 -221c73 0 131 73 156 128zM433 485l32 35h25v-697l60 -14v-28h-217v28l81 18l5 15l1 238c-55 -73 -134 -92 -167 -92c-155 0 -193 114 -193 267s41 277 216 277c50 0 100 -14 157 -47z
" />
    <glyph glyph-name="r" unicode="r" horiz-adv-x="427" 
d="M176 376v-334l87 -14v-28h-227v28l64 18l6 15v417l-74 14v28l144 12v-98c61 56 134 98 223 99h11l-13 -123h-35l-31 64c-54 -12 -117 -50 -155 -98z" />
    <glyph glyph-name="s" unicode="s" horiz-adv-x="444" 
d="M366 512l9 -115h-34l-32 84c-32 8 -62 9 -87 9c-45 0 -100 -11 -100 -82c0 -61 43 -77 93 -94l60 -20c31 -10 71 -25 94 -52c13 -15 28 -43 28 -91c0 -118 -78 -163 -191 -163c-39 0 -93 4 -147 19l-11 118h33l39 -81c26 -8 58 -14 85 -14c70 0 115 20 115 102
c0 21 0 54 -22 76c-11 11 -41 21 -57 27l-60 21c-76 26 -133 62 -133 140c0 98 71 136 169 136c46 0 103 -7 149 -20z" />
    <glyph glyph-name="t" unicode="t" horiz-adv-x="360" 
d="M110 639l70 24v-143h148l-7 -44h-141v-314c0 -60 -4 -134 74 -134c21 0 62 5 86 11v-38c-33 -9 -75 -13 -99 -13c-119 0 -131 60 -131 174v314h-84v44h84v119z" />
    <glyph glyph-name="u" unicode="u" horiz-adv-x="615" 
d="M512 42l71 -14v-28l-141 -12v93c-63 -73 -145 -93 -192 -93c-109 0 -152 53 -152 183v307l-74 14v28l144 12v-348c0 -81 6 -154 91 -154c82 0 157 79 183 122v326l-74 14v28l144 12v-490z" />
    <glyph glyph-name="v" unicode="v" horiz-adv-x="580" 
d="M565 492l-63 -18l-182 -474h-55l-180 478l-69 14v28h214v-27l-61 -15l138 -380l145 380l-70 14v28h183v-28z" />
    <glyph glyph-name="w" unicode="w" horiz-adv-x="780" 
d="M709 474l-117 -474h-58l-138 420l-140 -420h-60l-115 478l-68 14v28h213v-28l-67 -15l88 -373l140 416h48l135 -415l89 373l-69 14v28h176v-28z" />
    <glyph glyph-name="x" unicode="x" horiz-adv-x="540" 
d="M464 41l66 -13v-28h-214v28l57 17l-112 182l-124 -185l76 -14v-28h-198v28l66 18h-1l155 221l-136 211l-74 14v28h214v-28l-51 -15v-10l89 -142l107 153l-67 14v28h184v-28l-64 -18l-132 -187z" />
    <glyph glyph-name="y" unicode="y" horiz-adv-x="578" 
d="M500 474l-194 -557c-28 -80 -73 -148 -171 -148c-27 0 -61 6 -96 20l26 99h33l18 -72c5 -1 12 -2 17 -2c68 0 106 46 125 110l21 70l-195 484l-68 14v28h213v-27l-61 -16l152 -382l128 383l-70 14v28h184v-28z" />
    <glyph glyph-name="z" unicode="z" horiz-adv-x="480" 
d="M372 44l12 10l35 89h29l-11 -143h-407v21l319 455h-213l-12 -8l-35 -82h-31l11 134h372v-23l-314 -453h245z" />
    <glyph glyph-name="braceleft" unicode="{" horiz-adv-x="540" 
d="M467 723v-37h-33c-78 0 -104 -44 -104 -121v-136c0 -43 -3 -85 -28 -120c-14 -18 -38 -37 -72 -47v-9c31 -10 60 -32 72 -48c27 -34 28 -76 28 -120v-135c0 -83 18 -120 104 -120h33v-37h-28c-118 0 -184 29 -184 158v139c0 86 -20 148 -118 148h-20v37h18
c93 0 120 42 120 149v140c0 124 57 159 184 159h28z" />
    <glyph glyph-name="bar" unicode="|" horiz-adv-x="400" 
d="M168 750h64v-970h-64v970z" />
    <glyph glyph-name="braceright" unicode="}" horiz-adv-x="540" 
d="M103 686v37h28c128 0 184 -35 184 -159v-140c0 -107 27 -149 120 -149h18v-37h-20c-98 0 -118 -62 -118 -148v-139c0 -129 -65 -158 -184 -158h-28v37h33c86 0 104 37 104 120v135c0 43 3 87 29 120c13 17 41 39 71 48v9c-32 10 -58 30 -71 47c-26 35 -29 77 -29 120v136
c0 77 -26 121 -104 121h-33z" />
    <glyph glyph-name="asciitilde" unicode="~" horiz-adv-x="560" 
d="M483 340l43 -22c-12 -29 -32 -59 -55 -79c-26 -22 -55 -35 -94 -35c-40 0 -66 12 -92 24l-37 17c-27 12 -58 26 -87 26c-22 0 -39 -9 -53 -24c-11 -11 -24 -32 -31 -46l-43 22c11 27 31 58 53 80c27 27 57 38 91 38c32 0 68 -12 94 -24l42 -19c28 -13 53 -24 85 -24
c20 0 38 6 54 21c11 11 23 29 30 45z" />
    <glyph glyph-name="uni00A0" unicode="&#xa0;" horiz-adv-x="233" 
 />
    <glyph glyph-name="exclamdown" unicode="&#xa1;" horiz-adv-x="280" 
d="M182 -180h-80v118l-1 115l23 268h35l25 -269l-1 -115zM199 476c0 -32 -25 -57 -57 -57s-56 25 -56 57c0 31 24 56 56 56s57 -25 57 -56z" />
    <glyph glyph-name="cent" unicode="&#xa2;" 
d="M145 257c0 -123 25 -202 117 -222v453c-100 -17 -117 -108 -117 -231zM316 491v-461c30 0 92 9 152 47l14 -38c-54 -35 -114 -49 -166 -51v-81h-54v83c-56 5 -100 25 -127 49c-62 58 -66 147 -66 221c0 153 40 255 193 270v77h54v-75c43 0 98 -7 154 -21l-21 -130h-33
l-22 96c-25 8 -61 14 -78 14z" />
    <glyph glyph-name="sterling" unicode="&#xa3;" horiz-adv-x="537" 
d="M310 669c-101 0 -135 -58 -135 -159c0 -46 11 -83 30 -140h170v-44h-161c11 -35 16 -69 16 -96c0 -60 -36 -118 -85 -157c0 -1 2 -4 2 -4c46 17 72 20 110 20c32 0 58 -7 90 -18c34 -12 67 -21 89 -21c33 0 58 20 75 51l34 -27c-42 -59 -84 -90 -153 -90
c-42 0 -86 10 -117 21c-36 12 -64 23 -96 23c-35 0 -70 -13 -99 -33l-21 35c21 16 46 43 61 67c20 33 30 78 30 112c0 29 -10 79 -21 117h-87v44h75c-15 44 -29 97 -29 138c0 141 78 203 228 208c51 0 111 -10 170 -24l-16 -133h-37l-24 91c-25 11 -68 19 -99 19z" />
    <glyph glyph-name="currency" unicode="&#xa4;" horiz-adv-x="519" 
d="M42 102l73 72c-22 28 -35 63 -35 106s14 79 36 107l-74 73l39 38l73 -73c29 21 64 35 106 35s77 -14 105 -35l74 73l38 -38l-73 -74c21 -28 36 -63 36 -106s-15 -78 -36 -106l73 -72l-38 -39l-74 74c-28 -22 -63 -35 -105 -35s-77 13 -106 35l-73 -74zM125 280
c0 -76 59 -135 135 -135s135 59 135 135c0 77 -59 137 -135 137s-135 -60 -135 -137z" />
    <glyph glyph-name="yen" unicode="&#xa5;" horiz-adv-x="529" 
d="M160 631l124 -303l138 326l-66 13v33h173v-33l-57 -15l-165 -384h158v-49h-158v-52h158v-48h-158v-77l80 -10v-32h-237v32l67 18h-1l14 20v49h-153v48h153v52h-153v48h153l-168 391l-62 10v32h224v-32l-59 -20z" />
    <glyph glyph-name="brokenbar" unicode="&#xa6;" horiz-adv-x="400" 
d="M168 750h64v-400h-64v400zM168 180h64v-400h-64v400z" />
    <glyph glyph-name="section" unicode="&#xa7;" horiz-adv-x="560" 
d="M234 -240c-40 0 -76 3 -118 13l20 109h38l18 -66c16 -5 43 -10 63 -10c53 0 96 19 96 94c0 50 -27 75 -99 136c-20 16 -43 35 -71 59c-82 70 -121 111 -121 181c0 34 7 63 33 96c28 35 56 57 92 81c-44 45 -60 90 -60 122c0 44 13 82 51 112c43 33 97 38 146 38
c40 0 77 -3 119 -13l-20 -110h-38l-18 67c-22 8 -44 9 -63 9c-35 0 -97 -9 -97 -95c0 -58 42 -95 90 -130c73 -54 158 -117 178 -149c19 -31 26 -63 26 -95c0 -50 -20 -84 -34 -102s-60 -49 -102 -68c59 -51 68 -95 68 -131c0 -44 -14 -83 -50 -111
c-42 -33 -95 -37 -147 -37zM241 143l86 -69c57 30 91 71 91 125c0 51 -29 93 -92 140l-106 79c-46 -27 -80 -71 -80 -131c0 -55 29 -87 101 -144z" />
    <glyph glyph-name="dieresis" unicode="&#xa8;" horiz-adv-x="391" 
d="M237 692c0 30 20 51 50 51c29 0 50 -21 50 -51c0 -28 -21 -49 -50 -49s-50 20 -50 49zM42 692c0 30 20 51 50 51c29 0 50 -21 50 -51c0 -28 -21 -49 -50 -49s-50 20 -50 49z" />
    <glyph glyph-name="copyright" unicode="&#xa9;" horiz-adv-x="820" 
d="M536 222l18 -40c-52 -29 -98 -35 -133 -35c-117 0 -200 67 -200 201c0 133 82 210 208 210c36 0 80 -8 116 -22l-20 -105h-32l-11 71c-17 9 -42 13 -60 13c-82 0 -118 -66 -118 -163c0 -90 39 -160 128 -160c22 0 57 5 104 30zM89 353c0 -175 132 -331 319 -331
c174 0 319 148 319 331c0 173 -133 329 -319 329c-174 0 -319 -149 -319 -329zM40 352c0 199 167 368 369 368c195 0 369 -159 369 -368c0 -202 -164 -368 -369 -368c-194 0 -369 158 -369 368z" />
    <glyph glyph-name="ordfeminine" unicode="&#xaa;" horiz-adv-x="420" 
d="M280 564v24c0 19 0 53 -19 71c-14 14 -38 21 -60 21c-23 0 -46 -2 -63 -8l-16 -56h-28l-20 82c52 16 92 21 131 21c87 0 140 -18 140 -125v-201l51 -16v-22l-116 -15v43c-37 -30 -80 -43 -113 -43c-20 0 -57 4 -85 27c-22 20 -30 45 -30 74c0 81 44 94 119 106zM280 426
v103l-90 -13c-41 -6 -67 -16 -67 -78c0 -12 4 -32 16 -44c13 -9 28 -11 39 -11c37 0 71 15 102 43z" />
    <glyph glyph-name="guillemotleft" unicode="&#xab;" horiz-adv-x="521" 
d="M446 186l-32 -32l-160 146l160 146l32 -32l-105 -114zM302 156l-34 -32l-194 177l194 177l34 -34l-128 -143z" />
    <glyph glyph-name="logicalnot" unicode="&#xac;" 
d="M34 339v52h461v-241h-54v189h-407z" />
    <glyph glyph-name="uni00AD" unicode="&#xad;" horiz-adv-x="403" 
d="M60 331h283v-62h-283v62z" />
    <glyph glyph-name="registered" unicode="&#xae;" horiz-adv-x="820" 
d="M89 353c0 -175 132 -331 319 -331c174 0 319 148 319 331c0 173 -133 329 -319 329c-174 0 -319 -149 -319 -329zM40 352c0 199 167 368 369 368c195 0 369 -159 369 -368c0 -202 -164 -368 -369 -368c-194 0 -369 158 -369 368zM240 548h177c22 0 76 -2 109 -28
c31 -25 34 -62 34 -84c0 -27 -9 -54 -25 -73c-12 -14 -30 -26 -60 -31l73 -135l37 -13v-18h-106v21l-71 137h-60v-125l39 -16v-17h-147v17l43 16v317l-43 14v18zM348 514v-155h73c46 0 74 24 74 80c0 46 -27 75 -83 75h-64z" />
    <glyph glyph-name="macron" unicode="&#xaf;" horiz-adv-x="500" 
d="M123 659v42h254v-42h-254z" />
    <glyph glyph-name="degree" unicode="&#xb0;" horiz-adv-x="360" 
d="M58 595c0 69 53 121 122 121s122 -52 122 -121s-53 -120 -122 -120s-122 51 -122 120zM107 595c0 -42 31 -72 73 -72s73 30 73 72s-31 73 -73 73s-73 -31 -73 -73z" />
    <glyph glyph-name="plusminus" unicode="&#xb1;" 
d="M291 370v-189h-52v189h-203v52h203v197h52v-197h203v-52h-203zM36 130h458v-52h-458v52z" />
    <glyph glyph-name="twosuperior" unicode="&#xb2;" horiz-adv-x="360" 
d="M156 671c-23 0 -54 -8 -64 -15l-7 -59h-26l-18 82c27 12 83 29 131 29c78 -1 133 -26 133 -99c0 -59 -38 -111 -90 -164l-111 -114h162l28 43h26l-18 -93h-270v21l130 143c64 70 80 107 80 148c0 63 -34 78 -86 78z" />
    <glyph glyph-name="threesuperior" unicode="&#xb3;" horiz-adv-x="360" 
d="M65 701h242v-27l-108 -140c73 -4 118 -38 118 -127c0 -29 -8 -78 -53 -109c-36 -25 -88 -29 -118 -29c-49 0 -79 9 -106 21l18 82h26l8 -53c18 -9 34 -13 53 -13c62 0 106 31 106 100c0 56 -21 93 -84 93c-9 0 -17 0 -25 -1v23l96 130h-138l-21 -54h-25z" />
    <glyph glyph-name="acute" unicode="&#xb4;" horiz-adv-x="218" 
d="M102 750h97l-141 -163h-39z" />
    <glyph glyph-name="mu" unicode="&#xb5;" horiz-adv-x="660" 
d="M95 520h70v-312c0 -34 14 -84 42 -110c20 -19 51 -30 86 -30c83 0 127 75 144 145v307h70v-394c0 -52 13 -95 67 -95c12 0 29 2 53 11v-43c-31 -10 -58 -11 -79 -11c-87 0 -101 50 -103 128h-1c-25 -62 -77 -128 -155 -128c-79 0 -126 56 -148 128h-2l19 -271v-39
l-20 -34h-45l-19 34v39l21 186v489z" />
    <glyph glyph-name="mu" unicode="&#x3bc;" horiz-adv-x="660" 
d="M95 520h70v-312c0 -34 14 -84 42 -110c20 -19 51 -30 86 -30c83 0 127 75 144 145v307h70v-394c0 -52 13 -95 67 -95c12 0 29 2 53 11v-43c-31 -10 -58 -11 -79 -11c-87 0 -101 50 -103 128h-1c-25 -62 -77 -128 -155 -128c-79 0 -126 56 -148 128h-2l19 -271v-39
l-20 -34h-45l-19 34v39l21 186v489z" />
    <glyph glyph-name="paragraph" unicode="&#xb6;" horiz-adv-x="540" 
d="M513 703v-53h-75v-873h-55v873h-106v-873h-55v581c-49 0 -99 7 -135 35c-31 24 -56 66 -56 130c0 142 91 180 243 180h239z" />
    <glyph glyph-name="periodcentered" unicode="&#xb7;" horiz-adv-x="280" 
d="M84 299c0 32 25 57 57 57s56 -25 56 -57c0 -31 -24 -56 -56 -56s-57 25 -57 56z" />
    <glyph glyph-name="cedilla" unicode="&#xb8;" horiz-adv-x="500" 
d="M223 0h40l-18 -51c72 0 113 -18 113 -81c0 -80 -79 -91 -122 -91c-28 0 -62 5 -91 17l14 35c19 -7 41 -13 70 -13c41 0 65 16 65 51c0 38 -22 47 -60 47c-21 0 -31 -1 -41 -2z" />
    <glyph glyph-name="onesuperior" unicode="&#xb9;" horiz-adv-x="360" 
d="M187 703h31v-373l78 -21v-25h-229v24l85 21v295l-110 -13v25c40 5 98 20 145 67z" />
    <glyph glyph-name="ordmasculine" unicode="&#xba;" horiz-adv-x="442" 
d="M50 527c0 48 6 117 47 155c36 34 90 35 124 35s87 -1 123 -35c41 -38 47 -107 47 -155c0 -47 -7 -115 -47 -154c-36 -34 -89 -35 -123 -35s-87 0 -124 35c-41 38 -47 107 -47 154zM127 527c0 -31 4 -90 25 -117c20 -26 47 -29 69 -29c23 0 49 3 68 29c21 27 25 86 25 117
c0 32 -4 91 -25 118c-19 26 -45 29 -68 29c-22 0 -49 -3 -69 -29c-21 -27 -25 -86 -25 -118z" />
    <glyph glyph-name="guillemotright" unicode="&#xbb;" horiz-adv-x="521" 
d="M108 154l-32 32l105 114l-104 115l31 31l160 -146zM254 124l-34 32l128 145l-127 143l33 34l194 -177z" />
    <glyph glyph-name="onequarter" unicode="&#xbc;" horiz-adv-x="900" 
d="M179 -81l-34 25l629 844l34 -27zM693 427l69 -9c-53 -108 -109 -203 -167 -285h150v113l63 19v-132h52v-39h-52v-94h-63v94h-206v24c64 91 111 194 154 309zM193 703h31v-373l79 -21v-25h-230v25l85 21v295l-109 -13v24c39 5 97 20 144 67z" />
    <glyph glyph-name="onehalf" unicode="&#xbd;" horiz-adv-x="900" 
d="M169 -81l-34 25l629 844l34 -27zM193 703h31v-373l79 -21v-25h-230v25l85 21v295l-109 -13v24c39 5 97 20 144 67zM705 390c-23 0 -54 -8 -64 -15l-7 -59h-25l-18 82c27 12 82 29 130 29c78 -1 133 -26 133 -99c0 -59 -38 -111 -90 -164l-111 -114h164l28 43h25l-18 -93
h-271v21l130 143c64 70 80 107 80 148c0 63 -34 78 -86 78z" />
    <glyph glyph-name="threequarters" unicode="&#xbe;" horiz-adv-x="900" 
d="M188 -81l-34 25l629 844l34 -27zM693 427l69 -9c-53 -108 -109 -203 -167 -285h150v113l63 19v-132h52v-39h-52v-94h-63v94h-206v24c64 91 111 194 154 309zM75 701h243v-27l-109 -140c74 -4 119 -38 119 -127c0 -29 -8 -78 -53 -109c-37 -25 -89 -29 -119 -29
c-49 0 -80 9 -106 21l18 82h26l8 -54c18 -9 34 -12 53 -12c62 0 106 31 106 100c0 56 -21 93 -84 93c-9 0 -17 0 -25 -1v23l96 130h-138l-21 -54h-25z" />
    <glyph glyph-name="questiondown" unicode="&#xbf;" horiz-adv-x="480" 
d="M174 176c48 42 68 57 68 145h39v-101l-93 -108c-34 -39 -59 -79 -59 -135c0 -92 41 -125 135 -125c30 0 63 9 83 20l20 96h40l28 -111c-60 -39 -122 -53 -184 -53c-114 0 -207 33 -207 163c0 85 43 127 80 161zM316 476c-1 -32 -26 -57 -58 -57c-31 0 -55 25 -55 57
c0 31 23 56 55 56s58 -25 58 -56z" />
    <glyph glyph-name="Agrave" unicode="&#xc0;" horiz-adv-x="680" 
d="M672 0h-227v32l67 18l8 15l-46 130h-293l-55 -153l72 -10v-32h-190v32l66 18l245 651h53l242 -660l58 -9v-32zM198 241h260l-127 361zM303 912l61 -134h-47l-107 134h93z" />
    <glyph glyph-name="Aacute" unicode="&#xc1;" horiz-adv-x="680" 
d="M672 0h-227v32l67 18l8 15l-46 130h-293l-55 -153l72 -10v-32h-190v32l66 18l245 651h53l242 -660l58 -9v-32zM198 241h260l-127 361zM414 912h102l-142 -134h-46z" />
    <glyph glyph-name="Acircumflex" unicode="&#xc2;" horiz-adv-x="680" 
d="M672 0h-227v32l67 18l8 15l-46 130h-293l-55 -153l72 -10v-32h-190v32l66 18l245 651h53l242 -660l58 -9v-32zM198 241h260l-127 361zM312 912h70l107 -134h-44l-98 76l-98 -76h-44z" />
    <glyph glyph-name="Atilde" unicode="&#xc3;" horiz-adv-x="680" 
d="M672 0h-227v32l67 18l8 15l-46 130h-293l-55 -153l72 -10v-32h-190v32l66 18l245 651h53l242 -660l58 -9v-32zM198 241h260l-127 361zM229 797l-38 25c17 38 53 77 99 77c17 0 38 -4 63 -20l17 -11c18 -11 31 -17 49 -17c22 0 36 16 48 35l41 -24
c-16 -38 -52 -80 -98 -80c-20 0 -42 8 -59 19l-20 13c-20 13 -31 16 -48 16c-25 0 -39 -12 -54 -33z" />
    <glyph glyph-name="Adieresis" unicode="&#xc4;" horiz-adv-x="680" 
d="M672 0h-227v32l67 18l8 15l-46 130h-293l-55 -153l72 -10v-32h-190v32l66 18l245 651h53l242 -660l58 -9v-32zM198 241h260l-127 361zM187 830c0 30 23 53 54 53c30 0 53 -23 53 -53c0 -31 -23 -54 -53 -54c-31 0 -54 23 -54 54zM398 830c0 30 23 53 54 53
c30 0 53 -23 53 -53c0 -31 -23 -54 -53 -54c-31 0 -54 23 -54 54z" />
    <glyph glyph-name="Aring" unicode="&#xc5;" horiz-adv-x="680" 
d="M672 0h-227v32l67 18l8 15l-46 130h-293l-55 -153l72 -10v-32h-190v32l66 18l245 651h53l242 -660l58 -9v-32zM198 241h260l-127 361zM244 857c0 55 42 98 97 98s98 -43 98 -98s-43 -97 -98 -97s-97 42 -97 97zM283 857c0 -33 25 -58 58 -58s58 25 58 58s-25 58 -58 58
s-58 -25 -58 -58z" />
    <glyph glyph-name="AE" unicode="&#xc6;" horiz-adv-x="914" 
d="M874 152l-19 -152h-474v32l66 18l14 20v129h-241l-80 -157l71 -10v-32h-198v32l67 18l330 600l-101 19v31h542l9 -123h-35l-33 69l-13 6h-241v-256h181l12 8l17 62h33v-189h-33l-17 63l-14 8h-179v-300h250l14 15l37 89h35zM461 641l-217 -395h217v395z" />
    <glyph glyph-name="Ccedilla" unicode="&#xc7;" horiz-adv-x="620" 
d="M562 691l10 -151h-37l-39 106c-31 14 -76 24 -122 24c-189 0 -218 -138 -218 -319c0 -165 31 -224 55 -255c42 -53 112 -66 159 -66c49 0 86 13 117 26l55 86h37l-35 -122c-41 -18 -96 -35 -180 -36l-12 -32c67 0 112 -21 112 -84c0 -80 -82 -91 -125 -91
c-28 0 -62 5 -91 17l13 40c19 -7 41 -13 70 -13c41 0 63 14 63 46c0 33 -20 45 -58 45c-13 0 -32 -1 -42 -2l26 76c-53 4 -122 18 -170 67c-67 67 -78 196 -78 297c0 249 93 366 308 366c43 0 117 -8 182 -25z" />
    <glyph glyph-name="Egrave" unicode="&#xc8;" horiz-adv-x="580" 
d="M48 700h469l10 -123h-34l-33 69l-13 6h-241v-256h180l12 8l17 62h33v-189h-33l-17 63l-14 8h-178v-300h249l14 15l37 89h34l-19 -152h-473v32l66 18l14 20v589l-80 9v32zM290 912l61 -134h-47l-107 134h93z" />
    <glyph glyph-name="Eacute" unicode="&#xc9;" horiz-adv-x="580" 
d="M48 700h469l10 -123h-34l-33 69l-13 6h-241v-256h180l12 8l17 62h33v-189h-33l-17 63l-14 8h-178v-300h249l14 15l37 89h34l-19 -152h-473v32l66 18l14 20v589l-80 9v32zM362 912h102l-142 -134h-46z" />
    <glyph glyph-name="Ecircumflex" unicode="&#xca;" horiz-adv-x="580" 
d="M48 700h469l10 -123h-34l-33 69l-13 6h-241v-256h180l12 8l17 62h33v-189h-33l-17 63l-14 8h-178v-300h249l14 15l37 89h34l-19 -152h-473v32l66 18l14 20v589l-80 9v32zM284 912h70l107 -134h-44l-98 76l-98 -76h-44z" />
    <glyph glyph-name="Edieresis" unicode="&#xcb;" horiz-adv-x="580" 
d="M48 700h469l10 -123h-34l-33 69l-13 6h-241v-256h180l12 8l17 62h33v-189h-33l-17 63l-14 8h-178v-300h249l14 15l37 89h34l-19 -152h-473v32l66 18l14 20v589l-80 9v32zM142 830c0 30 23 53 54 53c30 0 53 -23 53 -53c0 -31 -23 -54 -53 -54c-31 0 -54 23 -54 54z
M353 830c0 30 23 53 54 53c30 0 53 -23 53 -53c0 -31 -23 -54 -53 -54c-31 0 -54 23 -54 54z" />
    <glyph glyph-name="Igrave" unicode="&#xcc;" horiz-adv-x="334" 
d="M206 630v-588l79 -10v-32h-237v32l66 18l14 20v588l-80 10v32h237v-32l-65 -18zM132 912l61 -134h-47l-107 134h93z" />
    <glyph glyph-name="Iacute" unicode="&#xcd;" horiz-adv-x="334" 
d="M206 630v-588l79 -10v-32h-237v32l66 18l14 20v588l-80 10v32h237v-32l-65 -18zM224 912h102l-142 -134h-46z" />
    <glyph glyph-name="Icircumflex" unicode="&#xce;" horiz-adv-x="334" 
d="M206 630v-588l79 -10v-32h-237v32l66 18l14 20v588l-80 10v32h237v-32l-65 -18zM132 912h70l107 -134h-44l-98 76l-98 -76h-44z" />
    <glyph glyph-name="Idieresis" unicode="&#xcf;" horiz-adv-x="334" 
d="M54 836c0 28 20 47 46 47c28 0 47 -19 47 -47c0 -27 -19 -46 -47 -46c-26 0 -46 19 -46 46zM191 836c0 28 19 47 47 47c26 0 46 -19 46 -47c0 -27 -20 -46 -46 -46c-28 0 -47 19 -47 46zM204 630v-588l80 -10v-32h-234v32l66 18l14 20v588l-80 10v32h234v-32l-66 -18z
" />
    <glyph glyph-name="Eth" unicode="&#xd0;" horiz-adv-x="731" 
d="M206 324v-276h145c181 0 224 128 224 303c0 102 -14 188 -59 242c-43 53 -108 59 -168 59h-142v-280h146v-48h-146zM128 372v286l-80 10v32h299c82 0 175 -8 236 -65c75 -71 76 -189 76 -284c0 -217 -81 -351 -308 -351h-303v32l67 18h-1l14 20v254h-98v48h98z" />
    <glyph glyph-name="Ntilde" unicode="&#xd1;" horiz-adv-x="760" 
d="M181 42l80 -10v-32h-213v31l66 18l14 16v591l-80 10v34h181l359 -566v524l-80 10v32h212v-32l-65 -18l-14 -19v-631h-59l-401 628v-586zM264 797l-38 25c17 38 53 77 99 77c17 0 38 -4 63 -20l17 -11c18 -11 31 -17 49 -17c22 0 36 16 48 35l41 -24
c-16 -38 -52 -80 -98 -80c-20 0 -42 8 -59 19l-20 13c-20 13 -31 16 -48 16c-25 0 -39 -12 -54 -33z" />
    <glyph glyph-name="Ograve" unicode="&#xd2;" horiz-adv-x="719" 
d="M72 350c0 99 9 220 85 297c58 59 126 69 202 69c77 0 145 -10 203 -69c76 -77 85 -198 85 -297c0 -124 -18 -230 -85 -298c-57 -58 -127 -68 -203 -68c-75 0 -145 10 -202 68c-67 68 -85 174 -85 298zM156 350c0 -58 3 -189 59 -260c35 -45 82 -60 144 -60
c63 0 110 15 145 60c56 71 59 202 59 260c0 89 -9 194 -59 259c-36 47 -81 61 -145 61c-63 0 -108 -14 -144 -61c-56 -72 -59 -196 -59 -259zM326 912l61 -134h-47l-107 134h93z" />
    <glyph glyph-name="Oacute" unicode="&#xd3;" horiz-adv-x="719" 
d="M72 350c0 99 9 220 85 297c58 59 126 69 202 69c77 0 145 -10 203 -69c76 -77 85 -198 85 -297c0 -124 -18 -230 -85 -298c-57 -58 -127 -68 -203 -68c-75 0 -145 10 -202 68c-67 68 -85 174 -85 298zM156 350c0 -58 3 -189 59 -260c35 -45 82 -60 144 -60
c63 0 110 15 145 60c56 71 59 202 59 260c0 89 -9 194 -59 259c-36 47 -81 61 -145 61c-63 0 -108 -14 -144 -61c-56 -72 -59 -196 -59 -259zM402 912h102l-142 -134h-46z" />
    <glyph glyph-name="Ocircumflex" unicode="&#xd4;" horiz-adv-x="719" 
d="M72 350c0 99 9 220 85 297c58 59 126 69 202 69c77 0 145 -10 203 -69c76 -77 85 -198 85 -297c0 -124 -18 -230 -85 -298c-57 -58 -127 -68 -203 -68c-75 0 -145 10 -202 68c-67 68 -85 174 -85 298zM156 350c0 -58 3 -189 59 -260c35 -45 82 -60 144 -60
c63 0 110 15 145 60c56 71 59 202 59 260c0 89 -9 194 -59 259c-36 47 -81 61 -145 61c-63 0 -108 -14 -144 -61c-56 -72 -59 -196 -59 -259zM325 912h70l107 -134h-44l-98 76l-98 -76h-44z" />
    <glyph glyph-name="Otilde" unicode="&#xd5;" horiz-adv-x="719" 
d="M72 350c0 99 9 220 85 297c58 59 126 69 202 69c77 0 145 -10 203 -69c76 -77 85 -198 85 -297c0 -124 -18 -230 -85 -298c-57 -58 -127 -68 -203 -68c-75 0 -145 10 -202 68c-67 68 -85 174 -85 298zM156 350c0 -58 3 -189 59 -260c35 -45 82 -60 144 -60
c63 0 110 15 145 60c56 71 59 202 59 260c0 89 -9 194 -59 259c-36 47 -81 61 -145 61c-63 0 -108 -14 -144 -61c-56 -72 -59 -196 -59 -259zM248 797l-38 25c17 38 53 77 99 77c17 0 38 -4 63 -20l17 -11c18 -11 31 -17 49 -17c22 0 36 16 48 35l41 -24
c-16 -38 -52 -80 -98 -80c-20 0 -42 8 -59 19l-20 13c-20 13 -31 16 -48 16c-25 0 -39 -12 -54 -33z" />
    <glyph glyph-name="Odieresis" unicode="&#xd6;" horiz-adv-x="719" 
d="M72 350c0 99 9 220 85 297c58 59 126 69 202 69c77 0 145 -10 203 -69c76 -77 85 -198 85 -297c0 -124 -18 -230 -85 -298c-57 -58 -127 -68 -203 -68c-75 0 -145 10 -202 68c-67 68 -85 174 -85 298zM156 350c0 -58 3 -189 59 -260c35 -45 82 -60 144 -60
c63 0 110 15 145 60c56 71 59 202 59 260c0 89 -9 194 -59 259c-36 47 -81 61 -145 61c-63 0 -108 -14 -144 -61c-56 -72 -59 -196 -59 -259zM209 830c0 30 23 53 54 53c30 0 53 -23 53 -53c0 -31 -23 -54 -53 -54c-31 0 -54 23 -54 54zM420 830c0 30 23 53 54 53
c30 0 53 -23 53 -53c0 -31 -23 -54 -53 -54c-31 0 -54 23 -54 54z" />
    <glyph glyph-name="multiply" unicode="&#xd7;" 
d="M74 152l154 153l-154 154l38 37l153 -155l153 155l37 -37l-154 -154l154 -153l-37 -38l-153 154l-153 -154z" />
    <glyph glyph-name="Oslash" unicode="&#xd8;" horiz-adv-x="722" 
d="M607 721l43 -25l-61 -82c51 -76 58 -178 58 -264c0 -124 -18 -230 -85 -298c-57 -58 -127 -68 -203 -68c-73 0 -140 10 -196 62l-48 -64l-43 25l58 77c-45 67 -58 160 -58 266c0 99 9 220 85 297c58 59 126 69 202 69c74 0 140 -9 197 -63zM156 350c0 -44 1 -127 25 -197
l332 443l-9 13c-36 47 -81 61 -145 61c-63 0 -108 -14 -144 -61c-56 -72 -59 -196 -59 -259zM563 350c0 64 -5 136 -26 195l-332 -442c3 -5 6 -9 10 -13c35 -45 82 -60 144 -60c63 0 110 15 145 60c56 71 59 202 59 260z" />
    <glyph glyph-name="Ugrave" unicode="&#xd9;" horiz-adv-x="710" 
d="M545 229v429l-80 10v32h213v-32l-65 -17l-14 -18v-408c0 -167 -63 -241 -246 -241c-182 0 -241 53 -241 241v433l-80 10v32h241v-32l-67 -18l-16 -16v-405c0 -142 25 -199 175 -199c125 0 180 48 180 199zM332 912l61 -134h-47l-107 134h93z" />
    <glyph glyph-name="Uacute" unicode="&#xda;" horiz-adv-x="710" 
d="M545 229v429l-80 10v32h213v-32l-65 -17l-14 -18v-408c0 -167 -63 -241 -246 -241c-182 0 -241 53 -241 241v433l-80 10v32h241v-32l-67 -18l-16 -16v-405c0 -142 25 -199 175 -199c125 0 180 48 180 199zM437 912h102l-142 -134h-46z" />
    <glyph glyph-name="Ucircumflex" unicode="&#xdb;" horiz-adv-x="710" 
d="M545 229v429l-80 10v32h213v-32l-65 -17l-14 -18v-408c0 -167 -63 -241 -246 -241c-182 0 -241 53 -241 241v433l-80 10v32h241v-32l-67 -18l-16 -16v-405c0 -142 25 -199 175 -199c125 0 180 48 180 199zM333 912h70l107 -134h-44l-98 76l-98 -76h-44z" />
    <glyph glyph-name="Udieresis" unicode="&#xdc;" horiz-adv-x="710" 
d="M545 229v429l-80 10v32h213v-32l-65 -17l-14 -18v-408c0 -167 -63 -241 -246 -241c-182 0 -241 53 -241 241v433l-80 10v32h241v-32l-67 -18l-16 -16v-405c0 -142 25 -199 175 -199c125 0 180 48 180 199zM204 830c0 30 23 53 54 53c30 0 53 -23 53 -53
c0 -31 -23 -54 -53 -54c-31 0 -54 23 -54 54zM415 830c0 30 23 53 54 53c30 0 53 -23 53 -53c0 -31 -23 -54 -53 -54c-31 0 -54 23 -54 54z" />
    <glyph glyph-name="Yacute" unicode="&#xdd;" horiz-adv-x="640" 
d="M178 631l158 -307l175 330l-65 13v33h182v-33l-61 -14l-206 -386v-225l80 -10v-32h-237v31l66 19l14 20v199l-204 389l-69 10v32h231v-32l-59 -20zM415 912h102l-142 -134h-46z" />
    <glyph glyph-name="Thorn" unicode="&#xde;" horiz-adv-x="634" 
d="M206 523v-305h137c110 0 171 29 171 157c0 120 -59 148 -171 148h-137zM128 658l-80 10v32h238v-32l-66 -18l-14 -20v-60h157c144 0 234 -37 234 -196c0 -151 -92 -203 -234 -203h-157v-129l89 -10v-32h-247v32l66 18l14 19v589z" />
    <glyph glyph-name="germandbls" unicode="&#xdf;" horiz-adv-x="647" 
d="M278 719c-87 0 -101 -34 -101 -139v-580h-139v28l64 18l5 15v520c0 128 37 180 178 180c116 0 206 -54 206 -167c0 -38 -11 -76 -22 -104c-67 0 -120 -11 -120 -82c0 -56 39 -74 84 -93l26 -11c38 -16 78 -32 102 -62h-1c24 -27 29 -57 29 -91c0 -118 -77 -163 -171 -163
c-39 0 -78 4 -131 19l-11 118h33l40 -82c17 -6 49 -13 68 -13c79 0 96 48 96 102c0 21 0 54 -22 76c-16 16 -55 35 -85 47l-17 7c-63 26 -113 56 -113 134c0 97 73 135 138 135c5 19 7 39 7 55c0 81 -46 132 -143 133z" />
    <glyph glyph-name="agrave" unicode="&#xe0;" horiz-adv-x="541" 
d="M90 386l-10 124c57 13 125 22 185 22c129 0 177 -35 178 -191l1 -300l73 -13v-28l-144 -12v70c-57 -52 -129 -70 -184 -70c-27 0 -70 1 -101 30c-24 22 -40 64 -40 114c0 48 23 88 41 105c36 33 97 40 140 45l144 18v48c0 103 -24 142 -131 142c-14 0 -56 -3 -87 -14
l-31 -90h-34zM373 111v145c-160 -19 -202 -26 -223 -47c-25 -26 -25 -62 -25 -79c0 -72 34 -100 84 -100c65 0 134 54 164 81zM129 750h98l83 -163h-40z" />
    <glyph glyph-name="aacute" unicode="&#xe1;" horiz-adv-x="541" 
d="M90 386l-10 124c57 13 125 22 185 22c129 0 177 -35 178 -191l1 -300l73 -13v-28l-144 -12v70c-57 -52 -129 -70 -184 -70c-27 0 -70 1 -101 30c-24 22 -40 64 -40 114c0 48 23 88 41 105c36 33 97 40 140 45l144 18v48c0 103 -24 142 -131 142c-14 0 -56 -3 -87 -14
l-31 -90h-34zM373 111v145c-160 -19 -202 -26 -223 -47c-25 -26 -25 -62 -25 -79c0 -72 34 -100 84 -100c65 0 134 54 164 81zM314 750h97l-141 -163h-39z" />
    <glyph glyph-name="acircumflex" unicode="&#xe2;" horiz-adv-x="541" 
d="M90 386l-10 124c57 13 125 22 185 22c129 0 177 -35 178 -191l1 -300l73 -13v-28l-144 -12v70c-57 -52 -129 -70 -184 -70c-27 0 -70 1 -101 30c-24 22 -40 64 -40 114c0 48 23 88 41 105c36 33 97 40 140 45l144 18v48c0 103 -24 142 -131 142c-14 0 -56 -3 -87 -14
l-31 -90h-34zM373 111v145c-160 -19 -202 -26 -223 -47c-25 -26 -25 -62 -25 -79c0 -72 34 -100 84 -100c65 0 134 54 164 81zM231 743h68l107 -136h-41l-100 82l-100 -82h-41z" />
    <glyph glyph-name="atilde" unicode="&#xe3;" horiz-adv-x="541" 
d="M90 386l-10 124c57 13 125 22 185 22c129 0 177 -35 178 -191l1 -300l73 -13v-28l-144 -12v70c-57 -52 -129 -70 -184 -70c-27 0 -70 1 -101 30c-24 22 -40 64 -40 114c0 48 23 88 41 105c36 33 97 40 140 45l144 18v48c0 103 -24 142 -131 142c-14 0 -56 -3 -87 -14
l-31 -90h-34zM373 111v145c-160 -19 -202 -26 -223 -47c-25 -26 -25 -62 -25 -79c0 -72 34 -100 84 -100c65 0 134 54 164 81zM141 647l-33 19c17 39 49 77 95 77c17 0 38 -4 63 -20l17 -11c18 -11 31 -17 52 -17s40 17 50 36l33 -21c-16 -38 -48 -78 -94 -78
c-20 0 -43 8 -60 19l-20 13c-20 13 -31 16 -52 16c-20 0 -38 -14 -51 -33z" />
    <glyph glyph-name="adieresis" unicode="&#xe4;" horiz-adv-x="541" 
d="M90 386l-10 124c57 13 125 22 185 22c129 0 177 -35 178 -191l1 -300l73 -13v-28l-144 -12v70c-57 -52 -129 -70 -184 -70c-27 0 -70 1 -101 30c-24 22 -40 64 -40 114c0 48 23 88 41 105c36 33 97 40 140 45l144 18v48c0 103 -24 142 -131 142c-14 0 -56 -3 -87 -14
l-31 -90h-34zM373 111v145c-160 -19 -202 -26 -223 -47c-25 -26 -25 -62 -25 -79c0 -72 34 -100 84 -100c65 0 134 54 164 81zM312 692c0 30 20 51 50 51c29 0 50 -21 50 -51c0 -28 -21 -49 -50 -49s-50 20 -50 49zM117 692c0 30 20 51 50 51c29 0 50 -21 50 -51
c0 -28 -21 -49 -50 -49s-50 20 -50 49z" />
    <glyph glyph-name="aring" unicode="&#xe5;" horiz-adv-x="541" 
d="M90 386l-10 124c57 13 125 22 185 22c129 0 177 -35 178 -191l1 -300l73 -13v-28l-144 -12v70c-57 -52 -129 -70 -184 -70c-27 0 -70 1 -101 30c-24 22 -40 64 -40 114c0 48 23 88 41 105c36 33 97 40 140 45l144 18v48c0 103 -24 142 -131 142c-14 0 -56 -3 -87 -14
l-31 -90h-34zM373 111v145c-160 -19 -202 -26 -223 -47c-25 -26 -25 -62 -25 -79c0 -72 34 -100 84 -100c65 0 134 54 164 81zM172 683c0 55 43 98 98 98s98 -43 98 -98s-43 -98 -98 -98s-98 43 -98 98zM211 683c0 -34 25 -59 59 -59s60 25 60 59s-26 60 -60 60
s-59 -26 -59 -60z" />
    <glyph glyph-name="ae" unicode="&#xe6;" horiz-adv-x="858" 
d="M809 289l-353 -49c2 -107 33 -210 162 -210c70 0 133 23 174 47l14 -37c-84 -43 -153 -51 -202 -51c-102 0 -161 32 -195 93c-88 -84 -166 -93 -220 -93c-27 0 -71 1 -102 30c-23 22 -39 64 -39 114c0 54 21 89 40 105c36 31 93 36 136 42l150 21v48
c0 103 -25 141 -132 141c-14 0 -56 -2 -87 -13l-31 -90h-34l-10 124c56 13 125 22 185 22c86 0 138 -17 161 -74l19 20c49 52 126 53 165 53c38 0 99 -4 146 -51c45 -46 53 -127 53 -192zM382 171c-4 27 -8 61 -8 86c-160 -19 -204 -26 -225 -47c-25 -26 -25 -62 -25 -79
c0 -72 42 -92 92 -92c66 0 143 47 176 86c-4 14 -7 29 -10 46zM455 283l279 37c-2 31 -9 90 -28 121c-26 44 -65 49 -102 49c-115 0 -146 -93 -149 -198v-9z" />
    <glyph glyph-name="ccedilla" unicode="&#xe7;" horiz-adv-x="502" 
d="M459 77l14 -38c-55 -37 -117 -49 -172 -51l-14 -39c72 0 113 -18 113 -81c0 -80 -79 -91 -122 -91c-28 0 -62 5 -91 17l14 35c19 -7 41 -13 70 -13c41 0 65 16 65 51c0 38 -22 47 -60 47c-21 0 -31 -1 -41 -2l26 77c-61 5 -107 24 -135 50c-63 57 -66 147 -66 221
c0 165 48 272 233 272c44 0 112 -7 169 -22l-21 -129h-33l-22 95c-26 8 -65 14 -96 14c-131 0 -154 -96 -154 -233c0 -144 36 -227 170 -227c23 0 92 8 153 47z" />
    <glyph glyph-name="egrave" unicode="&#xe8;" horiz-adv-x="542" 
d="M493 289l-353 -49c2 -107 33 -210 162 -210c70 0 133 23 174 47l14 -37c-84 -43 -153 -51 -203 -51c-176 0 -227 101 -227 271c0 58 6 159 69 219c51 50 126 53 164 53c39 0 100 -4 147 -51c45 -46 53 -130 53 -183v-9zM139 283l279 37c-2 31 -9 90 -28 121
c-26 44 -65 49 -103 49c-114 0 -148 -93 -148 -198v-9zM128 750h98l83 -163h-40z" />
    <glyph glyph-name="eacute" unicode="&#xe9;" horiz-adv-x="542" 
d="M493 289l-353 -49c2 -107 33 -210 162 -210c70 0 133 23 174 47l14 -37c-84 -43 -153 -51 -203 -51c-176 0 -227 101 -227 271c0 58 6 159 69 219c51 50 126 53 164 53c39 0 100 -4 147 -51c45 -46 53 -130 53 -183v-9zM139 283l279 37c-2 31 -9 90 -28 121
c-26 44 -65 49 -103 49c-114 0 -148 -93 -148 -198v-9zM356 750h97l-141 -163h-39z" />
    <glyph glyph-name="ecircumflex" unicode="&#xea;" horiz-adv-x="542" 
d="M493 289l-353 -49c2 -107 33 -210 162 -210c70 0 133 23 174 47l14 -37c-84 -43 -153 -51 -203 -51c-176 0 -227 101 -227 271c0 58 6 159 69 219c51 50 126 53 164 53c39 0 100 -4 147 -51c45 -46 53 -130 53 -183v-9zM139 283l279 37c-2 31 -9 90 -28 121
c-26 44 -65 49 -103 49c-114 0 -148 -93 -148 -198v-9zM257 743h68l107 -136h-41l-100 82l-100 -82h-41z" />
    <glyph glyph-name="edieresis" unicode="&#xeb;" horiz-adv-x="542" 
d="M493 289l-353 -49c2 -107 33 -210 162 -210c70 0 133 23 174 47l14 -37c-84 -43 -153 -51 -203 -51c-176 0 -227 101 -227 271c0 58 6 159 69 219c51 50 126 53 164 53c39 0 100 -4 147 -51c45 -46 53 -130 53 -183v-9zM139 283l279 37c-2 31 -9 90 -28 121
c-26 44 -65 49 -103 49c-114 0 -148 -93 -148 -198v-9zM337 692c0 30 20 51 50 51c29 0 50 -21 50 -51c0 -28 -21 -49 -50 -49s-50 20 -50 49zM142 692c0 30 20 51 50 51c29 0 50 -21 50 -51c0 -28 -21 -49 -50 -49s-50 20 -50 49z" />
    <glyph glyph-name="igrave" unicode="&#xec;" horiz-adv-x="281" 
d="M176 532v-490l73 -14v-28h-213v28l64 18l6 15v417l-74 14v28zM-13 750h98l83 -163h-40z" />
    <glyph glyph-name="iacute" unicode="&#xed;" horiz-adv-x="281" 
d="M176 532v-490l73 -14v-28h-213v28l64 18l6 15v417l-74 14v28zM195 750h97l-141 -163h-39z" />
    <glyph glyph-name="icircumflex" unicode="&#xee;" horiz-adv-x="281" 
d="M176 532v-490l73 -14v-28h-213v28l64 18l6 15v417l-74 14v28zM88 743h68l107 -136h-41l-100 82l-100 -82h-41z" />
    <glyph glyph-name="idieresis" unicode="&#xef;" horiz-adv-x="281" 
d="M176 532v-490l74 -14v-28h-214v28l64 18l6 16v416l-74 14v28zM11 693c0 29 21 49 49 49c29 0 49 -20 49 -49s-20 -49 -49 -49c-28 0 -49 20 -49 49zM155 693c0 29 20 49 49 49c28 0 49 -20 49 -49s-21 -49 -49 -49c-29 0 -49 20 -49 49z" />
    <glyph glyph-name="eth" unicode="&#xf0;" horiz-adv-x="575" 
d="M136 260c0 -52 5 -144 40 -187c29 -36 75 -43 111 -43c37 0 83 7 112 43c35 43 40 135 40 187s-8 107 -39 149c-34 38 -77 58 -126 58c-107 0 -138 -110 -138 -207zM152 726l88 37c46 -20 87 -53 115 -79l93 50l25 -38l-87 -45c56 -66 104 -175 117 -255
c5 -33 12 -94 12 -136c0 -50 -2 -161 -62 -221c-49 -49 -124 -51 -166 -51c-44 0 -115 2 -164 51c-56 56 -63 150 -63 221c0 128 36 249 207 249c57 0 101 -14 142 -51c-18 51 -49 108 -88 155l-112 -63l-23 38l103 60c-31 27 -77 53 -133 62z" />
    <glyph glyph-name="ntilde" unicode="&#xf1;" horiz-adv-x="602" 
d="M32 520l144 12v-95c56 73 128 95 172 95c119 0 157 -63 157 -184v-306l73 -14v-28h-213v28l64 18l6 15v277c0 88 -14 152 -95 152c-78 0 -142 -87 -164 -131v-317l74 -14v-28h-214v28l64 18l6 15v417l-74 14v28zM192 647l-33 19c17 39 49 77 95 77c17 0 38 -4 63 -20
l17 -11c18 -11 31 -17 52 -17s40 17 50 36l33 -21c-16 -38 -48 -78 -94 -78c-20 0 -43 8 -60 19l-20 13c-20 13 -31 16 -52 16c-20 0 -38 -14 -51 -33z" />
    <glyph glyph-name="ograve" unicode="&#xf2;" horiz-adv-x="575" 
d="M60 260c0 71 7 165 63 221c49 49 120 51 164 51c42 0 117 -2 166 -51c60 -60 62 -171 62 -221s-2 -161 -62 -221c-49 -49 -124 -51 -166 -51c-44 0 -115 2 -164 51c-56 56 -63 150 -63 221zM136 260c0 -52 5 -144 40 -187c29 -36 75 -43 111 -43c37 0 83 7 112 43
c35 43 40 135 40 187s-5 144 -40 187c-29 36 -75 43 -112 43c-36 0 -82 -7 -111 -43c-35 -43 -40 -135 -40 -187zM130 750h98l83 -163h-40z" />
    <glyph glyph-name="oacute" unicode="&#xf3;" horiz-adv-x="575" 
d="M60 260c0 71 7 165 63 221c49 49 120 51 164 51c42 0 117 -2 166 -51c60 -60 62 -171 62 -221s-2 -161 -62 -221c-49 -49 -124 -51 -166 -51c-44 0 -115 2 -164 51c-56 56 -63 150 -63 221zM136 260c0 -52 5 -144 40 -187c29 -36 75 -43 111 -43c37 0 83 7 112 43
c35 43 40 135 40 187s-5 144 -40 187c-29 36 -75 43 -112 43c-36 0 -82 -7 -111 -43c-35 -43 -40 -135 -40 -187zM349 750h97l-141 -163h-39z" />
    <glyph glyph-name="ocircumflex" unicode="&#xf4;" horiz-adv-x="575" 
d="M60 260c0 71 7 165 63 221c49 49 120 51 164 51c42 0 117 -2 166 -51c60 -60 62 -171 62 -221s-2 -161 -62 -221c-49 -49 -124 -51 -166 -51c-44 0 -115 2 -164 51c-56 56 -63 150 -63 221zM136 260c0 -52 5 -144 40 -187c29 -36 75 -43 111 -43c37 0 83 7 112 43
c35 43 40 135 40 187s-5 144 -40 187c-29 36 -75 43 -112 43c-36 0 -82 -7 -111 -43c-35 -43 -40 -135 -40 -187zM262 743h68l107 -136h-41l-100 82l-100 -82h-41z" />
    <glyph glyph-name="otilde" unicode="&#xf5;" horiz-adv-x="575" 
d="M60 260c0 71 7 165 63 221c49 49 120 51 164 51c42 0 117 -2 166 -51c60 -60 62 -171 62 -221s-2 -161 -62 -221c-49 -49 -124 -51 -166 -51c-44 0 -115 2 -164 51c-56 56 -63 150 -63 221zM136 260c0 -52 5 -144 40 -187c29 -36 75 -43 111 -43c37 0 83 7 112 43
c35 43 40 135 40 187s-5 144 -40 187c-29 36 -75 43 -112 43c-36 0 -82 -7 -111 -43c-35 -43 -40 -135 -40 -187zM174 647l-33 19c17 39 49 77 95 77c17 0 38 -4 63 -20l17 -11c18 -11 31 -17 52 -17s40 17 50 36l33 -21c-16 -38 -48 -78 -94 -78c-20 0 -43 8 -60 19l-20 13
c-20 13 -31 16 -52 16c-20 0 -38 -14 -51 -33z" />
    <glyph glyph-name="odieresis" unicode="&#xf6;" horiz-adv-x="575" 
d="M60 260c0 71 7 165 63 221c49 49 120 51 164 51c42 0 117 -2 166 -51c60 -60 62 -171 62 -221s-2 -161 -62 -221c-49 -49 -124 -51 -166 -51c-44 0 -115 2 -164 51c-56 56 -63 150 -63 221zM136 260c0 -52 5 -144 40 -187c29 -36 75 -43 111 -43c37 0 83 7 112 43
c35 43 40 135 40 187s-5 144 -40 187c-29 36 -75 43 -112 43c-36 0 -82 -7 -111 -43c-35 -43 -40 -135 -40 -187zM344 692c0 30 20 51 50 51c29 0 50 -21 50 -51c0 -28 -21 -49 -50 -49s-50 20 -50 49zM149 692c0 30 20 51 50 51c29 0 50 -21 50 -51c0 -28 -21 -49 -50 -49
s-50 20 -50 49z" />
    <glyph glyph-name="divide" unicode="&#xf7;" 
d="M35 330h460v-52h-460v52zM210 119c0 32 25 56 57 56s56 -24 56 -56c0 -31 -24 -56 -56 -56s-57 25 -57 56zM210 489c0 32 25 56 57 56s56 -24 56 -56c0 -31 -24 -56 -56 -56s-57 25 -57 56z" />
    <glyph glyph-name="oslash" unicode="&#xf8;" horiz-adv-x="575" 
d="M489 560l42 -28l-59 -74c41 -62 43 -154 43 -198c0 -50 -2 -161 -62 -221c-49 -49 -124 -51 -166 -51s-108 2 -156 43l-57 -71l-41 29l65 82c-33 55 -38 130 -38 189c0 71 7 165 63 221c49 49 120 51 164 51c37 0 102 -2 150 -37zM439 260c0 36 -3 91 -17 136l-252 -315
l6 -8c30 -35 75 -43 111 -43c37 0 83 7 112 43c35 43 40 135 40 187zM136 260c0 -34 2 -83 13 -126l250 313c-30 35 -75 43 -112 43c-36 0 -82 -7 -111 -43c-35 -43 -40 -135 -40 -187z" />
    <glyph glyph-name="ugrave" unicode="&#xf9;" horiz-adv-x="615" 
d="M512 42l71 -14v-28l-141 -12v93c-63 -73 -145 -93 -192 -93c-109 0 -152 53 -152 183v307l-74 14v28l144 12v-348c0 -81 6 -154 91 -154c82 0 157 79 183 122v326l-74 14v28l144 12v-490zM157 750h98l83 -163h-40z" />
    <glyph glyph-name="uacute" unicode="&#xfa;" horiz-adv-x="615" 
d="M512 42l71 -14v-28l-141 -12v93c-63 -73 -145 -93 -192 -93c-109 0 -152 53 -152 183v307l-74 14v28l144 12v-348c0 -81 6 -154 91 -154c82 0 157 79 183 122v326l-74 14v28l144 12v-490zM354 750h97l-141 -163h-39z" />
    <glyph glyph-name="ucircumflex" unicode="&#xfb;" horiz-adv-x="615" 
d="M512 42l71 -14v-28l-141 -12v93c-63 -73 -145 -93 -192 -93c-109 0 -152 53 -152 183v307l-74 14v28l144 12v-348c0 -81 6 -154 91 -154c82 0 157 79 183 122v326l-74 14v28l144 12v-490zM274 743h68l107 -136h-41l-100 82l-100 -82h-41z" />
    <glyph glyph-name="udieresis" unicode="&#xfc;" horiz-adv-x="615" 
d="M512 42l71 -14v-28l-141 -12v93c-63 -73 -145 -93 -192 -93c-109 0 -152 53 -152 183v307l-74 14v28l144 12v-348c0 -81 6 -154 91 -154c82 0 157 79 183 122v326l-74 14v28l144 12v-490zM346 692c0 30 20 51 50 51c29 0 50 -21 50 -51c0 -28 -21 -49 -50 -49
s-50 20 -50 49zM151 692c0 30 20 51 50 51c29 0 50 -21 50 -51c0 -28 -21 -49 -50 -49s-50 20 -50 49z" />
    <glyph glyph-name="yacute" unicode="&#xfd;" horiz-adv-x="578" 
d="M500 474l-194 -557c-28 -80 -73 -148 -171 -148c-27 0 -61 6 -96 20l26 99h33l18 -72c5 -1 12 -2 17 -2c68 0 106 46 125 110l21 70l-195 484l-68 14v28h213v-27l-61 -16l152 -382l128 383l-70 14v28h184v-28zM379 750h97l-141 -163h-39z" />
    <glyph glyph-name="thorn" unicode="&#xfe;" horiz-adv-x="597" 
d="M320 30c123 0 141 110 141 239c0 99 -2 221 -121 221c-64 0 -132 -55 -164 -125v-272c53 -41 110 -63 144 -63zM176 761v-319c35 51 87 90 177 90c170 0 184 -118 184 -272c0 -132 -24 -272 -200 -272c-42 0 -95 3 -161 48v-214l89 -14v-27h-228v27l62 17l7 16v855l-74 9
v28z" />
    <glyph glyph-name="ydieresis" unicode="&#xff;" horiz-adv-x="578" 
d="M500 474l-194 -557c-28 -80 -73 -148 -171 -148c-27 0 -61 6 -96 20l26 99h33l18 -72c5 -1 12 -2 17 -2c68 0 106 46 125 110l21 70l-195 484l-68 14v28h213v-27l-61 -16l152 -382l128 383l-70 14v28h184v-28zM358 692c0 30 20 51 50 51c29 0 50 -21 50 -51
c0 -28 -21 -49 -50 -49s-50 20 -50 49zM163 692c0 30 20 51 50 51c29 0 50 -21 50 -51c0 -28 -21 -49 -50 -49s-50 20 -50 49z" />
    <glyph glyph-name="Amacron" unicode="&#x100;" horiz-adv-x="680" 
d="M672 0h-227v32l67 18l8 15l-46 130h-293l-55 -153l72 -10v-32h-190v32l66 18l245 651h53l242 -660l58 -9v-32zM198 241h260l-127 361zM500 808h-294v46h294v-46z" />
    <glyph glyph-name="amacron" unicode="&#x101;" horiz-adv-x="541" 
d="M90 386l-10 124c57 13 125 22 185 22c129 0 177 -35 178 -191l1 -300l73 -13v-28l-144 -12v70c-57 -52 -129 -70 -184 -70c-27 0 -70 1 -101 30c-24 22 -40 64 -40 114c0 48 23 88 41 105c36 33 97 40 140 45l144 18v48c0 103 -24 142 -131 142c-14 0 -56 -3 -87 -14
l-31 -90h-34zM373 111v145c-160 -19 -202 -26 -223 -47c-25 -26 -25 -62 -25 -79c0 -72 34 -100 84 -100c65 0 134 54 164 81zM143 659v42h254v-42h-254z" />
    <glyph glyph-name="Abreve" unicode="&#x102;" horiz-adv-x="680" 
d="M672 0h-227v32l67 18l8 15l-46 130h-293l-55 -153l72 -10v-32h-190v32l66 18l245 651h53l242 -660l58 -9v-32zM198 241h260l-127 361zM349 772c-79 0 -125 25 -149 75v59h40c0 -56 54 -65 108 -65c59 0 108 7 108 65h40v-59c-24 -50 -82 -75 -147 -75z" />
    <glyph glyph-name="abreve" unicode="&#x103;" horiz-adv-x="541" 
d="M90 386l-10 124c57 13 125 22 185 22c129 0 177 -35 178 -191l1 -300l73 -13v-28l-144 -12v70c-57 -52 -129 -70 -184 -70c-27 0 -70 1 -101 30c-24 22 -40 64 -40 114c0 48 23 88 41 105c36 33 97 40 140 45l144 18v48c0 103 -24 142 -131 142c-14 0 -56 -3 -87 -14
l-31 -90h-34zM373 111v145c-160 -19 -202 -26 -223 -47c-25 -26 -25 -62 -25 -79c0 -72 34 -100 84 -100c65 0 134 54 164 81zM269 609c-79 0 -125 25 -149 75v59h39c0 -60 55 -71 109 -71c59 0 109 9 109 71h39v-59c-24 -50 -82 -75 -147 -75z" />
    <glyph glyph-name="Aogonek" unicode="&#x104;" horiz-adv-x="680" 
d="M198 241h260l-127 361zM672 0h-17c-30 0 -62 -23 -83 -45c-22 -23 -39 -52 -39 -87c0 -36 23 -46 53 -46c20 0 41 5 58 13l10 -38c-21 -12 -49 -19 -82 -19c-67 0 -110 32 -110 82c0 45 22 73 52 100c23 20 45 31 69 40h-138v32l67 18l8 15l-46 130h-293l-55 -153l72 -10
v-32h-190v32l66 18l245 651h53l242 -660l58 -9v-32z" />
    <glyph glyph-name="aogonek" unicode="&#x105;" horiz-adv-x="541" 
d="M390 -137c0 -33 22 -46 57 -46c20 0 41 5 58 13l10 -33c-21 -12 -48 -19 -81 -19c-67 0 -106 32 -106 82c0 38 24 70 54 96c14 12 35 26 52 37l-61 -5v70c-57 -52 -129 -70 -184 -70c-27 0 -70 1 -101 30c-24 22 -40 64 -40 114c0 48 23 88 41 105c36 33 97 40 140 45
l144 18v48c0 103 -24 142 -131 142c-14 0 -56 -3 -87 -14l-31 -90h-34l-10 124c57 13 125 22 185 22c129 0 177 -35 178 -191l1 -300l73 -13v-28l-30 -2c-37 -30 -51 -43 -62 -57c-22 -24 -35 -51 -35 -78zM373 111v145c-160 -19 -202 -26 -223 -47c-25 -26 -25 -62 -25 -79
c0 -72 34 -100 84 -100c65 0 134 54 164 81z" />
    <glyph glyph-name="Cacute" unicode="&#x106;" horiz-adv-x="620" 
d="M562 691l10 -151h-37l-39 106c-31 14 -76 24 -122 24c-189 0 -218 -138 -218 -319c0 -165 31 -224 55 -255c42 -53 112 -66 159 -66c49 0 86 13 117 26l55 86h37l-35 -122c-41 -18 -97 -36 -183 -36c-51 0 -148 6 -211 69c-67 67 -78 196 -78 297c0 249 93 366 308 366
c43 0 117 -8 182 -25zM411 912h102l-142 -134h-46z" />
    <glyph glyph-name="cacute" unicode="&#x107;" horiz-adv-x="502" 
d="M459 77l14 -38c-59 -39 -126 -51 -184 -51c-75 0 -131 22 -163 51c-63 57 -66 147 -66 221c0 165 48 272 233 272c44 0 112 -7 169 -22l-21 -129h-33l-22 95c-26 8 -65 14 -96 14c-131 0 -154 -96 -154 -233c0 -144 36 -227 170 -227c23 0 92 8 153 47zM349 750h97
l-141 -163h-39z" />
    <glyph glyph-name="Ccircumflex" unicode="&#x108;" horiz-adv-x="620" 
d="M562 691l10 -151h-37l-39 106c-31 14 -76 24 -122 24c-189 0 -218 -138 -218 -319c0 -165 31 -224 55 -255c42 -53 112 -66 159 -66c49 0 86 13 117 26l55 86h37l-35 -122c-41 -18 -97 -36 -183 -36c-51 0 -148 6 -211 69c-67 67 -78 196 -78 297c0 249 93 366 308 366
c43 0 117 -8 182 -25zM336 912h70l107 -134h-44l-98 76l-98 -76h-44z" />
    <glyph glyph-name="ccircumflex" unicode="&#x109;" horiz-adv-x="502" 
d="M459 77l14 -38c-59 -39 -126 -51 -184 -51c-75 0 -131 22 -163 51c-63 57 -66 147 -66 221c0 165 48 272 233 272c44 0 112 -7 169 -22l-21 -129h-33l-22 95c-26 8 -65 14 -96 14c-131 0 -154 -96 -154 -233c0 -144 36 -227 170 -227c23 0 92 8 153 47zM276 743h68
l107 -136h-41l-100 82l-100 -82h-41z" />
    <glyph glyph-name="Cdotaccent" unicode="&#x10a;" horiz-adv-x="620" 
d="M562 691l10 -151h-37l-39 106c-31 14 -76 24 -122 24c-189 0 -218 -138 -218 -319c0 -165 31 -224 55 -255c42 -53 112 -66 159 -66c49 0 86 13 117 26l55 86h37l-35 -122c-41 -18 -97 -36 -183 -36c-51 0 -148 6 -211 69c-67 67 -78 196 -78 297c0 249 93 366 308 366
c43 0 117 -8 182 -25zM313 835c0 34 26 57 60 57c33 0 60 -23 60 -57c0 -36 -26 -61 -60 -61s-60 26 -60 61z" />
    <glyph glyph-name="cdotaccent" unicode="&#x10b;" horiz-adv-x="502" 
d="M459 77l14 -38c-59 -39 -126 -51 -184 -51c-75 0 -131 22 -163 51c-63 57 -66 147 -66 221c0 165 48 272 233 272c44 0 112 -7 169 -22l-21 -129h-33l-22 95c-26 8 -65 14 -96 14c-131 0 -154 -96 -154 -233c0 -144 36 -227 170 -227c23 0 92 8 153 47zM254 694
c0 30 21 51 51 51c29 0 49 -21 49 -51c0 -28 -20 -49 -49 -49c-30 0 -51 20 -51 49z" />
    <glyph glyph-name="Ccaron" unicode="&#x10c;" horiz-adv-x="620" 
d="M562 691l10 -151h-37l-39 106c-31 14 -76 24 -122 24c-189 0 -218 -138 -218 -319c0 -165 31 -224 55 -255c42 -53 112 -66 159 -66c49 0 86 13 117 26l55 86h37l-35 -122c-41 -18 -97 -36 -183 -36c-51 0 -148 6 -211 69c-67 67 -78 196 -78 297c0 249 93 366 308 366
c43 0 117 -8 182 -25zM402 778h-70l-107 134h44l98 -76l98 76h44z" />
    <glyph glyph-name="ccaron" unicode="&#x10d;" horiz-adv-x="502" 
d="M459 77l14 -38c-59 -39 -126 -51 -184 -51c-75 0 -131 22 -163 51c-63 57 -66 147 -66 221c0 165 48 272 233 272c44 0 112 -7 169 -22l-21 -129h-33l-22 95c-26 8 -65 14 -96 14c-131 0 -154 -96 -154 -233c0 -144 36 -227 170 -227c23 0 92 8 153 47zM339 607h-68
l-107 136h41l100 -82l100 82h41z" />
    <glyph glyph-name="Dcaron" unicode="&#x10e;" horiz-adv-x="732" 
d="M206 652v-604h147c180 0 223 128 223 303c0 102 -14 188 -59 242c-43 53 -109 59 -168 59h-143zM128 658l-80 10v32h300c81 0 175 -8 236 -65c75 -71 76 -189 76 -284c0 -217 -81 -351 -307 -351h-305v32l67 18h-1l14 20v588zM394 778h-70l-107 134h44l98 -76l98 76h44z
" />
    <glyph glyph-name="dcaron" unicode="&#x10f;" horiz-adv-x="596" 
d="M420 157v278c-51 37 -99 55 -146 55c-119 0 -139 -127 -139 -239c0 -93 16 -221 127 -221c73 0 130 75 158 127zM490 761v-719l74 -14v-28l-144 -12v92c-62 -84 -131 -92 -167 -92c-155 0 -193 114 -193 267s36 277 207 277c57 0 99 -9 153 -41v206l-74 9v27zM571 762
l84 -15c-4 -29 -11 -59 -27 -98c-12 -28 -28 -63 -41 -82l-29 11c5 19 9 55 12 81c2 24 2 48 2 74c0 12 0 23 -1 29z" />
    <glyph glyph-name="Dcroat" unicode="&#x110;" horiz-adv-x="731" 
d="M206 324v-276h145c181 0 224 128 224 303c0 102 -14 188 -59 242c-43 53 -108 59 -168 59h-142v-280h146v-48h-146zM128 372v286l-80 10v32h299c82 0 175 -8 236 -65c75 -71 76 -189 76 -284c0 -217 -81 -351 -308 -351h-303v32l67 18h-1l14 20v254h-98v48h98z" />
    <glyph glyph-name="dcroat" unicode="&#x111;" horiz-adv-x="596" 
d="M271 649h148v47l-73 9v28l143 28v-112h65v-44h-65v-562l75 -15v-28l-145 -12v92c-61 -84 -131 -92 -167 -92c-154 0 -192 114 -192 267s36 277 206 277c58 0 100 -9 153 -41v114h-148v44zM419 157v278c-50 37 -98 55 -146 55c-119 0 -139 -127 -139 -239
c0 -93 16 -221 127 -221c74 0 131 75 158 127z" />
    <glyph glyph-name="Emacron" unicode="&#x112;" horiz-adv-x="580" 
d="M48 700h469l10 -123h-34l-33 69l-13 6h-241v-256h180l12 8l17 62h33v-189h-33l-17 63l-14 8h-178v-300h249l14 15l37 89h34l-19 -152h-473v32l66 18l14 20v589l-80 9v32zM450 808h-294v46h294v-46z" />
    <glyph glyph-name="emacron" unicode="&#x113;" horiz-adv-x="542" 
d="M493 289l-353 -49c2 -107 33 -210 162 -210c70 0 133 23 174 47l14 -37c-84 -43 -153 -51 -203 -51c-176 0 -227 101 -227 271c0 58 6 159 69 219c51 50 126 53 164 53c39 0 100 -4 147 -51c45 -46 53 -130 53 -183v-9zM139 283l279 37c-2 31 -9 90 -28 121
c-26 44 -65 49 -103 49c-114 0 -148 -93 -148 -198v-9zM164 659v42h254v-42h-254z" />
    <glyph glyph-name="Edotaccent" unicode="&#x116;" horiz-adv-x="580" 
d="M48 700h469l10 -123h-34l-33 69l-13 6h-241v-256h180l12 8l17 62h33v-189h-33l-17 63l-14 8h-178v-300h249l14 15l37 89h34l-19 -152h-473v32l66 18l14 20v589l-80 9v32zM242 835c0 34 26 57 60 57c33 0 60 -23 60 -57c0 -36 -26 -61 -60 -61s-60 26 -60 61z" />
    <glyph glyph-name="edotaccent" unicode="&#x117;" horiz-adv-x="542" 
d="M493 289l-353 -49c2 -107 33 -210 162 -210c70 0 133 23 174 47l14 -37c-84 -43 -153 -51 -203 -51c-176 0 -227 101 -227 271c0 58 6 159 69 219c51 50 126 53 164 53c39 0 100 -4 147 -51c45 -46 53 -130 53 -183v-9zM139 283l279 37c-2 31 -9 90 -28 121
c-26 44 -65 49 -103 49c-114 0 -148 -93 -148 -198v-9zM239 694c0 30 21 51 51 51c29 0 49 -21 49 -51c0 -28 -20 -49 -49 -49c-30 0 -51 20 -51 49z" />
    <glyph glyph-name="Eogonek" unicode="&#x118;" horiz-adv-x="580" 
d="M428 0h-380v32l66 18l14 20v589l-80 9v32h469l10 -123h-34l-33 69l-13 6h-241v-256h180l12 8l17 62h33v-189h-33l-17 63l-14 8h-178v-300h249l14 15l37 89h34l-19 -152h-18c-30 0 -70 -33 -86 -54c-20 -26 -32 -56 -32 -83c0 -31 23 -41 53 -41c20 0 41 5 58 13l10 -38
c-21 -12 -49 -19 -82 -19c-67 0 -110 32 -110 82c0 38 21 71 49 97c21 19 41 31 65 43z" />
    <glyph glyph-name="eogonek" unicode="&#x119;" horiz-adv-x="542" 
d="M138 283l279 37c-2 31 -9 90 -27 121c-26 44 -65 49 -103 49c-115 0 -146 -93 -149 -198v-9zM357 -38c15 15 28 27 42 39v2c-39 -11 -77 -14 -112 -14c-176 0 -227 101 -227 271c0 58 6 159 69 219c50 50 125 53 164 53s100 -4 146 -51c45 -46 53 -130 53 -183v-9
l-353 -49c2 -107 33 -210 163 -210c70 0 132 23 173 47l14 -38l-24 -24c-22 -22 -48 -48 -65 -70c-18 -24 -30 -51 -30 -77c0 -31 22 -50 55 -50c19 0 42 5 60 14l11 -33c-22 -13 -49 -20 -82 -20c-67 0 -106 32 -106 83c0 37 21 70 49 100z" />
    <glyph glyph-name="Ecaron" unicode="&#x11a;" horiz-adv-x="580" 
d="M48 700h469l10 -123h-34l-33 69l-13 6h-241v-256h180l12 8l17 62h33v-189h-33l-17 63l-14 8h-178v-300h249l14 15l37 89h34l-19 -152h-473v32l66 18l14 20v589l-80 9v32zM342 778h-70l-107 134h44l98 -76l98 76h44z" />
    <glyph glyph-name="ecaron" unicode="&#x11b;" horiz-adv-x="542" 
d="M493 289l-353 -49c2 -107 33 -210 162 -210c70 0 133 23 174 47l14 -37c-84 -43 -153 -51 -203 -51c-176 0 -227 101 -227 271c0 58 6 159 69 219c51 50 126 53 164 53c39 0 100 -4 147 -51c45 -46 53 -130 53 -183v-9zM139 283l279 37c-2 31 -9 90 -28 121
c-26 44 -65 49 -103 49c-114 0 -148 -93 -148 -198v-9zM328 607h-68l-107 136h41l100 -82l100 82h41z" />
    <glyph glyph-name="Gcircumflex" unicode="&#x11c;" horiz-adv-x="700" 
d="M370 670c-189 0 -215 -140 -215 -321c0 -165 30 -225 55 -255c41 -50 104 -64 150 -64c20 0 105 7 144 29v229l-88 10v33h245v-33l-66 -18l-14 -20v-220c-81 -48 -158 -56 -225 -56c-250 0 -284 156 -284 363c0 252 89 369 304 369c43 0 135 -7 200 -24l9 -151h-37
l-39 107c-31 14 -93 22 -139 22zM336 912h70l107 -134h-44l-98 76l-98 -76h-44z" />
    <glyph glyph-name="gcircumflex" unicode="&#x11d;" horiz-adv-x="560" 
d="M34 -112c0 48 37 83 104 105c-32 8 -72 32 -72 91c0 60 56 90 109 100c-99 26 -110 123 -110 159c0 125 69 189 206 189c86 0 124 -24 144 -43c47 26 100 32 131 32h20l-7 -48c-15 4 -32 5 -48 5c-17 0 -43 0 -72 -20c20 -37 26 -67 26 -105c0 -52 -14 -112 -54 -146
c-44 -37 -105 -44 -140 -44h-37c-38 0 -103 -11 -103 -59c0 -41 44 -53 72 -55l125 -9c97 -7 197 -15 197 -129c0 -121 -138 -142 -252 -142c-102 0 -239 10 -239 119zM141 346c0 -84 29 -141 123 -141c83 0 125 45 125 142c0 94 -32 143 -126 143c-84 0 -122 -49 -122 -144
zM312 -23l-119 7c-50 -12 -85 -50 -85 -84c0 -77 71 -88 167 -88c63 0 187 4 187 86c0 67 -87 75 -150 79zM238 743h68l107 -136h-41l-100 82l-100 -82h-41z" />
    <glyph glyph-name="Gbreve" unicode="&#x11e;" horiz-adv-x="700" 
d="M370 670c-189 0 -215 -140 -215 -321c0 -165 30 -225 55 -255c41 -50 104 -64 150 -64c20 0 105 7 144 29v229l-88 10v33h245v-33l-66 -18l-14 -20v-220c-81 -48 -158 -56 -225 -56c-250 0 -284 156 -284 363c0 252 89 369 304 369c43 0 135 -7 200 -24l9 -151h-37
l-39 107c-31 14 -93 22 -139 22zM370 772c-79 0 -125 25 -149 75v59h40c0 -56 54 -65 108 -65c59 0 108 7 108 65h40v-59c-24 -50 -82 -75 -147 -75z" />
    <glyph glyph-name="gbreve" unicode="&#x11f;" horiz-adv-x="560" 
d="M34 -112c0 48 37 83 104 105c-32 8 -72 32 -72 91c0 60 56 90 109 100c-99 26 -110 123 -110 159c0 125 69 189 206 189c86 0 124 -24 144 -43c47 26 100 32 131 32h20l-7 -48c-15 4 -32 5 -48 5c-17 0 -43 0 -72 -20c20 -37 26 -67 26 -105c0 -52 -14 -112 -54 -146
c-44 -37 -105 -44 -140 -44h-37c-38 0 -103 -11 -103 -59c0 -41 44 -53 72 -55l125 -9c97 -7 197 -15 197 -129c0 -121 -138 -142 -252 -142c-102 0 -239 10 -239 119zM141 346c0 -84 29 -141 123 -141c83 0 125 45 125 142c0 94 -32 143 -126 143c-84 0 -122 -49 -122 -144
zM312 -23l-119 7c-50 -12 -85 -50 -85 -84c0 -77 71 -88 167 -88c63 0 187 4 187 86c0 67 -87 75 -150 79zM289 609c-79 0 -125 25 -149 75v59h39c0 -60 55 -71 109 -71c59 0 109 9 109 71h39v-59c-24 -50 -82 -75 -147 -75z" />
    <glyph glyph-name="Gdotaccent" unicode="&#x120;" horiz-adv-x="700" 
d="M370 670c-189 0 -215 -140 -215 -321c0 -165 30 -225 55 -255c41 -50 104 -64 150 -64c20 0 105 7 144 29v229l-88 10v33h245v-33l-66 -18l-14 -20v-220c-81 -48 -158 -56 -225 -56c-250 0 -284 156 -284 363c0 252 89 369 304 369c43 0 135 -7 200 -24l9 -151h-37
l-39 107c-31 14 -93 22 -139 22zM313 835c0 34 26 57 60 57c33 0 60 -23 60 -57c0 -36 -26 -61 -60 -61s-60 26 -60 61z" />
    <glyph glyph-name="gdotaccent" unicode="&#x121;" horiz-adv-x="560" 
d="M34 -112c0 48 37 83 104 105c-32 8 -72 32 -72 91c0 60 56 90 109 100c-99 26 -110 123 -110 159c0 125 69 189 206 189c86 0 124 -24 144 -43c47 26 100 32 131 32h20l-7 -48c-15 4 -32 5 -48 5c-17 0 -43 0 -72 -20c20 -37 26 -67 26 -105c0 -52 -14 -112 -54 -146
c-44 -37 -105 -44 -140 -44h-37c-38 0 -103 -11 -103 -59c0 -41 44 -53 72 -55l125 -9c97 -7 197 -15 197 -129c0 -121 -138 -142 -252 -142c-102 0 -239 10 -239 119zM141 346c0 -84 29 -141 123 -141c83 0 125 45 125 142c0 94 -32 143 -126 143c-84 0 -122 -49 -122 -144
zM312 -23l-119 7c-50 -12 -85 -50 -85 -84c0 -77 71 -88 167 -88c63 0 187 4 187 86c0 67 -87 75 -150 79zM223 694c0 30 21 51 51 51c29 0 49 -21 49 -51c0 -28 -20 -49 -49 -49c-30 0 -51 20 -51 49z" />
    <glyph glyph-name="Gcommaaccent" unicode="&#x122;" horiz-adv-x="700" 
d="M370 670c-189 0 -215 -140 -215 -321c0 -165 30 -225 55 -255c41 -50 104 -64 150 -64c20 0 105 7 144 29v229l-88 10v33h245v-33l-66 -18l-14 -20v-220c-81 -48 -158 -56 -225 -56c-250 0 -284 156 -284 363c0 252 89 369 304 369c43 0 135 -7 200 -24l9 -151h-37
l-39 107c-31 14 -93 22 -139 22zM334 -46l86 -15c-4 -29 -11 -59 -27 -98c-12 -28 -28 -63 -41 -82l-35 15c6 19 12 55 14 75c3 31 4 50 4 76c0 12 0 23 -1 29z" />
    <glyph glyph-name="gcommaaccent" unicode="&#x123;" horiz-adv-x="560" 
d="M318 750h39c-22 -41 -32 -85 -32 -153v-20l-85 18c5 25 16 56 30 85c13 26 28 50 48 70zM34 -112c0 48 37 83 104 105c-32 8 -72 32 -72 91c0 60 56 90 109 100c-99 26 -110 123 -110 159c0 125 69 189 206 189c86 0 124 -24 144 -43c47 26 100 32 131 32h20l-7 -48
c-15 4 -32 5 -48 5c-17 0 -43 0 -72 -20c20 -37 26 -67 26 -105c0 -52 -14 -112 -54 -146c-44 -37 -105 -44 -140 -44h-37c-38 0 -103 -11 -103 -59c0 -41 44 -53 72 -55l125 -9c97 -7 197 -15 197 -129c0 -121 -138 -142 -252 -142c-102 0 -239 10 -239 119zM141 346
c0 -84 29 -141 123 -141c83 0 125 45 125 142c0 94 -32 143 -126 143c-84 0 -122 -49 -122 -144zM312 -23l-119 7c-50 -12 -85 -50 -85 -84c0 -77 71 -88 167 -88c63 0 187 4 187 86c0 67 -87 75 -150 79z" />
    <glyph glyph-name="Hcircumflex" unicode="&#x124;" horiz-adv-x="752" 
d="M206 42l80 -10v-32h-238v32l66 18l14 20v588l-80 10v32h238v-32l-66 -18l-14 -20v-233h339v261l-80 10v32h238v-32l-66 -18l-14 -20v-588l80 -10v-32h-238v32l66 18l14 20v279h-339v-307zM341 912h70l107 -134h-44l-98 76l-98 -76h-44z" />
    <glyph glyph-name="hcircumflex" unicode="&#x125;" horiz-adv-x="602" 
d="M176 359v-317l74 -14v-28h-214v28l64 18l6 15v636l-74 9v27l144 28v-324c56 73 128 95 172 95c119 0 157 -63 157 -184v-306l73 -14v-28h-213v28l64 18l6 15v277c0 88 -14 152 -95 152c-78 0 -142 -87 -164 -131zM93 911h68l107 -136h-41l-100 82l-100 -82h-41z" />
    <glyph glyph-name="Hbar" unicode="&#x126;" horiz-adv-x="752" 
d="M205 513v-116h339v116h-339zM128 560v98l-80 10v32h237v-32l-66 -18l-14 -20v-70h339v98l-79 10v32h237v-32l-66 -18l-14 -20l1 -70h73v-47h-73c0 -118 -1 -353 -1 -471l80 -10v-32h-237v32l65 18l14 20v279h-339v-307l80 -10v-32h-237v32l66 18l14 20v443h-77v47h77z
" />
    <glyph glyph-name="hbar" unicode="&#x127;" horiz-adv-x="612" 
d="M28 604v44h78v49l-74 9v27l144 28v-113h196v-44h-196v-167c56 73 128 95 172 95c119 0 157 -63 157 -184v-306l73 -14v-28h-213v28l64 18l6 15v277c0 88 -14 152 -95 152c-78 0 -142 -87 -164 -131v-317l74 -14v-28h-214v28l64 18l6 15v543h-78z" />
    <glyph glyph-name="Imacron" unicode="&#x12a;" horiz-adv-x="334" 
d="M206 630v-588l79 -10v-32h-237v32l66 18l14 20v588l-80 10v32h237v-32l-65 -18zM315 808h-294v46h294v-46z" />
    <glyph glyph-name="imacron" unicode="&#x12b;" horiz-adv-x="281" 
d="M176 532v-490l73 -14v-28h-213v28l64 18l6 15v417l-74 14v28zM15 659v42h254v-42h-254z" />
    <glyph glyph-name="Iogonek" unicode="&#x12e;" horiz-adv-x="334" 
d="M193 0h-145v32l66 18l14 20v588l-80 10v32h237v-32l-66 -18l-14 -20v-588l80 -10v-32h-16c-34 -6 -63 -29 -85 -52c-21 -23 -33 -53 -33 -78c0 -33 21 -47 54 -47c19 0 40 4 58 13l11 -37c-22 -13 -47 -20 -80 -20c-67 0 -113 32 -113 82c0 43 20 75 58 104
c18 14 37 25 54 35z" />
    <glyph glyph-name="iogonek" unicode="&#x12f;" horiz-adv-x="281" 
d="M97 -37c15 14 32 27 51 37h-112v28l64 18l6 15v417l-74 14v28l143 12v-490l74 -14v-28h-24c-32 0 -64 -32 -86 -54c-21 -23 -33 -55 -33 -81c0 -32 22 -47 55 -47c19 0 42 5 60 14l11 -33c-22 -13 -49 -20 -82 -20c-67 0 -106 32 -106 83c0 37 22 74 53 101zM85 695
c0 30 20 50 49 50c30 0 51 -20 51 -50c0 -29 -21 -49 -51 -49c-29 0 -49 20 -49 49z" />
    <glyph glyph-name="Idotaccent" unicode="&#x130;" horiz-adv-x="334" 
d="M206 630v-588l79 -10v-32h-237v32l66 18l14 20v588l-80 10v32h237v-32l-65 -18zM107 835c0 34 26 57 60 57c33 0 60 -23 60 -57c0 -36 -26 -61 -60 -61s-60 26 -60 61z" />
    <glyph glyph-name="dotlessi" unicode="&#x131;" horiz-adv-x="281" 
d="M176 532v-490l73 -14v-28h-213v28l64 18l6 15v417l-74 14v28z" />
    <glyph glyph-name="Jcircumflex" unicode="&#x134;" horiz-adv-x="444" 
d="M250 208v450l-80 10v32h237v-32l-66 -18l-14 -20v-422c0 -51 0 -135 -48 -181c-40 -38 -99 -43 -137 -43c-33 0 -65 4 -123 16l11 134h34l22 -92c19 -9 37 -12 54 -12c104 0 110 91 110 178zM250 912h70l107 -134h-44l-98 76l-98 -76h-44z" />
    <glyph glyph-name="jcircumflex" unicode="&#x135;" horiz-adv-x="270" 
d="M95 743h66l107 -136h-39l-101 83l-101 -83h-39zM35 -231c-43 0 -79 6 -105 13l17 109h34l15 -77c7 -1 25 -3 39 -3c60 0 71 51 71 127v540l-74 14v28l143 12v-594c0 -53 -5 -169 -140 -169z" />
    <glyph glyph-name="Kcommaaccent" unicode="&#x136;" horiz-adv-x="668" 
d="M206 631v-257l260 269v15l-64 10v32h234v-32l-102 -26h1l-254 -255l295 -345l73 -10v-32h-168v30l-275 335v-323l80 -10v-32h-238v32l66 18l14 20v588l-80 10v32h238v-32l-67 -18zM318 -46l86 -15c-4 -29 -11 -59 -27 -98c-12 -28 -28 -63 -41 -82l-35 15
c6 19 12 55 14 75c3 31 4 50 4 76c0 12 0 23 -1 29z" />
    <glyph glyph-name="kcommaaccent" unicode="&#x137;" horiz-adv-x="536" 
d="M106 696l-74 9v28l144 28v-477l193 185v11l-60 10v30h204v-30l-85 -27l-179 -169l209 -252l69 -14v-28h-154v34l-197 241v-233l74 -14v-28h-214v28l64 18l6 15v635zM242 -46l83 -15c-4 -29 -11 -59 -27 -98c-12 -28 -28 -63 -41 -82l-28 11c5 19 9 55 12 81
c2 24 2 48 2 74c0 12 0 23 -1 29z" />
    <glyph glyph-name="Lacute" unicode="&#x139;" horiz-adv-x="550" 
d="M206 48h249l14 15l37 89h35l-19 -152h-474v32l66 18l14 20v588l-80 10v32h238v-32l-66 -18l-14 -20v-582zM243 912h102l-142 -134h-46z" />
    <glyph glyph-name="lacute" unicode="&#x13a;" horiz-adv-x="280" 
d="M106 696l-74 9v28l144 28v-719l73 -14v-28h-213v28l64 18l6 15v635zM192 955h97l-141 -163h-39z" />
    <glyph glyph-name="Lcommaaccent" unicode="&#x13b;" horiz-adv-x="550" 
d="M206 48h249l14 15l37 89h35l-19 -152h-474v32l66 18l14 20v588l-80 10v32h238v-32l-66 -18l-14 -20v-582zM286 -46l86 -15c-4 -29 -11 -59 -27 -98c-12 -28 -28 -63 -41 -82l-35 15c6 19 12 55 14 75c3 31 4 50 4 76c0 12 0 23 -1 29z" />
    <glyph glyph-name="lcommaaccent" unicode="&#x13c;" horiz-adv-x="280" 
d="M106 696l-74 9v28l144 28v-719l73 -14v-28h-213v28l64 18l6 15v635zM114 -46l83 -15c-4 -29 -11 -59 -27 -98c-12 -28 -28 -63 -41 -82l-28 11c5 19 9 55 12 81c2 24 2 48 2 74c0 12 0 23 -1 29z" />
    <glyph glyph-name="Lcaron" unicode="&#x13d;" horiz-adv-x="550" 
d="M206 48h249l14 15l37 89h35l-19 -152h-474v32l66 18l14 20v588l-80 10v32h238v-32l-66 -18l-14 -20v-582zM422 760l86 -15c-4 -29 -11 -59 -27 -98c-12 -28 -28 -63 -41 -82l-35 15c6 19 12 55 14 75c3 31 4 50 4 76c0 12 0 23 -1 29z" />
    <glyph glyph-name="lcaron" unicode="&#x13e;" horiz-adv-x="280" 
d="M106 696l-74 9v28l144 28v-719l73 -14v-28h-213v28l64 18l6 15v635zM257 762l84 -15c-4 -29 -11 -59 -27 -98c-12 -28 -28 -63 -41 -82l-29 11c5 19 9 55 12 81c2 24 2 48 2 74c0 12 0 23 -1 29z" />
    <glyph glyph-name="Ldot" unicode="&#x13f;" horiz-adv-x="550" 
d="M206 48h249l14 15l37 89h35l-19 -152h-474v32l66 18l14 20v588l-80 10v32h238v-32l-66 -18l-14 -20v-582zM384 373c0 30 21 51 51 51c29 0 49 -21 49 -51c0 -28 -20 -49 -49 -49c-30 0 -51 20 -51 49z" />
    <glyph glyph-name="ldot" unicode="&#x140;" horiz-adv-x="280" 
d="M106 696l-74 9v28l144 28v-719l73 -14v-28h-213v28l64 18l6 15v635zM227 372c0 30 21 51 51 51c29 0 49 -21 49 -51c0 -28 -20 -49 -49 -49c-30 0 -51 20 -51 49z" />
    <glyph glyph-name="Lslash" unicode="&#x141;" horiz-adv-x="550" 
d="M14 286l114 70v302l-80 10v32h237v-32l-67 -18h1l-14 -20v-227l106 65l26 -42l-132 -81v-297h251l14 15l37 89h34l-18 -152h-475v32l66 18l14 20v228l-88 -53z" />
    <glyph glyph-name="lslash" unicode="&#x142;" horiz-adv-x="280" 
d="M106 696l-74 9v28l144 28v-389l76 46l24 -37l-100 -61v-278l73 -14v-28h-213v28l64 18l6 15v216l-72 -43l-23 38l95 57v367z" />
    <glyph glyph-name="Nacute" unicode="&#x143;" horiz-adv-x="760" 
d="M181 42l80 -10v-32h-213v31l66 18l14 16v591l-80 10v34h181l359 -566v524l-80 10v32h212v-32l-65 -18l-14 -19v-631h-59l-401 628v-586zM439 912h102l-142 -134h-46z" />
    <glyph glyph-name="nacute" unicode="&#x144;" horiz-adv-x="602" 
d="M32 520l144 12v-95c56 73 128 95 172 95c119 0 157 -63 157 -184v-306l73 -14v-28h-213v28l64 18l6 15v277c0 88 -14 152 -95 152c-78 0 -142 -87 -164 -131v-317l74 -14v-28h-214v28l64 18l6 15v417l-74 14v28zM361 750h97l-141 -163h-39z" />
    <glyph glyph-name="Ncommaaccent" unicode="&#x145;" horiz-adv-x="760" 
d="M181 42l80 -10v-32h-213v31l66 18l14 16v591l-80 10v34h181l359 -566v524l-80 10v32h212v-32l-65 -18l-14 -19v-631h-59l-401 628v-586zM364 -46l86 -15c-4 -29 -11 -59 -27 -98c-12 -28 -28 -63 -41 -82l-35 15c6 19 12 55 14 75c3 31 4 50 4 76c0 12 0 23 -1 29z" />
    <glyph glyph-name="ncommaaccent" unicode="&#x146;" horiz-adv-x="602" 
d="M32 520l144 12v-95c56 73 128 95 172 95c119 0 157 -63 157 -184v-306l73 -14v-28h-213v28l64 18l6 15v277c0 88 -14 152 -95 152c-78 0 -142 -87 -164 -131v-317l74 -14v-28h-214v28l64 18l6 15v417l-74 14v28zM282 -46l83 -15c-4 -29 -11 -59 -27 -98
c-12 -28 -28 -63 -41 -82l-28 11c5 19 9 55 12 81c2 24 2 48 2 74c0 12 0 23 -1 29z" />
    <glyph glyph-name="Ncaron" unicode="&#x147;" horiz-adv-x="760" 
d="M181 42l80 -10v-32h-213v31l66 18l14 16v591l-80 10v34h181l359 -566v524l-80 10v32h212v-32l-65 -18l-14 -19v-631h-59l-401 628v-586zM419 778h-70l-107 134h44l98 -76l98 76h44z" />
    <glyph glyph-name="ncaron" unicode="&#x148;" horiz-adv-x="602" 
d="M32 520l144 12v-95c56 73 128 95 172 95c119 0 157 -63 157 -184v-306l73 -14v-28h-213v28l64 18l6 15v277c0 88 -14 152 -95 152c-78 0 -142 -87 -164 -131v-317l74 -14v-28h-214v28l64 18l6 15v417l-74 14v28zM352 607h-68l-107 136h41l100 -82l100 82h41z" />
    <glyph glyph-name="Omacron" unicode="&#x14c;" horiz-adv-x="719" 
d="M72 350c0 99 9 220 85 297c58 59 126 69 202 69c77 0 145 -10 203 -69c76 -77 85 -198 85 -297c0 -124 -18 -230 -85 -298c-57 -58 -127 -68 -203 -68c-75 0 -145 10 -202 68c-67 68 -85 174 -85 298zM156 350c0 -58 3 -189 59 -260c35 -45 82 -60 144 -60
c63 0 110 15 145 60c56 71 59 202 59 260c0 89 -9 194 -59 259c-36 47 -81 61 -145 61c-63 0 -108 -14 -144 -61c-56 -72 -59 -196 -59 -259zM508 808h-294v46h294v-46z" />
    <glyph glyph-name="omacron" unicode="&#x14d;" horiz-adv-x="575" 
d="M60 260c0 71 7 165 63 221c49 49 120 51 164 51c42 0 117 -2 166 -51c60 -60 62 -171 62 -221s-2 -161 -62 -221c-49 -49 -124 -51 -166 -51c-44 0 -115 2 -164 51c-56 56 -63 150 -63 221zM136 260c0 -52 5 -144 40 -187c29 -36 75 -43 111 -43c37 0 83 7 112 43
c35 43 40 135 40 187s-5 144 -40 187c-29 36 -75 43 -112 43c-36 0 -82 -7 -111 -43c-35 -43 -40 -135 -40 -187zM169 659v42h254v-42h-254z" />
    <glyph glyph-name="Ohungarumlaut" unicode="&#x150;" horiz-adv-x="719" 
d="M72 350c0 99 9 220 85 297c58 59 126 69 202 69c77 0 145 -10 203 -69c76 -77 85 -198 85 -297c0 -124 -18 -230 -85 -298c-57 -58 -127 -68 -203 -68c-75 0 -145 10 -202 68c-67 68 -85 174 -85 298zM156 350c0 -58 3 -189 59 -260c35 -45 82 -60 144 -60
c63 0 110 15 145 60c56 71 59 202 59 260c0 89 -9 194 -59 259c-36 47 -81 61 -145 61c-63 0 -108 -14 -144 -61c-56 -72 -59 -196 -59 -259zM490 912h86l-114 -134h-51zM345 912h86l-115 -134h-51z" />
    <glyph glyph-name="ohungarumlaut" unicode="&#x151;" horiz-adv-x="575" 
d="M60 260c0 71 7 165 63 221c49 49 120 51 164 51c42 0 117 -2 166 -51c60 -60 62 -171 62 -221s-2 -161 -62 -221c-49 -49 -124 -51 -166 -51c-44 0 -115 2 -164 51c-56 56 -63 150 -63 221zM136 260c0 -52 5 -144 40 -187c29 -36 75 -43 111 -43c37 0 83 7 112 43
c35 43 40 135 40 187s-5 144 -40 187c-29 36 -75 43 -112 43c-36 0 -82 -7 -111 -43c-35 -43 -40 -135 -40 -187zM280 750h87l-131 -157h-48zM424 750h87l-132 -157h-47z" />
    <glyph glyph-name="OE" unicode="&#x152;" horiz-adv-x="1023" 
d="M156 350c0 -58 3 -189 59 -260c35 -45 82 -60 145 -60s109 15 144 60c56 71 59 202 59 260c0 89 -9 194 -59 259c-36 47 -80 61 -144 61s-109 -14 -145 -61c-56 -72 -59 -196 -59 -259zM565 700h395l10 -123h-35l-33 69l-13 6h-241v-256h181l12 8l17 62h33v-189h-33
l-17 63l-14 8h-179v-300h249l14 15l37 89h35l-19 -152h-399v55c-60 -61 -129 -71 -205 -71s-146 10 -203 68c-67 68 -84 174 -84 298c0 99 9 220 84 297c58 59 126 69 203 69c67 0 145 -9 205 -73v57z" />
    <glyph glyph-name="oe" unicode="&#x153;" horiz-adv-x="920" 
d="M871 289l-353 -49c2 -107 33 -210 162 -210c70 0 133 23 174 47l14 -37c-84 -43 -153 -51 -203 -51c-95 0 -149 26 -188 83c-40 -62 -115 -84 -190 -84c-45 0 -116 2 -165 51c-55 56 -62 150 -62 221s7 165 62 221c49 49 120 51 165 51c75 0 152 -12 192 -89
c39 68 112 89 192 89c39 0 100 -4 147 -51c45 -46 53 -130 53 -183v-9zM135 260c0 -52 5 -144 40 -187c29 -36 75 -43 112 -43s82 7 111 43c35 43 40 135 40 187s-5 144 -40 187c-29 36 -74 43 -111 43s-83 -7 -112 -43c-35 -43 -40 -135 -40 -187zM517 283l279 37
c-2 31 -9 90 -28 121c-26 44 -65 49 -103 49c-114 0 -145 -93 -148 -198v-9z" />
    <glyph glyph-name="Racute" unicode="&#x154;" horiz-adv-x="660" 
d="M519 513c0 119 -63 139 -174 139h-139v-280h161c93 0 152 40 152 141zM583 42l58 -10v-32h-139v30l-191 294h-105v-282l80 -10v-32h-238v32l67 18h-1l14 20v588l-80 10v32h316c144 0 234 -37 234 -188c0 -125 -87 -178 -203 -187zM391 912h102l-142 -134h-46z" />
    <glyph glyph-name="racute" unicode="&#x155;" horiz-adv-x="427" 
d="M176 376v-334l87 -14v-28h-227v28l64 18l6 15v417l-74 14v28l144 12v-98c61 56 134 98 223 99h11l-13 -123h-35l-31 64c-54 -12 -117 -50 -155 -98zM311 750h97l-141 -163h-39z" />
    <glyph glyph-name="Rcommaaccent" unicode="&#x156;" horiz-adv-x="660" 
d="M519 513c0 119 -63 139 -174 139h-139v-280h161c93 0 152 40 152 141zM583 42l58 -10v-32h-139v30l-191 294h-105v-282l80 -10v-32h-238v32l67 18h-1l14 20v588l-80 10v32h316c144 0 234 -37 234 -188c0 -125 -87 -178 -203 -187zM314 -46l86 -15c-4 -29 -11 -59 -27 -98
c-12 -28 -28 -63 -41 -82l-35 15c6 19 12 55 14 75c3 31 4 50 4 76c0 12 0 23 -1 29z" />
    <glyph glyph-name="rcommaaccent" unicode="&#x157;" horiz-adv-x="427" 
d="M176 376v-334l87 -14v-28h-227v28l64 18l6 15v417l-74 14v28l144 12v-98c61 56 134 98 223 99h11l-13 -123h-35l-31 64c-54 -12 -117 -50 -155 -98zM100 -46l83 -15c-4 -29 -11 -59 -27 -98c-12 -28 -28 -63 -41 -82l-28 11c5 19 9 55 12 81c2 24 2 48 2 74
c0 12 0 23 -1 29z" />
    <glyph glyph-name="Rcaron" unicode="&#x158;" horiz-adv-x="660" 
d="M519 513c0 119 -63 139 -174 139h-139v-280h161c93 0 152 40 152 141zM583 42l58 -10v-32h-139v30l-191 294h-105v-282l80 -10v-32h-238v32l67 18h-1l14 20v588l-80 10v32h316c144 0 234 -37 234 -188c0 -125 -87 -178 -203 -187zM361 778h-70l-107 134h44l98 -76l98 76
h44z" />
    <glyph glyph-name="rcaron" unicode="&#x159;" horiz-adv-x="427" 
d="M176 376v-334l87 -14v-28h-227v28l64 18l6 15v417l-74 14v28l144 12v-98c61 56 134 98 223 99h11l-13 -123h-35l-31 64c-54 -12 -117 -50 -155 -98zM296 607h-68l-107 136h41l100 -82l100 82h41z" />
    <glyph glyph-name="Sacute" unicode="&#x15a;" horiz-adv-x="540" 
d="M459 691l9 -150h-38l-38 106c-38 19 -73 23 -107 23c-95 0 -148 -44 -148 -137c0 -74 36 -98 114 -125l88 -30c99 -34 154 -92 154 -192c0 -138 -97 -202 -228 -202c-78 0 -156 12 -209 32l-11 155h38l43 -113c50 -22 101 -28 137 -28c90 0 146 48 146 144
c0 52 -16 106 -120 142l-80 27c-102 35 -158 88 -158 180c0 135 89 193 225 193c57 0 115 -7 183 -25zM348 912h102l-142 -134h-46z" />
    <glyph glyph-name="sacute" unicode="&#x15b;" horiz-adv-x="444" 
d="M366 512l9 -115h-34l-32 84c-32 8 -62 9 -87 9c-45 0 -100 -11 -100 -82c0 -61 43 -77 93 -94l60 -20c31 -10 71 -25 94 -52c13 -15 28 -43 28 -91c0 -118 -78 -163 -191 -163c-39 0 -93 4 -147 19l-11 118h33l39 -81c26 -8 58 -14 85 -14c70 0 115 20 115 102
c0 21 0 54 -22 76c-11 11 -41 21 -57 27l-60 21c-76 26 -133 62 -133 140c0 98 71 136 169 136c46 0 103 -7 149 -20zM279 750h97l-141 -163h-39z" />
    <glyph glyph-name="Scircumflex" unicode="&#x15c;" horiz-adv-x="540" 
d="M459 691l9 -150h-38l-38 106c-38 19 -73 23 -107 23c-95 0 -148 -44 -148 -137c0 -74 36 -98 114 -125l88 -30c99 -34 154 -92 154 -192c0 -138 -97 -202 -228 -202c-78 0 -156 12 -209 32l-11 155h38l43 -113c50 -22 101 -28 137 -28c90 0 146 48 146 144
c0 52 -16 106 -120 142l-80 27c-102 35 -158 88 -158 180c0 135 89 193 225 193c57 0 115 -7 183 -25zM247 912h70l107 -134h-44l-98 76l-98 -76h-44z" />
    <glyph glyph-name="scircumflex" unicode="&#x15d;" horiz-adv-x="444" 
d="M366 512l9 -115h-34l-32 84c-32 8 -62 9 -87 9c-45 0 -100 -11 -100 -82c0 -61 43 -77 93 -94l60 -20c31 -10 71 -25 94 -52c13 -15 28 -43 28 -91c0 -118 -78 -163 -191 -163c-39 0 -93 4 -147 19l-11 118h33l39 -81c26 -8 58 -14 85 -14c70 0 115 20 115 102
c0 21 0 54 -22 76c-11 11 -41 21 -57 27l-60 21c-76 26 -133 62 -133 140c0 98 71 136 169 136c46 0 103 -7 149 -20zM192 743h68l107 -136h-41l-100 82l-100 -82h-41z" />
    <glyph glyph-name="Scedilla" unicode="&#x15e;" horiz-adv-x="540" 
d="M459 691l9 -150h-38l-38 106c-38 19 -73 23 -107 23c-95 0 -148 -44 -148 -137c0 -74 36 -98 114 -125l88 -30c99 -34 154 -92 154 -192c0 -134 -91 -198 -216 -202l-12 -35c72 0 113 -18 113 -81c0 -80 -79 -91 -122 -91c-28 0 -62 5 -91 17l14 35c19 -7 41 -13 70 -13
c41 0 65 16 65 51c0 38 -22 47 -60 47c-21 0 -31 -1 -41 -2l24 73c-68 2 -135 14 -181 31l-11 155h38l43 -113c50 -22 101 -28 137 -28c90 0 146 48 146 144c0 52 -16 106 -120 142l-80 27c-102 35 -158 88 -158 180c0 135 89 193 225 193c57 0 115 -7 183 -25z" />
    <glyph glyph-name="scedilla" unicode="&#x15f;" horiz-adv-x="444" 
d="M366 512l9 -115h-34l-32 84c-32 8 -62 9 -87 9c-45 0 -100 -11 -100 -82c0 -61 43 -77 93 -94l60 -20c31 -10 71 -25 94 -52c13 -15 28 -43 28 -91c0 -109 -67 -155 -166 -162l-14 -40c72 0 113 -18 113 -81c0 -80 -79 -91 -122 -91c-28 0 -62 5 -91 17l14 35
c19 -7 41 -13 70 -13c41 0 65 16 65 51c0 38 -22 47 -60 47c-21 0 -31 -1 -41 -2l26 76c-38 1 -85 6 -132 19l-11 118h33l39 -81c26 -8 58 -14 85 -14c70 0 115 20 115 102c0 21 0 54 -22 76c-11 11 -41 21 -57 27l-60 21c-76 26 -133 62 -133 140c0 98 71 136 169 136
c46 0 103 -7 149 -20z" />
    <glyph glyph-name="Scaron" unicode="&#x160;" horiz-adv-x="540" 
d="M459 691l9 -150h-38l-38 106c-38 19 -73 23 -107 23c-95 0 -148 -44 -148 -137c0 -74 36 -98 114 -125l88 -30c99 -34 154 -92 154 -192c0 -138 -97 -202 -228 -202c-78 0 -156 12 -209 32l-11 155h38l43 -113c50 -22 101 -28 137 -28c90 0 146 48 146 144
c0 52 -16 106 -120 142l-80 27c-102 35 -158 88 -158 180c0 135 89 193 225 193c57 0 115 -7 183 -25zM301 778h-70l-107 134h44l98 -76l98 76h44z" />
    <glyph glyph-name="scaron" unicode="&#x161;" horiz-adv-x="444" 
d="M366 512l9 -115h-34l-32 84c-32 8 -62 9 -87 9c-45 0 -100 -11 -100 -82c0 -61 43 -77 93 -94l60 -20c31 -10 71 -25 94 -52c13 -15 28 -43 28 -91c0 -118 -78 -163 -191 -163c-39 0 -93 4 -147 19l-11 118h33l39 -81c26 -8 58 -14 85 -14c70 0 115 20 115 102
c0 21 0 54 -22 76c-11 11 -41 21 -57 27l-60 21c-76 26 -133 62 -133 140c0 98 71 136 169 136c46 0 103 -7 149 -20zM264 607h-68l-107 136h41l100 -82l100 82h41z" />
    <glyph glyph-name="Tcedilla" unicode="&#x162;" horiz-adv-x="580" 
d="M269 0h-98v32l66 18l14 20v582h-153l-12 -8l-35 -100h-35l14 156h521l14 -156h-36l-35 98l-14 10h-152v-610l80 -10v-32h-94l-18 -48c67 0 112 -21 112 -84c0 -80 -82 -91 -125 -91c-28 0 -62 5 -91 17l13 40c19 -7 41 -13 70 -13c41 0 63 14 63 46c0 33 -20 45 -58 45
c-13 0 -32 -1 -42 -2z" />
    <glyph glyph-name="tcedilla" unicode="&#x163;" horiz-adv-x="360" 
d="M110 639l70 24v-143h148l-7 -44h-141v-314c0 -60 -4 -134 74 -134c21 0 62 5 86 11v-38c-31 -8 -70 -12 -94 -13l-14 -39c72 0 113 -18 113 -81c0 -80 -79 -91 -122 -91c-28 0 -62 5 -91 17l14 35c19 -7 41 -13 70 -13c41 0 65 16 65 51c0 38 -22 47 -60 47
c-21 0 -31 -1 -41 -2l26 78c-87 11 -96 70 -96 172v314h-84v44h84v119z" />
    <glyph glyph-name="Tcaron" unicode="&#x164;" horiz-adv-x="580" 
d="M16 544l14 156h521l14 -156h-36l-35 98l-14 10h-152v-610l80 -10v-32h-237v32l66 18l14 20v582h-153l-12 -8l-35 -100h-35zM321 778h-70l-107 134h44l98 -76l98 76h44z" />
    <glyph glyph-name="tcaron" unicode="&#x165;" horiz-adv-x="360" 
d="M110 639l70 24v-143h148l-7 -44h-141v-314c0 -60 -4 -134 74 -134c21 0 62 5 86 11v-38c-33 -9 -75 -13 -99 -13c-119 0 -131 60 -131 174v314h-84v44h84v119zM262 762l84 -15c-4 -29 -11 -59 -27 -98c-12 -28 -28 -63 -41 -82l-29 11c5 19 9 55 12 81c2 24 2 48 2 74
c0 12 0 23 -1 29z" />
    <glyph glyph-name="Umacron" unicode="&#x16a;" horiz-adv-x="710" 
d="M545 229v429l-80 10v32h213v-32l-65 -17l-14 -18v-408c0 -167 -63 -241 -246 -241c-182 0 -241 53 -241 241v433l-80 10v32h241v-32l-67 -18l-16 -16v-405c0 -142 25 -199 175 -199c125 0 180 48 180 199zM518 808h-294v46h294v-46z" />
    <glyph glyph-name="umacron" unicode="&#x16b;" horiz-adv-x="615" 
d="M512 42l71 -14v-28l-141 -12v93c-63 -73 -145 -93 -192 -93c-109 0 -152 53 -152 183v307l-74 14v28l144 12v-348c0 -81 6 -154 91 -154c82 0 157 79 183 122v326l-74 14v28l144 12v-490zM177 659v42h254v-42h-254z" />
    <glyph glyph-name="Ubreve" unicode="&#x16c;" horiz-adv-x="710" 
d="M545 229v429l-80 10v32h213v-32l-65 -17l-14 -18v-408c0 -167 -63 -241 -246 -241c-182 0 -241 53 -241 241v433l-80 10v32h241v-32l-67 -18l-16 -16v-405c0 -142 25 -199 175 -199c125 0 180 48 180 199zM366 772c-79 0 -125 25 -149 75v59h40c0 -56 54 -65 108 -65
c59 0 108 7 108 65h40v-59c-24 -50 -82 -75 -147 -75z" />
    <glyph glyph-name="ubreve" unicode="&#x16d;" horiz-adv-x="615" 
d="M512 42l71 -14v-28l-141 -12v93c-63 -73 -145 -93 -192 -93c-109 0 -152 53 -152 183v307l-74 14v28l144 12v-348c0 -81 6 -154 91 -154c82 0 157 79 183 122v326l-74 14v28l144 12v-490zM306 609c-79 0 -125 25 -149 75v59h39c0 -60 55 -71 109 -71c59 0 109 9 109 71
h39v-59c-24 -50 -82 -75 -147 -75z" />
    <glyph glyph-name="Uring" unicode="&#x16e;" horiz-adv-x="710" 
d="M545 229v429l-80 10v32h213v-32l-65 -17l-14 -18v-408c0 -167 -63 -241 -246 -241c-182 0 -241 53 -241 241v433l-80 10v32h241v-32l-67 -18l-16 -16v-405c0 -142 25 -199 175 -199c125 0 180 48 180 199zM269 857c0 55 42 98 97 98s98 -43 98 -98s-43 -97 -98 -97
s-97 42 -97 97zM308 857c0 -33 25 -58 58 -58s58 25 58 58s-25 58 -58 58s-58 -25 -58 -58z" />
    <glyph glyph-name="uring" unicode="&#x16f;" horiz-adv-x="615" 
d="M512 42l71 -14v-28l-141 -12v93c-63 -73 -145 -93 -192 -93c-109 0 -152 53 -152 183v307l-74 14v28l144 12v-348c0 -81 6 -154 91 -154c82 0 157 79 183 122v326l-74 14v28l144 12v-490zM206 683c0 55 43 98 98 98s98 -43 98 -98s-43 -98 -98 -98s-98 43 -98 98z
M245 683c0 -34 25 -59 59 -59s60 25 60 59s-26 60 -60 60s-59 -26 -59 -60z" />
    <glyph glyph-name="Uhungarumlaut" unicode="&#x170;" horiz-adv-x="710" 
d="M545 229v429l-80 10v32h213v-32l-65 -17l-14 -18v-408c0 -167 -63 -241 -246 -241c-182 0 -241 53 -241 241v433l-80 10v32h241v-32l-67 -18l-16 -16v-405c0 -142 25 -199 175 -199c125 0 180 48 180 199zM497 912h86l-114 -134h-51zM352 912h86l-115 -134h-51z" />
    <glyph glyph-name="uhungarumlaut" unicode="&#x171;" horiz-adv-x="615" 
d="M512 42l71 -14v-28l-141 -12v93c-63 -73 -145 -93 -192 -93c-109 0 -152 53 -152 183v307l-74 14v28l144 12v-348c0 -81 6 -154 91 -154c82 0 157 79 183 122v326l-74 14v28l144 12v-490zM287 750h87l-131 -157h-48zM431 750h87l-132 -157h-47z" />
    <glyph glyph-name="Uogonek" unicode="&#x172;" horiz-adv-x="710" 
d="M310 -44c15 13 23 19 36 28c-171 1 -234 55 -234 241v433l-80 10v32h240v-32l-67 -18l-16 -16v-405c0 -142 25 -199 176 -199c125 0 178 48 178 199v429l-79 10v32h212v-32l-65 -17l-14 -18v-408c0 -158 -56 -214 -166 -235c-26 -4 -52 -27 -68 -46
c-21 -24 -32 -50 -32 -78c0 -33 21 -43 55 -43c19 0 39 4 57 13l12 -37c-22 -13 -47 -20 -80 -20c-68 0 -114 32 -114 82c0 37 19 68 49 95z" />
    <glyph glyph-name="uogonek" unicode="&#x173;" horiz-adv-x="615" 
d="M457 -137c0 -33 22 -46 57 -46c20 0 41 5 58 13l10 -33c-21 -12 -48 -19 -81 -19c-67 0 -106 32 -106 82c0 38 24 70 54 96c14 12 35 26 52 37l-59 -5v93c-63 -73 -145 -93 -192 -93c-109 0 -152 53 -152 183v307l-74 14v28l144 12v-348c0 -81 6 -154 91 -154
c82 0 157 79 183 122v326l-74 14v28l144 12v-490l71 -14v-28l-29 -2c-37 -30 -51 -43 -62 -57c-22 -24 -35 -51 -35 -78z" />
    <glyph glyph-name="Ydieresis" unicode="&#x178;" horiz-adv-x="640" 
d="M178 631l158 -307l175 330l-65 13v33h182v-33l-61 -14l-206 -386v-225l80 -10v-32h-237v31l66 19l14 20v199l-204 389l-69 10v32h231v-32l-59 -20zM191 830c0 30 23 53 54 53c30 0 53 -23 53 -53c0 -31 -23 -54 -53 -54c-31 0 -54 23 -54 54zM402 830c0 30 23 53 54 53
c30 0 53 -23 53 -53c0 -31 -23 -54 -53 -54c-31 0 -54 23 -54 54z" />
    <glyph glyph-name="Zacute" unicode="&#x179;" horiz-adv-x="588" 
d="M140 48h329l14 14l37 89h34l-18 -151h-502v26l399 626h-281l-12 -8l-35 -99h-35l14 155h450v-29zM348 912h102l-142 -134h-46z" />
    <glyph glyph-name="zacute" unicode="&#x17a;" horiz-adv-x="480" 
d="M372 44l12 10l35 89h29l-11 -143h-407v21l319 455h-213l-12 -8l-35 -82h-31l11 134h372v-23l-314 -453h245zM306 750h97l-141 -163h-39z" />
    <glyph glyph-name="Zdotaccent" unicode="&#x17b;" horiz-adv-x="588" 
d="M140 48h329l14 14l37 89h34l-18 -151h-502v26l399 626h-281l-12 -8l-35 -99h-35l14 155h450v-29zM245 835c0 34 26 57 60 57c33 0 60 -23 60 -57c0 -36 -26 -61 -60 -61s-60 26 -60 61z" />
    <glyph glyph-name="zdotaccent" unicode="&#x17c;" horiz-adv-x="480" 
d="M372 44l12 10l35 89h29l-11 -143h-407v21l319 455h-213l-12 -8l-35 -82h-31l11 134h372v-23l-314 -453h245zM209 694c0 30 21 51 51 51c29 0 49 -21 49 -51c0 -28 -20 -49 -49 -49c-30 0 -51 20 -51 49z" />
    <glyph glyph-name="Zcaron" unicode="&#x17d;" horiz-adv-x="588" 
d="M140 48h329l14 14l37 89h34l-18 -151h-502v26l399 626h-281l-12 -8l-35 -99h-35l14 155h450v-29zM341 778h-70l-107 134h44l98 -76l98 76h44z" />
    <glyph glyph-name="zcaron" unicode="&#x17e;" horiz-adv-x="480" 
d="M372 44l12 10l35 89h29l-11 -143h-407v21l319 455h-213l-12 -8l-35 -82h-31l11 134h372v-23l-314 -453h245zM292 607h-68l-107 136h41l100 -82l100 82h41z" />
    <glyph glyph-name="uni018F" unicode="&#x18f;" horiz-adv-x="698" 
d="M154 544h-36l10 146c67 14 148 26 213 26c104 0 162 -28 192 -55c78 -72 91 -214 91 -303c0 -105 -11 -233 -87 -308c-61 -60 -150 -66 -200 -66c-47 0 -128 7 -185 63c-73 72 -80 190 -80 282v52h467c-3 259 -124 289 -200 289c-52 0 -99 -3 -147 -20zM539 333h-386v-33
c0 -142 41 -270 190 -270c158 0 193 145 196 303z" />
    <glyph glyph-name="florin" unicode="&#x192;" horiz-adv-x="480" 
d="M122 509h83c3 23 8 46 11 69c20 138 72 183 195 183c40 0 76 -4 114 -11l-29 -112h-34l-8 73c-17 5 -31 8 -51 8c-59 0 -102 -35 -116 -137c-3 -24 -8 -49 -11 -73h125l-6 -43h-125l-74 -530c-14 -101 -55 -167 -166 -167c-34 0 -63 4 -93 12l30 107h32l6 -73
c7 -2 16 -4 24 -4c71 0 86 64 94 122l77 533h-84z" />
    <glyph glyph-name="uni01DD" unicode="&#x1dd;" horiz-adv-x="568" 
d="M431 234h-296c1 -48 11 -122 38 -159c32 -44 84 -45 113 -45c120 0 142 102 145 204zM269 489c-42 0 -85 -8 -103 -17l-35 -81h-36l10 121c54 14 127 20 173 20c179 0 230 -88 230 -275c0 -171 -46 -269 -233 -269c-163 0 -215 93 -215 249v41h372v16
c0 92 -4 195 -163 195z" />
    <glyph glyph-name="Scommaaccent" unicode="&#x218;" horiz-adv-x="540" 
d="M459 691l9 -150h-38l-38 106c-38 19 -73 23 -107 23c-95 0 -148 -44 -148 -137c0 -74 36 -98 114 -125l88 -30c99 -34 154 -92 154 -192c0 -138 -97 -202 -228 -202c-78 0 -156 12 -209 32l-11 155h38l43 -113c50 -22 101 -28 137 -28c90 0 146 48 146 144
c0 52 -16 106 -120 142l-80 27c-102 35 -158 88 -158 180c0 135 89 193 225 193c57 0 115 -7 183 -25zM231 -46l86 -15c-4 -29 -11 -59 -27 -98c-12 -28 -28 -63 -41 -82l-35 15c6 19 12 55 14 75c3 31 4 50 4 76c0 12 0 23 -1 29z" />
    <glyph glyph-name="scommaaccent" unicode="&#x219;" horiz-adv-x="444" 
d="M366 512l9 -115h-34l-32 84c-32 8 -62 9 -87 9c-45 0 -100 -11 -100 -82c0 -61 43 -77 93 -94l60 -20c31 -10 71 -25 94 -52c13 -15 28 -43 28 -91c0 -118 -78 -163 -191 -163c-39 0 -93 4 -147 19l-11 118h33l39 -81c26 -8 58 -14 85 -14c70 0 115 20 115 102
c0 21 0 54 -22 76c-11 11 -41 21 -57 27l-60 21c-76 26 -133 62 -133 140c0 98 71 136 169 136c46 0 103 -7 149 -20zM188 -46l83 -15c-4 -29 -11 -59 -27 -98c-12 -28 -28 -63 -41 -82l-28 11c5 19 9 55 12 81c2 24 2 48 2 74c0 12 0 23 -1 29z" />
    <glyph glyph-name="Tcommaaccent" unicode="&#x21a;" horiz-adv-x="580" 
d="M16 544l14 156h521l14 -156h-36l-35 98l-14 10h-152v-610l80 -10v-32h-237v32l66 18l14 20v582h-153l-12 -8l-35 -100h-35zM251 -46l86 -15c-4 -29 -11 -59 -27 -98c-12 -28 -28 -63 -41 -82l-35 15c6 19 12 55 14 75c3 31 4 50 4 76c0 12 0 23 -1 29z" />
    <glyph glyph-name="tcommaaccent" unicode="&#x21b;" horiz-adv-x="360" 
d="M110 639l70 24v-143h148l-7 -44h-141v-314c0 -60 -4 -134 74 -134c21 0 62 5 86 11v-38c-33 -9 -75 -13 -99 -13c-119 0 -131 60 -131 174v314h-84v44h84v119zM188 -46l83 -15c-4 -29 -11 -59 -27 -98c-12 -28 -28 -63 -41 -82l-28 11c5 19 9 55 12 81c2 24 2 48 2 74
c0 12 0 23 -1 29z" />
    <glyph glyph-name="uni0259" unicode="&#x259;" horiz-adv-x="568" 
d="M431 234h-296c1 -48 11 -122 38 -159c32 -44 84 -45 113 -45c120 0 142 102 145 204zM269 489c-42 0 -85 -8 -103 -17l-35 -81h-36l10 121c54 14 127 20 173 20c179 0 230 -88 230 -275c0 -171 -46 -269 -233 -269c-163 0 -215 93 -215 249v41h372v16
c0 92 -4 195 -163 195z" />
    <glyph glyph-name="afii57929" unicode="&#x2bc;" horiz-adv-x="234" 
d="M95 762l84 -15c-4 -29 -11 -59 -27 -98c-12 -28 -28 -63 -41 -82l-29 11c5 19 9 55 12 81c2 24 2 48 2 74c0 12 0 23 -1 29z" />
    <glyph glyph-name="circumflex" unicode="&#x2c6;" horiz-adv-x="344" 
d="M142 743h68l107 -136h-41l-100 82l-100 -82h-41z" />
    <glyph glyph-name="caron" unicode="&#x2c7;" horiz-adv-x="338" 
d="M205 607h-68l-107 136h41l100 -82l100 82h41z" />
    <glyph glyph-name="breve" unicode="&#x2d8;" horiz-adv-x="351" 
d="M185 609c-79 0 -125 25 -149 75v59h39c0 -60 55 -71 109 -71c59 0 109 9 109 71h39v-59c-24 -50 -82 -75 -147 -75z" />
    <glyph glyph-name="dotaccent" unicode="&#x2d9;" horiz-adv-x="504" 
d="M202 694c0 30 21 51 51 51c29 0 49 -21 49 -51c0 -28 -20 -49 -49 -49c-30 0 -51 20 -51 49z" />
    <glyph glyph-name="ring" unicode="&#x2da;" horiz-adv-x="500" 
d="M152 683c0 55 43 98 98 98s98 -43 98 -98s-43 -98 -98 -98s-98 43 -98 98zM191 683c0 -34 25 -59 59 -59s60 25 60 59s-26 60 -60 60s-59 -26 -59 -60z" />
    <glyph glyph-name="ogonek" unicode="&#x2db;" horiz-adv-x="500" 
d="M210 -137c0 -33 22 -46 57 -46c20 0 41 5 58 13l10 -33c-21 -12 -48 -19 -81 -19c-67 0 -106 32 -106 82c0 38 24 70 54 96c17 14 46 33 63 44h45c-39 -32 -53 -45 -65 -59c-22 -24 -35 -51 -35 -78z" />
    <glyph glyph-name="tilde" unicode="&#x2dc;" horiz-adv-x="500" 
d="M128 647l-33 19c17 39 49 77 95 77c17 0 38 -4 63 -20l17 -11c18 -11 31 -17 52 -17s40 17 50 36l33 -21c-16 -38 -48 -78 -94 -78c-20 0 -43 8 -60 19l-20 13c-20 13 -31 16 -52 16c-20 0 -38 -14 -51 -33z" />
    <glyph glyph-name="hungarumlaut" unicode="&#x2dd;" horiz-adv-x="503" 
d="M183 750h87l-131 -157h-48zM327 750h87l-132 -157h-47z" />
    <glyph glyph-name="acutecomb" unicode="&#x301;" horiz-adv-x="0" 
d="M-219 750h97l-141 -163h-39z" />
    <glyph glyph-name="uni0394" unicode="&#x394;" horiz-adv-x="640" 
d="M297 700h53l267 -667v-33h-595v33zM90 72h418l-205 530z" />
    <glyph glyph-name="uni0394" unicode="&#x2206;" horiz-adv-x="640" 
d="M297 700h53l267 -667v-33h-595v33zM90 72h418l-205 530z" />
    <glyph glyph-name="uni03A9" unicode="&#x3a9;" horiz-adv-x="720" 
d="M359 716c169 0 303 -86 303 -305c0 -136 -74 -240 -198 -284v-50h209l-20 -77h-239v152c116 33 164 144 164 259c0 137 -63 257 -219 257c-155 0 -218 -120 -218 -257c0 -115 48 -226 164 -259v-152h-238l-21 77h209v50c-124 44 -198 148 -198 284c0 219 134 305 302 305
z" />
    <glyph glyph-name="uni03A9" unicode="&#x2126;" horiz-adv-x="720" 
d="M359 716c169 0 303 -86 303 -305c0 -136 -74 -240 -198 -284v-50h209l-20 -77h-239v152c116 33 164 144 164 259c0 137 -63 257 -219 257c-155 0 -218 -120 -218 -257c0 -115 48 -226 164 -259v-152h-238l-21 77h209v50c-124 44 -198 148 -198 284c0 219 134 305 302 305
z" />
    <glyph glyph-name="pi" unicode="&#x3c0;" horiz-adv-x="640" 
d="M597 520l-39 -72h-71v-320c0 -39 3 -93 56 -93c11 0 28 2 56 13v-46c-36 -12 -63 -14 -83 -14c-77 0 -99 48 -99 140v320h-196v-425l-21 -35h-57l-21 34v40c39 88 51 195 51 300v86h-33c-54 0 -75 -16 -75 -84v-35h-44v35c0 99 35 156 157 156h419z" />
    <glyph glyph-name="afii10023" unicode="&#x401;" horiz-adv-x="580" 
d="M48 700h469l10 -123h-34l-33 69l-13 6h-241v-256h180l12 8l17 62h33v-189h-33l-17 63l-14 8h-178v-300h249l14 15l37 89h34l-19 -152h-473v32l66 18l14 20v589l-80 9v32zM161 830c0 30 23 53 54 53c30 0 53 -23 53 -53c0 -31 -23 -54 -53 -54c-31 0 -54 23 -54 54z
M372 830c0 30 23 53 54 53c30 0 53 -23 53 -53c0 -31 -23 -54 -53 -54c-31 0 -54 23 -54 54z" />
    <glyph glyph-name="afii10051" unicode="&#x402;" horiz-adv-x="772" 
d="M329 339v-339h-158v32l66 18l14 20v583h-153l-12 -8l-35 -100h-35l14 155h520l14 -154h-35l-34 97l-14 10h-152v-265c22 7 79 23 163 23c143 0 224 -65 224 -211c0 -125 -57 -216 -194 -216c-58 0 -83 8 -105 16l-10 112h34l32 -76c12 -3 26 -6 47 -6
c93 0 116 96 116 169c0 85 -49 167 -166 167c-32 0 -85 -4 -141 -27z" />
    <glyph glyph-name="afii10052" unicode="&#x403;" horiz-adv-x="532" 
d="M206 652v-610l89 -10v-32h-247v32l67 18h-1l14 20v589l-80 9v32h436l15 -155h-35l-37 101l-13 6h-208zM333 912h102l-142 -134h-46z" />
    <glyph glyph-name="afii10053" unicode="&#x404;" horiz-adv-x="620" 
d="M363 340h-207c2 -151 32 -215 55 -244c43 -54 111 -66 159 -66c49 0 85 13 117 26l55 86h36l-35 -122c-41 -18 -96 -36 -182 -36c-51 0 -148 6 -211 69c-67 67 -78 196 -78 297c0 249 93 366 308 366c43 0 118 -7 183 -24l9 -151h-37l-39 107c-31 14 -76 22 -122 22
c-174 0 -212 -123 -218 -282h209l12 8l17 62h33v-189h-33l-17 63z" />
    <glyph glyph-name="afii10054" unicode="&#x405;" horiz-adv-x="540" 
d="M459 691l9 -150h-38l-38 106c-38 19 -73 23 -107 23c-95 0 -148 -44 -148 -137c0 -74 36 -98 114 -125l88 -30c99 -34 154 -92 154 -192c0 -138 -97 -202 -228 -202c-78 0 -156 12 -209 32l-11 155h38l43 -113c50 -22 101 -28 137 -28c90 0 146 48 146 144
c0 52 -16 106 -120 142l-80 27c-102 35 -158 88 -158 180c0 135 89 193 225 193c57 0 115 -7 183 -25z" />
    <glyph glyph-name="afii10055" unicode="&#x406;" horiz-adv-x="334" 
d="M206 630v-588l79 -10v-32h-237v32l66 18l14 20v588l-80 10v32h237v-32l-65 -18z" />
    <glyph glyph-name="afii10056" unicode="&#x407;" horiz-adv-x="334" 
d="M54 836c0 28 20 47 46 47c28 0 47 -19 47 -47c0 -27 -19 -46 -47 -46c-26 0 -46 19 -46 46zM191 836c0 28 19 47 47 47c26 0 46 -19 46 -47c0 -27 -20 -46 -46 -46c-28 0 -47 19 -47 46zM204 630v-588l80 -10v-32h-234v32l66 18l14 20v588l-80 10v32h234v-32l-66 -18z
" />
    <glyph glyph-name="afii10057" unicode="&#x408;" horiz-adv-x="444" 
d="M250 208v450l-80 10v32h237v-32l-66 -18l-14 -20v-422c0 -51 0 -135 -48 -181c-40 -38 -99 -43 -137 -43c-33 0 -65 4 -123 16l11 134h34l22 -92c19 -9 37 -12 54 -12c104 0 110 91 110 178z" />
    <glyph glyph-name="afii10058" unicode="&#x409;" horiz-adv-x="1026" 
d="M742 348h-145v-300h146c100 0 159 39 159 146c0 105 -54 154 -160 154zM519 652h-243v-55c0 -92 -4 -178 -7 -236c-7 -110 -21 -181 -34 -224c-41 -133 -132 -153 -159 -153c-21 0 -36 6 -49 12l-10 91l28 14l75 -49c30 21 54 69 65 106c31 107 35 284 35 440v59l-88 11
v32h545v-31l-66 -18l-14 -20v-236h145c145 0 244 -35 244 -196c0 -56 -13 -112 -61 -152c-53 -45 -122 -47 -183 -47h-303v32l67 18h-1l14 20v582z" />
    <glyph glyph-name="afii10059" unicode="&#x40a;" horiz-adv-x="1052" 
d="M545 70v279h-339v-307l80 -10v-32h-237v32l65 18l14 20v588l-79 10v32h237v-32l-66 -18l-14 -20v-233h339v261l-80 10v32h238v-32l-66 -18l-14 -20v-235h145c145 0 244 -35 244 -196c0 -56 -13 -112 -61 -152c-53 -45 -122 -47 -183 -47h-303v32l66 18zM769 348h-146
v-298h146c100 0 159 37 159 144c0 105 -51 154 -159 154z" />
    <glyph glyph-name="afii10060" unicode="&#x40b;" horiz-adv-x="765" 
d="M16 544l14 156h520l14 -155h-35l-34 97l-14 10h-152v-265c32 9 84 24 149 24c132 0 189 -48 189 -184v-185l69 -10v-32h-127l-20 24v200c0 89 -28 141 -118 141c-53 0 -85 -5 -142 -26v-297l79 -10v-32h-237v32l66 18l14 20v582h-153l-12 -8l-35 -100h-35z" />
    <glyph glyph-name="afii10061" unicode="&#x40c;" horiz-adv-x="668" 
d="M206 630v-256l260 269v15l-64 10v32h234v-32l-103 -26l-252 -255l293 -345l75 -10v-32h-168v30l-275 335v-323l80 -10v-32h-238v32l66 18l14 20v588l-80 10v32h238v-32l-66 -18zM407 912h102l-142 -134h-46z" />
    <glyph glyph-name="afii10062" unicode="&#x40e;" horiz-adv-x="680" 
d="M539 654l-65 13v33h193v-33l-69 -18l-205 -509c-23 -56 -45 -96 -63 -115c-35 -37 -65 -41 -103 -41c-32 0 -69 4 -111 21l23 119h38l18 -78c8 -6 29 -16 43 -16c54 0 87 76 100 113l13 37l-269 478l-70 10v32h235v-32l-60 -20l-4 -16l207 -362zM362 811c9 0 46 1 64 17
c12 11 17 29 19 49h84v-40c-42 -44 -94 -66 -165 -66c-81 0 -127 26 -169 66v40h85c2 -20 6 -37 19 -48c20 -17 53 -18 63 -18z" />
    <glyph glyph-name="afii10145" unicode="&#x40f;" horiz-adv-x="720" 
d="M538 48v610l-80 10v32h238v-32l-66 -18l-14 -20v-588l80 -10v-32h-300l18 -125v-40l-21 -34h-41l-21 34v40l17 125h-300v32l66 18l14 20v588l-80 10v32h238v-32l-66 -18l-14 -20v-582h332z" />
    <glyph glyph-name="afii10017" unicode="&#x410;" horiz-adv-x="680" 
d="M672 0h-227v32l67 18l8 15l-46 130h-293l-55 -153l72 -10v-32h-190v32l66 18l245 651h53l242 -660l58 -9v-32zM198 241h260l-127 361z" />
    <glyph glyph-name="afii10018" unicode="&#x411;" horiz-adv-x="662" 
d="M206 347v-297h174c102 0 159 28 159 144c0 101 -38 153 -159 153h-174zM48 0v32l67 18h-1l14 20v589l-80 9v32h505l10 -123h-33l-32 69l-13 6h-279v-257h173c136 0 244 -35 244 -196c0 -142 -91 -199 -244 -199h-331z" />
    <glyph glyph-name="afii10019" unicode="&#x412;" horiz-adv-x="670" 
d="M206 48h180c99 0 154 42 154 150c0 96 -54 145 -154 145h-180v-295zM347 652h-141v-263h164c90 0 128 56 128 135c0 84 -39 128 -151 128zM382 0h-334v32l67 18h-1l14 20v588l-80 10v32h326c116 0 211 -32 211 -167c0 -67 -45 -132 -116 -157v-3c92 -17 157 -76 157 -182
c0 -152 -118 -191 -244 -191z" />
    <glyph glyph-name="afii10020" unicode="&#x413;" horiz-adv-x="532" 
d="M206 652v-610l89 -10v-32h-247v32l67 18h-1l14 20v589l-80 9v32h436l15 -155h-35l-37 101l-13 6h-208z" />
    <glyph glyph-name="afii10021" unicode="&#x414;" horiz-adv-x="708" 
d="M170 48h343v604h-243c-4 -141 -14 -250 -27 -334c-13 -88 -35 -184 -73 -270zM605 650l-14 -20v-582h80l10 -193h-35l-43 133l-12 12h-484l-13 -11l-39 -134h-35l10 193h78c34 76 64 163 81 267c17 105 25 263 26 343l-80 10v32h536v-32z" />
    <glyph glyph-name="afii10022" unicode="&#x415;" horiz-adv-x="580" 
d="M48 700h469l10 -123h-34l-33 69l-13 6h-241v-256h180l12 8l17 62h33v-189h-33l-17 63l-14 8h-178v-300h249l14 15l37 89h34l-19 -152h-473v32l66 18l14 20v589l-80 9v32z" />
    <glyph glyph-name="afii10024" unicode="&#x416;" horiz-adv-x="960" 
d="M520 630v-256l239 269v15l-64 10v32h233v-32l-102 -26l-228 -250l269 -350l74 -10v-32h-169v30l-252 332v-320l80 -10v-32h-237v32l66 18h-1l14 20v296l-256 -340v-26h-167v32l75 10l269 349l-230 251l-100 26v32h234v-32l-64 -10v-17l239 -268v285l-79 10v32h237v-32
l-66 -18z" />
    <glyph glyph-name="afii10025" unicode="&#x417;" horiz-adv-x="550" 
d="M180 341v48h74c29 0 75 1 110 37c30 32 35 77 35 112c0 86 -37 132 -128 132c-42 0 -88 -9 -126 -27l-31 -96h-37l10 146c75 19 135 23 189 23c52 0 122 -4 165 -45c40 -38 48 -92 48 -131c0 -75 -56 -145 -134 -167v-6c111 -24 150 -86 150 -186
c0 -154 -109 -197 -258 -197c-93 0 -156 20 -191 34l-10 147h37l32 -107c38 -20 102 -28 144 -28c105 0 156 56 156 155c0 104 -35 156 -166 156h-69z" />
    <glyph glyph-name="afii10026" unicode="&#x418;" horiz-adv-x="764" 
d="M557 634v24l-80 10v32h238v-32l-66 -18l-14 -20v-588l74 -10v-32h-232v32l67 18h-1l14 20v481l-351 -481v-28l80 -10v-32h-238v32l67 18h-1l14 20v588l-80 10v32h238v-32l-66 -18l-14 -20v-476z" />
    <glyph glyph-name="afii10027" unicode="&#x419;" horiz-adv-x="764" 
d="M557 634v24l-80 10v32h238v-32l-66 -18l-14 -20v-588l74 -10v-32h-232v32l67 18h-1l14 20v481l-351 -481v-28l80 -10v-32h-238v32l67 18h-1l14 20v588l-80 10v32h238v-32l-66 -18l-14 -20v-476zM379 811c9 0 46 1 64 17c12 11 17 29 19 49h84v-40
c-42 -44 -94 -66 -165 -66c-81 0 -127 26 -169 66v40h85c2 -20 6 -37 19 -48c20 -17 53 -18 63 -18z" />
    <glyph glyph-name="afii10028" unicode="&#x41a;" horiz-adv-x="668" 
d="M206 630v-256l260 269v15l-64 10v32h234v-32l-103 -26l-252 -255l293 -345l75 -10v-32h-168v30l-275 335v-323l80 -10v-32h-238v32l66 18l14 20v588l-80 10v32h238v-32l-66 -18z" />
    <glyph glyph-name="afii10029" unicode="&#x41b;" horiz-adv-x="726" 
d="M132 700h545v-31l-67 -18h1l-14 -20v-589l80 -10v-32h-238v32l66 18l14 20v582h-243v-55c0 -92 -4 -178 -7 -236c-7 -110 -21 -181 -34 -224c-41 -133 -130 -153 -160 -153c-19 0 -34 6 -47 12l-10 91l28 13l74 -48c30 21 54 69 65 106c31 107 35 284 35 440v59l-88 11
v32z" />
    <glyph glyph-name="afii10030" unicode="&#x41c;" horiz-adv-x="863" 
d="M133 70v588l-80 10v32h187l198 -465l201 465h175v-32l-66 -18l-13 -19v-589l79 -10v-32h-237v32l67 18h-1l14 20v547h-2l-211 -482h-44l-212 490h-2v-583l76 -10v-32h-214v32l71 18z" />
    <glyph glyph-name="afii10031" unicode="&#x41d;" horiz-adv-x="752" 
d="M206 42l80 -10v-32h-238v32l66 18l14 20v588l-80 10v32h238v-32l-66 -18l-14 -20v-233h339v261l-80 10v32h238v-32l-66 -18l-14 -20v-588l80 -10v-32h-238v32l66 18l14 20v279h-339v-307z" />
    <glyph glyph-name="afii10032" unicode="&#x41e;" horiz-adv-x="719" 
d="M72 350c0 99 9 220 85 297c58 59 126 69 202 69c77 0 145 -10 203 -69c76 -77 85 -198 85 -297c0 -124 -18 -230 -85 -298c-57 -58 -127 -68 -203 -68c-75 0 -145 10 -202 68c-67 68 -85 174 -85 298zM156 350c0 -58 3 -189 59 -260c35 -45 82 -60 144 -60
c63 0 110 15 145 60c56 71 59 202 59 260c0 89 -9 194 -59 259c-36 47 -81 61 -145 61c-63 0 -108 -14 -144 -61c-56 -72 -59 -196 -59 -259z" />
    <glyph glyph-name="afii10033" unicode="&#x41f;" horiz-adv-x="744" 
d="M206 652v-610l80 -10v-32h-238v32l66 18l14 20v588l-80 10v32h647v-32l-66 -18l-14 -20v-588l80 -10v-32h-238v31l66 18l14 21v582h-331z" />
    <glyph glyph-name="afii10034" unicode="&#x420;" horiz-adv-x="634" 
d="M206 652v-304h137c110 0 171 29 171 157c0 119 -59 147 -171 147h-137zM48 700h315c144 0 234 -37 234 -196c0 -151 -92 -204 -234 -204h-157v-258l89 -10v-32h-247v32l66 18l14 20v588l-80 10v32z" />
    <glyph glyph-name="afii10035" unicode="&#x421;" horiz-adv-x="620" 
d="M562 691l10 -151h-37l-39 106c-31 14 -76 24 -122 24c-189 0 -218 -138 -218 -319c0 -165 31 -224 55 -255c42 -53 112 -66 159 -66c49 0 86 13 117 26l55 86h37l-35 -122c-41 -18 -97 -36 -183 -36c-51 0 -148 6 -211 69c-67 67 -78 196 -78 297c0 249 93 366 308 366
c43 0 117 -8 182 -25z" />
    <glyph glyph-name="afii10036" unicode="&#x422;" horiz-adv-x="580" 
d="M16 544l14 156h521l14 -156h-36l-35 98l-14 10h-152v-610l80 -10v-32h-237v32l66 18l14 20v582h-153l-12 -8l-35 -100h-35z" />
    <glyph glyph-name="afii10037" unicode="&#x423;" horiz-adv-x="680" 
d="M539 654l-65 13v33h193v-33l-69 -18l-205 -509c-23 -56 -45 -96 -63 -115c-35 -37 -65 -41 -103 -41c-32 0 -69 4 -111 21l23 119h38l18 -78c8 -6 29 -16 43 -16c54 0 87 76 100 113l13 37l-269 478l-70 10v32h235v-32l-60 -20l-4 -16l207 -362z" />
    <glyph glyph-name="afii10038" unicode="&#x424;" horiz-adv-x="882" 
d="M480 139h44c147 0 202 66 202 214c0 138 -40 214 -202 214h-44v-428zM402 613v61l-79 10v32h237v-32l-67 -18l-13 -19v-34h44c83 0 173 -11 228 -73c54 -59 57 -147 57 -187c0 -41 -3 -129 -57 -188c-55 -62 -144 -72 -228 -72h-44v-67l80 -10v-32h-237v32l65 18l14 20
v39h-43c-84 0 -173 10 -229 72c-54 59 -57 147 -57 188c0 40 3 128 57 187c56 62 146 73 229 73h43zM359 139h43v428h-43c-162 0 -202 -76 -202 -214c0 -148 55 -214 202 -214z" />
    <glyph glyph-name="afii10039" unicode="&#x425;" horiz-adv-x="640" 
d="M474 65l-159 257l-171 -280l79 -10v-32h-212v32l72 21l201 317l-182 288l-69 10v32h239v-32l-59 -20l-5 -16l127 -207l140 229l-64 13v33h189v-33l-65 -15l-172 -269l216 -341l50 -10v-32h-234v31l66 19z" />
    <glyph glyph-name="afii10040" unicode="&#x426;" horiz-adv-x="741" 
d="M634 -11l-12 11h-574v32l66 18l14 20v588l-80 10v32h238v-32l-66 -18l-14 -20v-582h339v610l-80 10v32h238v-31l-65 -18l-14 -18v-585h79l10 -193h-35z" />
    <glyph glyph-name="afii10041" unicode="&#x427;" horiz-adv-x="694" 
d="M112 478v180l-80 10v32h238v-32l-65 -17l-14 -21v-149c0 -102 31 -138 139 -138c38 0 97 4 157 27v288l-80 10v32h238v-32l-67 -18h1l-14 -19v-589l80 -10v-32h-257v32l85 18l14 20v253c-32 -9 -98 -26 -182 -26c-118 0 -193 40 -193 181z" />
    <glyph glyph-name="afii10042" unicode="&#x428;" horiz-adv-x="1020" 
d="M890 42l80 -10v-32h-921v32l65 18l14 19v589l-79 10v32h237v-32l-66 -18l-14 -20v-582h264v610l-79 10v32h237v-32l-66 -18l-14 -20v-582h264v610l-79 10v32h237v-32l-66 -18l-14 -20v-588z" />
    <glyph glyph-name="afii10043" unicode="&#x429;" horiz-adv-x="1008" 
d="M902 -11l-12 11h-841v32l65 18l14 19v589l-79 10v32h237v-32l-66 -18l-14 -20v-582h264v610l-79 10v32h237v-32l-66 -18l-14 -20v-582h264v610l-79 10v32h237v-32l-66 -18l-14 -20v-582h80l10 -193h-35z" />
    <glyph glyph-name="afii10044" unicode="&#x42a;" horiz-adv-x="750" 
d="M466 347h-158v-299h158c101 0 161 39 161 146c0 105 -52 153 -161 153zM230 70v583h-142l-12 -8l-35 -100h-35l14 155h367v-32l-65 -18l-14 -17v-238h157c146 0 245 -35 245 -196c0 -56 -13 -112 -61 -152c-53 -45 -122 -47 -184 -47h-315v32l66 18z" />
    <glyph glyph-name="afii10045" unicode="&#x42b;" horiz-adv-x="900" 
d="M770 630v-588l80 -10v-32h-237v32l66 18l14 20v588l-80 10v32h237v-32l-66 -18zM345 347h-139v-299h139c100 0 160 39 160 146c0 105 -52 153 -160 153zM206 630v-235h138c145 0 245 -35 245 -196c0 -56 -14 -112 -62 -152c-53 -45 -122 -47 -183 -47h-295v32l65 18
l14 20v588l-79 10v32h237v-32l-67 -18h1z" />
    <glyph glyph-name="afii10046" unicode="&#x42c;" horiz-adv-x="649" 
d="M364 347h-158v-299h158c101 0 161 39 161 146c0 105 -52 153 -161 153zM206 630v-235h157c146 0 246 -35 246 -196c0 -56 -14 -112 -62 -152c-53 -45 -122 -47 -184 -47h-315v32l66 18l14 20v588l-80 10v32h238v-32l-66 -18z" />
    <glyph glyph-name="afii10047" unicode="&#x42d;" horiz-adv-x="614" 
d="M260 -16c-93 0 -169 20 -204 34l-10 147h37l32 -106c38 -20 100 -29 142 -29c138 0 196 106 199 307h-199l-14 -8l-17 -63h-33v189h33l17 -62l12 -8h201c-3 140 -21 285 -196 285c-43 0 -80 -7 -118 -24l-40 -108h-37l12 153c63 15 128 25 180 25
c241 0 284 -145 284 -358c0 -220 -57 -374 -281 -374z" />
    <glyph glyph-name="afii10048" unicode="&#x42e;" horiz-adv-x="992" 
d="M206 42l80 -10v-32h-237v32l65 18l14 20v588l-79 10v32h237v-32l-66 -18l-14 -20v-233h139c3 87 20 185 83 250c58 59 126 69 203 69s144 -10 202 -69c76 -77 85 -198 85 -297c0 -124 -18 -230 -85 -298c-57 -58 -126 -68 -202 -68s-146 10 -203 68
c-63 65 -83 179 -84 297h-138v-307zM427 350c0 -58 3 -189 59 -260c35 -45 82 -60 145 -60s110 15 144 60c56 71 59 202 59 260c0 89 -9 194 -59 259c-35 47 -80 61 -144 61s-109 -14 -145 -61c-56 -72 -59 -196 -59 -259z" />
    <glyph glyph-name="afii10049" unicode="&#x42f;" horiz-adv-x="674" 
d="M453 50l14 20v247h-129l-174 -288v-29h-150v32l69 19l175 274c-48 2 -95 16 -122 36c-50 39 -60 95 -60 138c0 147 84 201 245 201h304v-32l-66 -18l-14 -20v-588l80 -10v-32h-238v32zM160 504c0 -91 37 -139 155 -139h152v287h-152c-105 0 -155 -38 -155 -148z" />
    <glyph glyph-name="afii10065" unicode="&#x430;" horiz-adv-x="541" 
d="M90 386l-10 124c57 13 125 22 185 22c129 0 177 -35 178 -191l1 -302l73 -11v-28l-51 -4c-30 -2 -62 -5 -93 -8v70c-57 -52 -129 -70 -184 -70c-27 0 -70 1 -101 30c-24 22 -40 64 -40 114c0 48 23 88 41 105c36 33 97 40 140 45l17 2l127 16v48c0 103 -24 142 -131 142
c-14 0 -56 -3 -87 -14l-31 -90h-34zM373 111v145c-160 -19 -202 -26 -223 -47c-25 -26 -25 -62 -25 -79c0 -72 34 -100 84 -100c65 0 134 54 164 81z" />
    <glyph glyph-name="afii10066" unicode="&#x431;" horiz-adv-x="575" 
d="M297 520c168 0 218 -85 218 -260c0 -50 -2 -161 -62 -221c-49 -49 -124 -51 -166 -51c-44 0 -115 2 -164 51c-56 56 -63 160 -63 231v47c0 39 1 125 10 184c23 143 84 212 241 227l85 8c51 5 73 7 127 30v-32l-63 -61c-11 -1 -28 -3 -45 -4c-46 -4 -109 -7 -138 -13
c-64 -12 -112 -40 -141 -104c-15 -34 -29 -93 -31 -144h3c41 79 117 112 189 112zM136 260c0 -52 5 -144 40 -187c29 -36 75 -43 111 -43c37 0 83 7 112 43c35 43 40 135 40 187c0 131 -16 213 -152 213c-125 0 -151 -110 -151 -213z" />
    <glyph glyph-name="afii10067" unicode="&#x432;" horiz-adv-x="554" 
d="M335 0h-299v28l64 18l6 15v417l-74 14v28h295c85 0 149 -22 149 -121c0 -60 -20 -104 -91 -120v-2c73 -8 123 -44 123 -133c0 -109 -64 -144 -173 -144zM176 476v-185h129c60 0 97 34 97 100c0 51 -30 85 -97 85h-129zM176 248v-204h140c57 0 118 14 118 101
c0 74 -36 103 -118 103h-140z" />
    <glyph glyph-name="afii10068" unicode="&#x433;" horiz-adv-x="428" 
d="M324 476h-148v-434l73 -14v-28h-213v28l64 18l6 15v417l-74 14v28h363l9 -134h-34l-36 87z" />
    <glyph glyph-name="afii10069" unicode="&#x434;" horiz-adv-x="594" 
d="M141 44h274v432h-191c-8 -162 -35 -323 -83 -432zM489 0h-393l-9 -8l-40 -116h-34l14 168h56c74 122 89 310 92 433l-81 28v15h452v-15l-52 -20l-9 -24v-417h73l14 -168h-34l-40 115z" />
    <glyph glyph-name="afii10070" unicode="&#x435;" horiz-adv-x="542" 
d="M493 289l-353 -49c2 -107 33 -210 162 -210c70 0 133 23 174 47l14 -37c-84 -43 -153 -51 -203 -51c-176 0 -227 101 -227 271c0 58 6 159 69 219c51 50 126 53 164 53c39 0 100 -4 147 -51c45 -46 53 -130 53 -183v-9zM139 283l279 37c-2 31 -9 90 -28 121
c-26 44 -65 49 -103 49c-114 0 -148 -93 -148 -198v-9z" />
    <glyph glyph-name="afii10072" unicode="&#x436;" horiz-adv-x="770" 
d="M418 459v-185l194 196v8l-57 14v28h195v-28l-65 -18l-199 -191l209 -241l67 -14v-28h-148v30l-196 235v-223l74 -14v-28h-213v28l63 18l6 15v203l-193 -234v-30h-146v28l65 14l208 241l-200 191l-62 17v29h196v-28l-59 -14v-9l191 -194v203l-73 14v28h213v-28l-64 -18z
" />
    <glyph glyph-name="afii10073" unicode="&#x437;" horiz-adv-x="480" 
d="M219 490c-36 0 -68 -9 -86 -18l-35 -82h-33l10 121c55 14 109 21 155 21c30 0 105 0 144 -33c21 -17 38 -48 38 -93c0 -72 -48 -114 -100 -127v-3c73 -10 121 -46 121 -136c0 -133 -117 -152 -219 -152c-53 0 -102 9 -157 22l-11 115h34l35 -75c14 -7 51 -20 94 -20
c84 0 143 26 143 111c0 18 -1 55 -25 81c-30 31 -73 31 -100 31h-68v44h71c69 0 107 26 107 103c0 69 -54 90 -118 90z" />
    <glyph glyph-name="afii10074" unicode="&#x438;" horiz-adv-x="616" 
d="M510 459v-417l74 -14v-28h-213v28l63 18l6 15v313l-265 -288v-44l74 -14v-28h-213v27l64 19l6 15v417l-74 14v28h213v-28l-64 -18l-6 -15v-308l265 287v40l-73 14v28h213v-28l-64 -18z" />
    <glyph glyph-name="afii10075" unicode="&#x439;" horiz-adv-x="616" 
d="M306 628c30 0 52 9 64 23c11 14 15 31 13 49h73v-36c-20 -50 -86 -74 -151 -74c-69 0 -128 20 -151 74v36h73c0 -17 1 -33 13 -49c12 -14 30 -23 66 -23zM510 459v-417l74 -14v-28h-213v28l63 18l6 15v313l-265 -288v-44l74 -14v-28h-213v27l64 19l6 15v417l-74 14v28
h213v-28l-64 -18l-6 -15v-308l265 287v40l-73 14v28h213v-28l-64 -18z" />
    <glyph glyph-name="afii10076" unicode="&#x43a;" horiz-adv-x="549" 
d="M176 459v-417l74 -14v-28h-214v28l64 18l6 15v417l-74 14v28h214v-28l-64 -18zM456 474l-209 -189l214 -243l69 -14v-28h-146v29l-212 241l211 200v8l-58 14v28h196v-28z" />
    <glyph glyph-name="afii10077" unicode="&#x43b;" horiz-adv-x="576" 
d="M401 476h-186c-7 -102 -18 -233 -33 -310c-11 -56 -32 -119 -69 -151c-22 -18 -46 -24 -74 -24c-14 0 -20 1 -30 6l-9 79l18 11l66 -36c14 12 34 52 49 119c8 34 21 149 29 308l-74 14v28h452v-28l-63 -18l-6 -15v-417l73 -14v-28h-213v28l64 18l6 15v415z" />
    <glyph glyph-name="afii10078" unicode="&#x43c;" horiz-adv-x="701" 
d="M518 520h147v-28l-64 -18l-6 -13v-419l74 -14v-28h-213v28l64 18l6 15v372l-166 -349h-38l-168 349v-391l74 -14v-28h-191v28l63 18l5 15v417l-73 14v28h153l168 -350z" />
    <glyph glyph-name="afii10079" unicode="&#x43d;" horiz-adv-x="610" 
d="M32 520h214v-28l-64 -18l-6 -15v-160h259v179l-74 14v28h213v-28l-63 -18l-6 -15v-417l73 -14v-28h-213v28l64 18l6 15v194h-259v-213l74 -14v-28h-214v28l64 18l6 15v417l-74 14v28z" />
    <glyph glyph-name="afii10080" unicode="&#x43e;" horiz-adv-x="575" 
d="M60 260c0 71 7 165 63 221c49 49 120 51 164 51c42 0 117 -2 166 -51c60 -60 62 -171 62 -221s-2 -161 -62 -221c-49 -49 -124 -51 -166 -51c-44 0 -115 2 -164 51c-56 56 -63 150 -63 221zM136 260c0 -52 5 -144 40 -187c29 -36 75 -43 111 -43c37 0 83 7 112 43
c35 43 40 135 40 187s-5 144 -40 187c-29 36 -75 43 -112 43c-36 0 -82 -7 -111 -43c-35 -43 -40 -135 -40 -187z" />
    <glyph glyph-name="afii10081" unicode="&#x43f;" horiz-adv-x="602" 
d="M497 459v-417l73 -14v-28h-213v28l64 18l6 15v415h-251v-434l74 -14v-28h-214v28l64 18l6 15v417l-74 14v28h534v-28l-63 -18z" />
    <glyph glyph-name="afii10082" unicode="&#x440;" horiz-adv-x="597" 
d="M320 30c123 0 141 110 141 239c0 99 -2 221 -121 221c-64 0 -132 -55 -164 -125v-272c53 -41 110 -63 144 -63zM176 -177l89 -14v-28h-228v28l64 18l5 15v636l-74 14v28l144 12v-90c35 51 87 90 177 90c170 0 184 -118 184 -272c0 -132 -24 -272 -200 -272
c-42 0 -95 3 -161 48v-213z" />
    <glyph glyph-name="afii10083" unicode="&#x441;" horiz-adv-x="502" 
d="M459 77l14 -38c-59 -39 -126 -51 -184 -51c-75 0 -131 22 -163 51c-63 57 -66 147 -66 221c0 165 48 272 233 272c44 0 112 -7 169 -22l-21 -129h-33l-22 95c-26 8 -65 14 -96 14c-131 0 -154 -96 -154 -233c0 -144 36 -227 170 -227c23 0 92 8 153 47z" />
    <glyph glyph-name="afii10084" unicode="&#x442;" horiz-adv-x="494" 
d="M212 57v419h-112l-10 -4l-36 -86h-34l9 134h435l9 -134h-34l-36 87l-10 3h-112v-434l74 -14v-28h-213v28l64 18z" />
    <glyph glyph-name="afii10085" unicode="&#x443;" horiz-adv-x="578" 
d="M500 474l-194 -557c-28 -80 -73 -148 -171 -148c-27 0 -61 6 -96 20l26 99h33l18 -72c5 -1 12 -2 17 -2c68 0 106 46 125 110l21 70l-195 484l-68 14v28h213v-27l-61 -16l152 -382l128 383l-70 14v28h184v-28z" />
    <glyph glyph-name="afii10086" unicode="&#x444;" horiz-adv-x="781" 
d="M425 761v-263c41 27 86 34 119 34c49 0 94 -19 123 -52c42 -48 54 -128 54 -220c0 -110 -17 -179 -51 -220c-22 -26 -61 -52 -129 -52c-37 0 -79 9 -116 34v-199l77 -14v-28h-224v27l73 18l4 10v186c-36 -25 -78 -34 -115 -34c-69 0 -108 26 -130 52
c-34 41 -50 110 -50 220c0 92 11 172 53 220c29 33 75 52 124 52c32 0 79 -8 118 -34v198l-73 9v28zM355 69v382c-32 24 -77 39 -106 39c-45 0 -69 -24 -81 -44c-33 -52 -34 -142 -34 -186s1 -134 34 -186c19 -31 46 -44 85 -44c19 0 57 2 102 39zM425 69
c46 -37 84 -39 103 -39c39 0 66 14 84 44c32 52 34 142 34 186s-1 134 -34 186c-12 20 -35 44 -80 44c-29 0 -74 -15 -107 -39v-382z" />
    <glyph glyph-name="afii10087" unicode="&#x445;" horiz-adv-x="540" 
d="M464 41l66 -13v-28h-214v28l57 17l-112 182l-124 -185l76 -14v-28h-198v28l66 18h-1l155 221l-136 211l-74 14v28h214v-28l-51 -15v-10l89 -142l107 153l-67 14v28h184v-28l-64 -18l-132 -187z" />
    <glyph glyph-name="afii10088" unicode="&#x446;" horiz-adv-x="616" 
d="M558 -124l-39 116l-8 8h-475v28l64 18l6 15v417l-74 14v28h214v-28l-64 -18l-6 -15v-415h260v434l-74 14v28h213v-28l-63 -18l-6 -15v-415h73l15 -168h-36z" />
    <glyph glyph-name="afii10089" unicode="&#x447;" horiz-adv-x="589" 
d="M414 61v186c-59 -30 -125 -40 -177 -40c-46 0 -88 17 -111 42c-33 35 -33 95 -33 144v85l-74 14v28h214v-28l-64 -18l-4 -13v-66c0 -63 6 -89 15 -106c17 -31 42 -40 75 -40c50 0 98 10 159 44v185l-74 14v28h213v-28l-63 -18l-6 -15v-417l73 -14v-28h-233v28l84 18z" />
    <glyph glyph-name="afii10090" unicode="&#x448;" horiz-adv-x="844" 
d="M667 44v434l-73 14v28h213v-28l-64 -18l-6 -15v-417l74 -14l1 -28h-776v28l63 18l6 15v417l-73 14v28h213v-28l-64 -18l-6 -15v-415h211v434l-73 14v28h213v-28l-64 -18l-6 -15v-415h211z" />
    <glyph glyph-name="afii10091" unicode="&#x449;" horiz-adv-x="849" 
d="M752 -8l-8 8h-708v28l63 18l6 15v417l-73 14v28h213v-28l-64 -18l-6 -15v-415h211v434l-73 14v28h213v-28l-64 -18l-6 -15v-415h211v434l-73 14v28h213v-28l-64 -18l-6 -15v-415h74l16 -168h-35z" />
    <glyph glyph-name="afii10092" unicode="&#x44a;" horiz-adv-x="622" 
d="M270 255v-211h135c60 0 108 23 108 104c0 80 -42 107 -121 107h-122zM29 520h310v-28l-63 -18l-6 -12v-163h133c102 0 183 -27 183 -151c0 -26 -8 -76 -40 -110c-36 -32 -98 -38 -133 -38h-283v28l64 18l6 15v415h-105l-9 -9l-35 -81h-31z" />
    <glyph glyph-name="afii10093" unicode="&#x44b;" horiz-adv-x="749" 
d="M574 61v417l-74 14v28h213v-28l-64 -18l-6 -15v-417l74 -14v-28h-213v28l64 18zM36 0v28l63 18l6 15v417l-73 14v28h213v-28l-64 -18l-6 -15v-160h124c101 0 183 -27 183 -151c0 -26 -7 -77 -41 -110c-35 -33 -98 -38 -132 -38h-273zM175 255v-211h126
c59 0 107 23 107 104c0 80 -42 107 -120 107h-113z" />
    <glyph glyph-name="afii10094" unicode="&#x44c;" horiz-adv-x="529" 
d="M36 0v28l64 18l6 15v417l-74 14v28h214v-28l-64 -18l-6 -15v-160h133c102 0 184 -27 184 -151c0 -26 -8 -76 -41 -110c-36 -32 -98 -38 -133 -38h-283zM176 255v-211h135c60 0 108 23 108 104c0 80 -42 107 -121 107h-122z" />
    <glyph glyph-name="afii10095" unicode="&#x44d;" horiz-adv-x="501" 
d="M214 -12c-53 0 -102 9 -157 22l-11 115h34l35 -76c14 -7 51 -19 94 -19c135 0 153 99 156 221h-217v44h217c-2 93 -28 195 -143 195c-31 0 -73 -6 -91 -15l-36 -85h-33l10 122c55 14 112 20 158 20c179 0 211 -117 211 -272c0 -170 -48 -272 -227 -272z" />
    <glyph glyph-name="afii10096" unicode="&#x44e;" horiz-adv-x="819" 
d="M32 520h213v-28l-64 -18l-6 -15v-160h130c3 63 17 136 62 182c49 49 120 51 165 51c42 0 116 -2 165 -51c60 -60 62 -171 62 -221s-2 -161 -62 -221c-49 -49 -123 -51 -165 -51c-45 0 -116 2 -165 51c-51 52 -61 147 -62 216h-130v-213l74 -14v-28h-213v28l63 18l6 15
v417l-73 14v28zM380 260c0 -52 5 -144 40 -187c29 -36 75 -43 112 -43s82 7 111 43c35 43 40 135 40 187s-5 144 -40 187c-29 36 -74 43 -111 43s-83 -7 -112 -43c-35 -43 -40 -135 -40 -187z" />
    <glyph glyph-name="afii10097" unicode="&#x44f;" horiz-adv-x="535" 
d="M264 272h95v204h-109c-63 0 -109 -20 -109 -104c0 -81 47 -100 123 -100zM76 42l131 190c-76 8 -140 35 -140 138c0 110 75 150 181 150h251v-28l-64 -18l-6 -15v-417l74 -14v-28h-214v28l64 18l6 15v167h-83l-130 -198v-30h-130v28z" />
    <glyph glyph-name="afii10071" unicode="&#x451;" horiz-adv-x="542" 
d="M493 289l-353 -49c2 -107 33 -210 162 -210c70 0 133 23 174 47l14 -37c-84 -43 -153 -51 -203 -51c-176 0 -227 101 -227 271c0 58 6 159 69 219c51 50 126 53 164 53c39 0 100 -4 147 -51c45 -46 53 -130 53 -183v-9zM139 283l279 37c-2 31 -9 90 -28 121
c-26 44 -65 49 -103 49c-114 0 -148 -93 -148 -198v-9zM334 692c0 30 20 51 50 51c29 0 50 -21 50 -51c0 -28 -21 -49 -50 -49s-50 20 -50 49zM139 692c0 30 20 51 50 51c29 0 50 -21 50 -51c0 -28 -21 -49 -50 -49s-50 20 -50 49z" />
    <glyph glyph-name="afii10099" unicode="&#x452;" horiz-adv-x="576" 
d="M437 207c0 182 -19 271 -100 271c-78 0 -139 -85 -160 -130v-306l74 -14v-28h-214v28l64 18l6 15v536h-75v44h75v64l-74 9v28l144 28v-129h225v-44h-225v-171c56 73 128 94 172 94c108 0 162 -69 162 -308c0 -117 -20 -315 -141 -404l-25 28c31 24 48 50 61 89
c24 73 31 198 31 282z" />
    <glyph glyph-name="afii10100" unicode="&#x453;" horiz-adv-x="428" 
d="M324 476h-148v-434l73 -14v-28h-213v28l64 18l6 15v417l-74 14v28h363l9 -134h-34l-36 87zM278 750h97l-141 -163h-39z" />
    <glyph glyph-name="afii10101" unicode="&#x454;" horiz-adv-x="502" 
d="M459 77l14 -38c-59 -39 -126 -51 -184 -51c-75 0 -131 22 -163 51c-63 57 -66 147 -66 221c0 165 48 272 233 272c44 0 114 -7 171 -22l-21 -129h-35l-22 95c-26 8 -65 14 -96 14c-121 0 -150 -87 -154 -208h234v-44h-234c4 -130 43 -208 170 -208c23 0 92 8 153 47z" />
    <glyph glyph-name="afii10102" unicode="&#x455;" horiz-adv-x="444" 
d="M366 512l9 -115h-34l-32 84c-32 8 -62 9 -87 9c-45 0 -100 -11 -100 -82c0 -61 43 -77 93 -94l60 -20c31 -10 71 -25 94 -52c13 -15 28 -43 28 -91c0 -118 -78 -163 -191 -163c-39 0 -93 4 -147 19l-11 118h33l39 -81c26 -8 58 -14 85 -14c70 0 115 20 115 102
c0 21 0 54 -22 76c-11 11 -41 21 -57 27l-60 21c-76 26 -133 62 -133 140c0 98 71 136 169 136c46 0 103 -7 149 -20z" />
    <glyph glyph-name="afii10103" unicode="&#x456;" horiz-adv-x="281" 
d="M176 532v-490l73 -14v-28h-213v28l64 18l6 15v417l-74 14v28zM85 694c0 30 21 51 51 51c29 0 49 -21 49 -51c0 -28 -20 -49 -49 -49c-30 0 -51 20 -51 49z" />
    <glyph glyph-name="afii10104" unicode="&#x457;" horiz-adv-x="281" 
d="M176 532v-490l73 -14v-28h-213v28l64 18l6 15v417l-74 14v28zM153 692c0 30 20 51 50 51c29 0 50 -21 50 -51c0 -28 -21 -49 -50 -49s-50 20 -50 49zM9 692c0 30 20 51 50 51c29 0 50 -21 50 -51c0 -28 -21 -49 -50 -49s-50 20 -50 49z" />
    <glyph glyph-name="afii10105" unicode="&#x458;" horiz-adv-x="270" 
d="M35 -231c-43 0 -79 6 -105 13l17 109h34l15 -77c7 -1 25 -3 39 -3c60 0 71 51 71 127v540l-74 14v28l143 12v-594c0 -53 -5 -169 -140 -169zM85 694c0 30 21 51 51 51c29 0 49 -21 49 -51c0 -28 -20 -49 -49 -49c-30 0 -51 20 -51 49z" />
    <glyph glyph-name="afii10106" unicode="&#x459;" horiz-adv-x="818" 
d="M475 299h123c102 0 184 -27 184 -151c0 -26 -7 -77 -41 -110c-35 -33 -98 -38 -133 -38h-273v28l64 18l6 15v415h-190c-9 -213 -28 -402 -102 -461c-23 -18 -46 -24 -73 -24c-14 0 -21 1 -31 6l-9 79l18 11l67 -32c27 30 45 67 52 118c7 52 24 143 25 305l-74 14v28h457
v-28l-64 -18l-6 -15v-160zM475 255v-211h125c60 0 108 23 108 104c0 80 -42 107 -121 107h-112z" />
    <glyph glyph-name="afii10107" unicode="&#x45a;" horiz-adv-x="847" 
d="M504 299h123c102 0 184 -27 184 -151c0 -26 -7 -77 -41 -110c-35 -33 -98 -38 -133 -38h-273v28l64 18l6 15v194h-259v-213l74 -14v-28h-213v28l63 18l6 15v417l-73 14v28h213v-28l-64 -18l-6 -15v-160h259v179l-74 14v28h214v-28l-64 -18l-6 -15v-160zM504 255v-211h125
c60 0 108 23 108 104c0 80 -42 107 -121 107h-112z" />
    <glyph glyph-name="afii10108" unicode="&#x45b;" horiz-adv-x="603" 
d="M32 641h75v64l-74 9v28l144 28v-129h225v-44h-225v-171c56 73 128 94 172 94c108 0 157 -62 157 -183v-295l73 -14v-28h-213v28l64 18l6 15v266c0 88 -14 151 -95 151c-78 0 -142 -85 -164 -130v-306l74 -14v-28h-214v28l64 18l6 15v536h-75v44z" />
    <glyph glyph-name="afii10109" unicode="&#x45c;" horiz-adv-x="549" 
d="M176 459v-417l74 -14v-28h-214v28l64 18l6 15v417l-74 14v28h214v-28l-64 -18zM456 474l-209 -189l214 -243l69 -14v-28h-146v29l-212 241l211 200v8l-58 14v28h196v-28zM333 750h97l-141 -163h-39z" />
    <glyph glyph-name="afii10110" unicode="&#x45e;" horiz-adv-x="578" 
d="M500 474l-194 -557c-28 -80 -73 -148 -171 -148c-27 0 -61 6 -96 20l26 99h33l18 -72c5 -1 12 -2 17 -2c68 0 106 46 125 110l21 70l-195 484l-68 14v28h213v-27l-61 -16l152 -382l128 383l-70 14v28h184v-28zM301 628c30 0 52 9 64 23c11 14 15 31 13 49h73v-36
c-20 -50 -86 -74 -151 -74c-69 0 -128 20 -151 74v36h73c0 -17 1 -33 13 -49c12 -14 30 -23 66 -23z" />
    <glyph glyph-name="afii10193" unicode="&#x45f;" horiz-adv-x="602" 
d="M106 61v417l-74 14v28h214v-28l-64 -18l-6 -15v-415h251v434l-74 14v28h213v-28l-63 -18l-6 -15v-417l73 -14v-28h-252l20 -105v-39l-21 -35h-37l-21 35v39l19 105h-242v28l64 18z" />
    <glyph glyph-name="afii10146" unicode="&#x462;" horiz-adv-x="747" 
d="M463 347h-158v-299h158c101 0 161 39 161 146c0 105 -52 153 -161 153zM227 568h-121l-12 -8l-35 -99h-35l14 155h189v42l-80 10v32h237v-32l-66 -18h1l-14 -20v-14h253l14 -155h-35l-34 97l-14 10h-184v-173h157c146 0 245 -35 245 -196c0 -56 -13 -112 -61 -152
c-53 -45 -122 -47 -184 -47h-315v32l66 18l14 20v498z" />
    <glyph glyph-name="afii10194" unicode="&#x463;" horiz-adv-x="624" 
d="M272 255v-211h135c60 0 108 23 108 104c0 80 -42 107 -121 107h-122zM272 476v-177h133c102 0 183 -27 183 -151c0 -26 -7 -77 -40 -110c-35 -34 -98 -38 -133 -38h-283v28l64 18l6 15v415h-102l-10 -4l-36 -86h-34l8 134h174v185l-74 9v28l144 28v-250h194l9 -134h-35
l-36 86l-10 4h-122z" />
    <glyph glyph-name="afii10147" unicode="&#x472;" horiz-adv-x="719" 
d="M563 331h-407c1 -101 17 -188 59 -241c35 -45 82 -60 144 -60c63 0 110 15 145 60c52 66 58 180 59 241zM72 350c0 99 9 220 85 297c58 59 126 69 202 69c77 0 145 -10 203 -69c76 -77 85 -198 85 -297c0 -124 -18 -230 -85 -298c-57 -58 -127 -68 -203 -68
c-75 0 -145 10 -202 68c-67 68 -85 174 -85 298zM156 379h407c-1 81 -12 169 -59 230c-36 47 -81 61 -145 61c-63 0 -108 -14 -144 -61c-44 -56 -58 -154 -59 -230z" />
    <glyph glyph-name="afii10195" unicode="&#x473;" horiz-adv-x="575" 
d="M136 288h302c-1 52 -12 125 -39 159c-30 36 -75 43 -112 43c-36 0 -81 -7 -111 -43c-30 -38 -39 -112 -40 -159zM60 260c0 71 7 165 63 221c49 49 120 51 164 51c42 0 117 -2 166 -51c60 -60 62 -171 62 -221s-2 -161 -62 -221c-49 -49 -124 -51 -166 -51
c-44 0 -115 2 -164 51c-56 56 -63 150 -63 221zM439 244h-303c1 -80 16 -143 40 -171c30 -36 75 -43 111 -43c37 0 83 7 112 43c32 40 39 120 40 171z" />
    <glyph glyph-name="afii10148" unicode="&#x474;" horiz-adv-x="744" 
d="M360 117l152 449c30 89 92 152 162 150c17 0 36 -6 47 -14l10 -88l-29 -14l-74 50c-29 -19 -53 -67 -67 -106l-190 -544h-52l-236 658l-69 10v32h224v-32l-59 -20l-4 -17z" />
    <glyph glyph-name="afii10196" unicode="&#x475;" horiz-adv-x="580" 
d="M479 418l-159 -418h-55l-180 478l-68 14v28h213v-28l-61 -14l138 -380l125 331c12 32 28 61 49 79c22 18 46 24 73 24c14 0 22 -1 32 -6l9 -78l-19 -12l-65 36c-9 -8 -21 -26 -32 -54z" />
    <glyph glyph-name="afii10050" unicode="&#x490;" horiz-adv-x="505" 
d="M406 700l10 10l35 100h35l-21 -168h-33l-26 10h-200v-610l89 -10v-32h-247v32l66 18l14 20v588l-80 10v32h358z" />
    <glyph glyph-name="afii10098" unicode="&#x491;" horiz-adv-x="428" 
d="M339 476h-163v-434l73 -14v-28h-213v28l64 18l6 15v417l-74 14v28h292l13 11l33 83h34l-14 -148h-25z" />
    <glyph glyph-name="uni1E9E" unicode="&#x1e9e;" horiz-adv-x="678" 
d="M430 333l-114 70l146 184c-16 42 -54 82 -122 82c-38 0 -78 -15 -104 -45c-20 -23 -30 -63 -30 -105v-519h-158v32l66 18l14 20v455c0 63 25 117 60 145c43 34 107 45 153 45c136 0 191 -55 208 -135l-127 -153l61 -37c90 -54 146 -116 146 -221
c0 -121 -75 -185 -185 -185c-46 0 -107 10 -150 32l-10 154h37l43 -117c22 -15 48 -23 77 -23c70 0 105 48 105 128c0 68 -25 119 -116 175z" />
    <glyph glyph-name="uni2010" unicode="&#x2010;" horiz-adv-x="403" 
d="M60 331h283v-62h-283v62z" />
    <glyph glyph-name="uni2011" unicode="&#x2011;" horiz-adv-x="403" 
d="M60 331h283v-62h-283v62z" />
    <glyph glyph-name="figuredash" unicode="&#x2012;" horiz-adv-x="506" 
d="M42 384h422v-53h-422v53z" />
    <glyph glyph-name="endash" unicode="&#x2013;" horiz-adv-x="721" 
d="M60 327h601v-53h-601v53z" />
    <glyph glyph-name="emdash" unicode="&#x2014;" horiz-adv-x="925" 
d="M60 327h805v-53h-805v53z" />
    <glyph glyph-name="quoteleft" unicode="&#x2018;" horiz-adv-x="273" 
d="M179 717l34 -15c-31 -80 -50 -164 -50 -269v-6l-95 16c19 95 52 199 111 274z" />
    <glyph glyph-name="quoteright" unicode="&#x2019;" horiz-adv-x="274" 
d="M99 427l-35 15c31 80 49 164 50 269l1 6l95 -16c-19 -95 -52 -199 -111 -274z" />
    <glyph glyph-name="quotesinglbase" unicode="&#x201a;" horiz-adv-x="269" 
d="M87 -168l-34 15c31 80 50 164 50 269v6l95 -16c-19 -95 -52 -199 -111 -274z" />
    <glyph glyph-name="quotedblleft" unicode="&#x201c;" horiz-adv-x="440" 
d="M168 717l34 -15c-31 -80 -49 -164 -50 -269v-6l-88 16c15 96 45 199 104 274zM335 698l34 -15c-31 -80 -49 -164 -50 -269v-6l-88 16c15 96 45 199 104 274z" />
    <glyph glyph-name="quotedblright" unicode="&#x201d;" horiz-adv-x="433" 
d="M265 408l-34 15c31 80 49 164 50 269v6l88 -16c-15 -96 -45 -199 -104 -274zM98 427l-34 15c31 80 49 164 50 269v6l88 -16c-15 -96 -45 -199 -104 -274z" />
    <glyph glyph-name="quotedblbase" unicode="&#x201e;" horiz-adv-x="440" 
d="M264 -173l-34 15c31 80 49 164 50 269v6l88 -16c-15 -96 -45 -199 -104 -274zM97 -154l-34 15c31 80 49 164 50 269v6l88 -16c-15 -96 -45 -199 -104 -274z" />
    <glyph glyph-name="dagger" unicode="&#x2020;" horiz-adv-x="540" 
d="M248 703h49l20 -35v-41l-29 -128l115 22h40l29 -20v-34l-29 -20h-40l-115 22l29 -138c-20 -94 -27 -200 -27 -254v-77h-35v77c0 54 -7 160 -28 254l30 138l-85 -16l-31 -6h-40l-29 20v34l29 20h40l116 -22l-30 128v41z" />
    <glyph glyph-name="daggerdbl" unicode="&#x2021;" horiz-adv-x="540" 
d="M248 703h49l20 -35v-41l-29 -128l115 22h40l29 -20v-34l-29 -20h-40l-115 22l29 -117l-29 -118l115 22h40l29 -20v-34l-29 -20h-40l-115 22l29 -128v-40l-20 -36h-49l-21 36v40l30 128l-116 -22h-40l-29 20v34l29 20h40l116 -22l-30 118l30 117l-116 -22h-40l-29 20v34
l29 20h40l116 -22l-30 128v41z" />
    <glyph glyph-name="bullet" unicode="&#x2022;" horiz-adv-x="1000" 
d="M387 352c0 65 52 118 117 118c66 0 119 -53 119 -118c0 -66 -53 -119 -119 -119c-65 0 -117 53 -117 119z" />
    <glyph glyph-name="ellipsis" unicode="&#x2026;" horiz-adv-x="840" 
d="M86 44c0 32 25 57 57 57s56 -25 56 -57c0 -31 -24 -56 -56 -56s-57 25 -57 56zM643 44c0 32 25 57 57 57s55 -25 55 -57c0 -31 -23 -56 -55 -56s-57 25 -57 56zM364 44c0 32 24 57 56 57s56 -25 56 -57c0 -31 -24 -56 -56 -56s-56 25 -56 56z" />
    <glyph glyph-name="perthousand" unicode="&#x2030;" horiz-adv-x="1300" 
d="M178 718c34 0 83 -4 114 -38c39 -44 41 -130 41 -181c0 -53 -2 -137 -41 -181c-29 -33 -79 -38 -114 -38c-33 0 -85 4 -113 37c-41 48 -44 130 -44 182s1 134 44 181c33 35 80 38 113 38zM178 321c78 0 91 56 91 178c0 115 -3 179 -91 179c-74 0 -91 -52 -91 -179
c0 -134 22 -178 91 -178zM160 -78l-40 26l626 844l42 -28zM729 427c34 0 81 -3 114 -40c39 -43 40 -126 40 -180c0 -52 -1 -138 -40 -181c-30 -33 -80 -37 -114 -37c-32 0 -88 5 -118 40c-37 43 -40 128 -40 178c0 53 1 135 43 180c34 37 81 40 115 40zM729 30
c77 0 90 56 90 177c0 116 -3 178 -90 178c-75 0 -91 -50 -91 -178c0 -134 21 -177 91 -177zM1119 427c34 0 80 -3 113 -40c40 -43 41 -126 41 -180c0 -52 -1 -138 -41 -181c-30 -33 -79 -37 -113 -37c-32 0 -87 6 -118 40c-36 40 -40 128 -40 178c0 53 1 135 43 180
c34 37 81 40 115 40zM1119 30c77 0 89 56 89 177c0 116 -3 178 -89 178c-75 0 -91 -50 -91 -178c0 -134 21 -177 91 -177z" />
    <glyph glyph-name="guilsinglleft" unicode="&#x2039;" horiz-adv-x="380" 
d="M306 156l-34 -32l-194 177l194 177l34 -34l-128 -143z" />
    <glyph glyph-name="guilsinglright" unicode="&#x203a;" horiz-adv-x="380" 
d="M114 124l-34 32l128 145l-128 143l34 34l194 -177z" />
    <glyph glyph-name="fraction" unicode="&#x2044;" horiz-adv-x="180" 
d="M-206 -81l-34 25l629 844l34 -27z" />
    <glyph glyph-name="uni2081" unicode="&#x2081;" horiz-adv-x="360" 
d="M187 419h31v-375l78 -20v-24h-229v23l85 21v297l-110 -13v24c40 5 98 20 145 67z" />
    <glyph glyph-name="uni2082" unicode="&#x2082;" horiz-adv-x="360" 
d="M156 390c-23 0 -54 -8 -64 -15l-7 -59h-26l-18 82c27 12 83 29 131 29c78 -1 133 -26 133 -99c0 -59 -39 -111 -90 -164l-111 -114h163l28 43h26l-18 -93h-271v21l130 143c63 70 80 107 80 148c0 63 -34 78 -86 78z" />
    <glyph glyph-name="uni2083" unicode="&#x2083;" horiz-adv-x="360" 
d="M65 421h242v-27l-108 -140c73 -4 118 -39 118 -127c0 -29 -8 -78 -53 -109c-36 -25 -88 -29 -118 -29c-49 0 -79 9 -106 21l18 82h26l8 -54c18 -9 34 -12 53 -12c62 0 106 31 106 100c0 55 -21 92 -84 92c-9 0 -17 0 -25 -1v23l96 131h-138l-20 -54h-26z" />
    <glyph glyph-name="uni2084" unicode="&#x2084;" horiz-adv-x="360" 
d="M173 427l69 -9c-53 -108 -109 -203 -167 -285h150v113l63 19v-132h52v-39h-52v-94h-63v94h-206v24c64 91 111 194 154 309z" />
    <glyph glyph-name="Euro" unicode="&#x20ac;" horiz-adv-x="574" 
d="M341 32c43 0 86 14 108 25l55 85h38l-38 -122c-41 -18 -88 -35 -173 -35c-50 0 -105 6 -164 68c-42 45 -67 126 -71 206h-71l17 48h52c-1 16 -1 35 -1 46c0 14 0 34 1 48h-69l17 47h54c5 54 22 153 78 208c44 43 119 67 204 67c53 0 87 -7 152 -24l9 -151h-33l-43 106
c-31 14 -67 22 -98 22c-125 0 -171 -76 -184 -228h277l-17 -47h-262c-1 -15 -1 -43 -1 -54c0 -13 0 -29 1 -40h231l-16 -48h-215c7 -108 38 -227 162 -227z" />
    <glyph glyph-name="uni20B4" unicode="&#x20b4;" horiz-adv-x="540" 
d="M255 670c-42 0 -68 -8 -95 -21l-43 -87h-27l10 129c78 20 119 25 164 25c90 0 203 -9 203 -130c0 -46 -21 -93 -65 -134h83v-53h-132l-100 -93h232v-52h-273c-33 -35 -55 -65 -55 -109c0 -91 64 -115 118 -115c32 0 72 11 100 27l55 85h38l-38 -122
c-36 -21 -98 -37 -164 -37c-91 0 -194 26 -194 150c0 60 41 100 63 121h-71v52h113l103 93h-216v53h252c49 49 68 99 68 132c0 58 -58 86 -129 86z" />
    <glyph glyph-name="uni20B8" unicode="&#x20b8;" 
d="M21 648v48h481v-48h-481zM223 516h-203v47h483v-47h-202v-474l79 -10v-32h-237v32l66 18l14 20v446z" />
    <glyph glyph-name="uni20BD" unicode="&#x20bd;" horiz-adv-x="541" 
d="M347 162h-135v-120l89 -10v-32h-247v32l66 18l14 20v92h-92v50h92v86h-92v51h92v309l-80 10v32h245c143 0 222 -37 222 -196c0 -151 -81 -204 -222 -204h-87v-88h135v-50zM212 652v-304h67c109 0 159 29 159 157c0 119 -48 147 -159 147h-67z" />
    <glyph glyph-name="afii61352" unicode="&#x2116;" horiz-adv-x="1000" 
d="M672 535c0 154 75 165 135 165c27 0 68 0 97 -30c26 -27 37 -72 37 -135c0 -62 -11 -107 -37 -134c-29 -30 -70 -30 -97 -30s-68 0 -98 30c-26 27 -37 72 -37 134zM739 535c0 -62 6 -125 68 -125c60 0 68 60 68 125c0 71 -6 126 -68 126c-60 0 -68 -55 -68 -126zM686 261
v52h241v-52h-241zM165 42l79 -10v-32h-212v32l66 18l14 16v592l-80 10v32h179l292 -565v523l-80 10v32h212v-32l-66 -18l-14 -19v-631h-57l-333 627v-585z" />
    <glyph glyph-name="trademark" unicode="&#x2122;" horiz-adv-x="777" 
d="M53 703h252l5 -84h-25l-13 45h-61v-225l35 -10v-22h-134v22l35 10v225h-61l-13 -45h-24zM699 671v-232l34 -10v-22h-133v22l35 10v192l-97 -193h-23l-95 194v-193l32 -10v-22h-103v22l34 10v232l-34 10v22h102l89 -188l95 188h98v-22z" />
    <glyph glyph-name="partialdiff" unicode="&#x2202;" horiz-adv-x="542" 
d="M312 510c29 0 84 -5 134 -29c3 22 4 55 4 75c0 148 -93 157 -139 157c-32 0 -67 -3 -116 -22l-13 49c64 20 107 21 139 21c84 0 130 -31 155 -58c43 -49 47 -112 47 -169c0 -89 -19 -226 -52 -328c-34 -108 -104 -218 -238 -218c-120 0 -195 60 -195 198
c0 171 86 324 274 324zM401 223c21 77 31 158 37 210c-50 21 -87 30 -121 30c-150 0 -202 -138 -202 -282c0 -110 54 -150 121 -150c69 0 133 75 165 192z" />
    <glyph glyph-name="product" unicode="&#x220f;" horiz-adv-x="740" 
d="M206 653v-831l80 -10v-31h-238v31l66 18l14 19v809l-80 10v32h643v-32l-66 -18l-14 -20v-808l80 -10v-31h-238v30l66 18l14 19v805h-327z" />
    <glyph glyph-name="summation" unicode="&#x2211;" horiz-adv-x="560" 
d="M495 -219h-461v30l283 448l-272 409v32h450l10 -122h-30l-35 69l-13 6h-263l235 -361l-266 -427h303l14 15l37 89h32z" />
    <glyph glyph-name="minus" unicode="&#x2212;" 
d="M36 330h458v-52h-458v52z" />
    <glyph glyph-name="uni2215" unicode="&#x2215;" horiz-adv-x="680" 
d="M590 721l47 -21l-528 -904l-30 14l-17 7z" />
    <glyph glyph-name="radical" unicode="&#x221a;" horiz-adv-x="620" 
d="M29 566h156l141 -473l212 661h58l-260 -795h-53l-169 560h-85v47z" />
    <glyph glyph-name="infinity" unicode="&#x221e;" horiz-adv-x="660" 
d="M492 136c-64 0 -99 26 -162 96c-51 -54 -101 -96 -176 -96c-73 0 -127 50 -127 128c0 83 56 135 139 135c72 0 112 -38 158 -81l16 -16c41 50 91 97 165 97c80 0 127 -51 127 -128c0 -80 -57 -135 -140 -135zM300 259l-21 21c-43 43 -83 73 -128 73
c-48 0 -77 -33 -77 -87c0 -43 28 -89 84 -89c55 0 100 34 142 82zM370 271l12 -12c46 -46 78 -78 127 -78s80 44 80 90c0 53 -34 91 -84 91c-59 0 -97 -45 -135 -91z" />
    <glyph glyph-name="integral" unicode="&#x222b;" horiz-adv-x="400" 
d="M115 -184c36 5 54 41 54 130v592c0 38 7 102 47 144c26 28 56 30 85 30c24 0 41 -1 66 -8l10 -82l-19 -10l-60 62c-57 -16 -59 -69 -59 -136v-592c0 -84 -40 -174 -132 -174c-19 0 -46 4 -67 9l-10 82l18 12z" />
    <glyph glyph-name="approxequal" unicode="&#x2248;" horiz-adv-x="560" 
d="M290 353l-42 19c-27 12 -58 26 -87 26c-37 0 -68 -51 -84 -81l-43 22c11 27 31 58 53 80c27 27 57 38 91 38c32 0 68 -12 94 -24l42 -19c26 -12 57 -26 86 -26c37 0 68 51 84 81l43 -22c-11 -27 -31 -58 -53 -80c-27 -27 -57 -38 -91 -38s-67 12 -93 24zM290 184l-42 19
c-27 12 -58 26 -87 26c-37 0 -68 -51 -84 -80l-43 22c11 26 31 57 53 79c27 27 57 38 91 38c32 0 68 -12 94 -24l42 -19c26 -12 57 -26 86 -26c37 0 68 51 84 81l43 -22c-11 -27 -31 -58 -53 -80c-27 -26 -57 -37 -91 -37s-67 11 -93 23z" />
    <glyph glyph-name="notequal" unicode="&#x2260;" 
d="M34 229h148l86 150h-234v52h263l80 144l45 -20l-71 -124h144v-52h-171l-84 -150h255v-52h-284l-75 -134l-45 20l64 114h-121v52z" />
    <glyph glyph-name="lessequal" unicode="&#x2264;" horiz-adv-x="706" 
d="M641 12v52h-586v-52h586zM630 629l16 -49l-500 -217l501 -213l-17 -51l-573 248v32z" />
    <glyph glyph-name="greaterequal" unicode="&#x2265;" horiz-adv-x="706" 
d="M60 12v52h586v-52h-586zM54 579l17 50l572 -250v-32l-572 -248l-18 51l501 213z" />
    <glyph glyph-name="lozenge" unicode="&#x25ca;" horiz-adv-x="540" 
d="M270 703l222 -353l-221 -353l-224 353zM436 350l-166 261l-167 -261l168 -262z" />
    <glyph glyph-name="uniF400" unicode="&#xf400;" horiz-adv-x="0" 
d="M-219 750h97l-141 -163h-39z" />
    <glyph glyph-name="uniF401" unicode="&#xf401;" horiz-adv-x="0" 
d="M-318 912h100l-108 -134h-65z" />
    <glyph glyph-name="uniF406" unicode="&#xf406;" horiz-adv-x="519" 
d="M260 772c-79 0 -125 25 -149 75v59h40c0 -56 54 -65 108 -65c59 0 108 7 108 65h40v-59c-24 -50 -82 -75 -147 -75z" />
    <glyph glyph-name="uniF407" unicode="&#xf407;" horiz-adv-x="414" 
d="M186 0h45l-18 -48c67 0 112 -21 112 -84c0 -80 -82 -91 -125 -91c-28 0 -62 5 -91 17l13 40c19 -7 41 -13 70 -13c41 0 63 14 63 46c0 33 -20 45 -58 45c-13 0 -32 -1 -42 -2z" />
    <glyph glyph-name="uniF408" unicode="&#xf408;" horiz-adv-x="350" 
d="M140 912h70l107 -134h-44l-98 76l-98 -76h-44z" />
    <glyph glyph-name="uniF409" unicode="&#xf409;" horiz-adv-x="432" 
d="M200 -46l86 -15c-4 -29 -11 -59 -27 -98c-12 -28 -28 -63 -41 -82l-35 15c6 19 12 55 14 75c3 31 4 50 4 76c0 12 0 23 -1 29z" />
    <glyph glyph-name="uniF40A" unicode="&#xf40a;" horiz-adv-x="238" 
d="M96 760l86 -15c-4 -29 -11 -59 -27 -98c-12 -28 -28 -63 -41 -82l-35 15c6 19 12 55 14 75c3 31 4 50 4 76c0 12 0 23 -1 29z" />
    <glyph glyph-name="uniF40B" unicode="&#xf40b;" horiz-adv-x="324" 
d="M102 835c0 34 26 57 60 57c33 0 60 -23 60 -57c0 -36 -26 -61 -60 -61s-60 26 -60 61z" />
    <glyph glyph-name="uniF40C" unicode="&#xf40c;" horiz-adv-x="400" 
d="M102 857c0 55 42 98 97 98s98 -43 98 -98s-43 -97 -98 -97s-97 42 -97 97zM141 857c0 -33 25 -58 58 -58s58 25 58 58s-25 58 -58 58s-58 -25 -58 -58z" />
    <glyph glyph-name="uniF40D" unicode="&#xf40d;" horiz-adv-x="522" 
d="M143 797l-38 25c17 38 53 77 99 77c17 0 38 -4 63 -20l17 -11c18 -11 31 -17 49 -17c22 0 36 16 48 35l41 -24c-16 -38 -52 -80 -98 -80c-20 0 -42 8 -59 19l-20 13c-20 13 -31 16 -48 16c-25 0 -39 -12 -54 -33z" />
    <glyph glyph-name="uniF40E" unicode="&#xf40e;" horiz-adv-x="409" 
d="M164 -137c0 -31 23 -41 53 -41c20 0 41 5 58 13l10 -38c-21 -12 -49 -19 -82 -19c-67 0 -110 32 -110 82c0 38 20 69 48 92c22 18 54 37 71 48h51c-39 -32 -52 -45 -64 -59c-22 -24 -35 -51 -35 -78z" />
    <glyph glyph-name="zero.tab" unicode="&#xf4e0;" 
d="M266 716c53 0 113 -4 162 -62c57 -68 63 -177 63 -300c0 -122 -6 -240 -63 -308c-48 -57 -108 -62 -162 -62s-116 5 -164 62c-57 69 -64 187 -64 308c0 122 7 231 64 300c49 58 111 62 164 62zM266 28c123 0 141 111 141 326c0 154 3 318 -139 318
c-134 0 -145 -103 -145 -318c0 -213 23 -326 143 -326z" />
    <glyph glyph-name="one.tab" unicode="&#xf4e1;" 
d="M235 70v521l-189 -21v32c73 9 161 33 242 114h24v-674l138 -10v-32h-372v32l142 18z" />
    <glyph glyph-name="two.tab" unicode="&#xf4e2;" 
d="M135 72h289l35 84h31l-26 -156h-435l1 28l239 258c65 70 119 151 119 242c0 96 -53 141 -146 141c-39 0 -77 -5 -112 -23l-18 -102h-37l-27 110c69 45 136 62 207 62c120 0 217 -43 217 -174c0 -102 -62 -171 -143 -259z" />
    <glyph glyph-name="three.tab" unicode="&#xf4e3;" 
d="M79 700h386v-31l-189 -259c47 -2 106 -15 138 -37c62 -42 71 -114 71 -165c0 -77 -28 -136 -81 -177c-55 -42 -131 -47 -182 -47c-61 0 -124 14 -181 38l27 114h36l16 -84c25 -11 69 -22 98 -22c120 0 183 58 183 175c0 39 -4 87 -35 123c-23 26 -60 41 -114 41
c-10 0 -26 -1 -39 -3v38l157 224h-245l-31 -94h-35z" />
    <glyph glyph-name="four.tab" unicode="&#xf4e4;" 
d="M288 716l92 -16c-89 -174 -180 -331 -288 -495h255v215l79 34v-249h85v-47h-85v-158h-79v158h-329v26c104 174 195 345 270 532z" />
    <glyph glyph-name="five.tab" unicode="&#xf4e5;" 
d="M216 30c116 0 183 53 183 184c0 111 -49 167 -189 167c-45 0 -80 -5 -114 -12l29 331h348v-72h-304l-18 -203c28 2 64 4 92 4c57 0 120 -8 169 -46c58 -45 72 -107 72 -165c0 -50 -13 -130 -82 -185c-54 -43 -130 -49 -182 -49c-61 0 -124 14 -181 38l27 114h36l16 -84
c25 -11 69 -22 98 -22z" />
    <glyph glyph-name="six.tab" unicode="&#xf4e6;" 
d="M418 699c-132 -108 -207 -209 -243 -298c44 17 83 18 112 18c127 0 204 -65 204 -202c0 -146 -77 -233 -228 -233c-129 0 -223 66 -223 208c0 230 151 398 338 525zM257 375c-39 0 -64 -6 -103 -24c-7 -17 -29 -78 -29 -150c0 -86 30 -173 137 -173c113 0 145 75 145 181
c0 101 -39 166 -150 166z" />
    <glyph glyph-name="seven.tab" unicode="&#xf4e7;" 
d="M108 628l-40 -101h-35l21 173h462v-30c-130 -192 -226 -451 -305 -686l-92 14c94 217 192 434 314 630h-325z" />
    <glyph glyph-name="eight.tab" unicode="&#xf4e8;" 
d="M45 161c0 92 64 156 162 201c-29 15 -60 37 -78 53c-31 29 -59 69 -59 129c0 126 87 172 203 172c97 0 190 -25 190 -156c0 -87 -69 -148 -142 -183l13 -7c88 -47 150 -91 150 -192c0 -133 -93 -194 -219 -194c-118 0 -220 43 -220 177zM193 459c19 -19 64 -46 88 -58
c72 44 117 84 117 161c0 74 -43 109 -123 109c-82 0 -125 -37 -125 -108c0 -41 19 -80 43 -104zM400 164c0 92 -72 129 -154 173c-80 -46 -138 -91 -138 -173c0 -103 76 -134 156 -134c58 0 136 25 136 134z" />
    <glyph glyph-name="nine.tab" unicode="&#xf4e9;" 
d="M111 1c133 108 206 209 243 297c-45 -16 -82 -17 -111 -17c-128 0 -205 65 -205 202c0 146 77 233 229 233c128 0 222 -66 222 -208c0 -230 -151 -398 -338 -525zM273 325c38 0 63 5 101 23c7 17 30 78 30 151c0 86 -30 173 -136 173c-114 0 -146 -75 -146 -181
c0 -101 39 -166 151 -166z" />
    <glyph glyph-name="dollar.tab" unicode="&#xf4ec;" 
d="M240 803h56v-80c66 0 112 -10 177 -35l-24 -126h-37l-21 83c-27 16 -52 28 -95 29v-277l49 -19c40 -16 84 -38 112 -71c35 -41 41 -85 41 -121c0 -34 -5 -98 -60 -147c-42 -37 -91 -53 -142 -54v-88h-56v88c-71 0 -148 17 -207 38l27 113h36l19 -86
c35 -11 90 -18 125 -18v297l-25 9c-154 55 -181 111 -181 192c0 124 90 182 206 193v80zM296 313v-279c81 5 122 31 122 137c0 33 -6 61 -31 86c-21 21 -55 43 -91 56zM240 412v262c-81 -1 -129 -49 -129 -120c0 -37 11 -69 39 -95c21 -20 58 -37 90 -47z" />
    <glyph glyph-name="Euro.tab" unicode="&#xf4ed;" 
d="M316 32c43 0 86 14 108 25l55 85h38l-38 -122c-41 -18 -88 -35 -173 -35c-50 0 -105 6 -164 68c-42 45 -67 126 -71 206h-71l17 48h52c-1 16 -1 35 -1 46c0 14 0 34 1 48h-69l17 47h54c5 54 22 153 78 208c44 43 119 67 204 67c53 0 87 -7 152 -24l9 -151h-33l-43 106
c-31 14 -67 22 -98 22c-125 0 -171 -76 -184 -228h277l-17 -47h-262c-1 -15 -1 -43 -1 -54c0 -13 0 -29 1 -40h231l-16 -48h-215c7 -108 38 -227 162 -227z" />
    <glyph glyph-name="cent.tab" unicode="&#xf4ee;" 
d="M145 257c0 -123 25 -202 117 -222v453c-100 -17 -117 -108 -117 -231zM316 491v-461c30 0 92 9 152 47l14 -38c-54 -35 -114 -49 -166 -51v-81h-54v83c-56 5 -100 25 -127 49c-62 58 -66 147 -66 221c0 153 40 255 193 270v77h54v-75c43 0 98 -7 154 -21l-21 -130h-33
l-22 96c-25 8 -61 14 -78 14z" />
    <glyph glyph-name="sterling.tab" unicode="&#xf4ef;" 
d="M305 669c-101 0 -135 -58 -135 -159c0 -46 11 -83 30 -140h170v-44h-161c11 -35 16 -69 16 -96c0 -60 -36 -118 -85 -157c0 -1 2 -4 2 -4c46 17 72 20 110 20c32 0 58 -7 90 -18c34 -12 67 -21 89 -21c33 0 58 20 75 51l34 -27c-42 -59 -84 -90 -153 -90
c-42 0 -86 10 -117 21c-36 12 -64 23 -96 23c-35 0 -70 -13 -99 -33l-21 35c21 16 46 43 61 67c20 33 30 78 30 112c0 29 -10 79 -21 117h-87v44h75c-15 44 -29 97 -29 138c0 141 78 203 228 208c51 0 111 -10 170 -24l-16 -133h-37l-24 91c-25 11 -68 19 -99 19z" />
    <glyph glyph-name="yen.tab" unicode="&#xf4fa;" 
d="M160 631l124 -303l138 326l-66 13v33h173v-33l-57 -15l-165 -384h158v-49h-158v-52h158v-48h-158v-77l80 -10v-32h-237v32l67 18h-1l14 20v49h-153v48h153v52h-153v48h153l-168 391l-62 10v32h224v-32l-59 -20z" />
    <glyph glyph-name="florin.tab" unicode="&#xf4fb;" 
d="M171 509h83c3 23 8 46 11 69c20 138 72 183 195 183c40 0 76 -4 114 -11l-29 -112h-34l-8 73c-17 5 -31 8 -51 8c-59 0 -102 -35 -116 -137c-3 -24 -8 -49 -11 -73h125l-6 -43h-125l-74 -530c-14 -101 -55 -167 -166 -167c-34 0 -63 4 -93 12l30 107h32l6 -73
c7 -2 16 -4 24 -4c71 0 86 64 94 122l77 533h-84z" />
    <glyph glyph-name="uni20B4.tab" unicode="&#xf4fc;" 
d="M246 670c-42 0 -68 -8 -95 -21l-43 -87h-27l10 129c78 20 119 25 164 25c90 0 203 -9 203 -130c0 -46 -21 -93 -65 -134h83v-53h-132l-100 -93h232v-52h-273c-33 -35 -55 -65 -55 -109c0 -91 64 -115 118 -115c32 0 72 11 100 27l55 85h38l-38 -122
c-36 -21 -98 -37 -164 -37c-91 0 -194 26 -194 150c0 60 41 100 63 121h-71v52h113l103 93h-216v53h252c49 49 68 99 68 132c0 58 -58 86 -129 86z" />
    <glyph glyph-name="uni20BD.tab" unicode="&#xf4fd;" 
d="M337 162h-135v-120l89 -10v-32h-247v32l66 18l14 20v92h-92v50h92v86h-92v51h92v309l-80 10v32h245c143 0 222 -37 222 -196c0 -151 -81 -204 -222 -204h-87v-88h135v-50zM202 652v-304h67c109 0 159 29 159 157c0 119 -48 147 -159 147h-67z" />
    <glyph glyph-name="currency.tab" unicode="&#xf4fe;" 
d="M47 102l73 72c-22 28 -35 63 -35 106s14 79 36 107l-74 73l39 38l73 -73c29 21 64 35 106 35s77 -14 105 -35l74 73l38 -38l-73 -74c21 -28 36 -63 36 -106s-15 -78 -36 -106l73 -72l-38 -39l-74 74c-28 -22 -63 -35 -105 -35s-77 13 -106 35l-73 -74zM130 280
c0 -76 59 -135 135 -135s135 59 135 135c0 77 -59 137 -135 137s-135 -60 -135 -137z" />
    <glyph glyph-name="uni20B8.tab" unicode="&#xf5f3;" 
d="M24 648v48h481v-48h-481zM226 516h-203v47h483v-47h-202v-474l79 -10v-32h-237v32l66 18l14 20v446z" />
    <glyph glyph-name="numbersign.tab" unicode="&#xf5f4;" 
d="M435 573l-22 -103h77l-15 -62h-75l-33 -149h78l-15 -62h-76l-19 -91h-49l19 91h-126l-19 -91h-50l19 91h-90l16 62h87l32 149h-91l16 61h88l22 104h51l-22 -103h124l22 103h51zM193 259h124l32 149h-125z" />
    <glyph glyph-name="uniF6BA" unicode="&#xf6ba;" horiz-adv-x="403" 
d="M60 389h283v-62h-283v62z" />
    <glyph glyph-name="uniF6BB" unicode="&#xf6bb;" horiz-adv-x="721" 
d="M60 384h601v-53h-601v53z" />
    <glyph glyph-name="uniF6BC" unicode="&#xf6bc;" horiz-adv-x="925" 
d="M60 384h805v-53h-805v53z" />
    <glyph glyph-name="uniF6C3" unicode="&#xf6c3;" horiz-adv-x="475" 
d="M214 -46l83 -15c-4 -29 -11 -59 -27 -98c-12 -28 -28 -63 -41 -82l-28 11c5 19 9 55 12 81c2 24 2 48 2 74c0 12 0 23 -1 29z" />
    <glyph glyph-name="uniF6C9" unicode="&#xf6c9;" horiz-adv-x="225" 
d="M105 912h102l-142 -134h-46z" />
    <glyph glyph-name="uniF6CA" unicode="&#xf6ca;" horiz-adv-x="350" 
d="M206 778h-70l-107 134h44l98 -76l98 76h44z" />
    <glyph glyph-name="uniF6CB" unicode="&#xf6cb;" horiz-adv-x="506" 
d="M94 830c0 30 23 53 54 53c30 0 53 -23 53 -53c0 -31 -23 -54 -53 -54c-31 0 -54 23 -54 54zM305 830c0 30 23 53 54 53c30 0 53 -23 53 -53c0 -31 -23 -54 -53 -54c-31 0 -54 23 -54 54z" />
    <glyph glyph-name="uniF6CE" unicode="&#xf6ce;" horiz-adv-x="378" 
d="M193 912l61 -134h-47l-107 134h93z" />
    <glyph glyph-name="uniF6CF" unicode="&#xf6cf;" horiz-adv-x="412" 
d="M273 912h86l-114 -134h-51zM128 912h86l-115 -134h-51z" />
    <glyph glyph-name="uniF6D0" unicode="&#xf6d0;" horiz-adv-x="518" 
d="M407 808h-294v46h294v-46z" />
    <glyph glyph-name="uniF6D1" unicode="&#xf6d1;" horiz-adv-x="500" 
d="M255 811c9 0 46 1 64 17c12 11 17 29 19 49h84v-40c-42 -44 -94 -66 -165 -66c-81 0 -127 26 -169 66v40h85c2 -20 6 -37 19 -48c20 -17 53 -18 63 -18z" />
    <glyph glyph-name="uniF6D4" unicode="&#xf6d4;" horiz-adv-x="500" 
d="M251 628c30 0 52 9 64 23c11 14 15 31 13 49h73v-36c-20 -50 -86 -74 -151 -74c-69 0 -128 20 -151 74v36h73c0 -17 1 -33 13 -49c12 -14 30 -23 66 -23z" />
    <glyph glyph-name="uniFEFF" unicode="&#xfeff;" horiz-adv-x="0" 
 />
    <glyph glyph-name="nbspace" horiz-adv-x="233" 
 />
    <glyph glyph-name="g.ss01" horiz-adv-x="572" 
d="M419 157v292c-51 37 -89 45 -140 45c-137 0 -145 -131 -145 -243c0 -93 18 -221 129 -221c74 0 132 72 156 127zM434 489l27 43h29v-531c0 -188 -92 -232 -248 -232c-43 0 -93 5 -161 29l25 97h34l18 -68c29 -11 54 -14 93 -14c108 0 169 53 169 156v110
c-54 -72 -134 -91 -168 -91c-154 0 -192 114 -192 267c0 161 36 277 215 277c52 0 107 -10 159 -43z" />
    <glyph glyph-name="gcommaaccent.ss01" horiz-adv-x="572" 
d="M328 750h37c-22 -41 -32 -85 -32 -153v-20l-83 18c5 25 16 56 30 85c13 26 28 50 48 70zM419 157v292c-51 37 -89 45 -140 45c-137 0 -145 -131 -145 -243c0 -93 18 -221 129 -221c74 0 132 72 156 127zM434 489l27 43h29v-531c0 -188 -92 -232 -248 -232
c-43 0 -93 5 -161 29l25 97h34l18 -68c29 -11 54 -14 93 -14c108 0 169 53 169 156v110c-54 -72 -134 -91 -168 -91c-154 0 -192 114 -192 267c0 161 36 277 215 277c52 0 107 -10 159 -43z" />
    <glyph glyph-name="gbreve.ss01" horiz-adv-x="572" 
d="M419 157v292c-51 37 -89 45 -140 45c-137 0 -145 -131 -145 -243c0 -93 18 -221 129 -221c74 0 132 72 156 127zM434 489l27 43h29v-531c0 -188 -92 -232 -248 -232c-43 0 -93 5 -161 29l25 97h34l18 -68c29 -11 54 -14 93 -14c108 0 169 53 169 156v110
c-54 -72 -134 -91 -168 -91c-154 0 -192 114 -192 267c0 161 36 277 215 277c52 0 107 -10 159 -43zM291 609c-79 0 -125 25 -149 75v59h39c0 -60 55 -71 109 -71c59 0 109 9 109 71h39v-59c-24 -50 -82 -75 -147 -75z" />
    <glyph glyph-name="gcircumflex.ss01" horiz-adv-x="572" 
d="M419 157v292c-51 37 -89 45 -140 45c-137 0 -145 -131 -145 -243c0 -93 18 -221 129 -221c74 0 132 72 156 127zM434 489l27 43h29v-531c0 -188 -92 -232 -248 -232c-43 0 -93 5 -161 29l25 97h34l18 -68c29 -11 54 -14 93 -14c108 0 169 53 169 156v110
c-54 -72 -134 -91 -168 -91c-154 0 -192 114 -192 267c0 161 36 277 215 277c52 0 107 -10 159 -43zM249 743h68l107 -136h-41l-100 82l-100 -82h-41z" />
    <glyph glyph-name="gdotaccent.ss01" horiz-adv-x="572" 
d="M419 157v292c-51 37 -89 45 -140 45c-137 0 -145 -131 -145 -243c0 -93 18 -221 129 -221c74 0 132 72 156 127zM434 489l27 43h29v-531c0 -188 -92 -232 -248 -232c-43 0 -93 5 -161 29l25 97h34l18 -68c29 -11 54 -14 93 -14c108 0 169 53 169 156v110
c-54 -72 -134 -91 -168 -91c-154 0 -192 114 -192 267c0 161 36 277 215 277c52 0 107 -10 159 -43zM234 694c0 30 21 51 51 51c29 0 49 -21 49 -51c0 -28 -20 -49 -49 -49c-30 0 -51 20 -51 49z" />
    <glyph glyph-name="y.ss01" horiz-adv-x="590" 
d="M508 532v-531c0 -198 -101 -232 -236 -232c-52 0 -102 5 -170 29l25 97h34l18 -68c29 -11 54 -16 93 -16c108 0 166 55 166 158v112c-62 -73 -141 -93 -189 -93c-109 0 -151 53 -151 183v307l-74 14v28l143 12v-348c0 -81 10 -154 95 -154c82 0 150 79 176 122v326
l-73 14v28z" />
    <glyph glyph-name="ydieresis.ss01" horiz-adv-x="590" 
d="M508 532v-531c0 -198 -101 -232 -236 -232c-52 0 -102 5 -170 29l25 97h34l18 -68c29 -11 54 -16 93 -16c108 0 166 55 166 158v112c-62 -73 -141 -93 -189 -93c-109 0 -151 53 -151 183v307l-74 14v28l143 12v-348c0 -81 10 -154 95 -154c82 0 150 79 176 122v326
l-73 14v28zM340 692c0 30 20 51 50 51c29 0 50 -21 50 -51c0 -28 -21 -49 -50 -49s-50 20 -50 49zM145 692c0 30 20 51 50 51c29 0 50 -21 50 -51c0 -28 -21 -49 -50 -49s-50 20 -50 49z" />
    <glyph glyph-name="yacute.ss01" horiz-adv-x="590" 
d="M508 532v-531c0 -198 -101 -232 -236 -232c-52 0 -102 5 -170 29l25 97h34l18 -68c29 -11 54 -16 93 -16c108 0 166 55 166 158v112c-62 -73 -141 -93 -189 -93c-109 0 -151 53 -151 183v307l-74 14v28l143 12v-348c0 -81 10 -154 95 -154c82 0 150 79 176 122v326
l-73 14v28zM343 750h97l-141 -163h-39z" />
    <glyph glyph-name="afii10085.ss01" horiz-adv-x="590" 
d="M508 532v-531c0 -198 -101 -232 -236 -232c-52 0 -102 5 -170 29l25 97h34l18 -68c29 -11 54 -16 93 -16c108 0 166 55 166 158v112c-62 -73 -141 -93 -189 -93c-109 0 -151 53 -151 183v307l-74 14v28l143 12v-348c0 -81 10 -154 95 -154c82 0 150 79 176 122v326
l-73 14v28z" />
    <glyph glyph-name="afii10110.ss01" horiz-adv-x="590" 
d="M508 532v-531c0 -198 -101 -232 -236 -232c-52 0 -102 5 -170 29l25 97h34l18 -68c29 -11 54 -16 93 -16c108 0 166 55 166 158v112c-62 -73 -141 -93 -189 -93c-109 0 -151 53 -151 183v307l-74 14v28l143 12v-348c0 -81 10 -154 95 -154c82 0 150 79 176 122v326
l-73 14v28zM300 628c30 0 52 9 64 23c11 14 15 31 13 49h73v-36c-20 -50 -86 -74 -151 -74c-69 0 -128 20 -151 74v36h73c0 -17 1 -33 13 -49c12 -14 30 -23 66 -23z" />
    <glyph glyph-name="hyphenminus" horiz-adv-x="400" 
d="M60 331h280v-62h-280v62z" />
    </font>
</defs>
</svg>
