<?xml version="1.0" standalone="no"?>
<!DOCTYPE svg PUBLIC "-//W3C//DTD SVG 1.1//EN" "http://www.w3.org/Graphics/SVG/1.1/DTD/svg11.dtd" >
<svg xmlns="http://www.w3.org/2000/svg" xmlns:xlink="http://www.w3.org/1999/xlink" version="1.1">
<metadata>
Created by FontForge 20160407 at Wed Aug 24 13:31:44 2016
 By Jimmy Warting
Yefimov Serif is a contemporary serif face, with low contrast, squarish shapes of round glyphs and emphasized businesslike nature. It is one of the last original faces by Vladimir Yefimov. Yefimov Serif will suit perfectly for business texts, periodicals and corporate identity. The typeface was completed by Maria Selezeneva and released by ParaType in 2014.
</metadata>
<defs>
<font id="YefimovSerif-Regular" horiz-adv-x="540" >
  <font-face 
    font-family="Yefimov Serif"
    font-weight="400"
    font-stretch="normal"
    units-per-em="1000"
    panose-1="2 10 6 3 4 5 5 2 2 4"
    ascent="767"
    descent="-233"
    x-height="520"
    cap-height="700"
    bbox="-376 -249 1278 980"
    underline-thickness="50"
    underline-position="-100"
    stemh="56"
    stemv="104"
    unicode-range="U+0020-FEFF"
  />
<missing-glyph horiz-adv-x="233" 
 />
    <glyph glyph-name="afii10017.var.accented" unicode="&#x410;`" horiz-adv-x="680" 
d="M309 700h76l237 -650l50 -10v-40h-244v40l63 20h-1l10 20l-39 109h-274l-51 -139l70 -10v-40h-198v39l61 31h-1zM209 251h230l-112 320zM398 918h108l-132 -142h-52z" />
    <glyph glyph-name="afii10022.var.accented" unicode="&#x415;`" horiz-adv-x="560" 
d="M38 700h478l10 -142h-43l-27 65l-19 15h-225v-237h171l19 16l10 48h40v-196h-40l-10 54l-19 16h-171v-277h227l19 15l36 95h46l-20 -172h-482v40l57 20h-1l14 20v570l-70 10v40zM351 918h108l-132 -142h-52z" />
    <glyph glyph-name="afii10026.var.accented" unicode="&#x418;`" horiz-adv-x="748" 
d="M38 700h244v-40l-65 -20h1l-6 -12v-443l324 435v30l-70 10v40h244v-40l-64 -20l-6 -12v-578l70 -10v-40h-244v40l56 20l14 20v445l-324 -435v-40l70 -10v-40h-244v40l57 20h-1l14 20v570l-70 10v40zM416 918h108l-132 -142h-52z" />
    <glyph glyph-name="afii10032.var.accented" unicode="&#x41e;`" horiz-adv-x="720" 
d="M58 350c0 102 7 218 89 297c68 66 151 69 213 69s145 -3 213 -69c82 -79 89 -195 89 -297c0 -99 -8 -219 -89 -298c-67 -64 -153 -68 -213 -68s-146 6 -213 70c-81 79 -89 197 -89 296zM168 350c0 -54 4 -183 55 -249c33 -43 80 -59 137 -59s104 16 137 59
c51 66 55 195 55 249c0 58 -4 181 -55 248c-34 45 -79 60 -137 60s-103 -15 -137 -60c-51 -67 -55 -190 -55 -248zM406 918h108l-132 -142h-52z" />
    <glyph glyph-name="afii10037.var.accented" unicode="&#x423;`" horiz-adv-x="680" 
d="M18 700h256v-40l-64 -20l-6 -19l183 -326l137 355l-68 10v40h206v-40l-76 -30l-192 -489c-24 -60 -44 -92 -65 -114c-38 -40 -75 -43 -114 -43c-34 0 -71 3 -121 26l30 130h50l23 -90c6 -3 13 -4 21 -4c16 0 35 0 57 22c18 18 39 60 47 82l12 32l-266 468l-50 10v40z
M410 918h108l-132 -142h-52z" />
    <glyph glyph-name="afii10045.var.accented" unicode="&#x42b;`" horiz-adv-x="894" 
d="M38 700h244v-40l-56 -20l-14 -20v-220h131c62 0 136 -1 187 -43c53 -43 62 -108 62 -154c0 -57 -14 -114 -64 -156c-55 -47 -122 -47 -185 -47h-305v40l56 20l14 20v570l-70 10v40zM212 338v-276h132c35 0 86 8 113 35c28 28 31 76 31 102c0 23 -2 68 -28 98
c-31 37 -82 41 -116 41h-132zM612 700h244v-40l-56 -20l-14 -20v-570l70 -10v-40h-244v40l56 20l14 20v570l-70 10v40zM495 918h108l-132 -142h-52z" />
    <glyph glyph-name="afii10047.var.accented" unicode="&#x42d;`" horiz-adv-x="620" 
d="M70 528l10 162c65 17 130 26 185 26c105 0 174 -31 212 -68c78 -75 85 -206 85 -290c0 -109 -13 -232 -87 -304c-66 -65 -165 -70 -214 -70c-111 0 -182 25 -211 36l-10 162h46l43 -106c43 -27 84 -34 121 -34c33 0 102 3 147 55c44 51 54 165 55 232h-189l-19 -16
l-10 -54h-40v196h40l10 -48l19 -16h189c-1 46 -8 157 -53 212c-38 47 -89 55 -132 55c-42 0 -74 -7 -107 -24l-44 -106h-46zM313 918h108l-132 -142h-52z" />
    <glyph glyph-name="afii10048.var.accented" unicode="&#x42e;`" horiz-adv-x="980" 
d="M38 700h244v-40l-56 -20l-14 -20v-229h118c1 72 19 190 85 256c65 66 152 69 210 69c76 0 152 -10 211 -69c84 -84 86 -223 86 -297c0 -71 -2 -214 -86 -298c-65 -65 -157 -68 -211 -68c-57 0 -145 6 -210 70c-62 60 -86 184 -87 275h-116v-279l70 -10v-40h-244v40l56 20
l14 20v570l-70 10v40zM438 350c0 -158 31 -221 52 -249c36 -49 86 -59 135 -59c50 0 101 9 136 59c40 57 51 171 51 249c0 81 -10 190 -51 248c-36 51 -85 60 -136 60c-63 0 -102 -15 -135 -60c-28 -39 -52 -105 -52 -248zM473 918h108l-132 -142h-52z" />
    <glyph glyph-name="afii10049.var.accented" unicode="&#x42f;`" horiz-adv-x="660" 
d="M622 700v-40l-56 -20l-14 -20v-570l70 -10v-40h-244v40l56 20l14 20v229h-108l-164 -279v-30h-168v40l71 20h-1l158 255c-39 2 -79 16 -106 36c-53 39 -62 98 -62 143c0 88 37 138 72 166c52 41 125 40 176 40h306zM448 371v267h-138c-23 0 -75 -1 -108 -37
c-27 -30 -30 -77 -30 -103c0 -28 2 -66 27 -92c31 -33 81 -35 111 -35h138zM396 918h108l-132 -142h-52z" />
    <glyph glyph-name="afii10023.var.accented" unicode="&#x401;`" horiz-adv-x="560" 
d="M40 700h476l10 -140h-44l-26 64l-20 16h-226v-240h172l20 16l10 48h40v-194h-40l-10 54l-20 16h-172v-280h228l20 16l36 94h46l-20 -170h-480v40l56 20l14 20v570l-70 10v40zM96 817c0 33 26 59 59 59s59 -26 59 -59s-26 -59 -59 -59s-59 26 -59 59zM358 817
c0 33 26 59 59 59s59 -26 59 -59s-26 -59 -59 -59s-59 26 -59 59zM314 955h106l-132 -141h-50z" />
    <glyph glyph-name="afii10065.var.accented" unicode="&#x430;`" 
d="M74 510c58 13 127 22 187 22c35 0 112 -2 151 -41c42 -42 40 -111 40 -152v-285l64 -20v-34l-158 -12v59c-64 -55 -116 -59 -171 -59c-27 0 -71 1 -104 32c-25 23 -41 65 -41 116c0 45 12 81 42 108c35 31 91 39 141 45l133 17v40c0 29 0 78 -23 103
c-14 15 -40 27 -78 27c-13 0 -54 -1 -89 -12l-34 -89h-50zM358 106v142l-116 -16c-36 -5 -60 -9 -80 -29s-20 -53 -20 -69c0 -25 4 -55 19 -71s38 -19 53 -19c62 0 116 37 144 62zM301 750h104l-130 -163h-52z" />
    <glyph glyph-name="afii10070.var.accented" unicode="&#x435;`" 
d="M502 281l-354 -47c1 -48 13 -113 44 -149c30 -35 68 -41 106 -41c67 0 127 22 169 42l25 -43c-74 -47 -157 -55 -209 -55c-87 0 -138 28 -165 52c-62 57 -70 146 -70 220c0 57 5 158 68 218c52 50 134 54 173 54c40 0 109 -5 156 -52c49 -50 58 -133 57 -199zM147 291
l255 34c-1 25 -8 77 -26 106c-22 35 -55 45 -89 45c-28 0 -73 -6 -103 -44c-25 -31 -36 -100 -37 -141zM329 750h104l-130 -163h-52z" />
    <glyph glyph-name="afii10074.var.accented" unicode="&#x438;`" horiz-adv-x="632" 
d="M24 520h220v-34l-50 -20l-6 -15v-294l256 293v20l-60 16v34h214v-34l-54 -20l-6 -16v-396l70 -20v-34h-220v34l50 20l6 16v301l-256 -293v-28l64 -16v-34h-218v34l54 20l6 16v396h1l-71 20v34zM365 750h104l-130 -163h-52z" />
    <glyph glyph-name="afii10080.var.accented" unicode="&#x43e;`" horiz-adv-x="580" 
d="M48 260c0 71 6 165 66 221c52 49 130 51 176 51s124 -2 176 -51c60 -56 66 -150 66 -221s-6 -165 -66 -221c-52 -49 -130 -51 -176 -51s-124 2 -176 51c-60 56 -66 150 -66 221zM146 260c0 -123 31 -164 38 -174c28 -36 74 -42 106 -42s78 6 106 42c7 10 38 51 38 174
s-31 164 -38 174c-28 36 -74 42 -106 42s-78 -6 -106 -42c-7 -10 -38 -51 -38 -174zM337 750h104l-130 -163h-52z" />
    <glyph glyph-name="afii10085.var.accented" unicode="&#x443;`" horiz-adv-x="580" 
d="M18 520h210v-33l-44 -27l132 -344l122 360l-66 10v34h190v-34l-62 -26l-189 -533c-13 -37 -33 -83 -66 -116c-30 -30 -59 -43 -110 -43c-29 0 -64 5 -105 26l30 112h50l20 -82c16 -2 40 0 63 22c19 19 43 66 51 90l21 64l-187 470l-60 16v34zM348 750h104l-130 -163h-52z
" />
    <glyph glyph-name="afii10093.var.accented" unicode="&#x44b;`" horiz-adv-x="760" 
d="M24 520h224v-34l-54 -20l-6 -16v-147h118c45 0 103 -3 141 -33c40 -31 47 -78 47 -117c0 -28 -6 -79 -43 -114c-38 -36 -99 -39 -135 -39h-282v34l54 20l6 16v396l-70 20v34zM188 247v-191h120c22 0 51 7 68 23c22 20 24 52 24 74c0 19 -2 48 -20 68
c-20 23 -52 26 -72 26h-120zM502 520h224v-34l-54 -20l-6 -16v-396l70 -20v-34h-220v34l50 20l6 16v400l-70 16v34zM427 750h104l-130 -163h-52z" />
    <glyph glyph-name="afii10095.var.accented" unicode="&#x44d;`" horiz-adv-x="488" 
d="M54 510c57 18 116 22 154 22c44 0 117 -6 165 -52c57 -55 67 -148 67 -220c0 -75 -4 -163 -69 -220c-54 -47 -132 -52 -176 -52c-77 0 -126 14 -151 22l-10 122h40l44 -80c25 -6 47 -8 70 -8c36 0 81 6 111 41c32 37 40 113 41 155h-208v54h208c-1 47 -13 111 -37 140
c-30 38 -69 42 -106 42c-26 0 -48 -2 -71 -8l-42 -90h-40zM256 750h104l-130 -163h-52z" />
    <glyph glyph-name="afii10096.var.accented" unicode="&#x44e;`" horiz-adv-x="818" 
d="M770 260c0 -71 -6 -165 -66 -221c-52 -49 -130 -51 -176 -51c-44 0 -125 2 -176 51c-57 54 -65 165 -66 210h-98v-199l64 -16v-34h-218v34l54 20l6 16v396l-70 20v34h220v-34l-50 -20l-6 -16v-145h99c3 61 23 136 65 176c51 49 132 51 176 51c46 0 124 -2 176 -51
c60 -56 66 -150 66 -221zM384 260c0 -123 31 -164 38 -174c28 -36 74 -42 106 -42s78 6 106 42c7 10 38 51 38 174s-31 164 -38 174c-28 36 -74 42 -106 42s-78 -6 -106 -42c-7 -10 -38 -51 -38 -174zM395 750h104l-130 -163h-52z" />
    <glyph glyph-name="afii10097.var.accented" unicode="&#x44f;`" horiz-adv-x="528" 
d="M494 520v-34l-54 -20l-6 -16v-396l70 -20v-34h-220v34l50 20l6 16v151h-62l-124 -187v-34h-146v34l46 10l132 185c-31 2 -63 14 -87 34c-35 30 -43 69 -43 104c0 36 9 78 43 110c41 37 98 43 141 43h254zM256 277h84v187h-98c-19 0 -48 -1 -70 -26
c-18 -21 -22 -48 -22 -71c0 -22 3 -51 23 -69c24 -22 60 -21 83 -21zM325 750h104l-130 -163h-52z" />
    <glyph glyph-name="afii10071.var.accented" unicode="&#x451;`" 
d="M500 282l-354 -48c1 -48 13 -115 44 -151c30 -35 69 -41 108 -41c68 0 127 21 168 41l24 -40c-74 -47 -156 -55 -207 -55c-88 0 -138 28 -164 52c-63 56 -69 145 -69 220c0 57 5 159 67 218c52 50 133 54 172 54c40 0 108 -5 155 -52c48 -49 57 -132 56 -198zM145 290
l259 34c-1 26 -8 79 -26 109c-23 38 -55 45 -91 45c-29 0 -74 -6 -105 -44c-28 -34 -39 -102 -37 -144zM323 927h102l-130 -163h-50zM129 695c0 32 23 55 55 55s55 -23 55 -55s-23 -55 -55 -55s-55 23 -55 55zM319 695c0 32 23 55 55 55s55 -23 55 -55s-23 -55 -55 -55
s-55 23 -55 55z" />
    <glyph glyph-name="fi" unicode="fi" horiz-adv-x="600" 
d="M18 520h80v28c0 52 -1 117 44 163c44 46 122 50 171 50c92 0 137 -11 159 -20c20 -8 43 -21 43 -59c0 -55 -52 -56 -68 -56h-53l-20 69c-21 8 -40 10 -62 10c-24 0 -63 0 -91 -30c-29 -30 -29 -88 -29 -121v-34h222l92 12v-478l69 -20v-34h-223v34l54 20l6 15v389h-220
v-404l70 -20v-34h-224v34l54 20l6 15v389h-80v62z" />
    <glyph glyph-name="fl" unicode="fl" horiz-adv-x="600" 
d="M18 520h80v37c0 43 -1 107 45 154c43 45 111 50 166 50c53 0 94 -3 139 -12l58 12v-707l69 -20v-34h-223v34l54 20l6 15v557h-27l-20 69c-19 8 -38 10 -60 10c-20 0 -60 0 -87 -30c-27 -29 -26 -86 -26 -126v-29h131l-10 -62h-121v-404l70 -20v-34h-224v34l54 20l6 15
v389h-80v62z" />
    <glyph glyph-name=".notdef" horiz-adv-x="233" 
 />
    <glyph glyph-name="space" unicode=" " horiz-adv-x="233" 
 />
    <glyph glyph-name="exclam" unicode="!" horiz-adv-x="280" 
d="M90 700h100l1 -240l-24 -268h-54l-24 268zM74 54c0 36 29 66 66 66c36 0 66 -30 66 -66c0 -37 -30 -66 -66 -66c-37 0 -66 29 -66 66z" />
    <glyph glyph-name="quotedbl" unicode="&#x22;" horiz-adv-x="399" 
d="M163 700l-29 -214h-39l-29 214h97zM333 700l-29 -214h-39l-29 214h97z" />
    <glyph glyph-name="numbersign" unicode="#" horiz-adv-x="500" 
d="M189 570h59l-21 -99h103l21 99h59l-21 -99h85l-16 -76h-85l-26 -120h85l-16 -76h-85l-21 -99h-59l21 99h-103l-21 -99h-59l21 99h-84l16 76h84l26 120h-84l16 76h84zM185 275h103l26 120h-103z" />
    <glyph glyph-name="dollar" unicode="$" horiz-adv-x="528" 
d="M229 790h64v-76c31 0 65 -4 96 -9c33 -5 58 -11 91 -23l-30 -132h-44l-26 94c-14 5 -44 13 -87 14v-259l46 -16c41 -15 86 -37 117 -71c38 -42 44 -87 44 -123c0 -35 -10 -103 -62 -150c-40 -36 -98 -52 -145 -53v-86h-64v86c-37 -1 -70 2 -109 10c-37 7 -62 15 -92 31
l30 125h54l19 -93c35 -12 71 -15 98 -15v274l-40 16c-35 14 -76 31 -108 64c-33 34 -49 71 -49 121c0 49 13 104 68 148c19 15 62 44 129 47v76zM293 294v-250c32 2 60 17 78 37c25 28 29 66 29 93c0 30 -5 53 -27 75c-19 19 -52 36 -80 45zM229 421v237
c-35 0 -60 -17 -74 -34c-19 -23 -27 -55 -27 -82c0 -34 10 -60 34 -83c18 -18 45 -31 67 -38z" />
    <glyph glyph-name="percent" unicode="%" horiz-adv-x="900" 
d="M180 710c35 0 81 -3 114 -39c43 -47 44 -128 44 -181s-1 -134 -44 -181c-33 -36 -79 -39 -114 -39s-81 3 -114 39c-43 47 -44 128 -44 181s1 134 44 181c33 36 79 39 114 39zM180 322c21 0 40 7 54 26c21 28 24 71 24 142c0 82 -6 119 -24 143c-15 20 -33 25 -54 25
s-39 -5 -54 -25c-18 -24 -24 -61 -24 -143c0 -71 3 -114 24 -142c14 -19 33 -26 54 -26zM720 430c35 0 81 -3 114 -39c43 -47 44 -128 44 -181s-1 -134 -44 -181c-33 -36 -79 -39 -114 -39s-81 3 -114 39c-43 47 -44 128 -44 181s1 134 44 181c33 36 79 39 114 39zM720 42
c21 0 40 7 54 26c21 28 24 71 24 142c0 82 -6 119 -24 143c-15 20 -33 25 -54 25s-39 -5 -54 -25c-18 -24 -24 -61 -24 -143c0 -71 3 -114 24 -142c14 -19 33 -26 54 -26zM165 -81l-47 33l617 829l47 -33z" />
    <glyph glyph-name="ampersand" unicode="&#x26;" horiz-adv-x="734" 
d="M335 375l173 -186c34 40 44 70 61 114l-10 20l-66 17v34h217v-34l-68 -24c-20 -63 -46 -119 -91 -176l85 -90l74 -16v-34h-173v30l-46 47c-58 -63 -137 -90 -208 -90c-140 0 -243 84 -243 197c0 88 45 145 147 198c-67 70 -85 107 -85 161c0 99 74 173 205 173
c106 0 181 -67 181 -162c0 -75 -40 -122 -153 -179zM204 566c0 -52 29 -88 94 -156c70 35 98 74 98 141s-37 107 -99 107c-54 0 -93 -38 -93 -92zM442 121l-212 220c-59 -38 -80 -76 -80 -137c0 -90 60 -152 147 -152c51 0 105 23 145 69z" />
    <glyph glyph-name="quotesingle" unicode="'" horiz-adv-x="229" 
d="M163 700l-28 -214h-41l-28 214h97z" />
    <glyph glyph-name="parenleft" unicode="(" horiz-adv-x="400" 
d="M300 717l42 -32c-42 -63 -72 -126 -90 -186c-21 -71 -34 -162 -34 -241s13 -170 34 -241c18 -60 48 -123 90 -186l-42 -32c-66 73 -104 141 -126 191c-40 91 -56 177 -56 268s16 177 56 268c22 50 60 118 126 191z" />
    <glyph glyph-name="parenright" unicode=")" horiz-adv-x="400" 
d="M101 -201l-43 32c42 63 72 126 90 186c21 71 34 162 34 241s-13 170 -34 241c-18 60 -48 123 -90 186l42 32c66 -73 104 -141 126 -191c41 -91 56 -176 56 -268c0 -159 -60 -301 -108 -364z" />
    <glyph glyph-name="asterisk" unicode="*" 
d="M227 750h86l-18 -113l23 -15l100 58l28 -85l-113 -16l-12 -29l86 -74l-72 -54l-51 99h-28l-51 -99l-72 54l86 74l-12 29l-113 16l28 85l99 -58l24 15z" />
    <glyph glyph-name="plus" unicode="+" horiz-adv-x="560" 
d="M36 335h213v213h62v-213h213v-62h-213v-213h-62v213h-213v62z" />
    <glyph glyph-name="comma" unicode="," horiz-adv-x="280" 
d="M82 -160l-43 20c18 36 30 71 39 113c12 56 13 100 13 149v19l121 -19c-8 -46 -25 -111 -46 -157c-21 -45 -54 -91 -84 -125z" />
    <glyph glyph-name="hyphen" unicode="-" horiz-adv-x="419" 
d="M70 341h279v-82h-279v82z" />
    <glyph glyph-name="period" unicode="." horiz-adv-x="280" 
d="M70 58c0 38 31 70 70 70c38 0 70 -32 70 -70c0 -39 -32 -70 -70 -70c-39 0 -70 31 -70 70z" />
    <glyph glyph-name="slash" unicode="/" horiz-adv-x="680" 
d="M569 717l59 -31l-517 -887l-59 31z" />
    <glyph glyph-name="zero" unicode="0" horiz-adv-x="560" 
d="M280 716c52 0 122 -9 169 -64c57 -66 63 -185 63 -302s-6 -236 -63 -302c-47 -55 -117 -64 -169 -64s-122 9 -169 64c-57 66 -63 185 -63 302s6 236 63 302c47 55 117 64 169 64zM280 42c40 0 68 16 89 47c23 34 39 94 39 261s-16 227 -39 261c-21 31 -49 47 -89 47
s-68 -16 -89 -47c-23 -34 -39 -94 -39 -261s16 -227 39 -261c21 -31 49 -47 89 -47z" />
    <glyph glyph-name="one" unicode="1" horiz-adv-x="444" 
d="M257 700h43v-640l130 -20v-40h-384v40l132 30h-1l19 20v478l-180 -20v42c66 8 164 33 241 110z" />
    <glyph glyph-name="two" unicode="2" horiz-adv-x="526" 
d="M156 98h238l40 80h44l-30 -178h-436v30l231 265c67 76 107 146 107 231c0 23 -4 66 -34 97c-28 29 -65 35 -96 35c-38 0 -66 -8 -94 -22l-20 -108h-54l-30 121c69 47 138 67 211 67c53 0 125 -12 167 -48c32 -28 54 -77 54 -129c0 -109 -76 -187 -130 -251z" />
    <glyph glyph-name="three" unicode="3" horiz-adv-x="532" 
d="M76 700h410v-30l-193 -257c40 -1 85 -13 118 -36c63 -45 73 -114 73 -167c0 -47 -17 -127 -83 -178c-57 -44 -133 -48 -182 -48c-62 0 -119 6 -187 43l30 125h54l19 -93c26 -14 49 -17 77 -17c55 0 97 14 123 37c40 36 45 94 45 128c0 35 -6 78 -33 111
c-19 22 -53 42 -100 42c-16 0 -31 -2 -47 -5v31l161 216h-233l-30 -90h-44z" />
    <glyph glyph-name="four" unicode="4" horiz-adv-x="538" 
d="M272 716l114 -16c-48 -93 -95 -180 -148 -273c-45 -80 -77 -134 -124 -205h212v198l104 41v-239h84v-72h-84v-150h-104v150h-316v40c37 62 94 163 132 238c65 127 120 262 130 288z" />
    <glyph glyph-name="five" unicode="5" horiz-adv-x="530" 
d="M120 700h354v-98h-296l-13 -164c25 2 50 3 76 3c56 0 120 -8 169 -46c60 -47 74 -117 74 -175c0 -52 -11 -130 -83 -186c-59 -46 -131 -50 -182 -50c-62 0 -119 6 -187 43l30 123h55l19 -91c27 -14 48 -17 77 -17c64 0 101 18 122 38c20 19 45 57 45 136
c0 29 -3 82 -35 119c-38 45 -99 48 -136 48c-49 0 -85 -7 -118 -15z" />
    <glyph glyph-name="six" unicode="6" horiz-adv-x="558" 
d="M431 688h1c-121 -102 -191 -205 -232 -282c40 12 69 14 100 14c40 0 98 -5 142 -37c60 -44 72 -113 72 -164c0 -94 -35 -151 -70 -182c-48 -42 -119 -53 -169 -53c-54 0 -125 7 -174 54c-36 34 -59 89 -59 157c0 88 31 172 70 241c38 67 119 185 273 281zM175 343
c-6 -16 -29 -72 -29 -140c0 -45 10 -90 32 -118c29 -37 67 -43 97 -43c28 0 76 5 105 46c23 32 30 87 30 123c0 21 -1 82 -34 117c-28 30 -65 34 -99 34c-37 0 -66 -4 -102 -19z" />
    <glyph glyph-name="seven" unicode="7" horiz-adv-x="498" 
d="M36 700h470v-30c-71 -108 -115 -197 -168 -324c-49 -119 -94 -237 -134 -362l-114 16c50 119 109 241 173 361c45 84 88 158 141 241h-316l-30 -90h-44z" />
    <glyph glyph-name="eight" unicode="8" horiz-adv-x="552" 
d="M208 351c-49 29 -63 40 -72 47c-52 44 -58 99 -58 134c0 42 11 105 70 147c38 27 89 37 135 37c44 0 108 -5 150 -47c27 -27 45 -70 45 -121c0 -46 -16 -85 -49 -116c-22 -21 -63 -43 -84 -53c13 -6 61 -32 90 -56c54 -45 63 -96 63 -142c0 -71 -26 -115 -54 -143
c-48 -47 -116 -54 -162 -54c-42 0 -110 2 -162 42c-18 14 -66 58 -66 138c0 39 13 89 64 134c23 20 59 39 90 53zM215 459c17 -17 63 -46 85 -58c20 13 39 27 55 43c22 22 43 53 43 106c0 37 -12 64 -30 81c-26 25 -60 27 -84 27c-26 0 -56 -2 -80 -30
c-18 -20 -26 -49 -26 -77c0 -39 16 -71 37 -92zM339 274c-20 15 -60 38 -85 51c-19 -11 -49 -31 -70 -52c-27 -28 -46 -59 -46 -106c0 -39 8 -69 36 -94c32 -28 64 -31 95 -31c30 0 68 1 98 32c13 14 31 38 31 87c0 55 -20 84 -59 113z" />
    <glyph glyph-name="nine" unicode="9" horiz-adv-x="558" 
d="M126 13c120 101 191 204 232 281c-35 -11 -63 -14 -97 -14c-41 0 -101 5 -145 37c-60 44 -72 113 -72 164c0 94 35 151 70 182c48 42 119 53 169 53c54 0 125 -7 174 -54c36 -34 59 -89 59 -157c0 -60 -18 -147 -71 -241c-45 -79 -133 -194 -273 -281zM384 357
c6 16 28 72 28 140c0 45 -10 90 -32 118c-29 37 -67 43 -96 43c-32 0 -74 -6 -103 -46c-25 -35 -33 -86 -33 -123c0 -65 17 -97 34 -117c30 -34 73 -34 102 -34c34 0 63 4 100 19z" />
    <glyph glyph-name="colon" unicode=":" horiz-adv-x="280" 
d="M70 58c0 38 31 70 70 70c38 0 70 -32 70 -70c0 -39 -32 -70 -70 -70c-39 0 -70 31 -70 70zM70 450c0 38 31 70 70 70c38 0 70 -32 70 -70c0 -39 -32 -70 -70 -70c-39 0 -70 31 -70 70z" />
    <glyph glyph-name="semicolon" unicode=";" horiz-adv-x="280" 
d="M70 450c0 38 31 70 70 70c38 0 70 -32 70 -70c0 -39 -32 -70 -70 -70c-39 0 -70 31 -70 70zM82 -160l-43 20c18 36 30 71 39 113c12 56 13 100 13 149v19l121 -19c-8 -46 -25 -111 -46 -157c-21 -45 -54 -91 -84 -125z" />
    <glyph glyph-name="less" unicode="&#x3c;" horiz-adv-x="706" 
d="M622 648l23 -56l-527 -242l527 -242l-23 -56l-564 258v80z" />
    <glyph glyph-name="equal" unicode="=" horiz-adv-x="560" 
d="M36 431h487v-62h-487v62zM36 239h487v-62h-487v62z" />
    <glyph glyph-name="greater" unicode="&#x3e;" horiz-adv-x="706" 
d="M84 52l-23 56l527 242l-527 242l23 56l564 -258v-80z" />
    <glyph glyph-name="question" unicode="?" horiz-adv-x="480" 
d="M247 190h-54v114l90 105c32 38 53 73 53 125c0 34 -9 65 -28 88c-27 32 -64 36 -90 36c-29 0 -52 -4 -72 -12l-20 -106h-54l-30 119c62 43 124 57 188 57c34 0 111 -7 160 -47c43 -42 50 -98 50 -126c0 -87 -43 -130 -80 -164l-43 -40l-5 -5c-18 -18 -39 -33 -52 -62
c-7 -16 -13 -39 -13 -76v-6zM154 54c0 36 29 66 66 66c36 0 66 -30 66 -66c0 -37 -30 -66 -66 -66c-37 0 -66 29 -66 66z" />
    <glyph glyph-name="at" unicode="@" horiz-adv-x="760" 
d="M570 354l-55 -233c-6 -25 -8 -37 -8 -47c0 -11 2 -19 7 -27c8 -14 18 -17 31 -17c34 0 60 14 81 40c38 47 42 109 42 148c0 56 -10 130 -63 187c-37 39 -112 85 -217 85c-88 0 -166 -37 -212 -85c-56 -59 -84 -153 -84 -235c0 -96 32 -177 87 -237
c63 -69 134 -91 222 -91c96 0 155 29 194 56l20 -31c-36 -28 -99 -67 -216 -67c-94 0 -178 22 -254 96c-79 77 -107 169 -107 268c0 128 49 223 108 279c69 67 155 89 241 89c120 0 202 -43 254 -99c39 -41 81 -112 81 -221c0 -47 -9 -113 -57 -167
c-39 -43 -85 -57 -137 -57c-34 0 -53 8 -61 12c-20 10 -29 20 -36 31c-42 -40 -81 -43 -99 -43c-41 0 -72 15 -91 34c-26 26 -39 70 -39 116c0 63 24 137 67 180c30 30 80 53 141 53c32 0 60 -9 78 -17h82zM422 75l56 239c-21 9 -45 15 -64 15c-37 0 -66 -15 -88 -49
c-26 -40 -40 -110 -40 -160c0 -34 5 -50 11 -61c14 -23 35 -29 47 -29c18 0 43 6 78 45z" />
    <glyph glyph-name="A" unicode="A" horiz-adv-x="680" 
d="M309 700h76l237 -650l50 -10v-40h-244v40l63 20h-1l10 20l-39 109h-274l-51 -139l70 -10v-40h-198v39l61 31h-1zM209 251h230l-112 320z" />
    <glyph glyph-name="B" unicode="B" horiz-adv-x="652" 
d="M38 700h318c47 0 120 -1 168 -44c41 -38 48 -88 48 -127c0 -38 -7 -72 -39 -109c-21 -24 -45 -38 -72 -47v-4c32 -6 76 -21 103 -48c25 -25 48 -65 48 -133c0 -32 -6 -94 -59 -141c-55 -48 -119 -47 -189 -47h-326v40l57 20h-1l14 20v570l-70 10v40zM212 638v-243h141
c28 0 58 1 86 32c25 28 29 65 29 92c0 19 -2 61 -27 88c-26 28 -62 31 -88 31h-141zM212 333v-271h156c35 0 78 2 110 41c25 30 30 67 30 99c0 29 -2 62 -27 90c-34 39 -82 41 -113 41h-156z" />
    <glyph glyph-name="C" unicode="C" horiz-adv-x="600" 
d="M560 690l10 -162h-46l-44 106c-34 17 -65 24 -109 24s-103 -9 -145 -58c-41 -47 -58 -128 -58 -250c0 -159 31 -220 54 -249c40 -48 99 -59 144 -59s82 8 114 24l56 86h44l-40 -131c-43 -19 -99 -37 -183 -37c-52 0 -147 6 -213 70c-79 76 -86 196 -86 296
c0 91 11 225 91 298c73 66 202 68 227 68c53 0 118 -8 184 -26z" />
    <glyph glyph-name="D" unicode="D" horiz-adv-x="710" 
d="M38 700h303c83 0 165 -9 226 -66c77 -73 85 -190 85 -284s-8 -211 -85 -284c-61 -57 -143 -66 -226 -66h-303v40l57 20h-1l14 20v570l-70 10v40zM212 638v-576h129c55 0 111 10 148 56c41 50 53 137 53 232s-12 182 -53 232c-37 46 -93 56 -148 56h-129z" />
    <glyph glyph-name="E" unicode="E" horiz-adv-x="560" 
d="M38 700h478l10 -142h-43l-27 65l-19 15h-225v-237h171l19 16l10 48h40v-196h-40l-10 54l-19 16h-171v-277h227l19 15l36 95h46l-20 -172h-482v40l57 20h-1l14 20v570l-70 10v40z" />
    <glyph glyph-name="F" unicode="F" horiz-adv-x="536" 
d="M38 700h468l10 -142h-44l-26 65l-19 15h-215v-263h171l19 16l10 54h40v-202h-40l-10 54l-19 16h-171v-263l80 -10v-40h-254v40l57 20h-1l14 20v570l-70 10v40z" />
    <glyph glyph-name="G" unicode="G" horiz-adv-x="660" 
d="M570 690l10 -162h-46l-43 106c-36 14 -73 20 -119 20s-105 -9 -147 -57c-40 -45 -57 -125 -57 -247s18 -202 55 -249c39 -48 92 -59 138 -59c32 0 82 7 128 34h-1v194l-120 20v40h274v-40l-47 -20h1l-14 -20v-210c-81 -48 -155 -56 -223 -56c-62 0 -147 6 -213 70
c-87 85 -88 219 -88 296c0 95 6 222 91 298c59 53 154 68 227 68c88 0 168 -20 194 -26z" />
    <glyph glyph-name="H" unicode="H" horiz-adv-x="740" 
d="M38 700h244v-40l-64 -19l-6 -13v-227h316v249l-70 10v40h244v-40l-64 -19l-6 -13v-578l70 -10v-40h-244v40l56 19l14 21v259h-316v-289l70 -10v-40h-244v40l56 19l14 21v570l-70 10v40z" />
    <glyph glyph-name="I" unicode="I" horiz-adv-x="320" 
d="M38 700h244v-40l-56 -19l-14 -21v-570l70 -10v-40h-244v40l56 19l14 21v570l-70 10v40z" />
    <glyph glyph-name="J" unicode="J" horiz-adv-x="440" 
d="M168 700h254v-39l-64 -20l-6 -13v-416c0 -52 0 -134 -51 -183c-43 -41 -115 -45 -152 -45c-32 0 -82 2 -145 16l20 152h50l29 -102c15 -7 29 -8 44 -8c29 0 64 4 82 37c13 23 19 67 19 133v438l-80 10v40z" />
    <glyph glyph-name="K" unicode="K" horiz-adv-x="668" 
d="M38 700h244v-40l-57 -20h1l-14 -20v-246l255 260l1 16l-65 10v40h234v-40l-91 -30l-230 -236l274 -334h-1l71 -20v-40h-178v30l-270 333v-313l70 -10v-40h-244v40l57 20h-1l14 20v570l-70 10v40z" />
    <glyph glyph-name="L" unicode="L" horiz-adv-x="550" 
d="M38 700h254v-40l-67 -20h1l-14 -20v-558h219l19 16l36 94h44l-20 -172h-472v40l57 20h-1l14 20v570l-70 10v40z" />
    <glyph glyph-name="M" unicode="M" horiz-adv-x="840" 
d="M38 700h208l190 -431l176 431h190v-40l-56 -20l-14 -20v-570l70 -10v-40h-244v39l56 21l14 19v507l-186 -456h-54l-206 456v-536l70 -10v-40h-214v40l56 19l14 19v572l-70 10v40z" />
    <glyph glyph-name="N" unicode="N" horiz-adv-x="760" 
d="M38 700h186l354 -524v474l-70 10v40h214v-40l-56 -20l-14 -19v-621h-74l-396 582v-532l70 -10v-40h-214v40l56 20l14 20v570l-70 10v40z" />
    <glyph glyph-name="O" unicode="O" horiz-adv-x="720" 
d="M58 350c0 102 7 218 89 297c68 66 151 69 213 69s145 -3 213 -69c82 -79 89 -195 89 -297c0 -99 -8 -219 -89 -298c-67 -64 -153 -68 -213 -68s-146 6 -213 70c-81 79 -89 197 -89 296zM168 350c0 -54 4 -183 55 -249c33 -43 80 -59 137 -59s104 16 137 59
c51 66 55 195 55 249c0 58 -4 181 -55 248c-34 45 -79 60 -137 60s-103 -15 -137 -60c-51 -67 -55 -190 -55 -248z" />
    <glyph glyph-name="P" unicode="P" horiz-adv-x="620" 
d="M38 700h315c61 0 128 -1 179 -44c52 -45 60 -110 60 -158c0 -36 -5 -113 -62 -161c-54 -45 -142 -47 -177 -47h-141v-240l80 -10v-40h-254v40l56 20l14 20v570l-70 10v40zM212 638v-286h122c29 0 85 1 121 38c31 32 33 81 33 109c0 31 -4 75 -30 102
c-34 36 -100 37 -124 37h-122z" />
    <glyph glyph-name="Q" unicode="Q" horiz-adv-x="720" 
d="M523 16c31 -35 77 -79 133 -116c60 -40 114 -61 186 -62v-38h-123c-60 17 -120 44 -180 85c-50 34 -93 76 -117 102c-21 -3 -39 -3 -62 -3c-60 0 -146 5 -213 70c-81 79 -89 197 -89 296c0 102 7 218 89 297c68 66 151 69 213 69s145 -3 213 -69c82 -79 89 -195 89 -297
c0 -74 -3 -148 -32 -214c-30 -67 -74 -100 -107 -120zM168 350c0 -54 4 -183 55 -249c33 -43 80 -59 137 -59s104 16 137 59c51 66 55 195 55 249c0 58 -4 181 -55 248c-34 45 -79 60 -137 60s-103 -15 -137 -60c-51 -67 -55 -190 -55 -248z" />
    <glyph glyph-name="R" unicode="R" horiz-adv-x="660" 
d="M38 700h325c58 0 121 -2 169 -41c31 -25 60 -70 60 -149c0 -44 -12 -99 -66 -143c-29 -23 -75 -41 -124 -44l180 -263h-1l71 -20v-40h-168v30l-194 289h-78v-269l70 -10v-40h-244v40l56 20l14 20v570l-70 10v40zM212 638v-257h138c28 0 76 1 108 36c16 17 30 47 30 98
c0 19 -2 60 -26 86c-31 35 -89 37 -112 37h-138z" />
    <glyph glyph-name="S" unicode="S" 
d="M470 690l10 -162h-46l-42 106c-13 8 -44 24 -103 24c-29 0 -66 -5 -93 -33c-14 -15 -30 -42 -30 -96c0 -64 32 -102 96 -124l85 -29c106 -36 155 -81 155 -185c0 -70 -23 -121 -54 -150c-55 -54 -150 -57 -195 -57c-94 0 -160 16 -213 36l-10 172h45l42 -116
c58 -28 102 -34 134 -34c23 0 78 1 112 38c26 29 29 69 29 98c0 48 -8 97 -100 129l-76 26c-108 37 -160 88 -160 186c0 56 21 110 52 143c48 49 121 54 177 54c60 0 115 -6 185 -26z" />
    <glyph glyph-name="T" unicode="T" horiz-adv-x="580" 
d="M26 700h528l16 -172h-46l-34 94l-19 16h-129v-588l80 -10v-40h-264v40l66 20l14 19v559h-129l-20 -16h1l-34 -94h-46z" />
    <glyph glyph-name="U" unicode="U" horiz-adv-x="700" 
d="M28 700h244v-40l-57 -20h1l-14 -20v-386c0 -56 -2 -116 37 -154c36 -35 94 -38 125 -38s92 3 128 38c38 37 36 99 36 154v416l-70 10v40h214v-40l-57 -20h1l-14 -20v-391c0 -64 -2 -136 -59 -189c-57 -52 -148 -56 -192 -56c-46 0 -133 5 -193 59c-53 48 -60 103 -60 186
v421l-70 10v40z" />
    <glyph glyph-name="V" unicode="V" horiz-adv-x="680" 
d="M18 700h244v-40l-64 -20l-6 -20l166 -474l164 486l-8 18l-64 10v40h212v-40l-68 -30h1l-221 -630h-68l-238 650l-50 10v40z" />
    <glyph glyph-name="W" unicode="W" horiz-adv-x="960" 
d="M18 700h232v-40l-65 -20h1l-6 -20l110 -452l166 532h68l182 -533l104 466l-8 17l-68 10v40h208v-40l-69 -30h1l-146 -630h-68l-190 558l-172 -558h-68l-160 650l-52 10v40z" />
    <glyph glyph-name="X" unicode="X" horiz-adv-x="640" 
d="M36 700h248v-40l-54 -20l-6 -20l106 -177l130 207l-60 10v40h206v-40l-84 -30l-154 -244l214 -336l50 -10v-40h-261v40l62 20l10 20l-135 227l-164 -257l70 -10v-40h-202v39l62 30l193 300l-175 281l-56 10v40z" />
    <glyph glyph-name="Y" unicode="Y" horiz-adv-x="640" 
d="M184 0v40l66 20l14 20v188l-196 382l-50 10v40h250v-40l-65 -20h1l-6 -20l140 -282l158 308l-70 14v40h206v-40l-77 -30h1l-188 -362v-218l80 -10v-40h-264z" />
    <glyph glyph-name="Z" unicode="Z" horiz-adv-x="600" 
d="M86 700h464v-40l-389 -598h308l19 16l37 94h43l-20 -172h-512v40l389 598h-254l-21 -16l-34 -94h-46z" />
    <glyph glyph-name="bracketleft" unicode="[" horiz-adv-x="440" 
d="M158 716h234v-56h-140v-804h140v-56h-234v916z" />
    <glyph glyph-name="backslash" unicode="\" horiz-adv-x="680" 
d="M52 686l59 31l517 -887l-59 -31z" />
    <glyph glyph-name="bracketright" unicode="]" horiz-adv-x="440" 
d="M282 -200h-234v56h140v804h-140v56h234v-916z" />
    <glyph glyph-name="asciicircum" unicode="^" horiz-adv-x="560" 
d="M280 628l-150 -164h-52l173 236h58l172 -236h-52z" />
    <glyph glyph-name="underscore" unicode="_" horiz-adv-x="600" 
d="M0 -219v61h599v-61h-599z" />
    <glyph glyph-name="grave" unicode="`" horiz-adv-x="500" 
d="M139 750h104l78 -163h-52z" />
    <glyph glyph-name="a" unicode="a" 
d="M74 510c58 13 127 22 187 22c35 0 112 -2 151 -41c42 -42 40 -111 40 -152v-285l64 -20v-34l-158 -12v59c-64 -55 -116 -59 -171 -59c-27 0 -71 1 -104 32c-25 23 -41 65 -41 116c0 45 12 81 42 108c35 31 91 39 141 45l133 17v40c0 29 0 78 -23 103
c-14 15 -40 27 -78 27c-13 0 -54 -1 -89 -12l-34 -89h-50zM358 106v142l-116 -16c-36 -5 -60 -9 -80 -29s-20 -53 -20 -69c0 -25 4 -55 19 -71s38 -19 53 -19c62 0 116 37 144 62z" />
    <glyph glyph-name="b" unicode="b" horiz-adv-x="600" 
d="M190 762v-308c21 30 65 78 154 78c63 0 114 -20 145 -52c47 -48 63 -130 63 -220s-14 -169 -67 -220c-46 -45 -105 -52 -154 -52c-89 0 -137 31 -163 53l-49 -41h-23v674l-72 20v34zM190 374v-289c47 -35 92 -41 124 -41c40 0 75 9 99 40c35 45 39 134 39 184
c0 65 -6 125 -36 167c-22 31 -47 41 -83 41c-57 0 -114 -41 -143 -102z" />
    <glyph glyph-name="c" unicode="c" horiz-adv-x="500" 
d="M447 86l25 -43c-59 -41 -129 -55 -189 -55c-74 0 -132 24 -165 52c-62 57 -70 146 -70 220c0 73 6 165 67 220c40 37 105 52 172 52c48 0 119 -8 173 -22l-20 -142h-50l-23 96c-24 7 -52 12 -82 12c-29 0 -69 -8 -96 -36c-33 -35 -41 -104 -41 -180c0 -62 5 -136 43 -177
c30 -32 70 -39 106 -39c23 0 80 3 150 42z" />
    <glyph glyph-name="d" unicode="d" horiz-adv-x="600" 
d="M504 762v-708l72 -21v-33l-166 -12v76c-49 -69 -118 -76 -154 -76c-51 0 -101 9 -143 52c-51 51 -65 126 -65 220c0 90 14 169 67 220c47 45 105 52 154 52c45 0 92 -5 141 -40v182h2l-74 20v34zM410 146v288h1c-48 35 -93 42 -125 42c-40 0 -75 -9 -99 -40
c-35 -45 -39 -134 -39 -184c0 -65 6 -125 36 -167c22 -31 47 -41 83 -41c68 0 118 52 143 102z" />
    <glyph glyph-name="e" unicode="e" 
d="M502 281l-354 -47c1 -48 13 -113 44 -149c30 -35 68 -41 106 -41c67 0 127 22 169 42l25 -43c-74 -47 -157 -55 -209 -55c-87 0 -138 28 -165 52c-62 57 -70 146 -70 220c0 57 5 158 68 218c52 50 134 54 173 54c40 0 109 -5 156 -52c49 -50 58 -133 57 -199zM147 291
l255 34c-1 25 -8 77 -26 106c-22 35 -55 45 -89 45c-28 0 -73 -6 -103 -44c-25 -31 -36 -100 -37 -141z" />
    <glyph glyph-name="f" unicode="f" horiz-adv-x="340" 
d="M18 520h80v49c0 48 -2 105 39 148c39 41 105 45 150 45c56 0 93 -5 133 -14l-18 -122h-54l-20 70c-15 8 -27 10 -42 10c-17 0 -50 -1 -71 -26c-22 -26 -23 -71 -23 -110v-50h132l-10 -60h-122v-406l70 -20v-34h-224v34l54 20l6 13v393h-80v60z" />
    <glyph glyph-name="g" unicode="g" horiz-adv-x="560" 
d="M266 532c94 0 131 -25 151 -48c32 29 80 37 113 37h32l-10 -73c-20 6 -38 9 -56 9s-37 -3 -57 -9h1c19 -36 22 -63 22 -99c0 -45 -6 -104 -53 -148c-44 -40 -107 -45 -143 -45h-50c-17 0 -39 -1 -56 -13c-7 -7 -16 -21 -16 -35c0 -39 41 -44 58 -45l119 -9
c79 -6 124 -14 152 -33c43 -29 49 -74 49 -106c0 -41 -12 -89 -67 -120c-30 -17 -74 -27 -187 -27c-99 0 -154 7 -188 29c-18 12 -52 41 -52 92c0 53 35 97 93 108h-1c-38 15 -62 43 -62 85c0 64 58 90 97 97h-1c-90 34 -96 122 -96 160c0 48 9 109 64 153
c45 35 104 40 144 40zM152 342c0 -57 16 -89 33 -106c14 -14 38 -28 75 -28s61 14 75 28c17 17 33 49 33 107s-16 88 -33 105c-14 14 -37 28 -75 28c-37 0 -61 -14 -75 -28c-17 -17 -33 -49 -33 -106zM305 -24l-137 9c-40 -21 -46 -58 -46 -80c0 -21 5 -42 29 -59
c17 -12 46 -22 119 -22c92 0 123 11 138 22c18 14 30 34 30 57c0 24 -8 39 -28 51c-24 13 -83 21 -105 22z" />
    <glyph glyph-name="h" unicode="h" horiz-adv-x="612" 
d="M190 762v-301c48 59 112 71 164 71c33 0 90 -3 128 -43c40 -41 42 -99 42 -154v-281h-1l65 -20v-34h-218v34l54 20l6 16v263c0 64 -8 89 -17 104c-20 34 -52 39 -74 39c-76 0 -127 -60 -149 -96v-326l70 -20v-34h-224v34l54 20l6 16l1 604l-73 20v34z" />
    <glyph glyph-name="i" unicode="i" horiz-adv-x="284" 
d="M190 532v-478h-1l71 -20v-34h-224v34l54 20l6 16v396l-72 20v34zM85 694c0 32 26 57 58 57c33 0 59 -25 59 -57c0 -31 -26 -56 -59 -56c-32 0 -58 25 -58 56z" />
    <glyph glyph-name="j" unicode="j" horiz-adv-x="262" 
d="M184 532v-586c0 -62 7 -178 -213 -178c-39 0 -66 4 -97 12l30 122h54l20 -72c11 -5 22 -6 33 -6c20 0 45 4 62 28c18 25 17 62 17 94l1 520l-73 20v34zM77 694c0 32 26 57 58 57c33 0 59 -25 59 -57c0 -31 -26 -56 -59 -56c-32 0 -58 25 -58 56z" />
    <glyph glyph-name="k" unicode="k" 
d="M190 762v-469l178 171v12l-56 10v34h204v-34l-80 -26l-156 -150l206 -266l46 -10v-34h-154v34l-188 249v-229l70 -20v-34h-224v34l54 20l6 16v604l-72 20v34z" />
    <glyph glyph-name="l" unicode="l" horiz-adv-x="284" 
d="M190 762v-708l70 -20v-34h-224v34l54 20l6 16v604l-72 20v34z" />
    <glyph glyph-name="m" unicode="m" horiz-adv-x="894" 
d="M190 532v-71c50 57 116 71 159 71c36 0 101 -5 136 -82c53 77 121 82 157 82c29 0 84 -3 122 -43c40 -42 42 -99 42 -154v-281l64 -20v-34h-218v34l54 20l6 16v263c0 64 -8 89 -17 104c-12 21 -35 39 -69 39c-41 0 -99 -34 -128 -96v-326l64 -20v-34h-218v34l54 20l6 16
v263c0 57 -6 84 -17 103c-9 16 -30 40 -70 40c-50 0 -101 -47 -127 -96v-326l64 -20v-34h-218v34l54 20l6 16v396l-72 20v34z" />
    <glyph glyph-name="n" unicode="n" horiz-adv-x="612" 
d="M190 532v-71c48 59 112 71 164 71c33 0 90 -3 128 -43c40 -41 42 -99 42 -154v-281l64 -20v-34h-218v34l54 20l6 16v263c0 64 -8 89 -17 104c-20 34 -52 39 -74 39c-76 0 -127 -60 -149 -96v-326l70 -20v-34h-224v34l54 20l6 16v396l-72 20v34z" />
    <glyph glyph-name="o" unicode="o" horiz-adv-x="580" 
d="M48 260c0 71 6 165 66 221c52 49 130 51 176 51s124 -2 176 -51c60 -56 66 -150 66 -221s-6 -165 -66 -221c-52 -49 -130 -51 -176 -51s-124 2 -176 51c-60 56 -66 150 -66 221zM146 260c0 -123 31 -164 38 -174c28 -36 74 -42 106 -42s78 6 106 42c7 10 38 51 38 174
s-31 164 -38 174c-28 36 -74 42 -106 42s-78 -6 -106 -42c-7 -10 -38 -51 -38 -174z" />
    <glyph glyph-name="p" unicode="p" horiz-adv-x="600" 
d="M190 532v-76c21 30 65 76 154 76c63 0 114 -20 145 -52c47 -48 63 -130 63 -220s-14 -169 -67 -220c-47 -45 -105 -52 -154 -52c-45 0 -92 5 -141 40v-194l80 -20v-34h-240v34l60 20l6 16v616l-72 20v34zM190 374v-288h-1c48 -35 93 -42 125 -42c40 0 75 9 99 40
c35 45 39 134 39 184c0 65 -6 125 -36 167c-22 31 -47 41 -83 41c-57 0 -114 -41 -143 -102z" />
    <glyph glyph-name="q" unicode="q" horiz-adv-x="588" 
d="M404 -166l6 16v214c-49 -68 -118 -76 -154 -76c-51 0 -101 9 -143 52c-51 51 -65 126 -65 220c0 90 14 169 67 220c47 45 105 52 151 52c52 0 111 -10 165 -53l49 41h24v-686h-1l67 -20v-34h-240v33zM410 152v276h1c-15 12 -64 48 -130 48c-28 0 -65 -6 -93 -41
s-40 -94 -40 -183c0 -26 0 -116 37 -167c23 -32 52 -41 81 -41c66 0 118 58 144 108z" />
    <glyph glyph-name="r" unicode="r" horiz-adv-x="450" 
d="M190 532v-83c22 20 49 38 74 51c48 23 92 32 140 32h20l-14 -142h-54l-32 64c-30 -2 -55 -11 -80 -26c-19 -11 -39 -29 -54 -48v-326l80 -20v-34h-234v34l54 20l6 16v396l-72 20v34z" />
    <glyph glyph-name="s" unicode="s" horiz-adv-x="440" 
d="M378 510l10 -132h-39l-42 90c-23 6 -46 8 -72 8c-18 0 -49 -2 -67 -23c-14 -16 -16 -37 -16 -53c0 -15 1 -34 16 -49c13 -14 43 -25 59 -30l55 -17c43 -13 75 -29 97 -54c14 -16 29 -46 29 -95c0 -59 -22 -102 -57 -128c-42 -32 -108 -39 -155 -39c-39 0 -95 4 -152 22
l-10 130h40l49 -88c27 -7 48 -8 72 -8c30 0 63 2 87 22c14 12 26 31 26 70c0 19 -2 43 -20 61c-12 12 -39 25 -58 31l-56 18c-31 10 -67 24 -90 49c-26 28 -32 62 -32 92c0 59 24 94 51 114c38 29 93 31 122 31c50 0 108 -9 153 -22z" />
    <glyph glyph-name="t" unicode="t" horiz-adv-x="360" 
d="M98 630l94 31v-140h140l-10 -62h-130v-291c0 -64 3 -86 12 -99c7 -10 22 -25 53 -25c22 0 56 6 85 16v-57c-44 -13 -81 -15 -107 -15c-45 0 -79 8 -103 35c-30 35 -34 91 -34 143v293h-80v62h80v109z" />
    <glyph glyph-name="u" unicode="u" horiz-adv-x="620" 
d="M190 532v-343c0 -78 10 -100 15 -109c10 -18 31 -36 68 -36c59 0 120 39 157 102v320l-72 20v34l166 12v-478l72 -21v-33l-166 -12v77c-52 -65 -123 -77 -170 -77c-68 0 -105 23 -124 43c-39 41 -40 100 -40 154v281l-72 20v34z" />
    <glyph glyph-name="v" unicode="v" horiz-adv-x="580" 
d="M18 520h210v-33l-44 -27l123 -340l131 356l-66 10v34h190v-34l-62 -26l-173 -460h-74l-175 470l-60 16v34z" />
    <glyph glyph-name="w" unicode="w" horiz-adv-x="780" 
d="M18 520h204v-33l-44 -27l73 -323l119 383h78l116 -383l76 339l-66 10v34h188v-34l-61 -26h1l-112 -460h-74l-123 413l-127 -413h-74l-114 470l-60 16v34z" />
    <glyph glyph-name="x" unicode="x" 
d="M26 520h208v-34l-37 -10v-12l83 -129l88 129v12l-56 10v34h200v-34l-79 -26h1l-122 -174l154 -234h-1l57 -18v-34h-220v34l51 20h-1l-101 159l-115 -167l68 -12v-34h-186v34l56 24l145 204l-139 214l-54 10v34z" />
    <glyph glyph-name="y" unicode="y" horiz-adv-x="580" 
d="M18 520h210v-33l-44 -27l132 -344l122 360l-66 10v34h190v-34l-62 -26l-189 -533c-13 -37 -33 -83 -66 -116c-30 -30 -59 -43 -110 -43c-29 0 -64 5 -105 26l30 112h50l20 -82c16 -2 40 0 63 22c19 19 43 66 51 90l21 64l-187 470l-60 16v34z" />
    <glyph glyph-name="z" unicode="z" horiz-adv-x="480" 
d="M60 520h380v-34l-300 -430h223l15 12l32 90h44l-10 -158h-420v34l300 430h-183l-15 -12l-32 -82h-44z" />
    <glyph glyph-name="braceleft" unicode="{" 
d="M466 716v-56h-42c-27 0 -61 -6 -78 -24c-19 -20 -21 -62 -21 -81v-132c0 -44 -1 -84 -30 -121c-15 -19 -38 -35 -68 -43v-4c30 -8 53 -24 68 -43c29 -37 30 -77 30 -121v-130c0 -19 2 -61 21 -81c18 -18 49 -24 78 -24h42v-56h-37c-44 0 -114 1 -152 41
c-32 33 -36 84 -36 121v134c0 26 0 75 -25 102c-19 21 -54 31 -84 31h-24v56h18c51 0 77 17 89 31c26 28 26 76 26 102v136c0 37 4 88 36 121c38 40 108 41 152 41h37z" />
    <glyph glyph-name="bar" unicode="|" horiz-adv-x="400" 
d="M168 750h64v-970h-64v970z" />
    <glyph glyph-name="braceright" unicode="}" 
d="M74 -200v56h42c11 0 56 1 78 24c19 20 21 62 21 81v132c0 44 1 84 30 121c15 19 38 35 67 43v4c-30 8 -52 24 -67 43c-29 37 -30 77 -30 121v130c0 19 -2 61 -21 81c-22 23 -67 24 -78 24h-42v56h37c44 0 114 -1 152 -41c32 -33 36 -84 36 -121v-134c0 -26 0 -75 25 -102
c19 -21 54 -31 84 -31h24v-56h-18c-52 0 -78 -17 -90 -31c-25 -27 -25 -76 -25 -102v-136c0 -37 -4 -88 -36 -121c-38 -40 -108 -41 -152 -41h-37z" />
    <glyph glyph-name="asciitilde" unicode="~" horiz-adv-x="560" 
d="M483 339l42 -20c-13 -30 -33 -61 -54 -80c-25 -23 -55 -35 -94 -35s-65 12 -91 24l-37 17c-27 12 -58 26 -88 26c-23 0 -40 -9 -54 -24c-12 -12 -24 -32 -31 -45l-42 20c12 29 32 61 52 81c27 27 59 38 92 38c31 0 67 -12 93 -24l42 -19c28 -13 53 -24 86 -24
c21 0 38 6 54 21c12 12 24 29 30 44z" />
    <glyph glyph-name="uni00A0" unicode="&#xa0;" horiz-adv-x="233" 
 />
    <glyph glyph-name="exclamdown" unicode="&#xa1;" horiz-adv-x="280" 
d="M190 -192h-100l-1 240l24 268h54l24 -268zM206 454c0 -36 -29 -66 -66 -66c-36 0 -66 30 -66 66c0 37 30 66 66 66c37 0 66 -29 66 -66z" />
    <glyph glyph-name="cent" unicode="&#xa2;" 
d="M467 86l25 -43c-25 -17 -75 -46 -147 -52v-91h-62v88c-48 1 -106 18 -145 52c-64 57 -70 145 -70 220c0 72 6 165 67 220c40 36 104 50 148 51v69h62v-69c31 -1 75 -5 135 -21l-20 -122h-46l-14 76c-16 5 -36 8 -55 10v-429c18 1 59 7 122 41zM283 46v429
c-19 0 -47 -6 -73 -35c-34 -40 -42 -100 -42 -180c0 -64 5 -136 43 -177c11 -12 35 -33 72 -37z" />
    <glyph glyph-name="sterling" unicode="&#xa3;" horiz-adv-x="538" 
d="M82 -9l-31 50c24 17 48 40 63 66c19 32 28 71 28 104c0 29 -7 70 -18 103h-86v62h68c-13 36 -24 83 -24 123c0 66 22 122 58 158c34 34 92 59 171 59c21 0 54 -2 104 -11c32 -5 59 -10 91 -23l-30 -134h-44l-26 96c-37 13 -75 14 -89 14c-31 0 -71 -7 -100 -41
c-29 -35 -31 -80 -31 -116c0 -43 9 -75 26 -125h167v-62h-153c10 -29 13 -57 13 -83c0 -63 -29 -118 -80 -155l1 -3c34 22 63 28 101 28c42 0 64 -10 91 -22c40 -18 61 -27 80 -27c24 0 55 21 76 47l34 -39c-20 -22 -45 -40 -70 -52c-32 -16 -64 -22 -97 -22
c-40 0 -74 9 -106 20l-9 3c-25 9 -49 18 -80 18c-36 0 -69 -15 -98 -36z" />
    <glyph glyph-name="currency" unicode="&#xa4;" horiz-adv-x="527" 
d="M43 104l72 73c-20 27 -33 60 -33 103s13 76 33 103l-73 73l46 45l73 -73c27 19 60 32 103 32c42 0 77 -14 103 -32l73 73l45 -45l-72 -72c20 -27 33 -61 33 -104s-14 -76 -34 -103l73 -73l-45 -45l-73 73c-27 -19 -60 -32 -103 -32c-42 0 -77 14 -103 32l-73 -73z
M136 280c0 -73 56 -128 128 -128s128 55 128 128s-56 128 -128 128s-128 -55 -128 -128z" />
    <glyph glyph-name="yen" unicode="&#xa5;" horiz-adv-x="556" 
d="M146 0v39l66 20l14 20v50h-154v62h154v78h-154v62h144l-166 319l-54 10v40h250v-39l-64 -20l-6 -21l124 -252l138 278l-70 14v40h192v-39l-66 -30l-154 -300h144v-62h-154v-78h154v-62h-154v-79l80 -10v-40h-264z" />
    <glyph glyph-name="brokenbar" unicode="&#xa6;" horiz-adv-x="400" 
d="M168 750h64v-400h-64v400zM168 180h64v-400h-64v400z" />
    <glyph glyph-name="section" unicode="&#xa7;" horiz-adv-x="560" 
d="M181 436c-52 49 -61 92 -61 126c0 42 15 85 53 115c41 32 100 39 148 39c43 0 79 -3 124 -16l-20 -122h-54l-19 72c-14 8 -27 10 -44 10c-36 0 -88 -3 -88 -90c0 -63 22 -79 110 -140l70 -48c64 -44 101 -106 102 -171c0 -52 -20 -87 -35 -105c-20 -24 -59 -51 -89 -64
c48 -41 59 -84 59 -120c0 -43 -15 -85 -53 -115c-43 -34 -99 -39 -148 -39c-45 0 -86 3 -134 12l30 122h54l20 -72c15 -5 24 -6 35 -6c63 0 96 25 96 90c0 62 -13 77 -159 179c-72 50 -120 104 -120 182c0 62 39 126 123 161zM231 170l111 -89c43 27 60 75 60 120
c0 60 -38 91 -84 125l-101 75c-28 -16 -59 -69 -59 -115c0 -54 43 -95 73 -116z" />
    <glyph glyph-name="dieresis" unicode="&#xa8;" horiz-adv-x="500" 
d="M96 694c0 32 26 57 58 57c33 0 59 -25 59 -57c0 -31 -26 -56 -59 -56c-32 0 -58 25 -58 56zM286 694c0 32 26 57 58 57c33 0 59 -25 59 -57c0 -31 -26 -56 -59 -56c-32 0 -58 25 -58 56z" />
    <glyph glyph-name="copyright" unicode="&#xa9;" horiz-adv-x="812" 
d="M102 350c0 -81 30 -162 89 -222c59 -61 136 -92 214 -92c66 0 145 21 214 92c70 71 90 155 90 222c0 72 -25 156 -88 221c-60 62 -138 93 -216 93c-65 0 -144 -21 -213 -92c-70 -71 -90 -155 -90 -222zM38 350c0 44 8 159 106 257c85 85 187 109 261 109
c78 0 177 -24 260 -107c83 -84 107 -182 107 -259c0 -101 -42 -193 -105 -258c-71 -72 -169 -108 -262 -108c-91 0 -190 36 -261 108c-64 65 -106 157 -106 258zM535 223l18 -42c-50 -28 -97 -34 -132 -34c-46 0 -97 6 -142 49c-35 34 -58 86 -58 152c0 57 20 115 55 153
c28 27 82 57 153 57c36 0 80 -8 116 -22l-20 -105h-39l-11 68c-13 6 -33 12 -50 12c-30 0 -55 -4 -80 -35c-28 -34 -36 -84 -36 -125c0 -42 11 -93 38 -123c23 -26 52 -34 85 -34c22 0 57 5 103 29z" />
    <glyph glyph-name="ordfeminine" unicode="&#xaa;" horiz-adv-x="420" 
d="M272 564v17c0 18 1 51 -17 68c-13 12 -36 15 -57 15c-18 0 -34 -1 -53 -6l-12 -53h-44l-20 90c53 17 94 21 134 21c62 0 97 -12 116 -28c31 -29 32 -69 32 -99v-193l50 -16v-30l-129 -14v33c-36 -28 -72 -34 -106 -34c-21 0 -58 4 -86 27c-23 21 -32 47 -32 77
c0 42 14 66 29 80c23 21 57 26 92 30zM272 426v85l-80 -11c-17 -3 -38 -4 -51 -18c-12 -13 -13 -34 -13 -46s2 -29 14 -39c11 -9 25 -10 35 -10c34 0 67 14 95 39z" />
    <glyph glyph-name="guillemotleft" unicode="&#xab;" 
d="M266 480l44 -37l-129 -143l129 -143l-44 -37l-198 180zM432 446l38 -31l-105 -115l105 -115l-38 -31l-160 146z" />
    <glyph glyph-name="logicalnot" unicode="&#xac;" 
d="M26 329v62h489v-241h-62v179h-427z" />
    <glyph glyph-name="uni00AD" unicode="&#xad;" horiz-adv-x="419" 
d="M70 341h279v-82h-279v82z" />
    <glyph glyph-name="registered" unicode="&#xae;" horiz-adv-x="812" 
d="M102 350c0 -81 30 -162 89 -222c59 -61 136 -92 214 -92c66 0 145 21 214 92c70 71 90 155 90 222c0 72 -25 156 -88 221c-60 62 -138 93 -216 93c-65 0 -144 -21 -213 -92c-70 -71 -90 -155 -90 -222zM38 350c0 44 8 159 106 257c85 85 187 109 261 109
c78 0 177 -24 260 -107c83 -84 107 -182 107 -259c0 -101 -42 -193 -105 -258c-71 -72 -169 -108 -262 -108c-91 0 -190 36 -261 108c-64 65 -106 157 -106 258zM235 548h178c22 0 81 -4 112 -29c30 -24 34 -65 34 -86c0 -30 -7 -54 -25 -75c-13 -15 -32 -27 -57 -31
l67 -124l39 -15v-25h-114v25l-66 130h-54v-115l39 -15v-25h-153v25l42 15v305l-42 15v25zM349 507v-147h68c15 0 40 8 49 16c18 16 19 45 19 60c0 19 -1 39 -21 55c-18 15 -40 16 -56 16h-59z" />
    <glyph glyph-name="macron" unicode="&#xaf;" horiz-adv-x="500" 
d="M117 657v47h266v-47h-266z" />
    <glyph glyph-name="degree" unicode="&#xb0;" horiz-adv-x="360" 
d="M58 596c0 68 53 120 122 120s122 -52 122 -120s-53 -120 -122 -120s-122 52 -122 120zM108 596c0 -43 30 -72 72 -72s72 29 72 72s-30 72 -72 72s-72 -29 -72 -72z" />
    <glyph glyph-name="plusminus" unicode="&#xb1;" horiz-adv-x="560" 
d="M36 427h213v193h62v-193h213v-62h-213v-183h-62v183h-213v62zM36 132h488v-62h-488v62z" />
    <glyph glyph-name="twosuperior" unicode="&#xb2;" horiz-adv-x="360" 
d="M126 341h144l26 46h28l-18 -108h-278v27l136 148c58 63 67 97 67 135c0 19 -3 37 -17 52c-18 19 -43 21 -61 21c-20 0 -41 -6 -56 -13l-12 -65h-30l-20 96c43 17 94 30 137 30c31 0 78 -7 103 -28c19 -15 35 -42 35 -77c0 -66 -48 -120 -90 -165z" />
    <glyph glyph-name="threesuperior" unicode="&#xb3;" horiz-adv-x="360" 
d="M61 700h256v-28l-111 -138c22 -2 52 -8 71 -21c37 -26 44 -71 44 -101s-10 -79 -55 -113c-36 -24 -89 -30 -118 -30c-52 0 -85 12 -114 27l21 87h30l11 -56c18 -8 33 -10 52 -10s48 0 70 20c21 19 24 47 24 69s-3 49 -19 67c-14 16 -44 27 -89 20v28l95 117h-134l-20 -52
h-27z" />
    <glyph glyph-name="acute" unicode="&#xb4;" horiz-adv-x="500" 
d="M257 750h104l-130 -163h-52z" />
    <glyph glyph-name="mu" unicode="&#xb5;" horiz-adv-x="660" 
d="M88 520h94v-310c0 -31 6 -76 31 -99c17 -16 45 -25 76 -25c74 0 122 60 139 124v310h94v-390c0 -35 2 -49 8 -61c11 -23 27 -25 41 -25c12 0 28 1 61 16v-57c-36 -13 -66 -15 -87 -15c-39 0 -70 9 -89 35c-14 19 -22 56 -24 87c-13 -32 -36 -70 -63 -93
c-27 -22 -55 -29 -84 -29c-30 0 -57 7 -82 31c-24 24 -47 67 -55 101h-4c11 -79 27 -182 38 -260v-42l-22 -38h-70l-22 38v42l20 180v480z" />
    <glyph glyph-name="mu" unicode="&#x3bc;" horiz-adv-x="660" 
d="M88 520h94v-310c0 -31 6 -76 31 -99c17 -16 45 -25 76 -25c74 0 122 60 139 124v310h94v-390c0 -35 2 -49 8 -61c11 -23 27 -25 41 -25c12 0 28 1 61 16v-57c-36 -13 -66 -15 -87 -15c-39 0 -70 9 -89 35c-14 19 -22 56 -24 87c-13 -32 -36 -70 -63 -93
c-27 -22 -55 -29 -84 -29c-30 0 -57 7 -82 31c-24 24 -47 67 -55 101h-4c11 -79 27 -182 38 -260v-42l-22 -38h-70l-22 38v42l20 180v480z" />
    <glyph glyph-name="paragraph" unicode="&#xb6;" 
d="M512 700v-62h-74v-858h-64v858h-95v-858h-64v570c-40 -3 -95 10 -130 36c-31 24 -57 70 -57 132c0 89 46 136 92 158c48 23 108 24 151 24h241z" />
    <glyph glyph-name="periodcentered" unicode="&#xb7;" horiz-adv-x="280" 
d="M72 300c0 38 30 68 68 68s68 -30 68 -68s-30 -68 -68 -68s-68 30 -68 68z" />
    <glyph glyph-name="cedilla" unicode="&#xb8;" horiz-adv-x="500" 
d="M219 0h50l-17 -51c73 -1 113 -20 113 -81c0 -80 -82 -91 -127 -91c-29 0 -67 6 -100 19l17 41c22 -8 47 -15 74 -15c37 0 59 13 59 45s-20 41 -54 41c-20 0 -33 -2 -48 -3z" />
    <glyph glyph-name="onesuperior" unicode="&#xb9;" horiz-adv-x="360" 
d="M183 700h47v-374l77 -21v-26h-245v25l84 22v292l-108 -12v28c39 4 99 19 145 66z" />
    <glyph glyph-name="ordmasculine" unicode="&#xba;" horiz-adv-x="442" 
d="M48 525c0 50 4 115 48 156c38 35 90 35 125 35s86 0 124 -35c44 -41 48 -106 48 -156c0 -49 -4 -114 -48 -155c-38 -35 -89 -35 -124 -35s-87 0 -125 35c-44 41 -48 106 -48 155zM134 525c0 -30 4 -87 23 -112c18 -23 43 -26 64 -26s46 3 64 26c18 25 22 82 22 112
c0 31 -4 88 -22 113c-18 23 -43 26 -64 26s-46 -3 -64 -26c-19 -25 -23 -82 -23 -113z" />
    <glyph glyph-name="guillemotright" unicode="&#xbb;" 
d="M274 120l-44 38l128 142l-128 142l44 38l198 -180zM108 154l-38 32l104 114l-104 114l38 32l160 -146z" />
    <glyph glyph-name="onequarter" unicode="&#xbc;" horiz-adv-x="900" 
d="M705 430l88 -10c-29 -58 -56 -107 -90 -164c-28 -47 -49 -80 -77 -120h126v116l80 24v-140h48v-46h-48v-90h-80v90h-200v26c27 45 59 101 78 139c23 47 53 117 75 175zM204 -81l-47 33l617 829l47 -33zM183 700h47v-374l77 -21v-26h-245v25l84 22v292l-108 -12v28
c39 4 99 19 145 66z" />
    <glyph glyph-name="onehalf" unicode="&#xbd;" horiz-adv-x="900" 
d="M165 -81l-47 33l617 829l47 -33zM183 700h47v-374l77 -21v-26h-245v25l84 22v292l-108 -12v28c39 4 99 19 145 66zM666 62h145l25 46h28l-18 -108h-278v27l136 148c58 63 67 97 67 135c0 19 -3 37 -17 52c-18 19 -43 21 -61 21c-20 0 -41 -6 -56 -13l-12 -65h-30l-20 96
c43 17 94 30 137 30c31 0 78 -7 103 -28c19 -15 35 -42 35 -77c0 -66 -48 -120 -90 -165z" />
    <glyph glyph-name="threequarters" unicode="&#xbe;" horiz-adv-x="900" 
d="M185 -81l-47 33l617 829l47 -33zM61 700h256v-28l-111 -138c22 -2 52 -8 71 -21c37 -26 44 -71 44 -101s-10 -79 -55 -113c-36 -24 -89 -30 -118 -30c-52 0 -85 12 -114 27l21 87h30l11 -56c18 -8 33 -10 52 -10s48 0 70 20c21 19 24 47 24 69s-3 49 -19 67
c-14 16 -44 27 -89 20v28l95 117h-134l-20 -52h-27zM705 430l88 -10c-29 -58 -56 -107 -90 -164c-28 -47 -49 -80 -77 -120h126v116l80 24v-140h48v-46h-48v-90h-80v90h-200v26c27 45 59 101 78 139c23 47 53 117 75 175z" />
    <glyph glyph-name="questiondown" unicode="&#xbf;" horiz-adv-x="480" 
d="M233 318h54v-114l-90 -105c-32 -38 -53 -73 -53 -125c0 -34 9 -65 28 -88c27 -32 64 -36 90 -36c29 0 52 4 72 12l20 106h54l30 -119c-62 -43 -124 -57 -188 -57c-34 0 -111 7 -160 47c-43 42 -50 98 -50 126c0 87 43 130 80 164l43 40l5 5c18 18 39 33 52 62
c7 16 13 39 13 76v6zM326 454c0 -36 -29 -66 -66 -66c-36 0 -66 30 -66 66c0 37 30 66 66 66c37 0 66 -29 66 -66z" />
    <glyph glyph-name="Agrave" unicode="&#xc0;" horiz-adv-x="680" 
d="M309 700h76l237 -650l50 -10v-40h-244v40l63 20h-1l10 20l-39 109h-274l-51 -139l70 -10v-40h-198v39l61 31h-1zM209 251h230l-112 320zM304 918l65 -142h-59l-114 142h108z" />
    <glyph glyph-name="Aacute" unicode="&#xc1;" horiz-adv-x="680" 
d="M309 700h76l237 -650l50 -10v-40h-244v40l63 20h-1l10 20l-39 109h-274l-51 -139l70 -10v-40h-198v39l61 31h-1zM209 251h230l-112 320zM398 918h108l-132 -142h-52z" />
    <glyph glyph-name="Acircumflex" unicode="&#xc2;" horiz-adv-x="680" 
d="M309 700h76l237 -650l50 -10v-40h-244v40l63 20h-1l10 20l-39 109h-274l-51 -139l70 -10v-40h-198v39l61 31h-1zM209 251h230l-112 320zM309 918h76l114 -142h-57l-95 74l-95 -74h-57z" />
    <glyph glyph-name="Atilde" unicode="&#xc3;" horiz-adv-x="680" 
d="M309 700h76l237 -650l50 -10v-40h-244v40l63 20h-1l10 20l-39 109h-274l-51 -139l70 -10v-40h-198v39l61 31h-1zM209 251h230l-112 320zM229 789l-46 27c18 42 53 81 103 81c17 0 42 -6 68 -21l18 -10c17 -10 29 -16 45 -16c18 0 37 16 49 37l47 -26
c-17 -42 -51 -82 -102 -82c-20 0 -46 8 -64 19l-22 14c-17 11 -28 15 -41 15c-25 0 -39 -15 -55 -38z" />
    <glyph glyph-name="Adieresis" unicode="&#xc4;" horiz-adv-x="680" 
d="M309 700h76l237 -650l50 -10v-40h-244v40l63 20h-1l10 20l-39 109h-274l-51 -139l70 -10v-40h-198v39l61 31h-1zM209 251h230l-112 320zM184 830c0 35 26 62 61 62c36 0 63 -27 63 -62c0 -34 -27 -60 -63 -60c-35 0 -61 26 -61 60zM386 830c0 35 26 62 61 62
c36 0 63 -27 63 -62c0 -34 -27 -60 -63 -60c-35 0 -61 26 -61 60z" />
    <glyph glyph-name="Aring" unicode="&#xc5;" horiz-adv-x="680" 
d="M309 700h76l237 -650l50 -10v-40h-244v40l63 20h-1l10 20l-39 109h-274l-51 -139l70 -10v-40h-198v39l61 31h-1zM209 251h230l-112 320zM245 857c0 56 45 101 102 101s101 -45 101 -101c0 -57 -44 -102 -101 -102s-102 45 -102 102zM293 856c0 -30 24 -54 54 -54
s55 24 55 54c0 29 -25 54 -55 54s-54 -25 -54 -54z" />
    <glyph glyph-name="AE" unicode="&#xc6;" horiz-adv-x="920" 
d="M305 700h571l10 -141h-44l-25 62l-21 17h-227v-237h174l19 16l10 48h40v-197h-40l-10 55l-20 16h-173v-275h229l20 16v-1l37 94h46l-20 -173h-483v39l56 20l14 19v121h-246l-83 -149l69 -10v-40h-198v40l59 30l326 570l-90 20v40zM468 261v357h-11l-200 -357h211z" />
    <glyph glyph-name="Ccedilla" unicode="&#xc7;" horiz-adv-x="600" 
d="M560 690l10 -162h-46l-44 106c-34 17 -65 24 -109 24s-103 -9 -145 -58c-41 -47 -58 -128 -58 -250c0 -159 31 -220 54 -249c40 -48 99 -59 144 -59s82 8 114 24l56 86h44l-40 -131c-41 -18 -93 -35 -170 -37l-11 -35c73 -1 113 -20 113 -81c0 -80 -82 -91 -127 -91
c-29 0 -67 6 -100 19l17 41c22 -8 47 -15 74 -15c37 0 59 13 59 45s-20 41 -54 41c-20 0 -33 -2 -48 -3l28 80c-53 4 -124 18 -177 69c-79 76 -86 196 -86 296c0 91 11 225 91 298c73 66 202 68 227 68c53 0 118 -8 184 -26z" />
    <glyph glyph-name="Egrave" unicode="&#xc8;" horiz-adv-x="560" 
d="M38 700h478l10 -142h-43l-27 65l-19 15h-225v-237h171l19 16l10 48h40v-196h-40l-10 54l-19 16h-171v-277h227l19 15l36 95h46l-20 -172h-482v40l57 20h-1l14 20v570l-70 10v40zM280 918l65 -142h-59l-114 142h108z" />
    <glyph glyph-name="Eacute" unicode="&#xc9;" horiz-adv-x="560" 
d="M38 700h478l10 -142h-43l-27 65l-19 15h-225v-237h171l19 16l10 48h40v-196h-40l-10 54l-19 16h-171v-277h227l19 15l36 95h46l-20 -172h-482v40l57 20h-1l14 20v570l-70 10v40zM356 918h108l-132 -142h-52z" />
    <glyph glyph-name="Ecircumflex" unicode="&#xca;" horiz-adv-x="560" 
d="M38 700h478l10 -142h-43l-27 65l-19 15h-225v-237h171l19 16l10 48h40v-196h-40l-10 54l-19 16h-171v-277h227l19 15l36 95h46l-20 -172h-482v40l57 20h-1l14 20v570l-70 10v40zM267 918h76l114 -142h-57l-95 74l-95 -74h-57z" />
    <glyph glyph-name="Edieresis" unicode="&#xcb;" horiz-adv-x="560" 
d="M38 700h478l10 -142h-43l-27 65l-19 15h-225v-237h171l19 16l10 48h40v-196h-40l-10 54l-19 16h-171v-277h227l19 15l36 95h46l-20 -172h-482v40l57 20h-1l14 20v570l-70 10v40zM142 830c0 35 26 62 61 62c36 0 63 -27 63 -62c0 -34 -27 -60 -63 -60c-35 0 -61 26 -61 60
zM344 830c0 35 26 62 61 62c36 0 63 -27 63 -62c0 -34 -27 -60 -63 -60c-35 0 -61 26 -61 60z" />
    <glyph glyph-name="Igrave" unicode="&#xcc;" horiz-adv-x="320" 
d="M38 700h244v-40l-56 -19l-14 -21v-570l70 -10v-40h-244v40l56 19l14 21v570l-70 10v40zM129 918l65 -142h-59l-114 142h108z" />
    <glyph glyph-name="Iacute" unicode="&#xcd;" horiz-adv-x="320" 
d="M38 700h244v-40l-56 -19l-14 -21v-570l70 -10v-40h-244v40l56 19l14 21v570l-70 10v40zM208 918h108l-132 -142h-52z" />
    <glyph glyph-name="Icircumflex" unicode="&#xce;" horiz-adv-x="320" 
d="M38 700h244v-40l-56 -19l-14 -21v-570l70 -10v-40h-244v40l56 19l14 21v570l-70 10v40zM122 918h76l114 -142h-57l-95 74l-95 -74h-57z" />
    <glyph glyph-name="Idieresis" unicode="&#xcf;" horiz-adv-x="320" 
d="M38 700h244v-40l-56 -19l-14 -21v-570l70 -10v-40h-244v40l56 19l14 21v570l-70 10v40zM-3 830c0 35 26 62 61 62c36 0 63 -27 63 -62c0 -34 -27 -60 -63 -60c-35 0 -61 26 -61 60zM199 830c0 35 26 62 61 62c36 0 63 -27 63 -62c0 -34 -27 -60 -63 -60
c-35 0 -61 26 -61 60z" />
    <glyph glyph-name="Eth" unicode="&#xd0;" horiz-adv-x="710" 
d="M212 317v-255h129c55 0 111 10 148 56c41 50 53 137 53 232s-12 182 -53 232c-37 46 -93 56 -148 56h-129v-259h147v-62h-147zM108 317h-98v62h98v271l-70 10v40h303c83 0 165 -9 226 -66c77 -73 85 -190 85 -284s-8 -211 -85 -284c-61 -57 -143 -66 -226 -66h-303v40
l57 20h-1l14 20v237z" />
    <glyph glyph-name="Ntilde" unicode="&#xd1;" horiz-adv-x="760" 
d="M38 700h186l354 -524v474l-70 10v40h214v-40l-56 -20l-14 -19v-621h-74l-396 582v-532l70 -10v-40h-214v40l56 20l14 20v570l-70 10v40zM264 789l-46 27c18 42 53 81 103 81c17 0 42 -6 68 -21l18 -10c17 -10 29 -16 45 -16c18 0 37 16 49 37l47 -26
c-17 -42 -51 -82 -102 -82c-20 0 -46 8 -64 19l-22 14c-17 11 -28 15 -41 15c-25 0 -39 -15 -55 -38z" />
    <glyph glyph-name="Ograve" unicode="&#xd2;" horiz-adv-x="720" 
d="M58 350c0 102 7 218 89 297c68 66 151 69 213 69s145 -3 213 -69c82 -79 89 -195 89 -297c0 -99 -8 -219 -89 -298c-67 -64 -153 -68 -213 -68s-146 6 -213 70c-81 79 -89 197 -89 296zM168 350c0 -54 4 -183 55 -249c33 -43 80 -59 137 -59s104 16 137 59
c51 66 55 195 55 249c0 58 -4 181 -55 248c-34 45 -79 60 -137 60s-103 -15 -137 -60c-51 -67 -55 -190 -55 -248zM327 918l65 -142h-59l-114 142h108z" />
    <glyph glyph-name="Oacute" unicode="&#xd3;" horiz-adv-x="720" 
d="M58 350c0 102 7 218 89 297c68 66 151 69 213 69s145 -3 213 -69c82 -79 89 -195 89 -297c0 -99 -8 -219 -89 -298c-67 -64 -153 -68 -213 -68s-146 6 -213 70c-81 79 -89 197 -89 296zM168 350c0 -54 4 -183 55 -249c33 -43 80 -59 137 -59s104 16 137 59
c51 66 55 195 55 249c0 58 -4 181 -55 248c-34 45 -79 60 -137 60s-103 -15 -137 -60c-51 -67 -55 -190 -55 -248zM406 918h108l-132 -142h-52z" />
    <glyph glyph-name="Ocircumflex" unicode="&#xd4;" horiz-adv-x="720" 
d="M58 350c0 102 7 218 89 297c68 66 151 69 213 69s145 -3 213 -69c82 -79 89 -195 89 -297c0 -99 -8 -219 -89 -298c-67 -64 -153 -68 -213 -68s-146 6 -213 70c-81 79 -89 197 -89 296zM168 350c0 -54 4 -183 55 -249c33 -43 80 -59 137 -59s104 16 137 59
c51 66 55 195 55 249c0 58 -4 181 -55 248c-34 45 -79 60 -137 60s-103 -15 -137 -60c-51 -67 -55 -190 -55 -248zM322 918h76l114 -142h-57l-95 74l-95 -74h-57z" />
    <glyph glyph-name="Otilde" unicode="&#xd5;" horiz-adv-x="720" 
d="M58 350c0 102 7 218 89 297c68 66 151 69 213 69s145 -3 213 -69c82 -79 89 -195 89 -297c0 -99 -8 -219 -89 -298c-67 -64 -153 -68 -213 -68s-146 6 -213 70c-81 79 -89 197 -89 296zM168 350c0 -54 4 -183 55 -249c33 -43 80 -59 137 -59s104 16 137 59
c51 66 55 195 55 249c0 58 -4 181 -55 248c-34 45 -79 60 -137 60s-103 -15 -137 -60c-51 -67 -55 -190 -55 -248zM244 789l-46 27c18 42 53 81 103 81c17 0 42 -6 68 -21l18 -10c17 -10 29 -16 45 -16c18 0 37 16 49 37l47 -26c-17 -42 -51 -82 -102 -82
c-20 0 -46 8 -64 19l-22 14c-17 11 -28 15 -41 15c-25 0 -39 -15 -55 -38z" />
    <glyph glyph-name="Odieresis" unicode="&#xd6;" horiz-adv-x="720" 
d="M58 350c0 102 7 218 89 297c68 66 151 69 213 69s145 -3 213 -69c82 -79 89 -195 89 -297c0 -99 -8 -219 -89 -298c-67 -64 -153 -68 -213 -68s-146 6 -213 70c-81 79 -89 197 -89 296zM168 350c0 -54 4 -183 55 -249c33 -43 80 -59 137 -59s104 16 137 59
c51 66 55 195 55 249c0 58 -4 181 -55 248c-34 45 -79 60 -137 60s-103 -15 -137 -60c-51 -67 -55 -190 -55 -248zM197 830c0 35 26 62 61 62c36 0 63 -27 63 -62c0 -34 -27 -60 -63 -60c-35 0 -61 26 -61 60zM399 830c0 35 26 62 61 62c36 0 63 -27 63 -62
c0 -34 -27 -60 -63 -60c-35 0 -61 26 -61 60z" />
    <glyph glyph-name="multiply" unicode="&#xd7;" horiz-adv-x="560" 
d="M84 154l152 150l-152 151l45 45l151 -152l150 152l45 -45l-152 -151l152 -150l-45 -45l-150 151l-151 -151z" />
    <glyph glyph-name="Oslash" unicode="&#xd8;" horiz-adv-x="720" 
d="M58 350c0 102 7 218 89 297c68 66 151 69 213 69c56 0 130 -2 194 -52l52 70l48 -35l-58 -78c60 -77 66 -180 66 -271c0 -99 -8 -219 -89 -298c-67 -64 -153 -68 -213 -68c-55 0 -132 5 -196 55l-50 -68l-48 35l56 76c-58 77 -64 180 -64 268zM552 350
c0 42 -2 117 -22 181l-313 -422l6 -8c33 -43 80 -59 137 -59s104 16 137 59c51 66 55 195 55 249zM168 350c0 -38 2 -114 21 -179l312 421c-2 2 -3 4 -4 6c-34 45 -79 60 -137 60s-103 -15 -137 -60c-51 -67 -55 -190 -55 -248z" />
    <glyph glyph-name="Ugrave" unicode="&#xd9;" horiz-adv-x="700" 
d="M28 700h244v-40l-57 -20h1l-14 -20v-386c0 -56 -2 -116 37 -154c36 -35 94 -38 125 -38s92 3 128 38c38 37 36 99 36 154v416l-70 10v40h214v-40l-57 -20h1l-14 -20v-391c0 -64 -2 -136 -59 -189c-57 -52 -148 -56 -192 -56c-46 0 -133 5 -193 59c-53 48 -60 103 -60 186
v421l-70 10v40zM333 918l65 -142h-59l-114 142h108z" />
    <glyph glyph-name="Uacute" unicode="&#xda;" horiz-adv-x="700" 
d="M28 700h244v-40l-57 -20h1l-14 -20v-386c0 -56 -2 -116 37 -154c36 -35 94 -38 125 -38s92 3 128 38c38 37 36 99 36 154v416l-70 10v40h214v-40l-57 -20h1l-14 -20v-391c0 -64 -2 -136 -59 -189c-57 -52 -148 -56 -192 -56c-46 0 -133 5 -193 59c-53 48 -60 103 -60 186
v421l-70 10v40zM411 918h108l-132 -142h-52z" />
    <glyph glyph-name="Ucircumflex" unicode="&#xdb;" horiz-adv-x="700" 
d="M28 700h244v-40l-57 -20h1l-14 -20v-386c0 -56 -2 -116 37 -154c36 -35 94 -38 125 -38s92 3 128 38c38 37 36 99 36 154v416l-70 10v40h214v-40l-57 -20h1l-14 -20v-391c0 -64 -2 -136 -59 -189c-57 -52 -148 -56 -192 -56c-46 0 -133 5 -193 59c-53 48 -60 103 -60 186
v421l-70 10v40zM326 918h76l114 -142h-57l-95 74l-95 -74h-57z" />
    <glyph glyph-name="Udieresis" unicode="&#xdc;" horiz-adv-x="700" 
d="M28 700h244v-40l-57 -20h1l-14 -20v-386c0 -56 -2 -116 37 -154c36 -35 94 -38 125 -38s92 3 128 38c38 37 36 99 36 154v416l-70 10v40h214v-40l-57 -20h1l-14 -20v-391c0 -64 -2 -136 -59 -189c-57 -52 -148 -56 -192 -56c-46 0 -133 5 -193 59c-53 48 -60 103 -60 186
v421l-70 10v40zM201 830c0 35 26 62 61 62c36 0 63 -27 63 -62c0 -34 -27 -60 -63 -60c-35 0 -61 26 -61 60zM403 830c0 35 26 62 61 62c36 0 63 -27 63 -62c0 -34 -27 -60 -63 -60c-35 0 -61 26 -61 60z" />
    <glyph glyph-name="Yacute" unicode="&#xdd;" horiz-adv-x="640" 
d="M184 0v40l66 20l14 20v188l-196 382l-50 10v40h250v-40l-65 -20h1l-6 -20l140 -282l158 308l-70 14v40h206v-40l-77 -30h1l-188 -362v-218l80 -10v-40h-264zM386 918h108l-132 -142h-52z" />
    <glyph glyph-name="Thorn" unicode="&#xde;" horiz-adv-x="620" 
d="M212 514v-288h121c29 0 85 1 121 38c31 32 33 82 33 110c0 31 -4 76 -30 103c-34 36 -100 37 -124 37h-121zM38 700h244v-40l-56 -20l-14 -20v-45h140c61 0 128 -1 179 -44c52 -44 60 -110 60 -158c0 -36 -5 -114 -62 -162c-54 -44 -142 -46 -177 -46h-140v-115l80 -10
v-40h-254v40l56 20l14 20v570l-70 10v40z" />
    <glyph glyph-name="germandbls" unicode="&#xdf;" horiz-adv-x="647" 
d="M188 0h-153v34l54 20l6 15v504c0 121 26 188 189 188c123 0 218 -57 218 -171c0 -34 -13 -76 -25 -108c-65 0 -116 -10 -116 -74c0 -52 36 -68 76 -86c7 -3 19 -9 32 -14c36 -15 76 -34 100 -61c24 -29 32 -62 32 -92c0 -120 -83 -167 -184 -167c-38 0 -86 4 -143 22
l-9 131h39l51 -89c26 -7 43 -8 61 -8c69 0 85 44 85 89c0 17 -1 51 -19 69s-52 34 -81 46l-17 7c-66 27 -121 59 -121 141c0 100 71 141 140 143c4 17 5 33 5 43c0 73 -41 122 -131 123c-68 0 -89 -37 -89 -133v-572z" />
    <glyph glyph-name="agrave" unicode="&#xe0;" 
d="M74 510c58 13 127 22 187 22c35 0 112 -2 151 -41c42 -42 40 -111 40 -152v-285l64 -20v-34l-158 -12v59c-64 -55 -116 -59 -171 -59c-27 0 -71 1 -104 32c-25 23 -41 65 -41 116c0 45 12 81 42 108c35 31 91 39 141 45l133 17v40c0 29 0 78 -23 103
c-14 15 -40 27 -78 27c-13 0 -54 -1 -89 -12l-34 -89h-50zM358 106v142l-116 -16c-36 -5 -60 -9 -80 -29s-20 -53 -20 -69c0 -25 4 -55 19 -71s38 -19 53 -19c62 0 116 37 144 62zM107 750h104l78 -163h-52z" />
    <glyph glyph-name="aacute" unicode="&#xe1;" 
d="M74 510c58 13 127 22 187 22c35 0 112 -2 151 -41c42 -42 40 -111 40 -152v-285l64 -20v-34l-158 -12v59c-64 -55 -116 -59 -171 -59c-27 0 -71 1 -104 32c-25 23 -41 65 -41 116c0 45 12 81 42 108c35 31 91 39 141 45l133 17v40c0 29 0 78 -23 103
c-14 15 -40 27 -78 27c-13 0 -54 -1 -89 -12l-34 -89h-50zM358 106v142l-116 -16c-36 -5 -60 -9 -80 -29s-20 -53 -20 -69c0 -25 4 -55 19 -71s38 -19 53 -19c62 0 116 37 144 62zM301 750h104l-130 -163h-52z" />
    <glyph glyph-name="acircumflex" unicode="&#xe2;" 
d="M74 510c58 13 127 22 187 22c35 0 112 -2 151 -41c42 -42 40 -111 40 -152v-285l64 -20v-34l-158 -12v59c-64 -55 -116 -59 -171 -59c-27 0 -71 1 -104 32c-25 23 -41 65 -41 116c0 45 12 81 42 108c35 31 91 39 141 45l133 17v40c0 29 0 78 -23 103
c-14 15 -40 27 -78 27c-13 0 -54 -1 -89 -12l-34 -89h-50zM358 106v142l-116 -16c-36 -5 -60 -9 -80 -29s-20 -53 -20 -69c0 -25 4 -55 19 -71s38 -19 53 -19c62 0 116 37 144 62zM224 746h76l113 -143h-54l-97 80l-97 -80h-54z" />
    <glyph glyph-name="atilde" unicode="&#xe3;" 
d="M74 510c58 13 127 22 187 22c35 0 112 -2 151 -41c42 -42 40 -111 40 -152v-285l64 -20v-34l-158 -12v59c-64 -55 -116 -59 -171 -59c-27 0 -71 1 -104 32c-25 23 -41 65 -41 116c0 45 12 81 42 108c35 31 91 39 141 45l133 17v40c0 29 0 78 -23 103
c-14 15 -40 27 -78 27c-13 0 -54 -1 -89 -12l-34 -89h-50zM358 106v142l-116 -16c-36 -5 -60 -9 -80 -29s-20 -53 -20 -69c0 -25 4 -55 19 -71s38 -19 53 -19c62 0 116 37 144 62zM142 640l-42 24c18 41 52 82 102 82c19 0 42 -4 66 -20l17 -11c18 -11 31 -17 49 -17
s37 18 48 39l43 -26c-17 -40 -52 -83 -102 -83c-22 0 -46 8 -63 19l-20 13c-20 13 -30 16 -49 16c-17 0 -35 -15 -49 -36z" />
    <glyph glyph-name="adieresis" unicode="&#xe4;" 
d="M74 510c58 13 127 22 187 22c35 0 112 -2 151 -41c42 -42 40 -111 40 -152v-285l64 -20v-34l-158 -12v59c-64 -55 -116 -59 -171 -59c-27 0 -71 1 -104 32c-25 23 -41 65 -41 116c0 45 12 81 42 108c35 31 91 39 141 45l133 17v40c0 29 0 78 -23 103
c-14 15 -40 27 -78 27c-13 0 -54 -1 -89 -12l-34 -89h-50zM358 106v142l-116 -16c-36 -5 -60 -9 -80 -29s-20 -53 -20 -69c0 -25 4 -55 19 -71s38 -19 53 -19c62 0 116 37 144 62zM108 694c0 32 26 57 58 57c33 0 59 -25 59 -57c0 -31 -26 -56 -59 -56c-32 0 -58 25 -58 56z
M298 694c0 32 26 57 58 57c33 0 59 -25 59 -57c0 -31 -26 -56 -59 -56c-32 0 -58 25 -58 56z" />
    <glyph glyph-name="aring" unicode="&#xe5;" 
d="M74 510c58 13 127 22 187 22c35 0 112 -2 151 -41c42 -42 40 -111 40 -152v-285l64 -20v-34l-158 -12v59c-64 -55 -116 -59 -171 -59c-27 0 -71 1 -104 32c-25 23 -41 65 -41 116c0 45 12 81 42 108c35 31 91 39 141 45l133 17v40c0 29 0 78 -23 103
c-14 15 -40 27 -78 27c-13 0 -54 -1 -89 -12l-34 -89h-50zM358 106v142l-116 -16c-36 -5 -60 -9 -80 -29s-20 -53 -20 -69c0 -25 4 -55 19 -71s38 -19 53 -19c62 0 116 37 144 62zM197 682c0 -30 25 -55 55 -55s54 25 54 55s-24 55 -54 55s-55 -25 -55 -55zM151 683
c0 56 45 101 101 101c55 0 100 -45 100 -101s-45 -101 -100 -101c-56 0 -101 45 -101 101z" />
    <glyph glyph-name="ae" unicode="&#xe6;" horiz-adv-x="846" 
d="M806 283l-354 -30c1 -56 15 -133 45 -168s68 -41 106 -41c66 0 126 22 168 42l26 -42c-35 -22 -101 -56 -209 -56c-50 0 -136 7 -191 91c-87 -84 -153 -91 -210 -91c-27 0 -71 1 -104 32c-24 23 -40 65 -40 116c0 56 23 90 41 108c15 14 52 37 158 46l115 10v46
c0 29 0 78 -22 103c-14 15 -40 27 -78 27c-13 0 -54 -2 -89 -12l-34 -90h-50l-11 136c78 18 148 22 188 22c105 0 144 -40 161 -73c23 37 65 73 172 73c38 0 109 -4 155 -52c44 -46 57 -123 57 -197zM215 44c71 0 136 51 163 76c-12 32 -20 86 -20 127l-115 -13
c-25 -3 -61 -8 -80 -29c-14 -15 -20 -42 -20 -71c0 -8 0 -51 19 -71c15 -16 38 -19 53 -19zM452 304l254 21c-1 26 -9 78 -26 106c-21 35 -55 45 -88 45c-28 0 -72 -6 -103 -44c-24 -29 -36 -87 -37 -128z" />
    <glyph glyph-name="ccedilla" unicode="&#xe7;" horiz-adv-x="500" 
d="M447 86l25 -43c-56 -39 -122 -53 -180 -55l-13 -39c73 -1 113 -20 113 -81c0 -80 -82 -91 -127 -91c-29 0 -67 6 -100 19l17 41c22 -8 47 -15 74 -15c37 0 59 13 59 45s-20 41 -54 41c-20 0 -33 -2 -48 -3l29 86c-54 7 -98 26 -124 49c-62 57 -70 146 -70 220
c0 73 6 165 67 220c40 37 105 52 172 52c48 0 119 -8 173 -22l-20 -142h-50l-23 96c-24 7 -52 12 -82 12c-29 0 -69 -8 -96 -36c-33 -35 -41 -104 -41 -180c0 -62 5 -136 43 -177c30 -32 70 -39 106 -39c23 0 80 3 150 42z" />
    <glyph glyph-name="egrave" unicode="&#xe8;" 
d="M502 281l-354 -47c1 -48 13 -113 44 -149c30 -35 68 -41 106 -41c67 0 127 22 169 42l25 -43c-74 -47 -157 -55 -209 -55c-87 0 -138 28 -165 52c-62 57 -70 146 -70 220c0 57 5 158 68 218c52 50 134 54 173 54c40 0 109 -5 156 -52c49 -50 58 -133 57 -199zM147 291
l255 34c-1 25 -8 77 -26 106c-22 35 -55 45 -89 45c-28 0 -73 -6 -103 -44c-25 -31 -36 -100 -37 -141zM124 750h104l78 -163h-52z" />
    <glyph glyph-name="eacute" unicode="&#xe9;" 
d="M502 281l-354 -47c1 -48 13 -113 44 -149c30 -35 68 -41 106 -41c67 0 127 22 169 42l25 -43c-74 -47 -157 -55 -209 -55c-87 0 -138 28 -165 52c-62 57 -70 146 -70 220c0 57 5 158 68 218c52 50 134 54 173 54c40 0 109 -5 156 -52c49 -50 58 -133 57 -199zM147 291
l255 34c-1 25 -8 77 -26 106c-22 35 -55 45 -89 45c-28 0 -73 -6 -103 -44c-25 -31 -36 -100 -37 -141zM329 750h104l-130 -163h-52z" />
    <glyph glyph-name="ecircumflex" unicode="&#xea;" 
d="M502 281l-354 -47c1 -48 13 -113 44 -149c30 -35 68 -41 106 -41c67 0 127 22 169 42l25 -43c-74 -47 -157 -55 -209 -55c-87 0 -138 28 -165 52c-62 57 -70 146 -70 220c0 57 5 158 68 218c52 50 134 54 173 54c40 0 109 -5 156 -52c49 -50 58 -133 57 -199zM147 291
l255 34c-1 25 -8 77 -26 106c-22 35 -55 45 -89 45c-28 0 -73 -6 -103 -44c-25 -31 -36 -100 -37 -141zM240 746h76l113 -143h-54l-97 80l-97 -80h-54z" />
    <glyph glyph-name="edieresis" unicode="&#xeb;" 
d="M502 281l-354 -47c1 -48 13 -113 44 -149c30 -35 68 -41 106 -41c67 0 127 22 169 42l25 -43c-74 -47 -157 -55 -209 -55c-87 0 -138 28 -165 52c-62 57 -70 146 -70 220c0 57 5 158 68 218c52 50 134 54 173 54c40 0 109 -5 156 -52c49 -50 58 -133 57 -199zM147 291
l255 34c-1 25 -8 77 -26 106c-22 35 -55 45 -89 45c-28 0 -73 -6 -103 -44c-25 -31 -36 -100 -37 -141zM124 694c0 32 26 57 58 57c33 0 59 -25 59 -57c0 -31 -26 -56 -59 -56c-32 0 -58 25 -58 56zM314 694c0 32 26 57 58 57c33 0 59 -25 59 -57c0 -31 -26 -56 -59 -56
c-32 0 -58 25 -58 56z" />
    <glyph glyph-name="igrave" unicode="&#xec;" horiz-adv-x="284" 
d="M190 532v-478h-1l71 -20v-34h-224v34l54 20l6 16v396l-72 20v34zM-11 750h104l78 -163h-52z" />
    <glyph glyph-name="iacute" unicode="&#xed;" horiz-adv-x="284" 
d="M190 532v-478h-1l71 -20v-34h-224v34l54 20l6 16v396l-72 20v34zM191 750h104l-130 -163h-52z" />
    <glyph glyph-name="icircumflex" unicode="&#xee;" horiz-adv-x="284" 
d="M190 532v-478h-1l71 -20v-34h-224v34l54 20l6 16v396l-72 20v34zM104 746h76l113 -143h-54l-97 80l-97 -80h-54z" />
    <glyph glyph-name="idieresis" unicode="&#xef;" horiz-adv-x="284" 
d="M190 532v-478h-1l71 -20v-34h-224v34l54 20l6 16v396l-72 20v34zM-12 694c0 32 26 57 58 57c33 0 59 -25 59 -57c0 -31 -26 -56 -59 -56c-32 0 -58 25 -58 56zM178 694c0 32 26 57 58 57c33 0 59 -25 59 -57c0 -31 -26 -56 -59 -56c-32 0 -58 25 -58 56z" />
    <glyph glyph-name="eth" unicode="&#xf0;" horiz-adv-x="576" 
d="M146 260c0 -52 5 -137 37 -176c26 -32 72 -40 104 -40c34 0 80 8 105 40c32 39 37 124 37 176c0 51 -8 106 -36 146c-32 36 -74 55 -119 55c-98 0 -128 -108 -128 -201zM157 718l96 43c40 -19 77 -43 103 -66l95 52l34 -54l-85 -45c52 -68 104 -176 115 -251
c5 -33 12 -94 12 -137c0 -51 -2 -155 -66 -219c-51 -51 -130 -53 -174 -53c-46 0 -121 2 -172 53c-60 60 -67 147 -67 219c0 132 38 257 219 257c45 0 85 -10 119 -30c-17 38 -40 78 -68 114l-114 -64l-32 53l102 59c-29 23 -56 36 -111 44z" />
    <glyph glyph-name="ntilde" unicode="&#xf1;" horiz-adv-x="612" 
d="M190 532v-71c48 59 112 71 164 71c33 0 90 -3 128 -43c40 -41 42 -99 42 -154v-281l64 -20v-34h-218v34l54 20l6 16v263c0 64 -8 89 -17 104c-20 34 -52 39 -74 39c-76 0 -127 -60 -149 -96v-326l70 -20v-34h-224v34l54 20l6 16v396l-72 20v34zM196 640l-42 24
c18 41 52 82 102 82c19 0 42 -4 66 -20l17 -11c18 -11 31 -17 49 -17s37 18 48 39l43 -26c-17 -40 -52 -83 -102 -83c-22 0 -46 8 -63 19l-20 13c-20 13 -30 16 -49 16c-17 0 -35 -15 -49 -36z" />
    <glyph glyph-name="ograve" unicode="&#xf2;" horiz-adv-x="580" 
d="M48 260c0 71 6 165 66 221c52 49 130 51 176 51s124 -2 176 -51c60 -56 66 -150 66 -221s-6 -165 -66 -221c-52 -49 -130 -51 -176 -51s-124 2 -176 51c-60 56 -66 150 -66 221zM146 260c0 -123 31 -164 38 -174c28 -36 74 -42 106 -42s78 6 106 42c7 10 38 51 38 174
s-31 164 -38 174c-28 36 -74 42 -106 42s-78 -6 -106 -42c-7 -10 -38 -51 -38 -174zM137 750h104l78 -163h-52z" />
    <glyph glyph-name="oacute" unicode="&#xf3;" horiz-adv-x="580" 
d="M48 260c0 71 6 165 66 221c52 49 130 51 176 51s124 -2 176 -51c60 -56 66 -150 66 -221s-6 -165 -66 -221c-52 -49 -130 -51 -176 -51s-124 2 -176 51c-60 56 -66 150 -66 221zM146 260c0 -123 31 -164 38 -174c28 -36 74 -42 106 -42s78 6 106 42c7 10 38 51 38 174
s-31 164 -38 174c-28 36 -74 42 -106 42s-78 -6 -106 -42c-7 -10 -38 -51 -38 -174zM337 750h104l-130 -163h-52z" />
    <glyph glyph-name="ocircumflex" unicode="&#xf4;" horiz-adv-x="580" 
d="M48 260c0 71 6 165 66 221c52 49 130 51 176 51s124 -2 176 -51c60 -56 66 -150 66 -221s-6 -165 -66 -221c-52 -49 -130 -51 -176 -51s-124 2 -176 51c-60 56 -66 150 -66 221zM146 260c0 -123 31 -164 38 -174c28 -36 74 -42 106 -42s78 6 106 42c7 10 38 51 38 174
s-31 164 -38 174c-28 36 -74 42 -106 42s-78 -6 -106 -42c-7 -10 -38 -51 -38 -174zM252 746h76l113 -143h-54l-97 80l-97 -80h-54z" />
    <glyph glyph-name="otilde" unicode="&#xf5;" horiz-adv-x="580" 
d="M48 260c0 71 6 165 66 221c52 49 130 51 176 51s124 -2 176 -51c60 -56 66 -150 66 -221s-6 -165 -66 -221c-52 -49 -130 -51 -176 -51s-124 2 -176 51c-60 56 -66 150 -66 221zM146 260c0 -123 31 -164 38 -174c28 -36 74 -42 106 -42s78 6 106 42c7 10 38 51 38 174
s-31 164 -38 174c-28 36 -74 42 -106 42s-78 -6 -106 -42c-7 -10 -38 -51 -38 -174zM170 640l-42 24c18 41 52 82 102 82c19 0 42 -4 66 -20l17 -11c18 -11 31 -17 49 -17s37 18 48 39l43 -26c-17 -40 -52 -83 -102 -83c-22 0 -46 8 -63 19l-20 13c-20 13 -30 16 -49 16
c-17 0 -35 -15 -49 -36z" />
    <glyph glyph-name="odieresis" unicode="&#xf6;" horiz-adv-x="580" 
d="M48 260c0 71 6 165 66 221c52 49 130 51 176 51s124 -2 176 -51c60 -56 66 -150 66 -221s-6 -165 -66 -221c-52 -49 -130 -51 -176 -51s-124 2 -176 51c-60 56 -66 150 -66 221zM146 260c0 -123 31 -164 38 -174c28 -36 74 -42 106 -42s78 6 106 42c7 10 38 51 38 174
s-31 164 -38 174c-28 36 -74 42 -106 42s-78 -6 -106 -42c-7 -10 -38 -51 -38 -174zM136 694c0 32 26 57 58 57c33 0 59 -25 59 -57c0 -31 -26 -56 -59 -56c-32 0 -58 25 -58 56zM326 694c0 32 26 57 58 57c33 0 59 -25 59 -57c0 -31 -26 -56 -59 -56c-32 0 -58 25 -58 56z
" />
    <glyph glyph-name="divide" unicode="&#xf7;" horiz-adv-x="560" 
d="M35 335h489v-62h-489v62zM218 490c0 34 27 60 61 60s61 -26 61 -60s-27 -61 -61 -61s-61 27 -61 61zM218 119c0 34 27 60 61 60s61 -26 61 -60s-27 -61 -61 -61s-61 27 -61 61z" />
    <glyph glyph-name="oslash" unicode="&#xf8;" horiz-adv-x="580" 
d="M48 260c0 71 6 165 66 221c52 49 130 51 176 51c39 0 102 -2 152 -33l55 69l46 -35l-58 -73c42 -57 47 -138 47 -200c0 -71 -6 -165 -66 -221c-52 -49 -130 -51 -176 -51c-40 0 -104 2 -154 33l-53 -67l-46 35l57 72c-41 56 -46 136 -46 199zM434 260c0 54 -6 92 -14 119
l-234 -296c28 -33 73 -39 104 -39c32 0 78 6 106 42c7 10 38 51 38 174zM146 260c0 -54 6 -92 13 -118l234 295c-28 33 -72 39 -103 39c-32 0 -78 -6 -106 -42c-7 -10 -38 -51 -38 -174z" />
    <glyph glyph-name="ugrave" unicode="&#xf9;" horiz-adv-x="620" 
d="M190 532v-343c0 -78 10 -100 15 -109c10 -18 31 -36 68 -36c59 0 120 39 157 102v320l-72 20v34l166 12v-478l72 -21v-33l-166 -12v77c-52 -65 -123 -77 -170 -77c-68 0 -105 23 -124 43c-39 41 -40 100 -40 154v281l-72 20v34zM138 750h104l78 -163h-52z" />
    <glyph glyph-name="uacute" unicode="&#xfa;" horiz-adv-x="620" 
d="M190 532v-343c0 -78 10 -100 15 -109c10 -18 31 -36 68 -36c59 0 120 39 157 102v320l-72 20v34l166 12v-478l72 -21v-33l-166 -12v77c-52 -65 -123 -77 -170 -77c-68 0 -105 23 -124 43c-39 41 -40 100 -40 154v281l-72 20v34zM339 750h104l-130 -163h-52z" />
    <glyph glyph-name="ucircumflex" unicode="&#xfb;" horiz-adv-x="620" 
d="M190 532v-343c0 -78 10 -100 15 -109c10 -18 31 -36 68 -36c59 0 120 39 157 102v320l-72 20v34l166 12v-478l72 -21v-33l-166 -12v77c-52 -65 -123 -77 -170 -77c-68 0 -105 23 -124 43c-39 41 -40 100 -40 154v281l-72 20v34zM262 746h76l113 -143h-54l-97 80l-97 -80
h-54z" />
    <glyph glyph-name="udieresis" unicode="&#xfc;" horiz-adv-x="620" 
d="M190 532v-343c0 -78 10 -100 15 -109c10 -18 31 -36 68 -36c59 0 120 39 157 102v320l-72 20v34l166 12v-478l72 -21v-33l-166 -12v77c-52 -65 -123 -77 -170 -77c-68 0 -105 23 -124 43c-39 41 -40 100 -40 154v281l-72 20v34zM146 694c0 32 26 57 58 57
c33 0 59 -25 59 -57c0 -31 -26 -56 -59 -56c-32 0 -58 25 -58 56zM336 694c0 32 26 57 58 57c33 0 59 -25 59 -57c0 -31 -26 -56 -59 -56c-32 0 -58 25 -58 56z" />
    <glyph glyph-name="yacute" unicode="&#xfd;" horiz-adv-x="580" 
d="M18 520h210v-33l-44 -27l132 -344l122 360l-66 10v34h190v-34l-62 -26l-189 -533c-13 -37 -33 -83 -66 -116c-30 -30 -59 -43 -110 -43c-29 0 -64 5 -105 26l30 112h50l20 -82c16 -2 40 0 63 22c19 19 43 66 51 90l21 64l-187 470l-60 16v34zM348 750h104l-130 -163h-52z
" />
    <glyph glyph-name="thorn" unicode="&#xfe;" horiz-adv-x="600" 
d="M96 -152v827l-72 20v32l165 34v-305c21 30 67 76 156 76c62 0 113 -20 144 -52c47 -48 63 -129 63 -220s-14 -169 -67 -220c-47 -45 -104 -52 -153 -52c-45 0 -94 5 -143 40v-195l80 -20v-32h-239v32l60 20zM189 376v-291c47 -34 94 -41 126 -41c40 0 75 10 98 40
c35 45 39 134 39 184c0 64 -6 126 -36 167c-21 31 -46 41 -82 41c-57 0 -116 -41 -145 -100z" />
    <glyph glyph-name="ydieresis" unicode="&#xff;" horiz-adv-x="580" 
d="M18 520h210v-33l-44 -27l132 -344l122 360l-66 10v34h190v-34l-62 -26l-189 -533c-13 -37 -33 -83 -66 -116c-30 -30 -59 -43 -110 -43c-29 0 -64 5 -105 26l30 112h50l20 -82c16 -2 40 0 63 22c19 19 43 66 51 90l21 64l-187 470l-60 16v34zM144 694c0 32 26 57 58 57
c33 0 59 -25 59 -57c0 -31 -26 -56 -59 -56c-32 0 -58 25 -58 56zM334 694c0 32 26 57 58 57c33 0 59 -25 59 -57c0 -31 -26 -56 -59 -56c-32 0 -58 25 -58 56z" />
    <glyph glyph-name="Amacron" unicode="&#x100;" horiz-adv-x="680" 
d="M309 700h76l237 -650l50 -10v-40h-244v40l63 20h-1l10 20l-39 109h-274l-51 -139l70 -10v-40h-198v39l61 31h-1zM209 251h230l-112 320zM495 804h-308v54h308v-54z" />
    <glyph glyph-name="amacron" unicode="&#x101;" 
d="M74 510c58 13 127 22 187 22c35 0 112 -2 151 -41c42 -42 40 -111 40 -152v-285l64 -20v-34l-158 -12v59c-64 -55 -116 -59 -171 -59c-27 0 -71 1 -104 32c-25 23 -41 65 -41 116c0 45 12 81 42 108c35 31 91 39 141 45l133 17v40c0 29 0 78 -23 103
c-14 15 -40 27 -78 27c-13 0 -54 -1 -89 -12l-34 -89h-50zM358 106v142l-116 -16c-36 -5 -60 -9 -80 -29s-20 -53 -20 -69c0 -25 4 -55 19 -71s38 -19 53 -19c62 0 116 37 144 62zM137 657v47h266v-47h-266z" />
    <glyph glyph-name="Abreve" unicode="&#x102;" horiz-adv-x="680" 
d="M309 700h76l237 -650l50 -10v-40h-244v40l63 20h-1l10 20l-39 109h-274l-51 -139l70 -10v-40h-198v39l61 31h-1zM209 251h230l-112 320zM347 771c-83 0 -130 25 -155 78v69h46c0 -56 57 -67 108 -67c55 0 108 9 108 67h46v-69c-25 -53 -84 -78 -153 -78z" />
    <glyph glyph-name="abreve" unicode="&#x103;" 
d="M74 510c58 13 127 22 187 22c35 0 112 -2 151 -41c42 -42 40 -111 40 -152v-285l64 -20v-34l-158 -12v59c-64 -55 -116 -59 -171 -59c-27 0 -71 1 -104 32c-25 23 -41 65 -41 116c0 45 12 81 42 108c35 31 91 39 141 45l133 17v40c0 29 0 78 -23 103
c-14 15 -40 27 -78 27c-13 0 -54 -1 -89 -12l-34 -89h-50zM358 106v142l-116 -16c-36 -5 -60 -9 -80 -29s-20 -53 -20 -69c0 -25 4 -55 19 -71s38 -19 53 -19c62 0 116 37 144 62zM262 608c-86 0 -128 21 -155 78v69h44c0 -60 62 -70 110 -70c53 0 110 8 110 70h44v-69
c-27 -57 -82 -78 -153 -78z" />
    <glyph glyph-name="Aogonek" unicode="&#x104;" horiz-adv-x="680" 
d="M555 -133c0 -28 18 -42 49 -42c18 0 42 7 64 17l12 -41c-25 -15 -54 -23 -87 -23c-71 0 -122 34 -122 86c0 41 27 69 56 91c18 13 43 30 66 45h-165v40l63 20h-1l10 20l-39 109h-274l-51 -139l70 -10v-40h-198v39l61 31h-1l241 630h76l237 -650l50 -10v-40h-17
c-44 -36 -54 -46 -67 -62c-21 -23 -33 -49 -33 -71zM209 251h230l-112 320z" />
    <glyph glyph-name="aogonek" unicode="&#x105;" 
d="M396 -134c0 -28 20 -43 51 -43c19 0 42 6 63 16l13 -40c-24 -13 -54 -21 -89 -21c-71 0 -113 36 -113 85c0 35 22 65 53 92c15 13 37 28 53 39l-69 -6v59c-64 -55 -116 -59 -171 -59c-27 0 -71 1 -104 32c-25 23 -41 65 -41 116c0 45 12 81 42 108c35 31 91 39 141 45
l133 17v40c0 29 0 78 -23 103c-14 15 -40 27 -78 27c-13 0 -54 -1 -89 -12l-34 -89h-50l-10 135c58 13 127 22 187 22c35 0 112 -2 151 -41c42 -42 40 -111 40 -152v-285l64 -20v-34l-21 -1c-42 -35 -56 -49 -69 -63c-21 -23 -30 -46 -30 -70zM358 106v142l-116 -16
c-36 -5 -60 -9 -80 -29s-20 -53 -20 -69c0 -25 4 -55 19 -71s38 -19 53 -19c62 0 116 37 144 62z" />
    <glyph glyph-name="Cacute" unicode="&#x106;" horiz-adv-x="600" 
d="M560 690l10 -162h-46l-44 106c-34 17 -65 24 -109 24s-103 -9 -145 -58c-41 -47 -58 -128 -58 -250c0 -159 31 -220 54 -249c40 -48 99 -59 144 -59s82 8 114 24l56 86h44l-40 -131c-43 -19 -99 -37 -183 -37c-52 0 -147 6 -213 70c-79 76 -86 196 -86 296
c0 91 11 225 91 298c73 66 202 68 227 68c53 0 118 -8 184 -26zM404 918h108l-132 -142h-52z" />
    <glyph glyph-name="cacute" unicode="&#x107;" horiz-adv-x="500" 
d="M447 86l25 -43c-59 -41 -129 -55 -189 -55c-74 0 -132 24 -165 52c-62 57 -70 146 -70 220c0 73 6 165 67 220c40 37 105 52 172 52c48 0 119 -8 173 -22l-20 -142h-50l-23 96c-24 7 -52 12 -82 12c-29 0 -69 -8 -96 -36c-33 -35 -41 -104 -41 -180c0 -62 5 -136 43 -177
c30 -32 70 -39 106 -39c23 0 80 3 150 42zM333 750h104l-130 -163h-52z" />
    <glyph glyph-name="Ccircumflex" unicode="&#x108;" horiz-adv-x="600" 
d="M560 690l10 -162h-46l-44 106c-34 17 -65 24 -109 24s-103 -9 -145 -58c-41 -47 -58 -128 -58 -250c0 -159 31 -220 54 -249c40 -48 99 -59 144 -59s82 8 114 24l56 86h44l-40 -131c-43 -19 -99 -37 -183 -37c-52 0 -147 6 -213 70c-79 76 -86 196 -86 296
c0 91 11 225 91 298c73 66 202 68 227 68c53 0 118 -8 184 -26zM327 918h76l114 -142h-57l-95 74l-95 -74h-57z" />
    <glyph glyph-name="ccircumflex" unicode="&#x109;" horiz-adv-x="500" 
d="M447 86l25 -43c-59 -41 -129 -55 -189 -55c-74 0 -132 24 -165 52c-62 57 -70 146 -70 220c0 73 6 165 67 220c40 37 105 52 172 52c48 0 119 -8 173 -22l-20 -142h-50l-23 96c-24 7 -52 12 -82 12c-29 0 -69 -8 -96 -36c-33 -35 -41 -104 -41 -180c0 -62 5 -136 43 -177
c30 -32 70 -39 106 -39c23 0 80 3 150 42zM248 746h76l113 -143h-54l-97 80l-97 -80h-54z" />
    <glyph glyph-name="Cdotaccent" unicode="&#x10a;" horiz-adv-x="600" 
d="M560 690l10 -162h-46l-44 106c-34 17 -65 24 -109 24s-103 -9 -145 -58c-41 -47 -58 -128 -58 -250c0 -159 31 -220 54 -249c40 -48 99 -59 144 -59s82 8 114 24l56 86h44l-40 -131c-43 -19 -99 -37 -183 -37c-52 0 -147 6 -213 70c-79 76 -86 196 -86 296
c0 91 11 225 91 298c73 66 202 68 227 68c53 0 118 -8 184 -26zM302 830c0 35 26 62 61 62c36 0 63 -27 63 -62c0 -34 -27 -60 -63 -60c-35 0 -61 26 -61 60z" />
    <glyph glyph-name="cdotaccent" unicode="&#x10b;" horiz-adv-x="500" 
d="M447 86l25 -43c-59 -41 -129 -55 -189 -55c-74 0 -132 24 -165 52c-62 57 -70 146 -70 220c0 73 6 165 67 220c40 37 105 52 172 52c48 0 119 -8 173 -22l-20 -142h-50l-23 96c-24 7 -52 12 -82 12c-29 0 -69 -8 -96 -36c-33 -35 -41 -104 -41 -180c0 -62 5 -136 43 -177
c30 -32 70 -39 106 -39c23 0 80 3 150 42zM224 694c0 32 26 57 58 57c33 0 59 -25 59 -57c0 -31 -26 -56 -59 -56c-32 0 -58 25 -58 56z" />
    <glyph glyph-name="Ccaron" unicode="&#x10c;" horiz-adv-x="600" 
d="M560 690l10 -162h-46l-44 106c-34 17 -65 24 -109 24s-103 -9 -145 -58c-41 -47 -58 -128 -58 -250c0 -159 31 -220 54 -249c40 -48 99 -59 144 -59s82 8 114 24l56 86h44l-40 -131c-43 -19 -99 -37 -183 -37c-52 0 -147 6 -213 70c-79 76 -86 196 -86 296
c0 91 11 225 91 298c73 66 202 68 227 68c53 0 118 -8 184 -26zM408 776h-76l-114 142h57l95 -74l95 74h57z" />
    <glyph glyph-name="ccaron" unicode="&#x10d;" horiz-adv-x="500" 
d="M447 86l25 -43c-59 -41 -129 -55 -189 -55c-74 0 -132 24 -165 52c-62 57 -70 146 -70 220c0 73 6 165 67 220c40 37 105 52 172 52c48 0 119 -8 173 -22l-20 -142h-50l-23 96c-24 7 -52 12 -82 12c-29 0 -69 -8 -96 -36c-33 -35 -41 -104 -41 -180c0 -62 5 -136 43 -177
c30 -32 70 -39 106 -39c23 0 80 3 150 42zM323 603h-76l-113 143h54l97 -80l97 80h54z" />
    <glyph glyph-name="Dcaron" unicode="&#x10e;" horiz-adv-x="710" 
d="M38 700h303c83 0 165 -9 226 -66c77 -73 85 -190 85 -284s-8 -211 -85 -284c-61 -57 -143 -66 -226 -66h-303v40l57 20h-1l14 20v570l-70 10v40zM212 638v-576h129c55 0 111 10 148 56c41 50 53 137 53 232s-12 182 -53 232c-37 46 -93 56 -148 56h-129zM370 776h-76
l-114 142h57l95 -74l95 74h57z" />
    <glyph glyph-name="dcaron" unicode="&#x10f;" horiz-adv-x="600" 
d="M504 762v-708l72 -21v-33l-166 -12v76c-49 -69 -118 -76 -154 -76c-51 0 -101 9 -143 52c-51 51 -65 126 -65 220c0 90 14 169 67 220c47 45 105 52 154 52c45 0 92 -5 141 -40v182h2l-74 20v34zM410 146v288h1c-48 35 -93 42 -125 42c-40 0 -75 -9 -99 -40
c-35 -45 -39 -134 -39 -184c0 -65 6 -125 36 -167c22 -31 47 -41 83 -41c68 0 118 52 143 102zM584 766l102 -18c-4 -30 -12 -61 -29 -103c-12 -29 -29 -66 -44 -87l-46 20c7 22 13 58 15 77c3 29 4 51 4 76c0 12 0 23 -2 35z" />
    <glyph glyph-name="Dcroat" unicode="&#x110;" horiz-adv-x="710" 
d="M212 317v-255h129c55 0 111 10 148 56c41 50 53 137 53 232s-12 182 -53 232c-37 46 -93 56 -148 56h-129v-259h147v-62h-147zM108 317h-98v62h98v271l-70 10v40h303c83 0 165 -9 226 -66c77 -73 85 -190 85 -284s-8 -211 -85 -284c-61 -57 -143 -66 -226 -66h-303v40
l57 20h-1l14 20v237z" />
    <glyph glyph-name="dcroat" unicode="&#x111;" horiz-adv-x="600" 
d="M408 641v34l-71 20v32l165 34v-120h80v-58h-80v-529l72 -20v-34l-166 -12v76c-48 -69 -117 -76 -153 -76c-51 0 -101 9 -142 52c-51 51 -65 125 -65 220c0 91 14 169 67 220c46 45 104 52 153 52c45 0 92 -5 140 -40v91h-163v58h163zM408 144v291c-46 34 -91 41 -123 41
c-40 0 -75 -9 -99 -40c-35 -44 -39 -134 -39 -184c0 -64 6 -125 36 -167c22 -31 47 -41 83 -41c68 0 118 51 142 100z" />
    <glyph glyph-name="Emacron" unicode="&#x112;" horiz-adv-x="560" 
d="M38 700h478l10 -142h-43l-27 65l-19 15h-225v-237h171l19 16l10 48h40v-196h-40l-10 54l-19 16h-171v-277h227l19 15l36 95h46l-20 -172h-482v40l57 20h-1l14 20v570l-70 10v40zM435 804h-308v54h308v-54z" />
    <glyph glyph-name="emacron" unicode="&#x113;" 
d="M502 281l-354 -47c1 -48 13 -113 44 -149c30 -35 68 -41 106 -41c67 0 127 22 169 42l25 -43c-74 -47 -157 -55 -209 -55c-87 0 -138 28 -165 52c-62 57 -70 146 -70 220c0 57 5 158 68 218c52 50 134 54 173 54c40 0 109 -5 156 -52c49 -50 58 -133 57 -199zM147 291
l255 34c-1 25 -8 77 -26 106c-22 35 -55 45 -89 45c-28 0 -73 -6 -103 -44c-25 -31 -36 -100 -37 -141zM144 657v47h266v-47h-266z" />
    <glyph glyph-name="Edotaccent" unicode="&#x116;" horiz-adv-x="560" 
d="M38 700h478l10 -142h-43l-27 65l-19 15h-225v-237h171l19 16l10 48h40v-196h-40l-10 54l-19 16h-171v-277h227l19 15l36 95h46l-20 -172h-482v40l57 20h-1l14 20v570l-70 10v40zM227 830c0 35 26 62 61 62c36 0 63 -27 63 -62c0 -34 -27 -60 -63 -60c-35 0 -61 26 -61 60
z" />
    <glyph glyph-name="edotaccent" unicode="&#x117;" 
d="M502 281l-354 -47c1 -48 13 -113 44 -149c30 -35 68 -41 106 -41c67 0 127 22 169 42l25 -43c-74 -47 -157 -55 -209 -55c-87 0 -138 28 -165 52c-62 57 -70 146 -70 220c0 57 5 158 68 218c52 50 134 54 173 54c40 0 109 -5 156 -52c49 -50 58 -133 57 -199zM147 291
l255 34c-1 25 -8 77 -26 106c-22 35 -55 45 -89 45c-28 0 -73 -6 -103 -44c-25 -31 -36 -100 -37 -141zM218 694c0 32 26 57 58 57c33 0 59 -25 59 -57c0 -31 -26 -56 -59 -56c-32 0 -58 25 -58 56z" />
    <glyph glyph-name="Eogonek" unicode="&#x118;" horiz-adv-x="560" 
d="M408 -133c0 -28 18 -42 49 -42c18 0 42 7 64 17l12 -41c-25 -15 -54 -23 -87 -23c-71 0 -122 34 -122 86c0 41 27 69 56 91c18 13 43 30 66 45h-408v40l57 20h-1l14 20v570l-70 10v40h478l10 -142h-43l-27 65l-19 15h-225v-237h171l19 16l10 48h40v-196h-40l-10 54
l-19 16h-171v-277h227l19 15l36 95h46l-20 -172h-12c-44 -36 -54 -46 -67 -62c-21 -23 -33 -49 -33 -71z" />
    <glyph glyph-name="eogonek" unicode="&#x119;" 
d="M146 291l256 34c-1 26 -8 78 -25 106c-21 35 -57 45 -91 45c-28 0 -73 -6 -103 -44c-25 -31 -38 -88 -37 -141zM352 -35c10 10 31 28 44 37c-38 -9 -83 -14 -114 -14c-87 0 -138 28 -164 52c-62 57 -70 146 -70 220c0 57 5 158 68 218c51 50 133 54 172 54
c40 0 111 -5 157 -52c49 -50 58 -133 57 -199l-355 -48c2 -47 14 -113 44 -148s68 -41 106 -41c67 0 126 22 168 42l26 -42l-44 -50l-42 -48c-17 -19 -35 -52 -35 -80c0 -26 19 -43 48 -43c18 0 42 6 64 17l14 -39c-25 -14 -54 -22 -89 -22c-71 0 -111 36 -111 91
c0 36 30 69 56 95z" />
    <glyph glyph-name="Ecaron" unicode="&#x11a;" horiz-adv-x="560" 
d="M38 700h478l10 -142h-43l-27 65l-19 15h-225v-237h171l19 16l10 48h40v-196h-40l-10 54l-19 16h-171v-277h227l19 15l36 95h46l-20 -172h-482v40l57 20h-1l14 20v570l-70 10v40zM338 776h-76l-114 142h57l95 -74l95 74h57z" />
    <glyph glyph-name="ecaron" unicode="&#x11b;" 
d="M502 281l-354 -47c1 -48 13 -113 44 -149c30 -35 68 -41 106 -41c67 0 127 22 169 42l25 -43c-74 -47 -157 -55 -209 -55c-87 0 -138 28 -165 52c-62 57 -70 146 -70 220c0 57 5 158 68 218c52 50 134 54 173 54c40 0 109 -5 156 -52c49 -50 58 -133 57 -199zM147 291
l255 34c-1 25 -8 77 -26 106c-22 35 -55 45 -89 45c-28 0 -73 -6 -103 -44c-25 -31 -36 -100 -37 -141zM317 603h-76l-113 143h54l97 -80l97 80h54z" />
    <glyph glyph-name="Gcircumflex" unicode="&#x11c;" horiz-adv-x="660" 
d="M570 690l10 -162h-46l-43 106c-36 14 -73 20 -119 20s-105 -9 -147 -57c-40 -45 -57 -125 -57 -247s18 -202 55 -249c39 -48 92 -59 138 -59c32 0 82 7 128 34h-1v194l-120 20v40h274v-40l-47 -20h1l-14 -20v-210c-81 -48 -155 -56 -223 -56c-62 0 -147 6 -213 70
c-87 85 -88 219 -88 296c0 95 6 222 91 298c59 53 154 68 227 68c88 0 168 -20 194 -26zM328 918h76l114 -142h-57l-95 74l-95 -74h-57z" />
    <glyph glyph-name="gcircumflex" unicode="&#x11d;" horiz-adv-x="560" 
d="M266 532c94 0 131 -25 151 -48c32 29 80 37 113 37h32l-10 -73c-20 6 -38 9 -56 9s-37 -3 -57 -9h1c19 -36 22 -63 22 -99c0 -45 -6 -104 -53 -148c-44 -40 -107 -45 -143 -45h-50c-17 0 -39 -1 -56 -13c-7 -7 -16 -21 -16 -35c0 -39 41 -44 58 -45l119 -9
c79 -6 124 -14 152 -33c43 -29 49 -74 49 -106c0 -41 -12 -89 -67 -120c-30 -17 -74 -27 -187 -27c-99 0 -154 7 -188 29c-18 12 -52 41 -52 92c0 53 35 97 93 108h-1c-38 15 -62 43 -62 85c0 64 58 90 97 97h-1c-90 34 -96 122 -96 160c0 48 9 109 64 153
c45 35 104 40 144 40zM152 342c0 -57 16 -89 33 -106c14 -14 38 -28 75 -28s61 14 75 28c17 17 33 49 33 107s-16 88 -33 105c-14 14 -37 28 -75 28c-37 0 -61 -14 -75 -28c-17 -17 -33 -49 -33 -106zM305 -24l-137 9c-40 -21 -46 -58 -46 -80c0 -21 5 -42 29 -59
c17 -12 46 -22 119 -22c92 0 123 11 138 22c18 14 30 34 30 57c0 24 -8 39 -28 51c-24 13 -83 21 -105 22zM224 746h76l113 -143h-54l-97 80l-97 -80h-54z" />
    <glyph glyph-name="Gbreve" unicode="&#x11e;" horiz-adv-x="660" 
d="M570 690l10 -162h-46l-43 106c-36 14 -73 20 -119 20s-105 -9 -147 -57c-40 -45 -57 -125 -57 -247s18 -202 55 -249c39 -48 92 -59 138 -59c32 0 82 7 128 34h-1v194l-120 20v40h274v-40l-47 -20h1l-14 -20v-210c-81 -48 -155 -56 -223 -56c-62 0 -147 6 -213 70
c-87 85 -88 219 -88 296c0 95 6 222 91 298c59 53 154 68 227 68c88 0 168 -20 194 -26zM365 771c-83 0 -130 25 -155 78v69h46c0 -56 57 -67 108 -67c55 0 108 9 108 67h46v-69c-25 -53 -84 -78 -153 -78z" />
    <glyph glyph-name="gbreve" unicode="&#x11f;" horiz-adv-x="560" 
d="M266 532c94 0 131 -25 151 -48c32 29 80 37 113 37h32l-10 -73c-20 6 -38 9 -56 9s-37 -3 -57 -9h1c19 -36 22 -63 22 -99c0 -45 -6 -104 -53 -148c-44 -40 -107 -45 -143 -45h-50c-17 0 -39 -1 -56 -13c-7 -7 -16 -21 -16 -35c0 -39 41 -44 58 -45l119 -9
c79 -6 124 -14 152 -33c43 -29 49 -74 49 -106c0 -41 -12 -89 -67 -120c-30 -17 -74 -27 -187 -27c-99 0 -154 7 -188 29c-18 12 -52 41 -52 92c0 53 35 97 93 108h-1c-38 15 -62 43 -62 85c0 64 58 90 97 97h-1c-90 34 -96 122 -96 160c0 48 9 109 64 153
c45 35 104 40 144 40zM152 342c0 -57 16 -89 33 -106c14 -14 38 -28 75 -28s61 14 75 28c17 17 33 49 33 107s-16 88 -33 105c-14 14 -37 28 -75 28c-37 0 -61 -14 -75 -28c-17 -17 -33 -49 -33 -106zM305 -24l-137 9c-40 -21 -46 -58 -46 -80c0 -21 5 -42 29 -59
c17 -12 46 -22 119 -22c92 0 123 11 138 22c18 14 30 34 30 57c0 24 -8 39 -28 51c-24 13 -83 21 -105 22zM269 608c-86 0 -128 21 -155 78v69h44c0 -60 62 -70 110 -70c53 0 110 8 110 70h44v-69c-27 -57 -82 -78 -153 -78z" />
    <glyph glyph-name="Gdotaccent" unicode="&#x120;" horiz-adv-x="660" 
d="M570 690l10 -162h-46l-43 106c-36 14 -73 20 -119 20s-105 -9 -147 -57c-40 -45 -57 -125 -57 -247s18 -202 55 -249c39 -48 92 -59 138 -59c32 0 82 7 128 34h-1v194l-120 20v40h274v-40l-47 -20h1l-14 -20v-210c-81 -48 -155 -56 -223 -56c-62 0 -147 6 -213 70
c-87 85 -88 219 -88 296c0 95 6 222 91 298c59 53 154 68 227 68c88 0 168 -20 194 -26zM305 830c0 35 26 62 61 62c36 0 63 -27 63 -62c0 -34 -27 -60 -63 -60c-35 0 -61 26 -61 60z" />
    <glyph glyph-name="gdotaccent" unicode="&#x121;" horiz-adv-x="560" 
d="M266 532c94 0 131 -25 151 -48c32 29 80 37 113 37h32l-10 -73c-20 6 -38 9 -56 9s-37 -3 -57 -9h1c19 -36 22 -63 22 -99c0 -45 -6 -104 -53 -148c-44 -40 -107 -45 -143 -45h-50c-17 0 -39 -1 -56 -13c-7 -7 -16 -21 -16 -35c0 -39 41 -44 58 -45l119 -9
c79 -6 124 -14 152 -33c43 -29 49 -74 49 -106c0 -41 -12 -89 -67 -120c-30 -17 -74 -27 -187 -27c-99 0 -154 7 -188 29c-18 12 -52 41 -52 92c0 53 35 97 93 108h-1c-38 15 -62 43 -62 85c0 64 58 90 97 97h-1c-90 34 -96 122 -96 160c0 48 9 109 64 153
c45 35 104 40 144 40zM152 342c0 -57 16 -89 33 -106c14 -14 38 -28 75 -28s61 14 75 28c17 17 33 49 33 107s-16 88 -33 105c-14 14 -37 28 -75 28c-37 0 -61 -14 -75 -28c-17 -17 -33 -49 -33 -106zM305 -24l-137 9c-40 -21 -46 -58 -46 -80c0 -21 5 -42 29 -59
c17 -12 46 -22 119 -22c92 0 123 11 138 22c18 14 30 34 30 57c0 24 -8 39 -28 51c-24 13 -83 21 -105 22zM202 694c0 32 26 57 58 57c33 0 59 -25 59 -57c0 -31 -26 -56 -59 -56c-32 0 -58 25 -58 56z" />
    <glyph glyph-name="Gcommaaccent" unicode="&#x122;" horiz-adv-x="660" 
d="M570 690l10 -162h-46l-43 106c-36 14 -73 20 -119 20s-105 -9 -147 -57c-40 -45 -57 -125 -57 -247s18 -202 55 -249c39 -48 92 -59 138 -59c32 0 82 7 128 34h-1v194l-120 20v40h274v-40l-47 -20h1l-14 -20v-210c-81 -48 -155 -56 -223 -56c-62 0 -147 6 -213 70
c-87 85 -88 219 -88 296c0 95 6 222 91 298c59 53 154 68 227 68c88 0 168 -20 194 -26zM315 -45l102 -18c-4 -30 -11 -56 -28 -98c-12 -29 -29 -66 -44 -87l-46 20c7 22 13 58 15 77c3 29 3 46 3 71c0 12 0 23 -2 35z" />
    <glyph glyph-name="gcommaaccent" unicode="&#x123;" horiz-adv-x="560" 
d="M311 587l-94 17c4 32 11 63 27 101c12 28 28 63 44 86l36 -15c-7 -25 -10 -58 -13 -82c-2 -23 -2 -49 -2 -74c0 -11 0 -21 2 -33zM266 532c94 0 131 -25 151 -48c32 29 80 37 113 37h32l-10 -73c-20 6 -38 9 -56 9s-37 -3 -57 -9h1c19 -36 22 -63 22 -99
c0 -45 -6 -104 -53 -148c-44 -40 -107 -45 -143 -45h-50c-17 0 -39 -1 -56 -13c-7 -7 -16 -21 -16 -35c0 -39 41 -44 58 -45l119 -9c79 -6 124 -14 152 -33c43 -29 49 -74 49 -106c0 -41 -12 -89 -67 -120c-30 -17 -74 -27 -187 -27c-99 0 -154 7 -188 29
c-18 12 -52 41 -52 92c0 53 35 97 93 108h-1c-38 15 -62 43 -62 85c0 64 58 90 97 97h-1c-90 34 -96 122 -96 160c0 48 9 109 64 153c45 35 104 40 144 40zM152 342c0 -57 16 -89 33 -106c14 -14 38 -28 75 -28s61 14 75 28c17 17 33 49 33 107s-16 88 -33 105
c-14 14 -37 28 -75 28c-37 0 -61 -14 -75 -28c-17 -17 -33 -49 -33 -106zM305 -24l-137 9c-40 -21 -46 -58 -46 -80c0 -21 5 -42 29 -59c17 -12 46 -22 119 -22c92 0 123 11 138 22c18 14 30 34 30 57c0 24 -8 39 -28 51c-24 13 -83 21 -105 22z" />
    <glyph glyph-name="Hcircumflex" unicode="&#x124;" horiz-adv-x="740" 
d="M38 700h244v-40l-64 -19l-6 -13v-227h316v249l-70 10v40h244v-40l-64 -19l-6 -13v-578l70 -10v-40h-244v40l56 19l14 21v259h-316v-289l70 -10v-40h-244v40l56 19l14 21v570l-70 10v40zM332 918h76l114 -142h-57l-95 74l-95 -74h-57z" />
    <glyph glyph-name="hcircumflex" unicode="&#x125;" horiz-adv-x="612" 
d="M190 762v-301c48 59 112 71 164 71c33 0 90 -3 128 -43c40 -41 42 -99 42 -154v-281h-1l65 -20v-34h-218v34l54 20l6 16v263c0 64 -8 89 -17 104c-20 34 -52 39 -74 39c-76 0 -127 -60 -149 -96v-326l70 -20v-34h-224v34l54 20l6 16l1 604l-73 20v34zM104 954h76
l113 -143h-54l-97 80l-97 -80h-54z" />
    <glyph glyph-name="Hbar" unicode="&#x126;" horiz-adv-x="740" 
d="M211 506v-105h315v105h-315zM108 567v83l-70 10v40h243v-40l-64 -20l-6 -11v-62h315v83l-69 10v40h243v-40l-64 -20l-6 -11v-62h70v-61h-70v-456l70 -10v-40h-243v40l57 20h-1l13 20v259h-315v-289l70 -10v-40h-243v40l57 20h-1l14 20v426h-70v61h70z" />
    <glyph glyph-name="hbar" unicode="&#x127;" horiz-adv-x="612" 
d="M96 641v33l-72 20v33l165 34v-120h205v-58h-205v-122c48 59 112 71 164 71c33 0 89 -3 127 -43c40 -41 42 -99 42 -154v-281l64 -20v-34h-217v34l53 20l6 15v264c0 63 -8 89 -17 104c-19 34 -51 39 -73 39c-76 0 -127 -60 -149 -95v-327l70 -20v-34h-223v34l54 20l6 15
v514h-80v58h80z" />
    <glyph glyph-name="Imacron" unicode="&#x12a;" horiz-adv-x="320" 
d="M38 700h244v-40l-56 -19l-14 -21v-570l70 -10v-40h-244v40l56 19l14 21v570l-70 10v40zM315 804h-308v54h308v-54z" />
    <glyph glyph-name="imacron" unicode="&#x12b;" horiz-adv-x="284" 
d="M190 532v-478h-1l71 -20v-34h-224v34l54 20l6 16v396l-72 20v34zM9 657v47h266v-47h-266z" />
    <glyph glyph-name="Iogonek" unicode="&#x12e;" horiz-adv-x="320" 
d="M162 -133c0 -28 18 -42 49 -42c18 0 42 7 64 17l12 -41c-25 -15 -54 -23 -87 -23c-71 0 -122 34 -122 86c0 41 27 69 56 91c18 13 43 30 66 45h-162v40l56 19l14 21v570l-70 10v40h244v-40l-56 -19l-14 -21v-570l70 -10v-40h-20c-44 -36 -54 -46 -67 -62
c-21 -23 -33 -49 -33 -71z" />
    <glyph glyph-name="iogonek" unicode="&#x12f;" horiz-adv-x="284" 
d="M138 -134c0 -28 20 -43 51 -43c19 0 42 6 63 16l13 -40c-24 -13 -54 -21 -89 -21c-71 0 -113 36 -113 85c0 35 22 65 53 92c19 16 47 34 64 45h-144v34l54 20l6 16v396l-72 20v34l166 12v-478h-1l71 -20v-34h-21c-43 -36 -58 -50 -71 -64c-21 -23 -30 -46 -30 -70z
M85 694c0 32 26 57 58 57c33 0 59 -25 59 -57c0 -31 -26 -56 -59 -56c-32 0 -58 25 -58 56z" />
    <glyph glyph-name="Idotaccent" unicode="&#x130;" horiz-adv-x="320" 
d="M38 700h244v-40l-56 -19l-14 -21v-570l70 -10v-40h-244v40l56 19l14 21v570l-70 10v40zM97 830c0 35 26 62 61 62c36 0 63 -27 63 -62c0 -34 -27 -60 -63 -60c-35 0 -61 26 -61 60z" />
    <glyph glyph-name="dotlessi" unicode="&#x131;" horiz-adv-x="284" 
d="M190 532v-478h-1l71 -20v-34h-224v34l54 20l6 16v396l-72 20v34z" />
    <glyph glyph-name="Jcircumflex" unicode="&#x134;" horiz-adv-x="440" 
d="M168 700h254v-39l-64 -20l-6 -13v-416c0 -52 0 -134 -51 -183c-43 -41 -115 -45 -152 -45c-32 0 -82 2 -145 16l20 152h50l29 -102c15 -7 29 -8 44 -8c29 0 64 4 82 37c13 23 19 67 19 133v438l-80 10v40zM263 918h76l114 -142h-57l-95 74l-95 -74h-57z" />
    <glyph glyph-name="jcircumflex" unicode="&#x135;" horiz-adv-x="262" 
d="M182 532v-586c0 -62 7 -178 -211 -178c-38 0 -66 4 -97 12l30 120h54l20 -72c11 -5 21 -6 33 -6c21 0 47 4 64 28c18 25 17 64 17 96v520l-72 20v34zM102 746h74l112 -142h-51l-98 81l-98 -81h-51z" />
    <glyph glyph-name="Kcommaaccent" unicode="&#x136;" horiz-adv-x="668" 
d="M38 700h244v-40l-57 -20h1l-14 -20v-246l255 260l1 16l-65 10v40h234v-40l-91 -30l-230 -236l274 -334h-1l71 -20v-40h-178v30l-270 333v-313l70 -10v-40h-244v40l57 20h-1l14 20v570l-70 10v40zM323 -45l102 -18c-4 -30 -11 -56 -28 -98c-12 -29 -29 -66 -44 -87l-46 20
c7 22 13 58 15 77c3 29 3 46 3 71c0 12 0 23 -2 35z" />
    <glyph glyph-name="kcommaaccent" unicode="&#x137;" 
d="M190 762v-469l178 171v12l-56 10v34h204v-34l-80 -26l-156 -150l206 -266l46 -10v-34h-154v34l-188 249v-229l70 -20v-34h-224v34l54 20l6 16v604l-72 20v34zM249 -45l97 -17c-4 -32 -11 -63 -27 -101c-12 -28 -28 -63 -44 -86l-39 15c7 25 10 58 13 82c2 23 2 49 2 74
c0 11 0 21 -2 33z" />
    <glyph glyph-name="Lacute" unicode="&#x139;" horiz-adv-x="550" 
d="M38 700h254v-40l-67 -20h1l-14 -20v-558h219l19 16l36 94h44l-20 -172h-472v40l57 20h-1l14 20v570l-70 10v40zM208 918h108l-132 -142h-52z" />
    <glyph glyph-name="lacute" unicode="&#x13a;" horiz-adv-x="284" 
d="M190 762v-708l70 -20v-34h-224v34l54 20l6 16v604l-72 20v34zM184 980h104l-130 -163h-52z" />
    <glyph glyph-name="Lcommaaccent" unicode="&#x13b;" horiz-adv-x="550" 
d="M38 700h254v-40l-67 -20h1l-14 -20v-558h219l19 16l36 94h44l-20 -172h-472v40l57 20h-1l14 20v570l-70 10v40zM259 -45l102 -18c-4 -30 -11 -56 -28 -98c-12 -29 -29 -66 -44 -87l-46 20c7 22 13 58 15 77c3 29 3 46 3 71c0 12 0 23 -2 35z" />
    <glyph glyph-name="lcommaaccent" unicode="&#x13c;" horiz-adv-x="284" 
d="M190 762v-708l70 -20v-34h-224v34l54 20l6 16v604l-72 20v34zM100 -45l97 -17c-4 -32 -11 -63 -27 -101c-12 -28 -28 -63 -44 -86l-39 15c7 25 10 58 13 82c2 23 2 49 2 74c0 11 0 21 -2 33z" />
    <glyph glyph-name="Lcaron" unicode="&#x13d;" horiz-adv-x="550" 
d="M38 700h254v-40l-67 -20h1l-14 -20v-558h219l19 16l36 94h44l-20 -172h-472v40l57 20h-1l14 20v570l-70 10v40zM398 766l102 -18c-4 -30 -12 -61 -29 -103c-12 -29 -29 -66 -44 -87l-46 20c7 22 13 58 15 77c3 29 4 51 4 76c0 12 0 23 -2 35z" />
    <glyph glyph-name="lcaron" unicode="&#x13e;" horiz-adv-x="284" 
d="M190 762v-708l70 -20v-34h-224v34l54 20l6 16v604l-72 20v34zM270 766l102 -18c-4 -30 -12 -61 -29 -103c-12 -29 -29 -66 -44 -87l-46 20c7 22 13 58 15 77c3 29 4 51 4 76c0 12 0 23 -2 35z" />
    <glyph glyph-name="Ldot" unicode="&#x13f;" horiz-adv-x="550" 
d="M38 700h254v-40l-67 -20h1l-14 -20v-558h219l19 16l36 94h44l-20 -172h-472v40l57 20h-1l14 20v570l-70 10v40zM366 374c0 32 26 57 58 57c33 0 59 -25 59 -57c0 -31 -26 -56 -59 -56c-32 0 -58 25 -58 56z" />
    <glyph glyph-name="ldot" unicode="&#x140;" horiz-adv-x="310" 
d="M190 762v-708l70 -20v-34h-224v34l54 20l6 16v604l-72 20v34zM236 372c0 32 26 57 58 57c33 0 59 -25 59 -57c0 -31 -26 -56 -59 -56c-32 0 -58 25 -58 56z" />
    <glyph glyph-name="Lslash" unicode="&#x141;" horiz-adv-x="550" 
d="M38 700h254v-40l-67 -20h1l-14 -20v-203l94 58l31 -54l-125 -76v-283h219l19 16l36 94h44l-20 -172h-472v40l57 20h-1l14 20v201l-75 -45l-31 53l106 65v296l-70 10v40z" />
    <glyph glyph-name="lslash" unicode="&#x142;" horiz-adv-x="284" 
d="M190 762v-373l65 39l29 -50l-94 -57v-267l70 -20v-34h-224v34l54 20l6 16v194l-65 -39l-29 50l94 57v342l-72 20v34z" />
    <glyph glyph-name="Nacute" unicode="&#x143;" horiz-adv-x="760" 
d="M38 700h186l354 -524v474l-70 10v40h214v-40l-56 -20l-14 -19v-621h-74l-396 582v-532l70 -10v-40h-214v40l56 20l14 20v570l-70 10v40zM427 918h108l-132 -142h-52z" />
    <glyph glyph-name="nacute" unicode="&#x144;" horiz-adv-x="612" 
d="M190 532v-71c48 59 112 71 164 71c33 0 90 -3 128 -43c40 -41 42 -99 42 -154v-281l64 -20v-34h-218v34l54 20l6 16v263c0 64 -8 89 -17 104c-20 34 -52 39 -74 39c-76 0 -127 -60 -149 -96v-326l70 -20v-34h-224v34l54 20l6 16v396l-72 20v34zM355 750h104l-130 -163
h-52z" />
    <glyph glyph-name="Ncommaaccent" unicode="&#x145;" horiz-adv-x="760" 
d="M38 700h186l354 -524v474l-70 10v40h214v-40l-56 -20l-14 -19v-621h-74l-396 582v-532l70 -10v-40h-214v40l56 20l14 20v570l-70 10v40zM345 -45l102 -18c-4 -30 -11 -56 -28 -98c-12 -29 -29 -66 -44 -87l-46 20c7 22 13 58 15 77c3 29 3 46 3 71c0 12 0 23 -2 35z" />
    <glyph glyph-name="ncommaaccent" unicode="&#x146;" horiz-adv-x="612" 
d="M190 532v-71c48 59 112 71 164 71c33 0 90 -3 128 -43c40 -41 42 -99 42 -154v-281l64 -20v-34h-218v34l54 20l6 16v263c0 64 -8 89 -17 104c-20 34 -52 39 -74 39c-76 0 -127 -60 -149 -96v-326l70 -20v-34h-224v34l54 20l6 16v396l-72 20v34zM271 -45l97 -17
c-4 -32 -11 -63 -27 -101c-12 -28 -28 -63 -44 -86l-39 15c7 25 10 58 13 82c2 23 2 49 2 74c0 11 0 21 -2 33z" />
    <glyph glyph-name="Ncaron" unicode="&#x147;" horiz-adv-x="760" 
d="M38 700h186l354 -524v474l-70 10v40h214v-40l-56 -20l-14 -19v-621h-74l-396 582v-532l70 -10v-40h-214v40l56 20l14 20v570l-70 10v40zM414 776h-76l-114 142h57l95 -74l95 74h57z" />
    <glyph glyph-name="ncaron" unicode="&#x148;" horiz-adv-x="612" 
d="M190 532v-71c48 59 112 71 164 71c33 0 90 -3 128 -43c40 -41 42 -99 42 -154v-281l64 -20v-34h-218v34l54 20l6 16v263c0 64 -8 89 -17 104c-20 34 -52 39 -74 39c-76 0 -127 -60 -149 -96v-326l70 -20v-34h-224v34l54 20l6 16v396l-72 20v34zM346 603h-76l-113 143h54
l97 -80l97 80h54z" />
    <glyph glyph-name="Omacron" unicode="&#x14c;" horiz-adv-x="720" 
d="M58 350c0 102 7 218 89 297c68 66 151 69 213 69s145 -3 213 -69c82 -79 89 -195 89 -297c0 -99 -8 -219 -89 -298c-67 -64 -153 -68 -213 -68s-146 6 -213 70c-81 79 -89 197 -89 296zM168 350c0 -54 4 -183 55 -249c33 -43 80 -59 137 -59s104 16 137 59
c51 66 55 195 55 249c0 58 -4 181 -55 248c-34 45 -79 60 -137 60s-103 -15 -137 -60c-51 -67 -55 -190 -55 -248zM515 804h-308v54h308v-54z" />
    <glyph glyph-name="omacron" unicode="&#x14d;" horiz-adv-x="580" 
d="M48 260c0 71 6 165 66 221c52 49 130 51 176 51s124 -2 176 -51c60 -56 66 -150 66 -221s-6 -165 -66 -221c-52 -49 -130 -51 -176 -51s-124 2 -176 51c-60 56 -66 150 -66 221zM146 260c0 -123 31 -164 38 -174c28 -36 74 -42 106 -42s78 6 106 42c7 10 38 51 38 174
s-31 164 -38 174c-28 36 -74 42 -106 42s-78 -6 -106 -42c-7 -10 -38 -51 -38 -174zM157 657v47h266v-47h-266z" />
    <glyph glyph-name="Ohungarumlaut" unicode="&#x150;" horiz-adv-x="720" 
d="M58 350c0 102 7 218 89 297c68 66 151 69 213 69s145 -3 213 -69c82 -79 89 -195 89 -297c0 -99 -8 -219 -89 -298c-67 -64 -153 -68 -213 -68s-146 6 -213 70c-81 79 -89 197 -89 296zM168 350c0 -54 4 -183 55 -249c33 -43 80 -59 137 -59s104 16 137 59
c51 66 55 195 55 249c0 58 -4 181 -55 248c-34 45 -79 60 -137 60s-103 -15 -137 -60c-51 -67 -55 -190 -55 -248zM484 918h102l-120 -142h-65zM324 918h102l-121 -142h-65z" />
    <glyph glyph-name="ohungarumlaut" unicode="&#x151;" horiz-adv-x="580" 
d="M48 260c0 71 6 165 66 221c52 49 130 51 176 51s124 -2 176 -51c60 -56 66 -150 66 -221s-6 -165 -66 -221c-52 -49 -130 -51 -176 -51s-124 2 -176 51c-60 56 -66 150 -66 221zM146 260c0 -123 31 -164 38 -174c28 -36 74 -42 106 -42s78 6 106 42c7 10 38 51 38 174
s-31 164 -38 174c-28 36 -74 42 -106 42s-78 -6 -106 -42c-7 -10 -38 -51 -38 -174zM269 750h101l-136 -163h-60zM425 750h101l-137 -163h-59z" />
    <glyph glyph-name="OE" unicode="&#x152;" horiz-adv-x="1000" 
d="M58 350c0 99 11 220 89 297c57 57 135 69 206 69c94 0 149 -18 197 -81v65h405l10 -142h-42l-26 63l-18 17h-225v-237h170l18 15l10 49h39v-196h-39l-10 54l-19 16h-169v-277h226l18 15l36 95h46l-21 -172h-409v68c-50 -66 -109 -84 -199 -84c-69 0 -145 11 -204 68
c-81 78 -89 199 -89 298zM168 350c0 -55 4 -179 55 -246c32 -42 79 -58 136 -58s104 16 136 58c51 67 55 191 55 246c0 59 -3 178 -55 245c-33 42 -78 59 -136 59c-56 0 -105 -20 -136 -59c-53 -66 -55 -186 -55 -245z" />
    <glyph glyph-name="oe" unicode="&#x153;" horiz-adv-x="926" 
d="M289 532c51 0 149 0 194 -91c20 38 65 91 189 91c39 0 113 -4 159 -52c44 -46 57 -123 57 -197l-356 -48c1 -49 14 -118 43 -150c30 -35 69 -41 106 -41c67 0 127 22 169 42l26 -42c-35 -21 -102 -56 -210 -56c-124 0 -168 59 -184 87c-53 -87 -145 -87 -193 -87
c-46 0 -124 2 -175 51c-60 56 -66 150 -66 221s6 165 66 221c51 49 129 51 175 51zM145 260c0 -122 31 -164 38 -174c28 -36 74 -42 106 -42s80 5 106 42c7 10 37 52 37 174s-30 164 -37 174c-26 37 -74 42 -106 42s-78 -6 -106 -42c-7 -10 -38 -52 -38 -174zM531 291
l257 34c-1 26 -9 78 -26 106c-21 35 -58 45 -92 45c-27 0 -72 -6 -102 -44c-25 -31 -36 -100 -37 -141z" />
    <glyph glyph-name="Racute" unicode="&#x154;" horiz-adv-x="660" 
d="M38 700h325c58 0 121 -2 169 -41c31 -25 60 -70 60 -149c0 -44 -12 -99 -66 -143c-29 -23 -75 -41 -124 -44l180 -263h-1l71 -20v-40h-168v30l-194 289h-78v-269l70 -10v-40h-244v40l56 20l14 20v570l-70 10v40zM212 638v-257h138c28 0 76 1 108 36c16 17 30 47 30 98
c0 19 -2 60 -26 86c-31 35 -89 37 -112 37h-138zM360 918h108l-132 -142h-52z" />
    <glyph glyph-name="racute" unicode="&#x155;" horiz-adv-x="450" 
d="M190 532v-83c22 20 49 38 74 51c48 23 92 32 140 32h20l-14 -142h-54l-32 64c-30 -2 -55 -11 -80 -26c-19 -11 -39 -29 -54 -48v-326l80 -20v-34h-234v34l54 20l6 16v396l-72 20v34zM301 750h104l-130 -163h-52z" />
    <glyph glyph-name="Rcommaaccent" unicode="&#x156;" horiz-adv-x="660" 
d="M38 700h325c58 0 121 -2 169 -41c31 -25 60 -70 60 -149c0 -44 -12 -99 -66 -143c-29 -23 -75 -41 -124 -44l180 -263h-1l71 -20v-40h-168v30l-194 289h-78v-269l70 -10v-40h-244v40l56 20l14 20v570l-70 10v40zM212 638v-257h138c28 0 76 1 108 36c16 17 30 47 30 98
c0 19 -2 60 -26 86c-31 35 -89 37 -112 37h-138zM304 -45l102 -18c-4 -30 -11 -56 -28 -98c-12 -29 -29 -66 -44 -87l-46 20c7 22 13 58 15 77c3 29 3 46 3 71c0 12 0 23 -2 35z" />
    <glyph glyph-name="rcommaaccent" unicode="&#x157;" horiz-adv-x="450" 
d="M190 532v-83c22 20 49 38 74 51c48 23 92 32 140 32h20l-14 -142h-54l-32 64c-30 -2 -55 -11 -80 -26c-19 -11 -39 -29 -54 -48v-326l80 -20v-34h-234v34l54 20l6 16v396l-72 20v34zM100 -45l97 -17c-4 -32 -11 -63 -27 -101c-12 -28 -28 -63 -44 -86l-39 15
c7 25 10 58 13 82c2 23 2 49 2 74c0 11 0 21 -2 33z" />
    <glyph glyph-name="Rcaron" unicode="&#x158;" horiz-adv-x="660" 
d="M38 700h325c58 0 121 -2 169 -41c31 -25 60 -70 60 -149c0 -44 -12 -99 -66 -143c-29 -23 -75 -41 -124 -44l180 -263h-1l71 -20v-40h-168v30l-194 289h-78v-269l70 -10v-40h-244v40l56 20l14 20v570l-70 10v40zM212 638v-257h138c28 0 76 1 108 36c16 17 30 47 30 98
c0 19 -2 60 -26 86c-31 35 -89 37 -112 37h-138zM352 776h-76l-114 142h57l95 -74l95 74h57z" />
    <glyph glyph-name="rcaron" unicode="&#x159;" horiz-adv-x="450" 
d="M190 532v-83c22 20 49 38 74 51c48 23 92 32 140 32h20l-14 -142h-54l-32 64c-30 -2 -55 -11 -80 -26c-19 -11 -39 -29 -54 -48v-326l80 -20v-34h-234v34l54 20l6 16v396l-72 20v34zM291 603h-76l-113 143h54l97 -80l97 80h54z" />
    <glyph glyph-name="Sacute" unicode="&#x15a;" 
d="M470 690l10 -162h-46l-42 106c-13 8 -44 24 -103 24c-29 0 -66 -5 -93 -33c-14 -15 -30 -42 -30 -96c0 -64 32 -102 96 -124l85 -29c106 -36 155 -81 155 -185c0 -70 -23 -121 -54 -150c-55 -54 -150 -57 -195 -57c-94 0 -160 16 -213 36l-10 172h45l42 -116
c58 -28 102 -34 134 -34c23 0 78 1 112 38c26 29 29 69 29 98c0 48 -8 97 -100 129l-76 26c-108 37 -160 88 -160 186c0 56 21 110 52 143c48 49 121 54 177 54c60 0 115 -6 185 -26zM330 918h108l-132 -142h-52z" />
    <glyph glyph-name="sacute" unicode="&#x15b;" horiz-adv-x="440" 
d="M378 510l10 -132h-39l-42 90c-23 6 -46 8 -72 8c-18 0 -49 -2 -67 -23c-14 -16 -16 -37 -16 -53c0 -15 1 -34 16 -49c13 -14 43 -25 59 -30l55 -17c43 -13 75 -29 97 -54c14 -16 29 -46 29 -95c0 -59 -22 -102 -57 -128c-42 -32 -108 -39 -155 -39c-39 0 -95 4 -152 22
l-10 130h40l49 -88c27 -7 48 -8 72 -8c30 0 63 2 87 22c14 12 26 31 26 70c0 19 -2 43 -20 61c-12 12 -39 25 -58 31l-56 18c-31 10 -67 24 -90 49c-26 28 -32 62 -32 92c0 59 24 94 51 114c38 29 93 31 122 31c50 0 108 -9 153 -22zM274 750h104l-130 -163h-52z" />
    <glyph glyph-name="Scircumflex" unicode="&#x15c;" 
d="M470 690l10 -162h-46l-42 106c-13 8 -44 24 -103 24c-29 0 -66 -5 -93 -33c-14 -15 -30 -42 -30 -96c0 -64 32 -102 96 -124l85 -29c106 -36 155 -81 155 -185c0 -70 -23 -121 -54 -150c-55 -54 -150 -57 -195 -57c-94 0 -160 16 -213 36l-10 172h45l42 -116
c58 -28 102 -34 134 -34c23 0 78 1 112 38c26 29 29 69 29 98c0 48 -8 97 -100 129l-76 26c-108 37 -160 88 -160 186c0 56 21 110 52 143c48 49 121 54 177 54c60 0 115 -6 185 -26zM246 918h76l114 -142h-57l-95 74l-95 -74h-57z" />
    <glyph glyph-name="scircumflex" unicode="&#x15d;" horiz-adv-x="440" 
d="M378 510l10 -132h-39l-42 90c-23 6 -46 8 -72 8c-18 0 -49 -2 -67 -23c-14 -16 -16 -37 -16 -53c0 -15 1 -34 16 -49c13 -14 43 -25 59 -30l55 -17c43 -13 75 -29 97 -54c14 -16 29 -46 29 -95c0 -59 -22 -102 -57 -128c-42 -32 -108 -39 -155 -39c-39 0 -95 4 -152 22
l-10 130h40l49 -88c27 -7 48 -8 72 -8c30 0 63 2 87 22c14 12 26 31 26 70c0 19 -2 43 -20 61c-12 12 -39 25 -58 31l-56 18c-31 10 -67 24 -90 49c-26 28 -32 62 -32 92c0 59 24 94 51 114c38 29 93 31 122 31c50 0 108 -9 153 -22zM186 746h76l113 -143h-54l-97 80
l-97 -80h-54z" />
    <glyph glyph-name="Scedilla" unicode="&#x15e;" 
d="M470 690l10 -162h-46l-42 106c-13 8 -44 24 -103 24c-29 0 -66 -5 -93 -33c-14 -15 -30 -42 -30 -96c0 -64 32 -102 96 -124l85 -29c106 -36 155 -81 155 -185c0 -70 -23 -121 -54 -150c-45 -43 -115 -54 -164 -56l-12 -36c73 -1 113 -20 113 -81c0 -80 -82 -91 -127 -91
c-29 0 -67 6 -100 19l17 41c22 -8 47 -15 74 -15c37 0 59 13 59 45s-20 41 -54 41c-20 0 -33 -2 -48 -3l27 79c-84 2 -144 17 -193 36l-10 172h45l42 -116c58 -28 102 -34 134 -34c23 0 78 1 112 38c26 29 29 69 29 98c0 48 -8 97 -100 129l-76 26c-108 37 -160 88 -160 186
c0 56 21 110 52 143c48 49 121 54 177 54c60 0 115 -6 185 -26z" />
    <glyph glyph-name="scedilla" unicode="&#x15f;" horiz-adv-x="440" 
d="M378 510l10 -132h-39l-42 90c-23 6 -46 8 -72 8c-18 0 -49 -2 -67 -23c-14 -16 -16 -37 -16 -53c0 -15 1 -34 16 -49c13 -14 43 -25 59 -30l55 -17c43 -13 75 -29 97 -54c14 -16 29 -46 29 -95c0 -59 -22 -102 -57 -128c-30 -23 -73 -33 -112 -37l-13 -41
c73 -1 113 -20 113 -81c0 -80 -82 -91 -127 -91c-29 0 -67 6 -100 19l17 41c22 -8 47 -15 74 -15c37 0 59 13 59 45s-20 41 -54 41c-20 0 -33 -2 -48 -3l29 83c-39 1 -91 5 -145 22l-10 130h40l49 -88c27 -7 48 -8 72 -8c30 0 63 2 87 22c14 12 26 31 26 70
c0 19 -2 43 -20 61c-12 12 -39 25 -58 31l-56 18c-31 10 -67 24 -90 49c-26 28 -32 62 -32 92c0 59 24 94 51 114c38 29 93 31 122 31c50 0 108 -9 153 -22z" />
    <glyph glyph-name="Scaron" unicode="&#x160;" 
d="M470 690l10 -162h-46l-42 106c-13 8 -44 24 -103 24c-29 0 -66 -5 -93 -33c-14 -15 -30 -42 -30 -96c0 -64 32 -102 96 -124l85 -29c106 -36 155 -81 155 -185c0 -70 -23 -121 -54 -150c-55 -54 -150 -57 -195 -57c-94 0 -160 16 -213 36l-10 172h45l42 -116
c58 -28 102 -34 134 -34c23 0 78 1 112 38c26 29 29 69 29 98c0 48 -8 97 -100 129l-76 26c-108 37 -160 88 -160 186c0 56 21 110 52 143c48 49 121 54 177 54c60 0 115 -6 185 -26zM325 776h-76l-114 142h57l95 -74l95 74h57z" />
    <glyph glyph-name="scaron" unicode="&#x161;" horiz-adv-x="440" 
d="M378 510l10 -132h-39l-42 90c-23 6 -46 8 -72 8c-18 0 -49 -2 -67 -23c-14 -16 -16 -37 -16 -53c0 -15 1 -34 16 -49c13 -14 43 -25 59 -30l55 -17c43 -13 75 -29 97 -54c14 -16 29 -46 29 -95c0 -59 -22 -102 -57 -128c-42 -32 -108 -39 -155 -39c-39 0 -95 4 -152 22
l-10 130h40l49 -88c27 -7 48 -8 72 -8c30 0 63 2 87 22c14 12 26 31 26 70c0 19 -2 43 -20 61c-12 12 -39 25 -58 31l-56 18c-31 10 -67 24 -90 49c-26 28 -32 62 -32 92c0 59 24 94 51 114c38 29 93 31 122 31c50 0 108 -9 153 -22zM264 603h-76l-113 143h54l97 -80l97 80
h54z" />
    <glyph glyph-name="Tcedilla" unicode="&#x162;" horiz-adv-x="580" 
d="M264 0h-106v40l66 20l14 19v559h-129l-20 -16h1l-34 -94h-46l16 172h528l16 -172h-46l-34 94l-19 16h-129v-588l80 -10v-40h-105l-18 -51c69 -2 120 -23 120 -81c0 -80 -91 -91 -136 -91c-30 0 -66 6 -99 19l17 44c23 -9 48 -16 75 -16c37 0 58 13 58 43
c0 31 -20 39 -54 39c-21 0 -34 -2 -49 -3z" />
    <glyph glyph-name="tcedilla" unicode="&#x163;" horiz-adv-x="360" 
d="M98 630l94 31v-140h140l-10 -62h-130v-291c0 -64 3 -86 12 -99c7 -10 22 -25 53 -25c22 0 56 6 85 16v-57c-41 -12 -75 -14 -100 -15l-13 -39c73 -1 113 -20 113 -81c0 -80 -82 -91 -127 -91c-29 0 -67 6 -100 19l17 41c22 -8 47 -15 74 -15c37 0 59 13 59 45
s-20 41 -54 41c-20 0 -33 -2 -48 -3l30 87c-25 4 -45 13 -61 31c-30 35 -34 91 -34 143v293h-80v62h80v109z" />
    <glyph glyph-name="Tcaron" unicode="&#x164;" horiz-adv-x="580" 
d="M26 700h528l16 -172h-46l-34 94l-19 16h-129v-588l80 -10v-40h-264v40l66 20l14 19v559h-129l-20 -16h1l-34 -94h-46zM324 776h-76l-114 142h57l95 -74l95 74h57z" />
    <glyph glyph-name="tcaron" unicode="&#x165;" horiz-adv-x="360" 
d="M98 630l94 31v-140h140l-10 -62h-130v-291c0 -64 3 -86 12 -99c7 -10 22 -25 53 -25c22 0 56 6 85 16v-57c-44 -13 -81 -15 -107 -15c-45 0 -79 8 -103 35c-30 35 -34 91 -34 143v293h-80v62h80v109zM237 766l102 -18c-4 -30 -12 -61 -29 -103c-12 -29 -29 -66 -44 -87
l-46 20c7 22 13 58 15 77c3 29 4 51 4 76c0 12 0 23 -2 35z" />
    <glyph glyph-name="Umacron" unicode="&#x16a;" horiz-adv-x="700" 
d="M28 700h244v-40l-57 -20h1l-14 -20v-386c0 -56 -2 -116 37 -154c36 -35 94 -38 125 -38s92 3 128 38c38 37 36 99 36 154v416l-70 10v40h214v-40l-57 -20h1l-14 -20v-391c0 -64 -2 -136 -59 -189c-57 -52 -148 -56 -192 -56c-46 0 -133 5 -193 59c-53 48 -60 103 -60 186
v421l-70 10v40zM505 804h-308v54h308v-54z" />
    <glyph glyph-name="umacron" unicode="&#x16b;" horiz-adv-x="620" 
d="M190 532v-343c0 -78 10 -100 15 -109c10 -18 31 -36 68 -36c59 0 120 39 157 102v320l-72 20v34l166 12v-478l72 -21v-33l-166 -12v77c-52 -65 -123 -77 -170 -77c-68 0 -105 23 -124 43c-39 41 -40 100 -40 154v281l-72 20v34zM177 657v47h266v-47h-266z" />
    <glyph glyph-name="Ubreve" unicode="&#x16c;" horiz-adv-x="700" 
d="M28 700h244v-40l-57 -20h1l-14 -20v-386c0 -56 -2 -116 37 -154c36 -35 94 -38 125 -38s92 3 128 38c38 37 36 99 36 154v416l-70 10v40h214v-40l-57 -20h1l-14 -20v-391c0 -64 -2 -136 -59 -189c-57 -52 -148 -56 -192 -56c-46 0 -133 5 -193 59c-53 48 -60 103 -60 186
v421l-70 10v40zM363 771c-83 0 -130 25 -155 78v69h46c0 -56 57 -67 108 -67c55 0 108 9 108 67h46v-69c-25 -53 -84 -78 -153 -78z" />
    <glyph glyph-name="ubreve" unicode="&#x16d;" horiz-adv-x="620" 
d="M190 532v-343c0 -78 10 -100 15 -109c10 -18 31 -36 68 -36c59 0 120 39 157 102v320l-72 20v34l166 12v-478l72 -21v-33l-166 -12v77c-52 -65 -123 -77 -170 -77c-68 0 -105 23 -124 43c-39 41 -40 100 -40 154v281l-72 20v34zM312 608c-86 0 -128 21 -155 78v69h44
c0 -60 62 -70 110 -70c53 0 110 8 110 70h44v-69c-27 -57 -82 -78 -153 -78z" />
    <glyph glyph-name="Uring" unicode="&#x16e;" horiz-adv-x="700" 
d="M28 700h244v-40l-57 -20h1l-14 -20v-386c0 -56 -2 -116 37 -154c36 -35 94 -38 125 -38s92 3 128 38c38 37 36 99 36 154v416l-70 10v40h214v-40l-57 -20h1l-14 -20v-391c0 -64 -2 -136 -59 -189c-57 -52 -148 -56 -192 -56c-46 0 -133 5 -193 59c-53 48 -60 103 -60 186
v421l-70 10v40zM257 857c0 56 45 101 102 101s101 -45 101 -101c0 -57 -44 -102 -101 -102s-102 45 -102 102zM305 856c0 -30 24 -54 54 -54s55 24 55 54c0 29 -25 54 -55 54s-54 -25 -54 -54z" />
    <glyph glyph-name="uring" unicode="&#x16f;" horiz-adv-x="620" 
d="M190 532v-343c0 -78 10 -100 15 -109c10 -18 31 -36 68 -36c59 0 120 39 157 102v320l-72 20v34l166 12v-478l72 -21v-33l-166 -12v77c-52 -65 -123 -77 -170 -77c-68 0 -105 23 -124 43c-39 41 -40 100 -40 154v281l-72 20v34zM248 682c0 -30 25 -55 55 -55s54 25 54 55
s-24 55 -54 55s-55 -25 -55 -55zM202 683c0 56 45 101 101 101c55 0 100 -45 100 -101s-45 -101 -100 -101c-56 0 -101 45 -101 101z" />
    <glyph glyph-name="Uhungarumlaut" unicode="&#x170;" horiz-adv-x="700" 
d="M28 700h244v-40l-57 -20h1l-14 -20v-386c0 -56 -2 -116 37 -154c36 -35 94 -38 125 -38s92 3 128 38c38 37 36 99 36 154v416l-70 10v40h214v-40l-57 -20h1l-14 -20v-391c0 -64 -2 -136 -59 -189c-57 -52 -148 -56 -192 -56c-46 0 -133 5 -193 59c-53 48 -60 103 -60 186
v421l-70 10v40zM490 918h102l-120 -142h-65zM330 918h102l-121 -142h-65z" />
    <glyph glyph-name="uhungarumlaut" unicode="&#x171;" horiz-adv-x="620" 
d="M190 532v-343c0 -78 10 -100 15 -109c10 -18 31 -36 68 -36c59 0 120 39 157 102v320l-72 20v34l166 12v-478l72 -21v-33l-166 -12v77c-52 -65 -123 -77 -170 -77c-68 0 -105 23 -124 43c-39 41 -40 100 -40 154v281l-72 20v34zM280 750h101l-136 -163h-60zM436 750h101
l-137 -163h-59z" />
    <glyph glyph-name="Uogonek" unicode="&#x172;" horiz-adv-x="700" 
d="M445 -7h1c-39 -11 -64 -30 -83 -54c-16 -20 -29 -51 -29 -71c0 -29 18 -43 48 -43c17 0 41 6 65 17l12 -41c-26 -16 -55 -23 -88 -23c-72 0 -121 35 -121 87c0 41 26 71 57 92l39 27c-47 0 -130 4 -188 57c-53 48 -60 105 -60 188v421l-70 10v40h243v-40l-57 -20h1
l-14 -20v-388c0 -56 -2 -114 37 -152c36 -35 94 -38 125 -38s92 3 128 38c37 37 35 97 35 152v418l-69 10v40h213v-40l-57 -20h1l-14 -20v-391c0 -63 -2 -136 -59 -189c-30 -28 -54 -35 -87 -45z" />
    <glyph glyph-name="uogonek" unicode="&#x173;" horiz-adv-x="620" 
d="M481 -134c0 -28 20 -43 51 -43c19 0 42 6 63 16l13 -40c-24 -13 -54 -21 -89 -21c-71 0 -113 36 -113 85c0 35 22 65 53 92c16 14 37 28 54 39l-83 -6v77c-52 -65 -123 -77 -170 -77c-68 0 -105 23 -124 43c-39 41 -40 100 -40 154v281l-72 20v34l166 12v-343
c0 -78 10 -100 15 -109c10 -18 31 -36 68 -36c59 0 120 39 157 102v320l-72 20v34l166 12v-478l72 -21v-33l-16 -1c-42 -35 -56 -49 -69 -63c-21 -23 -30 -46 -30 -70z" />
    <glyph glyph-name="Ydieresis" unicode="&#x178;" horiz-adv-x="640" 
d="M184 0v40l66 20l14 20v188l-196 382l-50 10v40h250v-40l-65 -20h1l-6 -20l140 -282l158 308l-70 14v40h206v-40l-77 -30h1l-188 -362v-218l80 -10v-40h-264zM175 830c0 35 26 62 61 62c36 0 63 -27 63 -62c0 -34 -27 -60 -63 -60c-35 0 -61 26 -61 60zM377 830
c0 35 26 62 61 62c36 0 63 -27 63 -62c0 -34 -27 -60 -63 -60c-35 0 -61 26 -61 60z" />
    <glyph glyph-name="Zacute" unicode="&#x179;" horiz-adv-x="600" 
d="M86 700h464v-40l-389 -598h308l19 16l37 94h43l-20 -172h-512v40l389 598h-254l-21 -16l-34 -94h-46zM358 918h108l-132 -142h-52z" />
    <glyph glyph-name="zacute" unicode="&#x17a;" horiz-adv-x="480" 
d="M60 520h380v-34l-300 -430h223l15 12l32 90h44l-10 -158h-420v34l300 430h-183l-15 -12l-32 -82h-44zM288 750h104l-130 -163h-52z" />
    <glyph glyph-name="Zdotaccent" unicode="&#x17b;" horiz-adv-x="600" 
d="M86 700h464v-40l-389 -598h308l19 16l37 94h43l-20 -172h-512v40l389 598h-254l-21 -16l-34 -94h-46zM249 830c0 35 26 62 61 62c36 0 63 -27 63 -62c0 -34 -27 -60 -63 -60c-35 0 -61 26 -61 60z" />
    <glyph glyph-name="zdotaccent" unicode="&#x17c;" horiz-adv-x="480" 
d="M60 520h380v-34l-300 -430h223l15 12l32 90h44l-10 -158h-420v34l300 430h-183l-15 -12l-32 -82h-44zM186 694c0 32 26 57 58 57c33 0 59 -25 59 -57c0 -31 -26 -56 -59 -56c-32 0 -58 25 -58 56z" />
    <glyph glyph-name="Zcaron" unicode="&#x17d;" horiz-adv-x="600" 
d="M86 700h464v-40l-389 -598h308l19 16l37 94h43l-20 -172h-512v40l389 598h-254l-21 -16l-34 -94h-46zM341 776h-76l-114 142h57l95 -74l95 74h57z" />
    <glyph glyph-name="zcaron" unicode="&#x17e;" horiz-adv-x="480" 
d="M60 520h380v-34l-300 -430h223l15 12l32 90h44l-10 -158h-420v34l300 430h-183l-15 -12l-32 -82h-44zM280 603h-76l-113 143h54l97 -80l97 80h54z" />
    <glyph glyph-name="uni018F" unicode="&#x18f;" horiz-adv-x="660" 
d="M100 690c67 16 150 26 215 26c105 0 165 -28 195 -56c79 -72 90 -214 90 -302c0 -104 -10 -231 -86 -306c-63 -62 -152 -68 -202 -68c-48 0 -129 7 -187 65c-74 73 -81 189 -81 281v55h447c0 198 -54 273 -179 273c-48 0 -92 -8 -133 -24l-43 -106h-46zM491 323h-337
c0 -8 -1 -25 -1 -32c0 -114 29 -166 46 -191c33 -43 73 -58 119 -58c37 0 84 7 122 56c23 29 50 99 51 225z" />
    <glyph glyph-name="florin" unicode="&#x192;" horiz-adv-x="480" 
d="M104 511h80l9 58c7 47 14 104 60 148c45 41 112 45 158 45c44 0 79 -3 121 -14l-32 -122h-40l-6 81c-13 2 -26 3 -44 3c-22 0 -59 -1 -87 -27c-30 -27 -36 -74 -40 -113l-9 -59h120l-8 -62h-120l-72 -503c-8 -55 -20 -107 -58 -143c-30 -28 -67 -35 -111 -35
c-42 0 -74 6 -103 14l33 122h40l6 -82c6 -1 17 -2 23 -2c20 0 40 11 52 29c14 21 25 75 28 97l72 503h-80z" />
    <glyph glyph-name="uni01DD" unicode="&#x1dd;" horiz-adv-x="546" 
d="M38 281h361c-1 52 -16 122 -44 154c-34 39 -80 41 -118 41c-26 0 -52 1 -86 -7l-46 -80h-39l20 121c10 3 82 22 174 22c43 0 116 -5 168 -52c64 -57 70 -145 70 -220c0 -57 -5 -158 -68 -218c-51 -50 -134 -54 -175 -54c-40 0 -107 5 -154 52c-59 59 -63 156 -63 206v35z
M399 225h-267c1 -40 9 -105 33 -137c31 -42 71 -44 99 -44c23 0 68 7 98 44c25 30 36 97 37 137z" />
    <glyph glyph-name="Scommaaccent" unicode="&#x218;" 
d="M470 690l10 -162h-46l-42 106c-13 8 -44 24 -103 24c-29 0 -66 -5 -93 -33c-14 -15 -30 -42 -30 -96c0 -64 32 -102 96 -124l85 -29c106 -36 155 -81 155 -185c0 -70 -23 -121 -54 -150c-55 -54 -150 -57 -195 -57c-94 0 -160 16 -213 36l-10 172h45l42 -116
c58 -28 102 -34 134 -34c23 0 78 1 112 38c26 29 29 69 29 98c0 48 -8 97 -100 129l-76 26c-108 37 -160 88 -160 186c0 56 21 110 52 143c48 49 121 54 177 54c60 0 115 -6 185 -26zM225 -45l102 -18c-4 -30 -11 -56 -28 -98c-12 -29 -29 -66 -44 -87l-46 20
c7 22 13 58 15 77c3 29 3 46 3 71c0 12 0 23 -2 35z" />
    <glyph glyph-name="scommaaccent" unicode="&#x219;" horiz-adv-x="440" 
d="M378 510l10 -132h-39l-42 90c-23 6 -46 8 -72 8c-18 0 -49 -2 -67 -23c-14 -16 -16 -37 -16 -53c0 -15 1 -34 16 -49c13 -14 43 -25 59 -30l55 -17c43 -13 75 -29 97 -54c14 -16 29 -46 29 -95c0 -59 -22 -102 -57 -128c-42 -32 -108 -39 -155 -39c-39 0 -95 4 -152 22
l-10 130h40l49 -88c27 -7 48 -8 72 -8c30 0 63 2 87 22c14 12 26 31 26 70c0 19 -2 43 -20 61c-12 12 -39 25 -58 31l-56 18c-31 10 -67 24 -90 49c-26 28 -32 62 -32 92c0 59 24 94 51 114c38 29 93 31 122 31c50 0 108 -9 153 -22zM184 -45l97 -17
c-4 -32 -11 -63 -27 -101c-12 -28 -28 -63 -44 -86l-39 15c7 25 10 58 13 82c2 23 2 49 2 74c0 11 0 21 -2 33z" />
    <glyph glyph-name="Tcommaaccent" unicode="&#x21a;" horiz-adv-x="580" 
d="M26 700h528l16 -172h-46l-34 94l-19 16h-129v-588l80 -10v-40h-264v40l66 20l14 19v559h-129l-20 -16h1l-34 -94h-46zM248 -45l102 -18c-4 -30 -11 -56 -28 -98c-12 -29 -29 -66 -44 -87l-46 20c7 22 13 58 15 77c3 29 3 46 3 71c0 12 0 23 -2 35z" />
    <glyph glyph-name="tcommaaccent" unicode="&#x21b;" horiz-adv-x="360" 
d="M98 630l94 31v-140h140l-10 -62h-130v-291c0 -64 3 -86 12 -99c7 -10 22 -25 53 -25c22 0 56 6 85 16v-57c-44 -13 -81 -15 -107 -15c-45 0 -79 8 -103 35c-30 35 -34 91 -34 143v293h-80v62h80v109zM174 -45l97 -17c-4 -32 -11 -63 -27 -101c-12 -28 -28 -63 -44 -86
l-39 15c7 25 10 58 13 82c2 23 2 49 2 74c0 11 0 21 -2 33z" />
    <glyph glyph-name="uni0259" unicode="&#x259;" horiz-adv-x="546" 
d="M38 281h361c-1 52 -16 122 -44 154c-34 39 -80 41 -118 41c-26 0 -52 1 -86 -7l-46 -80h-39l20 121c10 3 82 22 174 22c43 0 116 -5 168 -52c64 -57 70 -145 70 -220c0 -57 -5 -158 -68 -218c-51 -50 -134 -54 -175 -54c-40 0 -107 5 -154 52c-59 59 -63 156 -63 206v35z
M399 225h-267c1 -40 9 -105 33 -137c31 -42 71 -44 99 -44c23 0 68 7 98 44c25 30 36 97 37 137z" />
    <glyph glyph-name="afii57929" unicode="&#x2bc;" horiz-adv-x="234" 
d="M89 766l97 -17c-4 -32 -11 -63 -27 -101c-12 -28 -28 -63 -44 -86l-39 15c7 25 10 58 13 82c2 23 2 49 2 74c0 11 0 21 -2 33z" />
    <glyph glyph-name="circumflex" unicode="&#x2c6;" horiz-adv-x="344" 
d="M138 746h76l113 -143h-54l-97 80l-97 -80h-54z" />
    <glyph glyph-name="caron" unicode="&#x2c7;" horiz-adv-x="338" 
d="M209 603h-76l-113 143h54l97 -80l97 80h54z" />
    <glyph glyph-name="breve" unicode="&#x2d8;" horiz-adv-x="351" 
d="M185 608c-86 0 -128 21 -155 78v69h44c0 -60 62 -70 110 -70c53 0 110 8 110 70h44v-69c-27 -57 -82 -78 -153 -78z" />
    <glyph glyph-name="dotaccent" unicode="&#x2d9;" horiz-adv-x="504" 
d="M193 694c0 32 26 57 58 57c33 0 59 -25 59 -57c0 -31 -26 -56 -59 -56c-32 0 -58 25 -58 56z" />
    <glyph glyph-name="ring" unicode="&#x2da;" horiz-adv-x="500" 
d="M195 682c0 -30 25 -55 55 -55s54 25 54 55s-24 55 -54 55s-55 -25 -55 -55zM149 683c0 56 45 101 101 101c55 0 100 -45 100 -101s-45 -101 -100 -101c-56 0 -101 45 -101 101z" />
    <glyph glyph-name="ogonek" unicode="&#x2db;" horiz-adv-x="500" 
d="M217 -134c0 -28 20 -43 51 -43c19 0 42 6 63 16l13 -40c-24 -13 -54 -21 -89 -21c-71 0 -113 36 -113 85c0 35 22 65 53 92c19 16 47 34 64 45h59c-43 -36 -58 -50 -71 -64c-21 -23 -30 -46 -30 -70z" />
    <glyph glyph-name="tilde" unicode="&#x2dc;" horiz-adv-x="500" 
d="M130 640l-42 24c18 41 52 82 102 82c19 0 42 -4 66 -20l17 -11c18 -11 31 -17 49 -17s37 18 48 39l43 -26c-17 -40 -52 -83 -102 -83c-22 0 -46 8 -63 19l-20 13c-20 13 -30 16 -49 16c-17 0 -35 -15 -49 -36z" />
    <glyph glyph-name="hungarumlaut" unicode="&#x2dd;" horiz-adv-x="503" 
d="M170 750h101l-136 -163h-60zM326 750h101l-137 -163h-59z" />
    <glyph glyph-name="acutecomb" unicode="&#x301;" horiz-adv-x="0" 
d="M-250 750h105l-130 -163h-53z" />
    <glyph glyph-name="uni0394" unicode="&#x394;" horiz-adv-x="660" 
d="M295 700h75l266 -659l1 -41h-615v41zM122 88h375l-184 482z" />
    <glyph glyph-name="uni0394" unicode="&#x2206;" horiz-adv-x="660" 
d="M295 700h75l266 -659l1 -41h-615v41zM122 88h375l-184 482z" />
    <glyph glyph-name="uni03A9" unicode="&#x3a9;" horiz-adv-x="720" 
d="M246 98v28c-58 13 -99 44 -125 71c-35 37 -73 102 -73 207s38 190 96 242c69 61 159 70 215 70c57 0 147 -9 216 -70c58 -52 96 -137 96 -242s-38 -170 -73 -207c-26 -27 -67 -58 -125 -71v-28h202l-20 -98h-246v159c45 11 79 36 99 61c43 52 53 131 53 190
c0 111 -33 166 -61 195c-27 28 -71 53 -141 53c-69 0 -113 -25 -140 -53c-28 -29 -61 -84 -61 -195c0 -59 10 -138 53 -190c20 -25 54 -49 99 -61v-159h-246l-20 98h202z" />
    <glyph glyph-name="uni03A9" unicode="&#x2126;" horiz-adv-x="720" 
d="M246 98v28c-58 13 -99 44 -125 71c-35 37 -73 102 -73 207s38 190 96 242c69 61 159 70 215 70c57 0 147 -9 216 -70c58 -52 96 -137 96 -242s-38 -170 -73 -207c-26 -27 -67 -58 -125 -71v-28h202l-20 -98h-246v159c45 11 79 36 99 61c43 52 53 131 53 190
c0 111 -33 166 -61 195c-27 28 -71 53 -141 53c-69 0 -113 -25 -140 -53c-28 -29 -61 -84 -61 -195c0 -59 10 -138 53 -190c20 -25 54 -49 99 -61v-159h-246l-20 98h202z" />
    <glyph glyph-name="pi" unicode="&#x3c0;" horiz-adv-x="640" 
d="M610 520l-40 -98h-69v-291c0 -35 2 -51 8 -63c10 -22 26 -24 41 -24c11 0 27 1 60 16v-57c-36 -13 -65 -15 -86 -15c-38 0 -72 9 -92 35c-25 31 -25 73 -25 108v291h-181v-396l-22 -38h-70l-22 38v55c17 38 29 78 37 116c9 48 13 102 13 157v68h-14c-12 0 -37 -4 -51 -12
c-25 -15 -25 -49 -25 -72v-21h-53v40c0 41 -1 88 38 127c37 37 84 36 121 36h432z" />
    <glyph glyph-name="afii10023" unicode="&#x401;" horiz-adv-x="560" 
d="M38 700h478l10 -142h-43l-27 65l-19 15h-225v-237h171l19 16l10 48h40v-196h-40l-10 54l-19 16h-171v-277h227l19 15l36 95h46l-20 -172h-482v40l57 20h-1l14 20v570l-70 10v40zM142 830c0 35 26 62 61 62c36 0 63 -27 63 -62c0 -34 -27 -60 -63 -60c-35 0 -61 26 -61 60
zM344 830c0 35 26 62 61 62c36 0 63 -27 63 -62c0 -34 -27 -60 -63 -60c-35 0 -61 26 -61 60z" />
    <glyph glyph-name="afii10051" unicode="&#x402;" horiz-adv-x="780" 
d="M26 700h528l16 -172h-46l-34 94l-19 16h-129v-253c22 7 75 22 159 22c56 0 132 -7 184 -56c49 -47 57 -107 57 -156c0 -40 -5 -107 -55 -159c-48 -50 -111 -52 -156 -52c-58 0 -84 8 -106 16l-10 110h46l30 -64c11 -3 24 -4 36 -4c25 0 53 2 77 26c30 30 34 79 34 117
c0 36 -3 89 -33 124s-74 40 -108 40c-32 0 -98 -3 -155 -27v-322h-184v40l66 20l14 20v558h-128l-19 -16l-34 -94h-47z" />
    <glyph glyph-name="afii10052" unicode="&#x403;" 
d="M38 700h466l16 -172h-46l-30 94l-19 16h-213v-588l80 -10v-40h-254v40l56 20l14 20v570l-70 10v40zM333 918h108l-132 -142h-52z" />
    <glyph glyph-name="afii10053" unicode="&#x404;" horiz-adv-x="600" 
d="M560 690l10 -162h-46l-44 106c-34 17 -65 24 -109 24s-103 -9 -145 -58c-46 -53 -56 -155 -57 -209h189l19 16l10 48h40v-196h-40l-10 54l-19 16h-189c1 -54 9 -173 53 -228c40 -50 98 -59 144 -59c45 0 82 8 114 24l56 86h44l-40 -131c-43 -19 -99 -37 -183 -37
c-52 0 -147 6 -213 70c-79 76 -86 196 -86 296c0 91 11 225 91 298c73 66 202 68 227 68c53 0 118 -8 184 -26z" />
    <glyph glyph-name="afii10054" unicode="&#x405;" 
d="M470 690l10 -162h-46l-42 106c-13 8 -44 24 -103 24c-29 0 -66 -5 -93 -33c-14 -15 -30 -42 -30 -96c0 -64 32 -102 96 -124l85 -29c106 -36 155 -81 155 -185c0 -70 -23 -121 -54 -150c-55 -54 -150 -57 -195 -57c-94 0 -160 16 -213 36l-10 172h45l42 -116
c58 -28 102 -34 134 -34c23 0 78 1 112 38c26 29 29 69 29 98c0 48 -8 97 -100 129l-76 26c-108 37 -160 88 -160 186c0 56 21 110 52 143c48 49 121 54 177 54c60 0 115 -6 185 -26z" />
    <glyph glyph-name="afii10055" unicode="&#x406;" horiz-adv-x="320" 
d="M38 700h244v-40l-56 -19l-14 -21v-570l70 -10v-40h-244v40l56 19l14 21v570l-70 10v40z" />
    <glyph glyph-name="afii10056" unicode="&#x407;" horiz-adv-x="320" 
d="M38 700h244v-40l-56 -19l-14 -20v-571l70 -10v-40h-244v40l56 19l14 21v570l-70 10v40zM38 827c0 30 24 54 55 54s55 -24 55 -54s-24 -54 -55 -54s-55 24 -55 54zM173 827c0 30 24 54 55 54s55 -24 55 -54s-24 -54 -55 -54s-55 24 -55 54z" />
    <glyph glyph-name="afii10057" unicode="&#x408;" horiz-adv-x="440" 
d="M168 700h254v-39l-64 -20l-6 -13v-416c0 -52 0 -134 -51 -183c-43 -41 -115 -45 -152 -45c-32 0 -82 2 -145 16l20 152h50l29 -102c15 -7 29 -8 44 -8c29 0 64 4 82 37c13 23 19 67 19 133v438l-80 10v40z" />
    <glyph glyph-name="afii10058" unicode="&#x409;" horiz-adv-x="1030" 
d="M130 700h552v-40l-56 -20l-14 -20v-219h131c62 0 136 -1 187 -43c53 -43 62 -109 62 -155c0 -57 -14 -114 -64 -156c-55 -47 -122 -47 -185 -47h-305v40l56 20l14 20v558h-218v-48c0 -94 -4 -175 -7 -231c-7 -117 -17 -176 -29 -219c-42 -146 -135 -156 -168 -156
c-23 0 -37 4 -56 17l-10 99l40 20l82 -49c24 28 37 56 46 92c9 34 18 94 26 205c6 87 6 148 6 223v49l-90 20v40zM612 339v-277h132c35 0 86 8 113 35c28 28 31 76 31 102c0 23 -2 69 -28 99c-31 37 -82 41 -116 41h-132z" />
    <glyph glyph-name="afii10059" unicode="&#x40a;" horiz-adv-x="1050" 
d="M458 700h244v-40l-57 -20h1l-14 -20v-219h131c62 0 136 -1 187 -43c53 -43 62 -109 62 -155c0 -57 -14 -114 -64 -156c-55 -47 -122 -47 -185 -47h-305v40l56 20l14 20v259h-316v-289l70 -10v-40h-244v40l56 20l14 20v570l-70 10v40h244v-40l-64 -20l-6 -12v-227h316v249
l-70 10v40zM632 339v-277h132c35 0 86 8 113 35c28 28 31 76 31 102c0 23 -2 69 -28 99c-31 37 -82 41 -116 41h-132z" />
    <glyph glyph-name="afii10060" unicode="&#x40b;" horiz-adv-x="800" 
d="M26 700h528l16 -172h-46l-34 94l-19 16h-129v-252c27 8 82 22 158 22c33 0 115 -2 161 -51c39 -40 41 -91 41 -130v-177l70 -10v-40h-154l-20 40v184c0 41 -3 78 -22 97c-20 22 -62 29 -100 29c-33 0 -85 -6 -134 -27v-273l80 -10v-40h-264v40l67 20h-1l14 20v558h-129
l-19 -16l-34 -94h-46z" />
    <glyph glyph-name="afii10061" unicode="&#x40c;" horiz-adv-x="668" 
d="M38 700h244v-40l-57 -20h1l-14 -20v-246l255 260l1 16l-65 10v40h234v-40l-91 -30l-230 -236l274 -334h-1l71 -20v-40h-178v30l-270 333v-313l70 -10v-40h-244v40l57 20h-1l14 20v570l-70 10v40zM373 918h108l-132 -142h-52z" />
    <glyph glyph-name="afii10062" unicode="&#x40e;" horiz-adv-x="680" 
d="M18 700h256v-40l-64 -20l-6 -19l183 -326l137 355l-68 10v40h206v-40l-76 -30l-192 -489c-24 -60 -44 -92 -65 -114c-38 -40 -75 -43 -114 -43c-34 0 -71 3 -121 26l30 130h50l23 -90c6 -3 13 -4 21 -4c16 0 35 0 57 22c18 18 39 60 47 82l12 32l-266 468l-50 10v40z
M360 821c8 0 40 0 54 14c10 9 17 30 16 48h100v-54c-18 -15 -36 -27 -63 -37c-32 -12 -69 -20 -107 -20c-33 0 -70 5 -107 19c-26 10 -46 24 -63 38v54h100c-1 -18 6 -39 16 -48c14 -14 46 -14 54 -14z" />
    <glyph glyph-name="afii10145" unicode="&#x40f;" horiz-adv-x="720" 
d="M38 700h244v-40l-56 -20l-14 -20v-558h296v588l-70 10v40h244v-40l-56 -20l-14 -20v-570l70 -10v-40h-290l20 -126v-40l-20 -34h-64l-20 34v40l20 126h-290v40l56 20l14 20v570l-70 10v40z" />
    <glyph glyph-name="afii10017" unicode="&#x410;" horiz-adv-x="680" 
d="M309 700h76l237 -650l50 -10v-40h-244v40l63 20h-1l10 20l-39 109h-274l-51 -139l70 -10v-40h-198v39l61 31h-1zM209 251h230l-112 320z" />
    <glyph glyph-name="afii10018" unicode="&#x411;" horiz-adv-x="652" 
d="M38 700h510l10 -142h-44l-26 64l-19 16h-257v-237h151c62 0 136 -1 187 -43c53 -43 62 -109 62 -155c0 -57 -14 -114 -64 -156c-55 -47 -122 -47 -185 -47h-325v40l56 20l14 20v570l-70 10v40zM212 339v-277h152c35 0 86 8 113 35c28 28 31 76 31 102c0 23 -2 69 -28 99
c-31 37 -82 41 -116 41h-152z" />
    <glyph glyph-name="afii10019" unicode="&#x412;" horiz-adv-x="652" 
d="M38 700h318c47 0 120 -1 168 -44c41 -38 48 -88 48 -127c0 -38 -7 -72 -39 -109c-21 -24 -45 -38 -72 -47v-4c32 -6 76 -21 103 -48c25 -25 48 -65 48 -133c0 -32 -6 -94 -59 -141c-55 -48 -119 -47 -189 -47h-326v40l57 20h-1l14 20v570l-70 10v40zM212 638v-243h141
c28 0 58 1 86 32c25 28 29 65 29 92c0 19 -2 61 -27 88c-26 28 -62 31 -88 31h-141zM212 333v-271h156c35 0 78 2 110 41c25 30 30 67 30 99c0 29 -2 62 -27 90c-34 39 -82 41 -113 41h-156z" />
    <glyph glyph-name="afii10020" unicode="&#x413;" 
d="M38 700h466l16 -172h-46l-30 94l-19 16h-213v-588l80 -10v-40h-254v40l56 20l14 20v570l-70 10v40z" />
    <glyph glyph-name="afii10021" unicode="&#x414;" horiz-adv-x="708" 
d="M114 700h552v-40l-57 -20h1l-14 -20v-558h82l10 -202h-48l-38 124l-19 16h-460l-21 -16l-38 -124h-48l10 202h76c31 72 62 161 79 261c17 102 22 241 23 317l-90 20v40zM178 62h314v576h-218c-4 -146 -10 -229 -24 -317c-15 -93 -37 -172 -72 -259z" />
    <glyph glyph-name="afii10022" unicode="&#x415;" horiz-adv-x="560" 
d="M38 700h478l10 -142h-43l-27 65l-19 15h-225v-237h171l19 16l10 48h40v-196h-40l-10 54l-19 16h-171v-277h227l19 15l36 95h46l-20 -172h-482v40l57 20h-1l14 20v570l-70 10v40z" />
    <glyph glyph-name="afii10024" unicode="&#x416;" horiz-adv-x="960" 
d="M358 700h244v-40l-57 -20h1l-14 -20v-247l235 261v16l-64 10v40h230v-40l-86 -30l-216 -240l247 -338l64 -12v-40h-172v30l-238 333v-313l70 -10v-40h-244v40l57 20h-1l14 20v283l-238 -333v-30h-172v40l75 30h-1l238 320l-239 260l-64 10v40h230v-40l-50 -10l-14 -16
l235 -261v277l-70 10v40z" />
    <glyph glyph-name="afii10025" unicode="&#x417;" horiz-adv-x="550" 
d="M170 333v62h83c26 0 68 4 98 36c26 28 31 68 31 101c0 24 -1 68 -28 96c-25 27 -62 30 -87 30c-41 0 -73 -7 -107 -24l-44 -104h-46l10 160c75 20 138 26 194 26c54 0 123 -6 168 -48c43 -39 50 -94 50 -134c0 -37 -10 -81 -47 -116c-23 -20 -62 -38 -92 -45v-4
c44 -4 86 -24 111 -49c42 -42 48 -96 48 -134c0 -45 -10 -108 -63 -152c-11 -9 -68 -50 -203 -50c-105 0 -167 24 -196 36l-10 160h46l41 -103c47 -29 92 -35 131 -35c31 0 76 3 107 32c34 31 37 82 37 116c0 31 -5 73 -29 101c-33 38 -98 42 -125 42h-78z" />
    <glyph glyph-name="afii10026" unicode="&#x418;" horiz-adv-x="748" 
d="M38 700h244v-40l-65 -20h1l-6 -12v-443l324 435v30l-70 10v40h244v-40l-64 -20l-6 -12v-578l70 -10v-40h-244v40l56 20l14 20v445l-324 -435v-40l70 -10v-40h-244v40l57 20h-1l14 20v570l-70 10v40z" />
    <glyph glyph-name="afii10027" unicode="&#x419;" horiz-adv-x="748" 
d="M374 798c8 0 39 0 53 14c10 9 17 30 16 48h102v-54c-18 -15 -36 -26 -63 -36c-32 -12 -70 -20 -108 -20c-33 0 -71 5 -108 19c-26 10 -46 23 -63 37v54h102c-1 -18 6 -39 16 -48c14 -14 45 -14 53 -14zM38 700h244v-40l-65 -20h1l-6 -12v-443l324 435v30l-70 10v40h244
v-40l-64 -20l-6 -12v-578l70 -10v-40h-244v40l56 20l14 20v445l-324 -435v-40l70 -10v-40h-244v40l57 20h-1l14 20v570l-70 10v40z" />
    <glyph glyph-name="afii10028" unicode="&#x41a;" horiz-adv-x="668" 
d="M38 700h244v-40l-57 -20h1l-14 -20v-246l255 260l1 16l-65 10v40h234v-40l-91 -30l-230 -236l274 -334h-1l71 -20v-40h-178v30l-270 333v-313l70 -10v-40h-244v40l57 20h-1l14 20v570l-70 10v40z" />
    <glyph glyph-name="afii10029" unicode="&#x41b;" horiz-adv-x="720" 
d="M130 700h552v-40l-64 -20l-6 -12v-578l70 -10v-40h-244v40l56 20l14 20v558h-218v-48c0 -94 -4 -175 -7 -231c-7 -117 -17 -176 -29 -219c-42 -146 -135 -156 -168 -156c-23 0 -37 4 -56 17l-10 99l40 20l82 -49c24 28 37 56 46 92c9 34 18 94 26 205c6 87 6 148 6 223
v49l-90 20v40z" />
    <glyph glyph-name="afii10030" unicode="&#x41c;" horiz-adv-x="840" 
d="M38 700h208l190 -431l176 431h190v-40l-56 -20l-14 -20v-570l70 -10v-40h-244v39l56 21l14 19v507l-186 -456h-54l-206 456v-536l70 -10v-40h-214v40l56 19l14 19v572l-70 10v40z" />
    <glyph glyph-name="afii10031" unicode="&#x41d;" horiz-adv-x="740" 
d="M38 700h244v-40l-64 -19l-6 -13v-227h316v249l-70 10v40h244v-40l-64 -19l-6 -13v-578l70 -10v-40h-244v40l56 19l14 21v259h-316v-289l70 -10v-40h-244v40l56 19l14 21v570l-70 10v40z" />
    <glyph glyph-name="afii10032" unicode="&#x41e;" horiz-adv-x="720" 
d="M58 350c0 102 7 218 89 297c68 66 151 69 213 69s145 -3 213 -69c82 -79 89 -195 89 -297c0 -99 -8 -219 -89 -298c-67 -64 -153 -68 -213 -68s-146 6 -213 70c-81 79 -89 197 -89 296zM168 350c0 -54 4 -183 55 -249c33 -43 80 -59 137 -59s104 16 137 59
c51 66 55 195 55 249c0 58 -4 181 -55 248c-34 45 -79 60 -137 60s-103 -15 -137 -60c-51 -67 -55 -190 -55 -248z" />
    <glyph glyph-name="afii10033" unicode="&#x41f;" horiz-adv-x="732" 
d="M38 700h656v-40l-57 -20h1l-14 -20v-570l70 -10v-40h-244v40l56 20l14 20v558h-308v-588l70 -10v-40h-244v40l56 20l14 20v570l-70 10v40z" />
    <glyph glyph-name="afii10034" unicode="&#x420;" horiz-adv-x="620" 
d="M38 700h315c61 0 128 -1 179 -44c52 -45 60 -110 60 -158c0 -36 -5 -113 -62 -161c-54 -45 -142 -47 -177 -47h-141v-240l80 -10v-40h-254v40l56 20l14 20v570l-70 10v40zM212 638v-286h122c29 0 85 1 121 38c31 32 33 81 33 109c0 31 -4 75 -30 102
c-34 36 -100 37 -124 37h-122z" />
    <glyph glyph-name="afii10035" unicode="&#x421;" horiz-adv-x="600" 
d="M560 690l10 -162h-46l-44 106c-34 17 -65 24 -109 24s-103 -9 -145 -58c-41 -47 -58 -128 -58 -250c0 -159 31 -220 54 -249c40 -48 99 -59 144 -59s82 8 114 24l56 86h44l-40 -131c-43 -19 -99 -37 -183 -37c-52 0 -147 6 -213 70c-79 76 -86 196 -86 296
c0 91 11 225 91 298c73 66 202 68 227 68c53 0 118 -8 184 -26z" />
    <glyph glyph-name="afii10036" unicode="&#x422;" horiz-adv-x="580" 
d="M26 700h528l16 -172h-46l-34 94l-19 16h-129v-588l80 -10v-40h-264v40l66 20l14 19v559h-129l-20 -16h1l-34 -94h-46z" />
    <glyph glyph-name="afii10037" unicode="&#x423;" horiz-adv-x="680" 
d="M18 700h256v-40l-64 -20l-6 -19l183 -326l137 355l-68 10v40h206v-40l-76 -30l-192 -489c-24 -60 -44 -92 -65 -114c-38 -40 -75 -43 -114 -43c-34 0 -71 3 -121 26l30 130h50l23 -90c6 -3 13 -4 21 -4c16 0 35 0 57 22c18 18 39 60 47 82l12 32l-266 468l-50 10v40z" />
    <glyph glyph-name="afii10038" unicode="&#x424;" horiz-adv-x="860" 
d="M298 716h264v-40l-80 -20v-39h26c81 0 179 -12 235 -74c53 -60 59 -150 59 -190s-6 -130 -59 -190c-56 -62 -154 -74 -235 -74h-26v-55l80 -10v-40h-264v40l80 20v45h-26c-81 0 -179 12 -235 74c-53 60 -59 150 -59 190s6 130 59 190c56 62 154 74 235 74h26v49l-80 10
v40zM378 147v412h-26c-31 0 -100 0 -143 -48c-13 -14 -41 -53 -41 -158s28 -144 41 -158c43 -48 112 -48 143 -48h26zM482 559v-412h26c31 0 100 0 143 48c13 14 41 53 41 158s-28 144 -41 158c-43 48 -112 48 -143 48h-26z" />
    <glyph glyph-name="afii10039" unicode="&#x425;" horiz-adv-x="640" 
d="M36 700h248v-40l-54 -20l-6 -20l106 -177l130 207l-60 10v40h206v-40l-84 -30l-154 -244l214 -336l50 -10v-40h-261v40l62 20l10 20l-135 227l-164 -257l70 -10v-40h-202v39l62 30l193 300l-175 281l-56 10v40z" />
    <glyph glyph-name="afii10040" unicode="&#x426;" horiz-adv-x="724" 
d="M38 700h244v-40l-56 -20l-14 -20v-558h296v588l-70 10v40h244v-40l-56 -20l-14 -20v-558h82l10 -202h-48l-38 124l-19 16h-561v40l56 20l14 20v570l-70 10v40z" />
    <glyph glyph-name="afii10041" unicode="&#x427;" horiz-adv-x="680" 
d="M28 700h244v-40l-64 -20l-6 -12v-152c0 -67 13 -87 22 -96c26 -29 84 -29 100 -29c36 0 91 6 144 27v272l-70 10v40h244v-40l-64 -20l-6 -12v-578l70 -10v-40h-254v40l66 20l14 20v235c-28 -8 -86 -22 -168 -22c-34 0 -115 2 -161 51c-39 40 -41 90 -41 129v177l-70 10
v40z" />
    <glyph glyph-name="afii10042" unicode="&#x428;" horiz-adv-x="980" 
d="M38 700h244v-40l-56 -20l-14 -20v-558h226v588l-70 10v40h244v-40l-56 -20l-14 -20v-558h226v588l-70 10v40h244v-40l-56 -20l-14 -20v-570l70 -10v-40h-904v40l56 20l14 20v570l-70 10v40z" />
    <glyph glyph-name="afii10043" unicode="&#x429;" horiz-adv-x="984" 
d="M38 700h244v-40l-56 -20l-14 -20v-558h226v588l-70 10v40h244v-40l-56 -20l-14 -20v-558h226v588l-70 10v40h244v-40l-56 -20l-14 -20v-558h82l10 -202h-48l-38 124l-19 16h-821v40l56 20l14 20v570l-70 10v40z" />
    <glyph glyph-name="afii10044" unicode="&#x42a;" horiz-adv-x="760" 
d="M26 700h376v-40l-57 -20h1l-14 -20v-220h141c62 0 136 -1 187 -43c53 -43 62 -108 62 -154c0 -57 -14 -114 -64 -156c-55 -47 -122 -47 -185 -47h-315v40l56 20l14 20v558h-119l-19 -16l-34 -94h-46zM332 338v-276h142c35 0 86 8 113 35c28 28 31 76 31 102
c0 23 -2 68 -28 98c-31 37 -82 41 -116 41h-142z" />
    <glyph glyph-name="afii10045" unicode="&#x42b;" horiz-adv-x="894" 
d="M38 700h244v-40l-56 -20l-14 -20v-220h131c62 0 136 -1 187 -43c53 -43 62 -108 62 -154c0 -57 -14 -114 -64 -156c-55 -47 -122 -47 -185 -47h-305v40l56 20l14 20v570l-70 10v40zM212 338v-276h132c35 0 86 8 113 35c28 28 31 76 31 102c0 23 -2 68 -28 98
c-31 37 -82 41 -116 41h-132zM612 700h244v-40l-56 -20l-14 -20v-570l70 -10v-40h-244v40l56 20l14 20v570l-70 10v40z" />
    <glyph glyph-name="afii10046" unicode="&#x42c;" horiz-adv-x="640" 
d="M38 700h244v-40l-56 -20l-14 -20v-220h141c62 0 136 -1 187 -43c53 -43 62 -108 62 -154c0 -57 -14 -114 -64 -156c-55 -47 -122 -47 -185 -47h-315v40l56 20l14 20v570l-70 10v40zM212 338v-276h142c35 0 86 8 113 35c28 28 31 76 31 102c0 23 -2 68 -28 98
c-31 37 -82 41 -116 41h-142z" />
    <glyph glyph-name="afii10047" unicode="&#x42d;" horiz-adv-x="620" 
d="M70 528l10 162c65 17 130 26 185 26c105 0 174 -31 212 -68c78 -75 85 -206 85 -290c0 -109 -13 -232 -87 -304c-66 -65 -165 -70 -214 -70c-111 0 -182 25 -211 36l-10 162h46l43 -106c43 -27 84 -34 121 -34c33 0 102 3 147 55c44 51 54 165 55 232h-189l-19 -16
l-10 -54h-40v196h40l10 -48l19 -16h189c-1 46 -8 157 -53 212c-38 47 -89 55 -132 55c-42 0 -74 -7 -107 -24l-44 -106h-46z" />
    <glyph glyph-name="afii10048" unicode="&#x42e;" horiz-adv-x="980" 
d="M38 700h244v-40l-56 -20l-14 -20v-229h118c1 72 19 190 85 256c65 66 152 69 210 69c76 0 152 -10 211 -69c84 -84 86 -223 86 -297c0 -71 -2 -214 -86 -298c-65 -65 -157 -68 -211 -68c-57 0 -145 6 -210 70c-62 60 -86 184 -87 275h-116v-279l70 -10v-40h-244v40l56 20
l14 20v570l-70 10v40zM438 350c0 -158 31 -221 52 -249c36 -49 86 -59 135 -59c50 0 101 9 136 59c40 57 51 171 51 249c0 81 -10 190 -51 248c-36 51 -85 60 -136 60c-63 0 -102 -15 -135 -60c-28 -39 -52 -105 -52 -248z" />
    <glyph glyph-name="afii10049" unicode="&#x42f;" horiz-adv-x="660" 
d="M622 700v-40l-56 -20l-14 -20v-570l70 -10v-40h-244v40l56 20l14 20v229h-108l-164 -279v-30h-168v40l71 20h-1l158 255c-39 2 -79 16 -106 36c-53 39 -62 98 -62 143c0 88 37 138 72 166c52 41 125 40 176 40h306zM448 371v267h-138c-23 0 -75 -1 -108 -37
c-27 -30 -30 -77 -30 -103c0 -28 2 -66 27 -92c31 -33 81 -35 111 -35h138z" />
    <glyph glyph-name="afii10065" unicode="&#x430;" 
d="M74 510c58 13 127 22 187 22c35 0 112 -2 151 -41c42 -42 40 -111 40 -152v-285l64 -20v-34l-158 -12v59c-64 -55 -116 -59 -171 -59c-27 0 -71 1 -104 32c-25 23 -41 65 -41 116c0 45 12 81 42 108c35 31 91 39 141 45l133 17v40c0 29 0 78 -23 103
c-14 15 -40 27 -78 27c-13 0 -54 -1 -89 -12l-34 -89h-50zM358 106v142l-116 -16c-36 -5 -60 -9 -80 -29s-20 -53 -20 -69c0 -25 4 -55 19 -71s38 -19 53 -19c62 0 116 37 144 62z" />
    <glyph glyph-name="afii10066" unicode="&#x431;" horiz-adv-x="590" 
d="M542 763v-40l-80 -78c-35 -3 -138 -13 -182 -24c-50 -12 -102 -37 -128 -87c-16 -30 -26 -82 -28 -122h2c17 42 47 68 74 83c37 20 79 25 117 25c51 0 113 -8 159 -51c65 -62 66 -162 66 -215c0 -71 -6 -159 -66 -215c-53 -49 -129 -51 -176 -51c-46 0 -124 2 -176 51
c-60 56 -66 150 -66 221v54c0 39 1 123 10 179s31 118 82 160c57 46 137 55 208 64c62 8 115 14 184 46zM156 254c0 -71 8 -130 40 -169c30 -37 66 -41 104 -41s74 4 104 41c32 39 40 97 40 169c0 96 -17 142 -39 169c-28 35 -65 41 -103 41c-48 0 -77 -10 -104 -42
c-37 -43 -42 -94 -42 -168z" />
    <glyph glyph-name="afii10067" unicode="&#x432;" 
d="M24 520h288c34 0 93 -2 129 -32c33 -28 37 -66 37 -90c0 -41 -12 -70 -30 -90c-11 -12 -29 -26 -58 -33v-4c30 -4 66 -18 83 -35c30 -29 35 -71 35 -99c0 -25 -4 -70 -41 -102c-40 -34 -103 -35 -137 -35h-296v34l54 20l6 16v396h1l-71 20v34zM188 464v-167h113
c20 0 39 0 60 20c19 19 23 43 23 68c0 17 -2 42 -21 59c-15 13 -38 20 -62 20h-113zM188 241v-185h124c27 0 54 -1 76 19c23 20 26 55 26 75c0 23 -2 48 -19 66c-24 25 -58 25 -83 25h-124z" />
    <glyph glyph-name="afii10068" unicode="&#x433;" horiz-adv-x="446" 
d="M24 520h396l10 -152h-44l-32 82l-14 12h-148v-408l80 -20v-34h-234v34l54 20l6 15v397l-74 20v34z" />
    <glyph glyph-name="afii10069" unicode="&#x434;" horiz-adv-x="594" 
d="M84 520h462v-34l-55 -20h1l-6 -16v-392h78l10 -178h-49l-32 108l-14 12h-374l-15 -12l-32 -108h-48l10 176h64c13 28 47 102 63 187c10 55 17 155 18 223l-81 20v34zM158 58h234v404h-164c-1 -62 -7 -158 -16 -219c-10 -62 -30 -129 -54 -185z" />
    <glyph glyph-name="afii10070" unicode="&#x435;" 
d="M502 281l-354 -47c1 -48 13 -113 44 -149c30 -35 68 -41 106 -41c67 0 127 22 169 42l25 -43c-74 -47 -157 -55 -209 -55c-87 0 -138 28 -165 52c-62 57 -70 146 -70 220c0 57 5 158 68 218c52 50 134 54 173 54c40 0 109 -5 156 -52c49 -50 58 -133 57 -199zM147 291
l255 34c-1 25 -8 77 -26 106c-22 35 -55 45 -89 45c-28 0 -73 -6 -103 -44c-25 -31 -36 -100 -37 -141z" />
    <glyph glyph-name="afii10072" unicode="&#x436;" horiz-adv-x="770" 
d="M272 520h216v-34l-51 -20h1l-6 -16v-177l182 191v12l-46 10v34h174v-34l-67 -26l-157 -166l194 -250l50 -10v-34h-158v34l-172 229v-209l66 -20v-34h-220v34l54 20l6 14v195l-172 -229v-34h-158v34l58 24l186 236l-177 182l-57 10v34h184v-33l-47 -23l183 -191v193h1
l-67 20v34z" />
    <glyph glyph-name="afii10073" unicode="&#x437;" horiz-adv-x="460" 
d="M62 510c49 15 101 22 159 22c31 0 107 -3 147 -35c22 -18 40 -52 40 -97c0 -43 -17 -73 -34 -92c-14 -15 -36 -29 -64 -33v-4c31 -4 65 -18 83 -35c30 -29 35 -65 35 -94c0 -33 -6 -82 -51 -116c-44 -33 -126 -37 -171 -37c-52 0 -104 5 -162 21l-10 122h40l46 -80
c28 -8 47 -8 72 -8c34 0 81 0 109 26c25 23 27 57 27 76c0 15 -1 48 -21 69c-25 26 -64 26 -89 26h-76v56h79c40 0 62 14 72 24c20 19 21 45 21 66s-1 46 -21 65c-24 23 -60 24 -85 24c-28 0 -49 -1 -74 -8l-42 -88h-40z" />
    <glyph glyph-name="afii10074" unicode="&#x438;" horiz-adv-x="632" 
d="M24 520h220v-34l-50 -20l-6 -15v-294l256 293v20l-60 16v34h214v-34l-54 -20l-6 -16v-396l70 -20v-34h-220v34l50 20l6 16v301l-256 -293v-28l64 -16v-34h-218v34l54 20l6 16v396h1l-71 20v34z" />
    <glyph glyph-name="afii10075" unicode="&#x439;" horiz-adv-x="632" 
d="M312 636c13 0 35 1 47 15c9 11 12 33 11 49h92v-50c-10 -21 -24 -32 -47 -42c-31 -13 -67 -18 -104 -18c-40 0 -70 3 -104 18c-23 10 -37 20 -47 42v50h92c-1 -16 2 -38 11 -49c12 -14 34 -15 49 -15zM24 520h220v-34l-50 -20l-6 -15v-294l256 293v20l-60 16v34h214v-34
l-54 -20l-6 -16v-396l70 -20v-34h-220v34l50 20l6 16v301l-256 -293v-28l64 -16v-34h-218v34l54 20l6 16v396h1l-71 20v34z" />
    <glyph glyph-name="afii10076" unicode="&#x43a;" horiz-adv-x="546" 
d="M24 520h220v-33l-50 -20l-6 -15v-179l188 191v12l-56 10v34h204v-33l-80 -26l-166 -167l214 -250l46 -10v-34h-158v34l-192 230v-210l70 -20v-34h-224v33l54 20l6 17v396l-70 20v34z" />
    <glyph glyph-name="afii10077" unicode="&#x43b;" horiz-adv-x="584" 
d="M88 520h462v-33l-54 -20l-6 -16v-397l70 -20v-34h-224v33l53 20l7 16v393h-164c-6 -176 -15 -260 -29 -323c-8 -34 -21 -88 -65 -123c-25 -20 -49 -26 -78 -26c-16 0 -25 2 -40 11l-10 89l30 16l68 -35c15 26 25 51 32 79c5 20 22 103 28 316l-80 20v34z" />
    <glyph glyph-name="afii10078" unicode="&#x43c;" horiz-adv-x="680" 
d="M24 520h174l146 -319l146 319h156v-33l-54 -20l-6 -16v-397l70 -20v-34h-220v33l50 20l6 16v333l-140 -312h-50l-144 311v-352l64 -16v-33h-188v33l54 20l6 16v397l-70 20v34z" />
    <glyph glyph-name="afii10079" unicode="&#x43d;" horiz-adv-x="612" 
d="M24 520h220v-34l-50 -20l-6 -16v-145h236v165l-60 16v34h214v-34l-54 -20l-6 -16v-396l70 -20v-34h-220v34l50 20l6 16v177h-236v-197l64 -16v-34h-218v34l54 20l6 16v396l-70 20v34z" />
    <glyph glyph-name="afii10080" unicode="&#x43e;" horiz-adv-x="580" 
d="M48 260c0 71 6 165 66 221c52 49 130 51 176 51s124 -2 176 -51c60 -56 66 -150 66 -221s-6 -165 -66 -221c-52 -49 -130 -51 -176 -51s-124 2 -176 51c-60 56 -66 150 -66 221zM146 260c0 -123 31 -164 38 -174c28 -36 74 -42 106 -42s78 6 106 42c7 10 38 51 38 174
s-31 164 -38 174c-28 36 -74 42 -106 42s-78 -6 -106 -42c-7 -10 -38 -51 -38 -174z" />
    <glyph glyph-name="afii10081" unicode="&#x43f;" horiz-adv-x="608" 
d="M24 520h550v-34l-54 -20l-6 -16v-396l70 -20v-34h-220v34l50 20l6 16v392h-232v-412l64 -16v-34h-218v34l54 20l6 16v396l-70 20v34z" />
    <glyph glyph-name="afii10082" unicode="&#x440;" horiz-adv-x="600" 
d="M190 532v-76c21 30 65 76 154 76c63 0 114 -20 145 -52c47 -48 63 -130 63 -220s-14 -169 -67 -220c-47 -45 -105 -52 -154 -52c-45 0 -92 5 -141 40v-194l80 -20v-34h-240v34l60 20l6 16v616l-72 20v34zM190 374v-288h-1c48 -35 93 -42 125 -42c40 0 75 9 99 40
c35 45 39 134 39 184c0 65 -6 125 -36 167c-22 31 -47 41 -83 41c-57 0 -114 -41 -143 -102z" />
    <glyph glyph-name="afii10083" unicode="&#x441;" horiz-adv-x="500" 
d="M447 86l25 -43c-59 -41 -129 -55 -189 -55c-74 0 -132 24 -165 52c-62 57 -70 146 -70 220c0 73 6 165 67 220c40 37 105 52 172 52c48 0 119 -8 173 -22l-20 -142h-50l-23 96c-24 7 -52 12 -82 12c-29 0 -69 -8 -96 -36c-33 -35 -41 -104 -41 -180c0 -62 5 -136 43 -177
c30 -32 70 -39 106 -39c23 0 80 3 150 42z" />
    <glyph glyph-name="afii10084" unicode="&#x442;" horiz-adv-x="494" 
d="M26 520h442l10 -152h-44l-31 82l-14 12h-95v-408l80 -20v-34h-244v34l64 20l6 16v392h-95l-14 -12l-31 -82h-44z" />
    <glyph glyph-name="afii10085" unicode="&#x443;" horiz-adv-x="580" 
d="M18 520h210v-33l-44 -27l132 -344l122 360l-66 10v34h190v-34l-62 -26l-189 -533c-13 -37 -33 -83 -66 -116c-30 -30 -59 -43 -110 -43c-29 0 -64 5 -105 26l30 112h50l20 -82c16 -2 40 0 63 22c19 19 43 66 51 90l21 64l-187 470l-60 16v34z" />
    <glyph glyph-name="afii10086" unicode="&#x444;" horiz-adv-x="780" 
d="M437 762v-260c37 19 81 30 119 30c54 0 95 -20 122 -52c41 -48 54 -130 54 -220c0 -110 -16 -179 -51 -220c-35 -42 -83 -52 -124 -52c-40 0 -76 5 -120 31v-185l80 -20v-34h-244v34l64 20l6 16v169c-42 -24 -82 -31 -120 -31c-41 0 -89 10 -124 52
c-35 41 -51 110 -51 220c0 90 13 172 54 220c27 32 69 52 122 52c39 0 80 -10 119 -30v172l-72 20v34zM343 75v370c-22 15 -61 31 -93 31c-35 0 -58 -18 -72 -41c-21 -34 -30 -89 -30 -175c0 -87 9 -140 30 -175c18 -30 40 -41 74 -41c17 0 51 2 91 31zM437 445v-370
c40 -29 74 -31 91 -31c34 0 56 11 74 41c21 35 30 88 30 175c0 86 -9 141 -30 175c-14 23 -37 41 -72 41c-32 0 -71 -16 -93 -31z" />
    <glyph glyph-name="afii10087" unicode="&#x445;" 
d="M26 520h208v-34l-37 -10v-12l83 -129l88 129v12l-56 10v34h200v-34l-79 -26h1l-122 -174l154 -234h-1l57 -18v-34h-220v34l51 20h-1l-101 159l-115 -167l68 -12v-34h-186v34l56 24l145 204l-139 214l-54 10v34z" />
    <glyph glyph-name="afii10088" unicode="&#x446;" horiz-adv-x="620" 
d="M24 520h220v-34l-50 -20l-6 -16v-392h230v412l-60 16v34h214v-34l-54 -20l-6 -16v-392h78l10 -178h-48l-31 108l-14 12h-473v34l54 20l6 16v396l-70 20v34z" />
    <glyph glyph-name="afii10089" unicode="&#x447;" horiz-adv-x="580" 
d="M22 520h210v-34l-50 -20l-6 -16v-61c0 -58 5 -81 13 -96c14 -24 36 -36 62 -36c47 0 107 22 141 42v171l-60 16v34h214v-34l-55 -20h1l-6 -16v-396l70 -20v-34h-244v34l70 20l10 16v171c-49 -25 -108 -40 -159 -40c-46 0 -89 13 -114 40c-35 37 -37 97 -37 146v79h1
l-61 20v34z" />
    <glyph glyph-name="afii10090" unicode="&#x448;" horiz-adv-x="862" 
d="M24 520h220v-34l-50 -20l-6 -16v-392h196v412l-60 16v34h210v-34l-50 -20l-6 -16v-392h196v412l-60 16v34h214v-34l-54 -20l-6 -16v-396l70 -20v-34h-804v34l54 20l6 16v396l-70 20v34z" />
    <glyph glyph-name="afii10091" unicode="&#x449;" horiz-adv-x="876" 
d="M24 520h220v-34l-50 -20l-6 -16v-392h196v412l-60 16v34h210v-34l-50 -20l-6 -16v-392h196v412l-60 16v34h214v-34l-54 -20l-6 -16v-394h80l10 -176h-52l-32 108l-13 12h-727v34l54 20l6 16v396l-70 20v34z" />
    <glyph glyph-name="afii10092" unicode="&#x44a;" horiz-adv-x="626" 
d="M26 520h316v-34l-54 -20l-6 -16v-147h118c45 0 103 -3 141 -33c40 -31 47 -78 47 -117c0 -28 -6 -79 -43 -114c-38 -36 -99 -39 -135 -39h-292v34l64 20l6 16v394h-83l-13 -12l-32 -82h-44zM282 247v-191h120c22 0 51 7 68 23c22 20 24 52 24 74c0 19 -2 48 -20 68
c-20 23 -52 26 -72 26h-120z" />
    <glyph glyph-name="afii10093" unicode="&#x44b;" horiz-adv-x="760" 
d="M24 520h224v-34l-54 -20l-6 -16v-147h118c45 0 103 -3 141 -33c40 -31 47 -78 47 -117c0 -28 -6 -79 -43 -114c-38 -36 -99 -39 -135 -39h-282v34l54 20l6 16v396l-70 20v34zM188 247v-191h120c22 0 51 7 68 23c22 20 24 52 24 74c0 19 -2 48 -20 68
c-20 23 -52 26 -72 26h-120zM502 520h224v-34l-54 -20l-6 -16v-396l70 -20v-34h-220v34l50 20l6 16v400l-70 16v34z" />
    <glyph glyph-name="afii10094" unicode="&#x44c;" horiz-adv-x="532" 
d="M24 520h224v-34l-54 -20l-6 -16v-147h118c45 0 103 -3 141 -33c40 -31 47 -78 47 -117c0 -28 -6 -79 -43 -114c-38 -36 -99 -39 -135 -39h-282v34l54 20l6 16v396h1l-71 20v34zM188 247v-191h120c22 0 51 7 68 23c22 20 24 52 24 74c0 19 -2 48 -20 68
c-20 23 -52 26 -72 26h-120z" />
    <glyph glyph-name="afii10095" unicode="&#x44d;" horiz-adv-x="488" 
d="M54 510c57 18 116 22 154 22c44 0 117 -6 165 -52c57 -55 67 -148 67 -220c0 -75 -4 -163 -69 -220c-54 -47 -132 -52 -176 -52c-77 0 -126 14 -151 22l-10 122h40l44 -80c25 -6 47 -8 70 -8c36 0 81 6 111 41c32 37 40 113 41 155h-208v54h208c-1 47 -13 111 -37 140
c-30 38 -69 42 -106 42c-26 0 -48 -2 -71 -8l-42 -90h-40z" />
    <glyph glyph-name="afii10096" unicode="&#x44e;" horiz-adv-x="818" 
d="M770 260c0 -71 -6 -165 -66 -221c-52 -49 -130 -51 -176 -51c-44 0 -125 2 -176 51c-57 54 -65 165 -66 210h-98v-199l64 -16v-34h-218v34l54 20l6 16v396l-70 20v34h220v-34l-50 -20l-6 -16v-145h99c3 61 23 136 65 176c51 49 132 51 176 51c46 0 124 -2 176 -51
c60 -56 66 -150 66 -221zM384 260c0 -123 31 -164 38 -174c28 -36 74 -42 106 -42s78 6 106 42c7 10 38 51 38 174s-31 164 -38 174c-28 36 -74 42 -106 42s-78 -6 -106 -42c-7 -10 -38 -51 -38 -174z" />
    <glyph glyph-name="afii10097" unicode="&#x44f;" horiz-adv-x="528" 
d="M494 520v-34l-54 -20l-6 -16v-396l70 -20v-34h-220v34l50 20l6 16v151h-62l-124 -187v-34h-146v34l46 10l132 185c-31 2 -63 14 -87 34c-35 30 -43 69 -43 104c0 36 9 78 43 110c41 37 98 43 141 43h254zM256 277h84v187h-98c-19 0 -48 -1 -70 -26
c-18 -21 -22 -48 -22 -71c0 -22 3 -51 23 -69c24 -22 60 -21 83 -21z" />
    <glyph glyph-name="afii10071" unicode="&#x451;" 
d="M502 281l-354 -47c1 -48 13 -113 44 -149c30 -35 68 -41 106 -41c67 0 127 22 169 42l25 -43c-74 -47 -157 -55 -209 -55c-87 0 -138 28 -165 52c-62 57 -70 146 -70 220c0 57 5 158 68 218c52 50 134 54 173 54c40 0 109 -5 156 -52c49 -50 58 -133 57 -199zM147 291
l255 34c-1 25 -8 77 -26 106c-22 35 -55 45 -89 45c-28 0 -73 -6 -103 -44c-25 -31 -36 -100 -37 -141zM121 694c0 32 26 57 58 57c33 0 59 -25 59 -57c0 -31 -26 -56 -59 -56c-32 0 -58 25 -58 56zM311 694c0 32 26 57 58 57c33 0 59 -25 59 -57c0 -31 -26 -56 -59 -56
c-32 0 -58 25 -58 56z" />
    <glyph glyph-name="afii10099" unicode="&#x452;" horiz-adv-x="582" 
d="M190 762v-131h205v-58h-205v-124c49 60 111 71 162 71c38 0 94 -8 128 -47c52 -58 54 -180 54 -261c0 -118 -4 -227 -49 -309c-19 -33 -50 -73 -106 -104l-30 37c30 24 46 48 59 88c24 73 28 171 28 256c0 134 -6 205 -28 243c-15 27 -35 41 -68 41
c-60 0 -117 -42 -150 -96v-314l70 -20v-34h-224v34l54 20l6 16v503h-80v58h80v43l-72 20v34z" />
    <glyph glyph-name="afii10100" unicode="&#x453;" horiz-adv-x="446" 
d="M24 520h396l10 -152h-44l-32 82l-14 12h-148v-408l80 -20v-34h-234v34l54 20l6 15v397l-74 20v34zM277 750h104l-130 -163h-52z" />
    <glyph glyph-name="afii10101" unicode="&#x454;" horiz-adv-x="500" 
d="M447 86l25 -43c-59 -41 -129 -55 -189 -55c-74 0 -133 23 -165 52c-63 56 -70 146 -70 220c0 73 6 165 67 220c40 37 105 52 172 52c48 0 119 -8 173 -22l-20 -132h-40l-34 86c-23 7 -51 12 -81 12c-31 0 -67 -5 -96 -36c-27 -29 -38 -84 -40 -146h223v-54h-224
c2 -97 28 -141 43 -157c30 -32 70 -39 106 -39c23 0 80 3 150 42z" />
    <glyph glyph-name="afii10102" unicode="&#x455;" horiz-adv-x="440" 
d="M378 510l10 -132h-39l-42 90c-23 6 -46 8 -72 8c-18 0 -49 -2 -67 -23c-14 -16 -16 -37 -16 -53c0 -15 1 -34 16 -49c13 -14 43 -25 59 -30l55 -17c43 -13 75 -29 97 -54c14 -16 29 -46 29 -95c0 -59 -22 -102 -57 -128c-42 -32 -108 -39 -155 -39c-39 0 -95 4 -152 22
l-10 130h40l49 -88c27 -7 48 -8 72 -8c30 0 63 2 87 22c14 12 26 31 26 70c0 19 -2 43 -20 61c-12 12 -39 25 -58 31l-56 18c-31 10 -67 24 -90 49c-26 28 -32 62 -32 92c0 59 24 94 51 114c38 29 93 31 122 31c50 0 108 -9 153 -22z" />
    <glyph glyph-name="afii10103" unicode="&#x456;" horiz-adv-x="284" 
d="M190 532v-478h-1l71 -20v-34h-224v34l54 20l6 16v396l-72 20v34zM85 694c0 32 26 57 58 57c33 0 59 -25 59 -57c0 -31 -26 -56 -59 -56c-32 0 -58 25 -58 56z" />
    <glyph glyph-name="afii10104" unicode="&#x457;" horiz-adv-x="284" 
d="M190 532v-478h-1l71 -20v-34h-224v34l54 20l6 16v396l-72 20v34zM14 698c0 31 25 55 56 55c33 0 58 -24 58 -55s-25 -55 -58 -55c-31 0 -56 24 -56 55zM156 698c0 31 25 55 56 55c33 0 58 -24 58 -55s-25 -55 -58 -55c-31 0 -56 24 -56 55z" />
    <glyph glyph-name="afii10105" unicode="&#x458;" horiz-adv-x="262" 
d="M184 532v-586c0 -62 7 -178 -213 -178c-39 0 -66 4 -97 12l30 122h54l20 -72c11 -5 22 -6 33 -6c20 0 45 4 62 28c18 25 17 62 17 94l1 520l-73 20v34zM77 694c0 32 26 57 58 57c33 0 59 -25 59 -57c0 -31 -26 -56 -59 -56c-32 0 -58 25 -58 56z" />
    <glyph glyph-name="afii10106" unicode="&#x459;" horiz-adv-x="834" 
d="M88 520h462v-34l-54 -20l-6 -16v-147h118c45 0 103 -3 141 -33c40 -31 47 -78 47 -117c0 -28 -7 -78 -43 -114c-39 -35 -99 -39 -135 -39h-282v34l54 20l6 15v393h-164c-6 -176 -15 -260 -29 -323c-8 -34 -20 -88 -64 -123c-25 -20 -50 -26 -79 -26c-16 0 -25 2 -40 11
l-10 89l30 16l68 -35c15 26 25 51 32 79c5 20 22 103 28 316l-80 20v34zM490 247v-191h120c22 0 51 7 68 23c22 20 24 52 24 74c0 19 -2 48 -20 68c-20 23 -52 26 -72 26h-120z" />
    <glyph glyph-name="afii10107" unicode="&#x45a;" horiz-adv-x="860" 
d="M24 520h220v-34l-50 -20l-6 -16v-145h234v165l-60 16v34h214v-34l-54 -20l-6 -16v-145h118c45 0 103 -3 141 -33c40 -31 47 -80 47 -119c0 -28 -6 -79 -43 -114c-38 -36 -99 -39 -135 -39h-282v34l54 20l6 16v177h-234v-197l64 -16v-34h-218v34l54 20l6 16v396l-70 20v34
zM516 247v-191h120c22 0 51 7 68 23c22 20 24 52 24 74c0 19 -2 48 -20 68c-20 23 -52 26 -72 26h-120z" />
    <glyph glyph-name="afii10108" unicode="&#x45b;" horiz-adv-x="612" 
d="M190 762v-131h205v-58h-205v-124c48 59 112 71 164 71c33 0 90 -3 128 -43c40 -41 42 -99 42 -154v-269l64 -20v-34h-138l-20 30v291c0 64 -8 89 -17 104c-20 34 -52 39 -74 39c-76 0 -127 -60 -149 -96v-314l70 -20v-34h-224v34l54 20l6 16v503h-80v58h80v43l-72 20v34z
" />
    <glyph glyph-name="afii10109" unicode="&#x45c;" horiz-adv-x="546" 
d="M24 520h220v-33l-50 -20l-6 -15v-179l188 191v12l-56 10v34h204v-33l-80 -26l-166 -167l214 -250l46 -10v-34h-158v34l-192 230v-210l70 -20v-34h-224v33l54 20l6 17v396l-70 20v34zM317 750h104l-130 -163h-52z" />
    <glyph glyph-name="afii10110" unicode="&#x45e;" horiz-adv-x="580" 
d="M18 520h210v-33l-44 -27l132 -344l122 360l-66 10v34h190v-34l-62 -26l-189 -533c-13 -37 -33 -83 -66 -116c-30 -30 -59 -43 -110 -43c-29 0 -64 5 -105 26l30 112h50l20 -82c16 -2 40 0 63 22c19 19 43 66 51 90l21 64l-187 470l-60 16v34zM301 636c13 0 36 1 48 15
c9 11 13 33 11 49h90v-50c-10 -21 -24 -33 -47 -43c-31 -13 -66 -18 -103 -18c-40 0 -69 3 -103 18c-23 10 -37 21 -47 43v50h90c-2 -16 2 -38 11 -49c12 -14 35 -15 50 -15z" />
    <glyph glyph-name="afii10193" unicode="&#x45f;" horiz-adv-x="606" 
d="M24 520h220v-34l-50 -20l-6 -16v-392h230v412l-60 16v34h214v-34l-54 -20l-6 -16v-396l70 -20v-34h-252l20 -106v-40l-20 -34h-54l-20 34v40l20 106h-242v34l54 20l6 16v396l-70 20v34z" />
    <glyph glyph-name="afii10146" unicode="&#x462;" horiz-adv-x="766" 
d="M338 339v-277h142c35 0 86 8 113 35c28 28 31 76 31 102c0 23 -2 69 -28 99c-31 37 -82 41 -116 41h-142zM338 554v-153h141c62 0 136 -1 187 -43c53 -43 62 -109 62 -155c0 -57 -14 -114 -64 -156c-55 -47 -122 -47 -185 -47h-315v40l56 20l14 20v474h-123l-21 -16
l-34 -94h-46l16 172h208v34l-70 10v40h244v-40l-56 -20l-14 -20v-4h212l16 -172h-46l-34 94l-21 16h-127z" />
    <glyph glyph-name="afii10194" unicode="&#x463;" horiz-adv-x="638" 
d="M294 247v-191h120c22 0 51 7 68 23c22 20 24 52 24 74c0 19 -2 48 -20 68c-20 23 -52 26 -72 26h-120zM294 520h174l10 -150h-45l-30 80l-14 12h-95v-159h118c45 0 103 -3 141 -33c40 -31 47 -78 47 -117c0 -28 -6 -79 -43 -114c-38 -36 -99 -39 -135 -39h-282v34l54 20
l6 16v392h-93l-14 -12l-31 -80h-46l10 150h174v154l-72 20v34l166 34v-242z" />
    <glyph glyph-name="afii10147" unicode="&#x472;" horiz-adv-x="720" 
d="M58 350c0 102 7 218 89 297c68 66 151 69 213 69s145 -3 213 -69c82 -79 89 -195 89 -297c0 -99 -8 -219 -89 -298c-67 -64 -153 -68 -213 -68s-146 4 -213 68c-81 79 -89 199 -89 298zM169 395h382c-2 65 -18 157 -54 203c-33 43 -80 60 -137 60
c-58 0 -103 -15 -137 -60c-36 -47 -52 -137 -54 -203zM552 333h-384c1 -74 18 -186 55 -233c27 -35 71 -58 137 -58s110 23 137 58c37 47 54 159 55 233z" />
    <glyph glyph-name="afii10195" unicode="&#x473;" horiz-adv-x="580" 
d="M48 260c0 71 6 165 66 221c52 49 130 51 176 51s124 -2 176 -51c60 -56 66 -150 66 -221s-6 -165 -66 -221c-52 -49 -130 -51 -176 -51s-124 2 -176 51c-60 56 -66 150 -66 221zM147 295h286c-2 41 -12 107 -37 139c-17 22 -49 42 -106 42s-89 -20 -106 -42
c-25 -32 -35 -98 -37 -139zM433 239h-286c1 -45 11 -120 37 -153c17 -22 49 -42 106 -42s89 20 106 42c26 33 36 108 37 153z" />
    <glyph glyph-name="afii10148" unicode="&#x474;" horiz-adv-x="744" 
d="M358 146l145 428c30 88 77 142 165 142c23 0 37 -3 56 -16l12 -99l-40 -22l-84 49c-24 -28 -35 -48 -47 -83l-191 -545h-68l-238 650l-50 10v40h244v-40l-64 -20l-6 -20z" />
    <glyph glyph-name="afii10196" unicode="&#x475;" horiz-adv-x="580" 
d="M307 120l118 320c9 23 23 48 46 67c25 20 50 25 79 25c12 0 25 -2 40 -11l10 -89l-30 -16l-68 35c-7 -11 -16 -28 -19 -37l-156 -414h-74l-175 470l-60 16v34h210v-33l-44 -26z" />
    <glyph glyph-name="afii10050" unicode="&#x490;" horiz-adv-x="532" 
d="M38 700h377l19 16l30 94h50l-20 -182h-43l-30 10h-209v-588l80 -10v-40h-254v40l56 20l14 20v570l-70 10v40z" />
    <glyph glyph-name="afii10098" unicode="&#x491;" horiz-adv-x="440" 
d="M24 520h309l13 12l32 82h48l-14 -162h-39l-30 10h-151v-408l80 -20v-34h-234v34l54 20l6 16v396l-74 20v34z" />
    <glyph glyph-name="uni1E9E" unicode="&#x1e9e;" horiz-adv-x="678" 
d="M443 42c61 0 92 43 92 118c0 56 -15 115 -102 166l-128 75l150 181c-15 39 -55 76 -115 76c-35 0 -69 -14 -94 -43c-18 -21 -27 -58 -27 -100v-515h-174v40l57 20h-1l14 19v438c0 63 26 119 65 151c45 36 113 47 161 47c144 0 196 -59 219 -134l-131 -153l62 -37
c95 -54 153 -119 153 -216c0 -126 -80 -191 -198 -191c-72 0 -107 13 -150 30l-15 6l-10 171h46l42 -115c19 -22 52 -34 84 -34z" />
    <glyph glyph-name="uni2010" unicode="&#x2010;" horiz-adv-x="419" 
d="M70 341h279v-82h-279v82z" />
    <glyph glyph-name="uni2011" unicode="&#x2011;" horiz-adv-x="419" 
d="M70 341h279v-82h-279v82z" />
    <glyph glyph-name="figuredash" unicode="&#x2012;" horiz-adv-x="529" 
d="M50 389h429v-62h-429v62z" />
    <glyph glyph-name="endash" unicode="&#x2013;" horiz-adv-x="739" 
d="M70 331h599v-62h-599v62z" />
    <glyph glyph-name="emdash" unicode="&#x2014;" horiz-adv-x="938" 
d="M70 331h798v-62h-798v62z" />
    <glyph glyph-name="quoteleft" unicode="&#x2018;" horiz-adv-x="280" 
d="M179 712l43 -20c-18 -36 -30 -71 -39 -113c-12 -56 -13 -100 -13 -149v-19l-121 19c8 46 25 111 46 157c21 45 54 91 84 125z" />
    <glyph glyph-name="quoteright" unicode="&#x2019;" horiz-adv-x="280" 
d="M102 410l-43 20c18 36 30 71 39 113c12 56 13 100 13 149v19l121 -19c-8 -46 -25 -111 -46 -157c-21 -45 -54 -91 -84 -125z" />
    <glyph glyph-name="quotesinglbase" unicode="&#x201a;" horiz-adv-x="280" 
d="M102 -160l-43 20c18 36 30 71 39 113c12 56 13 100 13 149v19l121 -19c-8 -46 -25 -111 -46 -157c-21 -45 -54 -91 -84 -125z" />
    <glyph glyph-name="quotedblleft" unicode="&#x201c;" 
d="M389 692l43 -20c-19 -38 -29 -73 -35 -100c-8 -35 -13 -88 -13 -132v-20l-105 20c6 41 20 99 38 140c17 39 48 83 72 112zM209 712l43 -20c-19 -38 -29 -73 -35 -100c-8 -35 -13 -88 -13 -132v-20l-105 20c6 41 20 99 38 140c17 39 48 83 72 112z" />
    <glyph glyph-name="quotedblright" unicode="&#x201d;" 
d="M152 440l-43 20c19 38 29 73 35 100c8 35 13 88 13 132v20l105 -20c-6 -41 -20 -99 -38 -140c-17 -39 -48 -83 -72 -112zM332 420l-43 20c19 38 29 73 35 100c8 35 13 88 13 132v20l105 -20c-6 -41 -20 -99 -38 -140c-17 -39 -48 -83 -72 -112z" />
    <glyph glyph-name="quotedblbase" unicode="&#x201e;" 
d="M151 -140l-43 20c19 38 29 73 35 100c8 35 13 88 13 132v20l105 -20c-6 -41 -20 -99 -38 -140c-17 -39 -48 -83 -72 -112zM331 -160l-43 20c19 38 29 73 35 100c8 35 13 88 13 132v20l105 -20c-6 -41 -20 -99 -38 -140c-17 -39 -48 -83 -72 -112z" />
    <glyph glyph-name="dagger" unicode="&#x2020;" 
d="M242 700h56l22 -38v-42l-28 -119c36 6 70 14 106 20h41l33 -21v-40l-33 -21h-41l-106 20l28 -129c-22 -93 -28 -196 -28 -250v-80h-44v80c0 54 -6 157 -28 250l28 129c-36 -6 -70 -14 -106 -20h-41l-33 21v40l33 21h41l106 -20l-28 119v42z" />
    <glyph glyph-name="daggerdbl" unicode="&#x2021;" 
d="M242 700h56l22 -38v-42l-28 -119l106 20h41l33 -21v-40l-33 -21h-41l-106 20l28 -109l-28 -109l106 20h41l33 -21v-40l-33 -21h-41l-106 20l28 -119v-42l-22 -38h-56l-22 38v42l28 119l-106 -20h-41l-33 21v40l33 21h41l106 -20l-28 109l28 109l-106 -20h-41l-33 21v40
l33 21h41l106 -20l-28 119v42z" />
    <glyph glyph-name="bullet" unicode="&#x2022;" horiz-adv-x="1000" 
d="M378 350c0 68 54 122 122 122s122 -54 122 -122s-54 -122 -122 -122s-122 54 -122 122z" />
    <glyph glyph-name="ellipsis" unicode="&#x2026;" horiz-adv-x="840" 
d="M70 58c0 38 31 70 70 70c38 0 70 -32 70 -70c0 -39 -32 -70 -70 -70c-39 0 -70 31 -70 70zM350 58c0 38 31 70 70 70c38 0 70 -32 70 -70c0 -39 -32 -70 -70 -70c-39 0 -70 31 -70 70zM630 58c0 38 31 70 70 70c38 0 70 -32 70 -70c0 -39 -32 -70 -70 -70
c-39 0 -70 31 -70 70z" />
    <glyph glyph-name="perthousand" unicode="&#x2030;" horiz-adv-x="1300" 
d="M180 710c35 0 81 -3 114 -39c43 -47 44 -128 44 -181s-1 -134 -44 -181c-33 -36 -79 -39 -114 -39s-81 3 -114 39c-43 47 -44 128 -44 181s1 134 44 181c33 36 79 39 114 39zM180 322c21 0 39 7 54 26c20 29 24 71 24 142c0 82 -6 119 -24 143c-15 20 -33 25 -54 25
s-39 -5 -54 -25c-18 -24 -24 -61 -24 -143c0 -71 4 -113 24 -142c15 -19 33 -26 54 -26zM720 430c35 0 81 -3 114 -39c43 -47 44 -128 44 -181s-1 -134 -44 -181c-33 -36 -79 -39 -114 -39s-81 3 -114 39c-43 47 -44 128 -44 181s1 134 44 181c33 36 79 39 114 39zM720 42
c21 0 39 7 54 26c20 29 24 71 24 142c0 82 -6 119 -24 143c-15 20 -33 25 -54 25s-39 -5 -54 -25c-18 -24 -24 -61 -24 -143c0 -71 4 -113 24 -142c15 -19 33 -26 54 -26zM165 -81l-47 33l617 829l47 -33zM1120 430c35 0 81 -3 114 -39c43 -47 44 -128 44 -181
s-1 -134 -44 -181c-33 -36 -79 -39 -114 -39s-81 3 -114 39c-43 47 -44 128 -44 181s1 134 44 181c33 36 79 39 114 39zM1120 42c21 0 39 7 54 26c20 29 24 71 24 142c0 82 -6 119 -24 143c-15 20 -33 25 -54 25s-39 -5 -54 -25c-18 -24 -24 -61 -24 -143
c0 -71 4 -113 24 -142c15 -19 33 -26 54 -26z" />
    <glyph glyph-name="guilsinglleft" unicode="&#x2039;" horiz-adv-x="380" 
d="M266 480l44 -38l-129 -142l129 -142l-44 -38l-198 180z" />
    <glyph glyph-name="guilsinglright" unicode="&#x203a;" horiz-adv-x="380" 
d="M114 120l-44 38l129 142l-129 143l44 37l198 -180z" />
    <glyph glyph-name="fraction" unicode="&#x2044;" horiz-adv-x="180" 
d="M-195 -81l-47 33l617 829l47 -33z" />
    <glyph glyph-name="uni2081" unicode="&#x2081;" horiz-adv-x="360" 
d="M183 420h47v-373l77 -21v-26h-245v25l84 22v291l-108 -12v28c39 4 99 19 145 66z" />
    <glyph glyph-name="uni2082" unicode="&#x2082;" horiz-adv-x="360" 
d="M126 62h144l26 46h28l-18 -108h-278v27l136 148c58 63 67 96 67 134c0 19 -3 37 -17 52c-18 19 -43 21 -61 21c-20 0 -41 -6 -56 -13l-12 -65h-30l-20 96c43 17 94 30 137 30c31 0 78 -7 103 -28c19 -15 35 -42 35 -77c0 -66 -48 -119 -90 -164z" />
    <glyph glyph-name="uni2083" unicode="&#x2083;" horiz-adv-x="360" 
d="M61 420h256v-28l-111 -137c22 -2 52 -8 71 -21c37 -26 44 -71 44 -101s-10 -79 -55 -113c-36 -24 -89 -30 -118 -30c-52 0 -85 12 -114 27l21 87h30l11 -56c18 -8 33 -10 52 -10s48 0 70 20c21 19 24 47 24 69s-3 49 -19 67c-14 16 -44 27 -89 20v28l95 116h-134l-20 -52
h-27z" />
    <glyph glyph-name="uni2084" unicode="&#x2084;" horiz-adv-x="360" 
d="M165 430l88 -10c-29 -58 -56 -107 -90 -164c-28 -47 -49 -80 -77 -120h126v116l80 24v-140h48v-46h-48v-90h-80v90h-200v26c27 45 59 101 78 139c23 47 53 117 75 175z" />
    <glyph glyph-name="Euro" unicode="&#x20ac;" horiz-adv-x="576" 
d="M534 690l10 -142h-45l-44 85c-25 17 -49 25 -80 25c-34 0 -86 -9 -124 -58c-28 -41 -42 -110 -44 -149h270l-22 -62h-252c-1 -12 -1 -28 -1 -39s0 -27 1 -39h228l-22 -62h-204c4 -70 19 -115 43 -148c31 -43 71 -59 122 -59c37 0 66 12 85 25l46 85h43l-30 -132
c-36 -20 -82 -36 -153 -36c-49 0 -132 7 -192 70c-42 45 -70 123 -74 195h-83l22 62h59c-1 12 -1 28 -1 39s0 27 1 39h-81l22 62h62c5 49 24 142 80 197c44 44 119 68 204 68c22 0 82 -3 154 -26z" />
    <glyph glyph-name="uni20B4" unicode="&#x20b4;" horiz-adv-x="560" 
d="M110 690c61 20 117 26 168 26c92 0 134 -20 153 -35c28 -23 51 -63 51 -106c0 -47 -26 -89 -59 -120h89v-62h-144c-20 -20 -59 -59 -79 -78h223v-62h-270c-27 -31 -44 -63 -44 -104c0 -29 9 -59 25 -77c23 -26 56 -30 85 -30c52 0 89 8 122 24l36 76h44l-20 -122
c-67 -30 -136 -36 -178 -36c-54 0 -129 10 -172 47c-33 28 -52 73 -52 121c0 42 22 76 44 101h-84v62h131c21 20 58 58 79 78h-210v62h265c46 45 59 86 59 118c0 26 -4 45 -22 62c-23 22 -51 23 -72 23c-41 0 -74 -5 -109 -25l-34 -65h-45z" />
    <glyph glyph-name="uni20B8" unicode="&#x20b8;" horiz-adv-x="492" 
d="M4 560h483v-61h-190v-449l80 -10v-40h-263v40l65 20l14 19v420h-189v61zM4 700h483v-62h-483v62z" />
    <glyph glyph-name="uni20BD" unicode="&#x20bd;" horiz-adv-x="552" 
d="M52 700h235c61 0 128 -1 179 -44c52 -45 60 -110 60 -158c0 -36 -5 -113 -62 -161c-54 -45 -142 -47 -177 -47h-61v-79h180v-62h-180v-99l80 -10v-40h-254v40l56 20l14 20v69h-82v62h82v79h-82v62h82v298l-70 10v40zM226 638v-286h36c29 0 85 1 121 38
c31 32 33 81 33 109c0 31 -4 75 -30 102c-34 36 -100 37 -124 37h-36z" />
    <glyph glyph-name="afii61352" unicode="&#x2116;" horiz-adv-x="1000" 
d="M18 700h184l316 -514v464l-70 10v40h204v-40l-46 -20l-14 -20v-620h-74l-356 574v-524l70 -10v-40h-214v40l56 20l14 20v570l-70 10v40zM672 536c0 62 11 107 37 134c30 30 71 30 98 30s68 0 98 -30c26 -27 37 -72 37 -134s-11 -107 -37 -134c-30 -30 -71 -30 -98 -30
s-68 0 -98 30c-26 27 -37 72 -37 134zM742 536c0 -23 3 -78 17 -99c11 -18 28 -23 48 -23s37 5 48 23c14 21 17 76 17 99s-3 78 -17 99c-11 18 -28 23 -48 23s-37 -5 -48 -23c-14 -21 -17 -76 -17 -99zM686 254v64h242v-64h-242z" />
    <glyph glyph-name="trademark" unicode="&#x2122;" horiz-adv-x="800" 
d="M52 700h260l5 -93h-23l-13 44h-62v-220l34 -10v-22h-143v23l34 9v220h-62l-13 -44h-23zM359 700h121l80 -175l84 175h109v-21l-33 -10v-238l33 -10v-22h-140v22l32 10v177c-27 -56 -60 -122 -86 -178h-28l-85 178v-177l32 -10v-22h-119v22l33 10v238l-33 10v21z" />
    <glyph glyph-name="partialdiff" unicode="&#x2202;" 
d="M192 697v53c37 7 67 12 104 12c39 0 115 -8 164 -51c58 -53 63 -154 63 -187c0 -95 -28 -240 -54 -319c-17 -51 -46 -115 -98 -162c-47 -41 -95 -55 -151 -55c-47 0 -99 12 -131 40c-29 25 -53 75 -53 148c0 81 29 174 70 231c54 76 144 104 220 104c60 0 89 -8 105 -13
c1 11 2 23 2 38c0 39 -8 93 -36 128c-31 39 -77 46 -116 46c-25 0 -46 -2 -89 -13zM387 226c16 60 32 148 40 223c-49 9 -77 10 -89 10c-83 0 -129 -40 -158 -87c-48 -77 -54 -174 -54 -209c0 -31 4 -65 27 -92c21 -25 50 -31 73 -31c36 0 67 7 98 46c33 38 52 102 63 140z
" />
    <glyph glyph-name="product" unicode="&#x220f;" horiz-adv-x="740" 
d="M38 700h663v-40l-56 -20l-14 -20v-790l70 -9v-40h-244v39l56 19l14 20v779h-315v-808l70 -9v-40h-244v39l56 20l14 18v792l-70 10v40z" />
    <glyph glyph-name="summation" unicode="&#x2211;" horiz-adv-x="560" 
d="M38 700h454l10 -142h-43l-26 63l-19 17h-231l215 -338l-256 -422h278l18 15l36 95h46l-30 -207h-462v42l271 437l-261 398v42z" />
    <glyph glyph-name="minus" unicode="&#x2212;" horiz-adv-x="560" 
d="M36 335h487v-62h-487v62z" />
    <glyph glyph-name="uni2215" unicode="&#x2215;" horiz-adv-x="680" 
d="M569 717l59 -31l-517 -887l-59 31z" />
    <glyph glyph-name="radical" unicode="&#x221a;" horiz-adv-x="620" 
d="M26 565h180l127 -426l198 611h64l-258 -790h-60l-162 544h-91z" />
    <glyph glyph-name="infinity" unicode="&#x221e;" horiz-adv-x="660" 
d="M487 122c-65 0 -102 25 -165 94c-25 -29 -45 -48 -71 -66c-27 -18 -55 -28 -91 -28c-50 0 -79 21 -94 35c-32 30 -37 68 -37 97c0 47 16 79 37 101c23 23 56 39 106 39c28 0 53 -6 81 -21c33 -18 54 -39 77 -65l8 -9c22 27 44 50 70 67c27 18 55 28 91 28
c50 0 79 -21 94 -35c32 -31 37 -69 37 -98c0 -47 -16 -79 -37 -100c-31 -32 -71 -39 -106 -39zM289 250l-14 14c-22 22 -26 27 -49 45c-19 15 -35 27 -68 27c-17 0 -38 -4 -55 -21c-18 -18 -22 -41 -22 -57c0 -23 4 -45 21 -64s35 -24 59 -24c26 0 45 7 67 22
c25 17 48 43 61 58zM370 265l14 -14c22 -22 26 -27 49 -45c19 -15 35 -27 68 -27c17 0 38 4 55 21c18 18 22 41 22 57c0 23 -4 45 -21 64c-17 20 -35 25 -59 25c-26 0 -45 -8 -67 -23c-25 -17 -48 -43 -61 -58z" />
    <glyph glyph-name="integral" unicode="&#x222b;" horiz-adv-x="400" 
d="M23 -117l27 15l70 -56c32 14 43 45 43 115v572c0 37 1 102 42 145c28 30 59 32 89 32c26 0 47 -2 73 -10l10 -93l-28 -15l-66 57c-40 -16 -46 -57 -46 -116v-572c0 -33 -1 -105 -38 -144c-27 -29 -64 -32 -92 -32c-27 0 -48 2 -74 10z" />
    <glyph glyph-name="approxequal" unicode="&#x2248;" horiz-adv-x="560" 
d="M482 455l41 -19c-13 -33 -33 -62 -55 -81c-27 -24 -54 -36 -91 -36c-39 0 -66 12 -92 24l-37 17c-26 12 -57 26 -87 26c-24 0 -41 -9 -54 -23c-11 -11 -24 -32 -31 -46l-40 20c12 29 31 61 52 82c28 27 58 38 90 38c31 0 67 -12 92 -23l42 -19c29 -13 54 -24 87 -24
c21 0 38 6 53 20c11 11 23 28 30 44zM482 287l41 -20c-13 -32 -33 -61 -55 -80c-27 -24 -54 -36 -91 -36c-39 0 -66 12 -92 24l-37 17c-26 12 -57 26 -87 26c-24 0 -41 -9 -54 -23c-11 -11 -24 -32 -31 -46l-40 20c12 29 31 61 52 82c28 27 58 38 90 38c31 0 66 -13 92 -24
l42 -18c29 -13 54 -24 87 -24c21 0 38 6 53 20c11 11 23 28 30 44z" />
    <glyph glyph-name="notequal" unicode="&#x2260;" horiz-adv-x="560" 
d="M35 431h282l79 143l53 -29l-65 -114h140v-62h-174l-72 -130h246v-62h-281l-80 -143l-52 29l64 114h-140v62h174l73 130h-247v62z" />
    <glyph glyph-name="lessequal" unicode="&#x2264;" horiz-adv-x="706" 
d="M621 685l23 -58l-529 -216l529 -217l-23 -58l-561 233v83zM60 0v64h585v-64h-585z" />
    <glyph glyph-name="greaterequal" unicode="&#x2265;" horiz-adv-x="706" 
d="M83 136l-23 58l529 217l-529 216l23 58l562 -233v-83zM60 0v64h585v-64h-585z" />
    <glyph glyph-name="lozenge" unicode="&#x25ca;" 
d="M270 703l222 -353l-221 -353l-224 353zM426 350l-156 252l-157 -252l158 -252z" />
    <glyph glyph-name="uniF400" unicode="&#xf400;" horiz-adv-x="0" 
d="M-250 750h105l-130 -163h-53z" />
    <glyph glyph-name="uniF401" unicode="&#xf401;" horiz-adv-x="0" 
d="M-300 918h109l-132 -142h-53z" />
    <glyph glyph-name="uniF406" unicode="&#xf406;" horiz-adv-x="519" 
d="M260 771c-83 0 -130 25 -155 78v69h46c0 -56 57 -67 108 -67c55 0 108 9 108 67h46v-69c-25 -53 -84 -78 -153 -78z" />
    <glyph glyph-name="uniF407" unicode="&#xf407;" horiz-adv-x="414" 
d="M181 0h53l-18 -51c69 -2 120 -23 120 -81c0 -80 -91 -91 -136 -91c-30 0 -66 6 -99 19l17 44c23 -9 48 -16 75 -16c37 0 58 13 58 43c0 31 -20 39 -54 39c-21 0 -34 -2 -49 -3z" />
    <glyph glyph-name="uniF408" unicode="&#xf408;" horiz-adv-x="350" 
d="M137 918h76l114 -142h-57l-95 74l-95 -74h-57z" />
    <glyph glyph-name="uniF409" unicode="&#xf409;" horiz-adv-x="432" 
d="M190 -45l102 -18c-4 -30 -11 -56 -28 -98c-12 -29 -29 -66 -44 -87l-46 20c7 22 13 58 15 77c3 29 3 46 3 71c0 12 0 23 -2 35z" />
    <glyph glyph-name="uniF40A" unicode="&#xf40a;" horiz-adv-x="238" 
d="M88 766l102 -18c-4 -30 -12 -61 -29 -103c-12 -29 -29 -66 -44 -87l-46 20c7 22 13 58 15 77c3 29 4 51 4 76c0 12 0 23 -2 35z" />
    <glyph glyph-name="uniF40B" unicode="&#xf40b;" horiz-adv-x="324" 
d="M99 830c0 35 26 62 61 62c36 0 63 -27 63 -62c0 -34 -27 -60 -63 -60c-35 0 -61 26 -61 60z" />
    <glyph glyph-name="uniF40C" unicode="&#xf40c;" horiz-adv-x="400" 
d="M98 857c0 56 45 101 102 101s101 -45 101 -101c0 -57 -44 -102 -101 -102s-102 45 -102 102zM146 856c0 -30 24 -54 54 -54s55 24 55 54c0 29 -25 54 -55 54s-54 -25 -54 -54z" />
    <glyph glyph-name="uniF40D" unicode="&#xf40d;" horiz-adv-x="522" 
d="M145 789l-46 27c18 42 53 81 103 81c17 0 42 -6 68 -21l18 -10c17 -10 29 -16 45 -16c18 0 37 16 49 37l47 -26c-17 -42 -51 -82 -102 -82c-20 0 -46 8 -64 19l-22 14c-17 11 -28 15 -41 15c-25 0 -39 -15 -55 -38z" />
    <glyph glyph-name="uniF40E" unicode="&#xf40e;" horiz-adv-x="409" 
d="M167 -133c0 -28 18 -42 49 -42c18 0 42 7 64 17l12 -41c-25 -15 -54 -23 -87 -23c-71 0 -122 34 -122 86c0 41 27 69 56 91c18 13 43 30 66 45h62c-44 -36 -54 -46 -67 -62c-21 -23 -33 -49 -33 -71z" />
    <glyph glyph-name="zero.tab" unicode="&#xf4e0;" horiz-adv-x="560" 
d="M280 716c52 0 122 -9 169 -64c57 -66 63 -185 63 -302s-6 -236 -63 -302c-47 -55 -117 -64 -169 -64s-122 9 -169 64c-57 66 -63 185 -63 302s6 236 63 302c47 55 117 64 169 64zM280 42c40 0 68 16 89 47c23 34 39 94 39 261s-16 227 -39 261c-21 31 -49 47 -89 47
s-68 -16 -89 -47c-23 -34 -39 -94 -39 -261s16 -227 39 -261c21 -31 49 -47 89 -47z" />
    <glyph glyph-name="one.tab" unicode="&#xf4e1;" horiz-adv-x="560" 
d="M309 700h43v-640l130 -20v-40h-384v40l132 30h-1l19 20v478l-180 -20v42c66 8 164 33 241 110z" />
    <glyph glyph-name="two.tab" unicode="&#xf4e2;" horiz-adv-x="560" 
d="M192 98h238l40 80h44l-30 -178h-436v30l231 265c67 76 107 146 107 231c0 23 -4 66 -34 97c-28 29 -65 35 -96 35c-38 0 -66 -8 -94 -22l-20 -108h-54l-30 121c69 47 138 67 211 67c53 0 125 -12 167 -48c32 -28 54 -77 54 -129c0 -109 -76 -187 -130 -251z" />
    <glyph glyph-name="three.tab" unicode="&#xf4e3;" horiz-adv-x="560" 
d="M94 700h410v-30l-193 -257c40 -1 85 -13 118 -36c63 -45 73 -114 73 -167c0 -47 -17 -127 -83 -178c-57 -44 -133 -48 -182 -48c-62 0 -119 6 -187 43l30 125h54l19 -93c26 -14 49 -17 77 -17c55 0 97 14 123 37c40 36 45 94 45 128c0 35 -6 78 -33 111
c-19 22 -53 42 -100 42c-16 0 -31 -2 -47 -5v31l161 216h-233l-30 -90h-44z" />
    <glyph glyph-name="four.tab" unicode="&#xf4e4;" horiz-adv-x="560" 
d="M284 716l114 -16c-48 -93 -95 -180 -148 -273c-45 -80 -77 -134 -124 -205h212v198l104 41v-239h84v-72h-84v-150h-104v150h-316v40c37 62 94 163 132 238c65 127 120 262 130 288z" />
    <glyph glyph-name="five.tab" unicode="&#xf4e5;" horiz-adv-x="560" 
d="M138 700h354v-98h-296l-13 -164c25 2 50 3 76 3c56 0 120 -8 169 -46c60 -47 74 -117 74 -175c0 -52 -11 -130 -83 -186c-59 -46 -131 -50 -182 -50c-62 0 -119 6 -187 43l30 123h55l19 -91c27 -14 48 -17 77 -17c64 0 101 18 122 38c20 19 45 57 45 136
c0 29 -3 82 -35 119c-38 45 -99 48 -136 48c-49 0 -85 -7 -118 -15z" />
    <glyph glyph-name="six.tab" unicode="&#xf4e6;" horiz-adv-x="560" 
d="M439 688h1c-121 -102 -191 -205 -232 -282c40 12 69 14 100 14c40 0 98 -5 142 -37c60 -44 72 -113 72 -164c0 -94 -35 -151 -70 -182c-48 -42 -119 -53 -169 -53c-54 0 -125 7 -174 54c-36 34 -59 89 -59 157c0 88 31 172 70 241c38 67 119 185 273 281zM183 343
c-6 -16 -29 -72 -29 -140c0 -45 10 -90 32 -118c29 -37 67 -43 97 -43c28 0 76 5 105 46c23 32 30 87 30 123c0 21 -1 82 -34 117c-28 30 -65 34 -99 34c-37 0 -66 -4 -102 -19z" />
    <glyph glyph-name="seven.tab" unicode="&#xf4e7;" horiz-adv-x="560" 
d="M72 700h470v-30c-71 -108 -115 -197 -168 -324c-49 -119 -94 -237 -134 -362l-114 16c50 119 109 241 173 361c45 84 88 158 141 241h-316l-30 -90h-44z" />
    <glyph glyph-name="eight.tab" unicode="&#xf4e8;" horiz-adv-x="560" 
d="M212 351c-49 29 -63 40 -72 47c-52 44 -58 99 -58 134c0 42 11 105 70 147c38 27 89 37 135 37c44 0 108 -5 150 -47c27 -27 45 -70 45 -121c0 -46 -16 -85 -49 -116c-22 -21 -63 -43 -84 -53c13 -6 61 -32 90 -56c54 -45 63 -96 63 -142c0 -71 -26 -115 -54 -143
c-48 -47 -116 -54 -162 -54c-42 0 -110 2 -162 42c-18 14 -66 58 -66 138c0 39 13 89 64 134c23 20 59 39 90 53zM219 459c17 -17 63 -46 85 -58c20 13 39 27 55 43c22 22 43 53 43 106c0 37 -12 64 -30 81c-26 25 -60 27 -84 27c-26 0 -56 -2 -80 -30
c-18 -20 -26 -49 -26 -77c0 -39 16 -71 37 -92zM343 274c-20 15 -60 38 -85 51c-19 -11 -49 -31 -70 -52c-27 -28 -46 -59 -46 -106c0 -39 8 -69 36 -94c32 -28 64 -31 95 -31c30 0 68 1 98 32c13 14 31 38 31 87c0 55 -20 84 -59 113z" />
    <glyph glyph-name="nine.tab" unicode="&#xf4e9;" horiz-adv-x="560" 
d="M120 13c120 101 191 204 232 281c-35 -11 -63 -14 -97 -14c-41 0 -101 5 -145 37c-60 44 -72 113 -72 164c0 94 35 151 70 182c48 42 119 53 169 53c54 0 125 -7 174 -54c36 -34 59 -89 59 -157c0 -60 -18 -147 -71 -241c-45 -79 -133 -194 -273 -281zM378 357
c6 16 28 72 28 140c0 45 -10 90 -32 118c-29 37 -67 43 -96 43c-32 0 -74 -6 -103 -46c-25 -35 -33 -86 -33 -123c0 -65 17 -97 34 -117c30 -34 73 -34 102 -34c34 0 63 4 100 19z" />
    <glyph glyph-name="dollar.tab" unicode="&#xf4ec;" horiz-adv-x="560" 
d="M245 790h64v-76c31 0 65 -4 96 -9c33 -5 58 -11 91 -23l-30 -132h-44l-26 94c-14 5 -44 13 -87 14v-259l46 -16c41 -15 86 -37 117 -71c38 -42 44 -87 44 -123c0 -35 -10 -103 -62 -150c-40 -36 -98 -52 -145 -53v-86h-64v86c-37 -1 -70 2 -109 10c-37 7 -62 15 -92 31
l30 125h54l19 -93c35 -12 71 -15 98 -15v274l-40 16c-35 14 -76 31 -108 64c-33 34 -49 71 -49 121c0 49 13 104 68 148c19 15 62 44 129 47v76zM309 294v-250c32 2 60 17 78 37c25 28 29 66 29 93c0 30 -5 53 -27 75c-19 19 -52 36 -80 45zM245 421v237
c-35 0 -60 -17 -74 -34c-19 -23 -27 -55 -27 -82c0 -34 10 -60 34 -83c18 -18 45 -31 67 -38z" />
    <glyph glyph-name="Euro.tab" unicode="&#xf4ed;" horiz-adv-x="560" 
d="M510 690l10 -142h-45l-44 85c-25 17 -49 25 -80 25c-34 0 -86 -9 -124 -58c-28 -41 -42 -110 -44 -149h270l-22 -62h-252c-1 -12 -1 -28 -1 -39s0 -27 1 -39h228l-22 -62h-204c4 -70 19 -115 43 -148c31 -43 71 -59 122 -59c37 0 66 12 85 25l46 85h43l-30 -132
c-36 -20 -82 -36 -153 -36c-49 0 -132 7 -192 70c-42 45 -70 123 -74 195h-83l22 62h59c-1 12 -1 28 -1 39s0 27 1 39h-81l22 62h62c5 49 24 142 80 197c44 44 119 68 204 68c22 0 82 -3 154 -26z" />
    <glyph glyph-name="cent.tab" unicode="&#xf4ee;" horiz-adv-x="560" 
d="M477 86l25 -43c-25 -17 -75 -46 -147 -52v-91h-62v88c-48 1 -106 18 -145 52c-64 57 -70 145 -70 220c0 72 6 165 67 220c40 36 104 50 148 51v69h62v-69c31 -1 75 -5 135 -21l-20 -122h-46l-14 76c-16 5 -36 8 -55 10v-429c18 1 59 7 122 41zM293 46v429
c-19 0 -47 -6 -73 -35c-34 -40 -42 -100 -42 -180c0 -64 5 -136 43 -177c11 -12 35 -33 72 -37z" />
    <glyph glyph-name="sterling.tab" unicode="&#xf4ef;" horiz-adv-x="560" 
d="M82 -9l-31 50c24 17 48 40 63 66c19 32 28 71 28 104c0 29 -7 70 -18 103h-86v62h68c-13 36 -24 83 -24 123c0 66 22 122 58 158c34 34 92 59 171 59c21 0 54 -2 104 -11c32 -5 59 -10 91 -23l-30 -134h-44l-26 96c-37 13 -75 14 -89 14c-31 0 -71 -7 -100 -41
c-29 -35 -31 -80 -31 -116c0 -43 9 -75 26 -125h167v-62h-153c10 -29 13 -57 13 -83c0 -63 -29 -118 -80 -155l1 -3c34 22 63 28 101 28c42 0 64 -10 91 -22c40 -18 61 -27 80 -27c24 0 55 21 76 47l34 -39c-20 -22 -45 -40 -70 -52c-32 -16 -64 -22 -97 -22
c-40 0 -74 9 -106 20l-9 3c-25 9 -49 18 -80 18c-36 0 -69 -15 -98 -36z" />
    <glyph glyph-name="yen.tab" unicode="&#xf4fa;" horiz-adv-x="560" 
d="M148 0v39l66 20l14 20v50h-154v62h154v78h-154v62h144l-166 319l-54 10v40h250v-39l-64 -20l-6 -21l124 -252l138 278l-70 14v40h192v-39l-66 -30l-154 -300h144v-62h-154v-78h154v-62h-154v-79l80 -10v-40h-264z" />
    <glyph glyph-name="florin.tab" unicode="&#xf4fb;" horiz-adv-x="560" 
d="M152 511h80l9 58c7 47 13 105 60 148c44 42 112 45 158 45c44 0 79 -3 121 -14l-32 -122h-40l-6 81c-13 2 -26 3 -44 3c-22 0 -59 -1 -87 -27c-30 -27 -36 -74 -40 -113l-9 -59h120l-8 -62h-120l-72 -503c-8 -55 -20 -107 -58 -143c-30 -28 -67 -35 -111 -35
c-42 0 -74 6 -103 14l33 122h40l6 -82c6 -1 17 -2 23 -2c20 0 40 11 52 29c14 21 25 75 28 97l72 503h-80z" />
    <glyph glyph-name="uni20B4.tab" unicode="&#xf4fc;" horiz-adv-x="560" 
d="M110 690c61 20 117 26 168 26c92 0 134 -20 153 -35c28 -23 51 -63 51 -106c0 -47 -26 -89 -59 -120h89v-62h-144c-20 -20 -59 -59 -79 -78h223v-62h-270c-27 -31 -44 -63 -44 -104c0 -29 9 -59 25 -77c23 -26 56 -30 85 -30c52 0 89 8 122 24l36 76h44l-20 -122
c-67 -30 -136 -36 -178 -36c-54 0 -129 10 -172 47c-33 28 -52 73 -52 121c0 42 22 76 44 101h-84v62h131c21 20 58 58 79 78h-210v62h265c46 45 59 86 59 118c0 26 -4 45 -22 62c-23 22 -51 23 -72 23c-41 0 -74 -5 -109 -25l-34 -65h-45z" />
    <glyph glyph-name="uni20BD.tab" unicode="&#xf4fd;" horiz-adv-x="560" 
d="M48 700h235c61 0 128 -1 179 -44c52 -45 60 -110 60 -158c0 -36 -5 -113 -62 -161c-54 -45 -142 -47 -177 -47h-61v-79h180v-62h-180v-99l80 -10v-40h-254v40l56 20l14 20v69h-82v62h82v79h-82v62h82v298l-70 10v40zM222 638v-286h36c29 0 85 1 121 38
c31 32 33 81 33 109c0 31 -4 75 -30 102c-34 36 -100 37 -124 37h-36z" />
    <glyph glyph-name="currency.tab" unicode="&#xf4fe;" horiz-adv-x="560" 
d="M59 104l72 73c-20 27 -33 60 -33 103s13 76 33 103l-73 73l46 45l73 -73c27 19 60 32 103 32c42 0 77 -14 103 -32l73 73l45 -45l-72 -72c20 -27 33 -61 33 -104s-14 -76 -34 -103l73 -73l-45 -45l-73 73c-27 -19 -60 -32 -103 -32c-42 0 -77 14 -103 32l-73 -73z
M152 280c0 -73 56 -128 128 -128s128 55 128 128s-56 128 -128 128s-128 -55 -128 -128z" />
    <glyph glyph-name="uni20B8.tab" unicode="&#xf5f3;" horiz-adv-x="560" 
d="M38 560h483v-61h-190v-449l80 -10v-40h-263v40l65 20l14 19v420h-189v61zM38 700h483v-62h-483v62z" />
    <glyph glyph-name="numbersign.tab" unicode="&#xf5f4;" horiz-adv-x="560" 
d="M219 570h59l-21 -99h103l21 99h59l-21 -99h85l-16 -76h-85l-26 -120h85l-16 -76h-85l-21 -99h-59l21 99h-103l-21 -99h-59l21 99h-84l16 76h84l26 120h-84l16 76h84zM215 275h103l26 120h-103z" />
    <glyph glyph-name="uniF6BA" unicode="&#xf6ba;" horiz-adv-x="419" 
d="M70 399h279v-82h-279v82z" />
    <glyph glyph-name="uniF6BB" unicode="&#xf6bb;" horiz-adv-x="739" 
d="M70 389h599v-62h-599v62z" />
    <glyph glyph-name="uniF6BC" unicode="&#xf6bc;" horiz-adv-x="938" 
d="M70 389h798v-62h-798v62z" />
    <glyph glyph-name="uniF6C3" unicode="&#xf6c3;" horiz-adv-x="475" 
d="M206 -45l97 -17c-4 -32 -11 -63 -27 -101c-12 -28 -28 -63 -44 -86l-39 15c7 25 10 58 13 82c2 23 2 49 2 74c0 11 0 21 -2 33z" />
    <glyph glyph-name="uniF6C9" unicode="&#xf6c9;" horiz-adv-x="500" 
d="M233 918h108l-132 -142h-52z" />
    <glyph glyph-name="uniF6CA" unicode="&#xf6ca;" horiz-adv-x="350" 
d="M209 776h-76l-114 142h57l95 -74l95 74h57z" />
    <glyph glyph-name="uniF6CB" unicode="&#xf6cb;" horiz-adv-x="500" 
d="M87 830c0 35 26 62 61 62c36 0 63 -27 63 -62c0 -34 -27 -60 -63 -60c-35 0 -61 26 -61 60zM289 830c0 35 26 62 61 62c36 0 63 -27 63 -62c0 -34 -27 -60 -63 -60c-35 0 -61 26 -61 60z" />
    <glyph glyph-name="uniF6CE" unicode="&#xf6ce;" horiz-adv-x="378" 
d="M199 918l65 -142h-59l-114 142h108z" />
    <glyph glyph-name="uniF6CF" unicode="&#xf6cf;" horiz-adv-x="412" 
d="M272 918h102l-120 -142h-65zM112 918h102l-121 -142h-65z" />
    <glyph glyph-name="uniF6D0" unicode="&#xf6d0;" horiz-adv-x="518" 
d="M414 804h-308v54h308v-54z" />
    <glyph glyph-name="uniF6D1" unicode="&#xf6d1;" horiz-adv-x="500" 
d="M250 821c8 0 40 0 54 14c10 9 17 30 16 48h100v-54c-18 -15 -36 -27 -63 -37c-32 -12 -69 -20 -107 -20c-33 0 -70 5 -107 19c-26 10 -46 24 -63 38v54h100c-1 -18 6 -39 16 -48c14 -14 46 -14 54 -14z" />
    <glyph glyph-name="uniF6D4" unicode="&#xf6d4;" horiz-adv-x="500" 
d="M251 636c13 0 36 1 48 15c9 11 13 33 11 49h90v-50c-10 -21 -24 -33 -47 -43c-31 -13 -66 -18 -103 -18c-40 0 -69 3 -103 18c-23 10 -37 21 -47 43v50h90c-2 -16 2 -38 11 -49c12 -14 35 -15 50 -15z" />
    <glyph glyph-name="uniFEFF" unicode="&#xfeff;" horiz-adv-x="0" 
 />
    <glyph glyph-name="nbspace" horiz-adv-x="233" 
 />
    <glyph glyph-name="g.ss01" horiz-adv-x="582" 
d="M478 520h24v-538c0 -45 2 -117 -53 -166c-41 -37 -117 -47 -175 -47c-43 0 -125 6 -194 33l30 111h53l20 -73c30 -11 58 -15 93 -15c26 0 69 5 100 34c28 32 32 84 32 122v83c-48 -69 -117 -76 -153 -76c-51 0 -101 9 -142 52c-51 51 -65 125 -65 220c0 91 14 169 67 220
c46 45 104 52 150 52c52 0 111 -10 164 -53zM408 144v285c-18 14 -67 47 -128 47c-28 0 -65 -6 -93 -41s-40 -95 -40 -183c0 -26 0 -117 37 -167c23 -32 52 -41 82 -41c68 0 118 52 142 100z" />
    <glyph glyph-name="gbreve.ss01" horiz-adv-x="582" 
d="M478 520h24v-538c0 -45 2 -117 -53 -166c-41 -37 -117 -47 -175 -47c-43 0 -125 6 -194 33l30 111h53l20 -73c30 -11 58 -15 93 -15c26 0 69 5 100 34c28 32 32 84 32 122v83c-48 -69 -117 -76 -153 -76c-51 0 -101 9 -142 52c-51 51 -65 125 -65 220c0 91 14 169 67 220
c46 45 104 52 150 52c52 0 111 -10 164 -53zM408 144v285c-18 14 -67 47 -128 47c-28 0 -65 -6 -93 -41s-40 -95 -40 -183c0 -26 0 -117 37 -167c23 -32 52 -41 82 -41c68 0 118 52 142 100zM286 608c-86 0 -128 21 -155 78v69h44c0 -60 62 -70 110 -70c53 0 110 8 110 70
h44v-69c-27 -57 -82 -78 -153 -78z" />
    <glyph glyph-name="gcommaaccent.ss01" horiz-adv-x="582" 
d="M331 587l-94 17c4 32 11 63 27 101c12 28 28 63 44 86l36 -15c-7 -25 -10 -58 -13 -82c-2 -23 -2 -49 -2 -74c0 -11 0 -21 2 -33zM481 520h21v-539c0 -45 2 -118 -52 -166c-41 -37 -117 -47 -175 -47c-42 0 -125 6 -195 33l30 110h54l20 -74c31 -11 57 -15 93 -15
c27 0 70 2 101 34c32 34 34 85 34 124v90c-49 -74 -120 -82 -156 -82c-50 0 -100 9 -142 52c-50 50 -64 125 -64 220c0 91 14 170 66 220c47 45 104 52 150 52c52 0 110 -8 165 -54zM412 144v286c-15 12 -64 48 -131 48c-29 0 -67 -6 -95 -41s-40 -96 -40 -185
c0 -26 0 -118 37 -169c23 -32 53 -41 84 -41c71 0 121 52 145 102z" />
    <glyph glyph-name="gcircumflex.ss01" horiz-adv-x="582" 
d="M478 520h24v-538c0 -45 2 -117 -53 -166c-41 -37 -117 -47 -175 -47c-43 0 -125 6 -194 33l30 111h53l20 -73c30 -11 58 -15 93 -15c26 0 69 5 100 34c28 32 32 84 32 122v83c-48 -69 -117 -76 -153 -76c-51 0 -101 9 -142 52c-51 51 -65 125 -65 220c0 91 14 169 67 220
c46 45 104 52 150 52c52 0 111 -10 164 -53zM408 144v285c-18 14 -67 47 -128 47c-28 0 -65 -6 -93 -41s-40 -95 -40 -183c0 -26 0 -117 37 -167c23 -32 52 -41 82 -41c68 0 118 52 142 100zM247 746h76l113 -143h-54l-97 80l-97 -80h-54z" />
    <glyph glyph-name="gdotaccent.ss01" horiz-adv-x="582" 
d="M478 520h24v-538c0 -45 2 -117 -53 -166c-41 -37 -117 -47 -175 -47c-43 0 -125 6 -194 33l30 111h53l20 -73c30 -11 58 -15 93 -15c26 0 69 5 100 34c28 32 32 84 32 122v83c-48 -69 -117 -76 -153 -76c-51 0 -101 9 -142 52c-51 51 -65 125 -65 220c0 91 14 169 67 220
c46 45 104 52 150 52c52 0 111 -10 164 -53zM408 144v285c-18 14 -67 47 -128 47c-28 0 -65 -6 -93 -41s-40 -95 -40 -183c0 -26 0 -117 37 -167c23 -32 52 -41 82 -41c68 0 118 52 142 100zM227 694c0 32 26 57 58 57c33 0 59 -25 59 -57c0 -31 -26 -56 -59 -56
c-32 0 -58 25 -58 56z" />
    <glyph glyph-name="y.ss01" horiz-adv-x="602" 
d="M190 532v-345c0 -77 10 -99 15 -108c9 -18 30 -35 67 -35c59 0 120 39 157 101v322l-72 20v33l166 12v-550c0 -45 2 -117 -53 -166c-41 -37 -118 -47 -176 -47c-42 0 -124 6 -194 33l30 111h53l20 -73c30 -11 59 -15 93 -15c26 0 70 4 100 34c30 31 33 84 33 122v84
c-52 -65 -123 -77 -169 -77c-68 0 -105 23 -124 43c-39 41 -40 101 -40 154v282l-72 20v33z" />
    <glyph glyph-name="ydieresis.ss01" horiz-adv-x="602" 
d="M190 532v-345c0 -77 10 -99 15 -108c9 -18 30 -35 67 -35c59 0 120 39 157 101v322l-72 20v33l166 12v-550c0 -45 2 -117 -53 -166c-41 -37 -118 -47 -176 -47c-42 0 -124 6 -194 33l30 111h53l20 -73c30 -11 59 -15 93 -15c26 0 70 4 100 34c30 31 33 84 33 122v84
c-52 -65 -123 -77 -169 -77c-68 0 -105 23 -124 43c-39 41 -40 101 -40 154v282l-72 20v33zM131 694c0 32 26 57 58 57c33 0 59 -25 59 -57c0 -31 -26 -56 -59 -56c-32 0 -58 25 -58 56zM321 694c0 32 26 57 58 57c33 0 59 -25 59 -57c0 -31 -26 -56 -59 -56
c-32 0 -58 25 -58 56z" />
    <glyph glyph-name="yacute.ss01" horiz-adv-x="602" 
d="M190 532v-345c0 -77 10 -99 15 -108c9 -18 30 -35 67 -35c59 0 120 39 157 101v322l-72 20v33l166 12v-550c0 -45 2 -117 -53 -166c-41 -37 -118 -47 -176 -47c-42 0 -124 6 -194 33l30 111h53l20 -73c30 -11 59 -15 93 -15c26 0 70 4 100 34c30 31 33 84 33 122v84
c-52 -65 -123 -77 -169 -77c-68 0 -105 23 -124 43c-39 41 -40 101 -40 154v282l-72 20v33zM330 750h104l-130 -163h-52z" />
    <glyph glyph-name="afii10085.ss01" horiz-adv-x="602" 
d="M190 532v-345c0 -77 10 -99 15 -108c9 -18 30 -35 67 -35c59 0 120 39 157 101v322l-72 20v33l166 12v-550c0 -45 2 -117 -53 -166c-41 -37 -118 -47 -176 -47c-42 0 -124 6 -194 33l30 111h53l20 -73c30 -11 59 -15 93 -15c26 0 70 4 100 34c30 31 33 84 33 122v84
c-52 -65 -123 -77 -169 -77c-68 0 -105 23 -124 43c-39 41 -40 101 -40 154v282l-72 20v33z" />
    <glyph glyph-name="afii10110.ss01" horiz-adv-x="602" 
d="M190 532v-345c0 -77 10 -99 15 -108c9 -18 30 -35 67 -35c59 0 120 39 157 101v322l-72 20v33l166 12v-550c0 -45 2 -117 -53 -166c-41 -37 -118 -47 -176 -47c-42 0 -124 6 -194 33l30 111h53l20 -73c30 -11 59 -15 93 -15c26 0 70 4 100 34c30 31 33 84 33 122v84
c-52 -65 -123 -77 -169 -77c-68 0 -105 23 -124 43c-39 41 -40 101 -40 154v282l-72 20v33zM301 636c13 0 36 1 48 15c9 11 13 33 11 49h90v-50c-10 -21 -24 -33 -47 -43c-31 -13 -66 -18 -103 -18c-40 0 -69 3 -103 18c-23 10 -37 21 -47 43v50h90c-2 -16 2 -38 11 -49
c12 -14 35 -15 50 -15z" />
    <glyph glyph-name="hyphenminus" horiz-adv-x="400" 
d="M60 341h279v-82h-279v82z" />
    </font>
</defs>
</svg>
